<svg xmlns="http://www.w3.org/2000/svg" width="489.775" height="701.822" viewBox="0 0 489.775 701.822"><g transform="translate(-749.152 -201.352)"><g transform="translate(817 211.912)"><path d="M751.421,111.284c5.827,1.471,11.771,2.849,17.7,4.226,1.613,1.189,1.707,3.7,2.06,6.733.647,5.485,1.13,10.723,1.6,16.562.412,5.167,1.33,10.617,1.718,16.444.094,1.554.059,4.285-.683,4.92-.612.506-.883.071-1.825.224-.4,1.66-.436,3.684-1.142,5.026a79.7,79.7,0,0,1-12.1,1.142c-1-1.012-1.248-2.79-1.942-4.108q-65.858,8.14-131.788,16.22c-.624,1.212-.565,3.1-1.26,4.226a33.4,33.4,0,0,1-5.25.906c-1.789.283-3.885,1.059-5.25.8-1.754-.318-1.872-2.907-2.966-4.108-3.425.989-3.59-1.93-4.226-4.908-.412-1.93-.577-3.837-.8-5.473-1.012-7.239-2.543-14.62-3.2-22.153-.153-1.789-.247-3.861-.459-5.827-.247-2.166-.577-4.238-.117-5.709.694-2.236,3.449-3.237,4.461-4.791-1.919-1.613-5-3.555-3.885-6.851s6.557-3.649,10.159-5.368c1.636-.777,2.99-1.978,4.673-2.284-.059-3.472-2.107-10.935,1.142-12.56,1.436-.718,5.014-.683,7.651-1.024,16.915-2.236,33.5-3.755,50.7-5.709,1.825-.212,3.543-.8,4.92-.118a9.861,9.861,0,0,1,.8.577c.212,0,.671-.612.8-.683a4.414,4.414,0,0,1,1.024-.459c2.354-.589,5.062-.671,7.663-1.036,16.95-2.378,36.961-4.861,53.781-6.968,2.331-.294,2.884,1.518,3.425,3.884a156.262,156.262,0,0,1,2.625,18.269Zm-3.767-15.644c-.2-1.365-.353-4.391-1.365-4.791-.153-.059-.306.094-.459.106-19.61,2.448-42.317,5.756-62.127,8.452-.742,1.271-.059,2.684.106,4,1.33,10.064,2.86,20.2,4.108,30.263,13.207-5.921,30.769-8.652,50.25-7.533.683-7.416,5.638-11.583,11.418-14.278-.494-4.956-1.154-11.041-1.942-16.22ZM682.1,103.068c-.153-1.342.023-3.049-1.377-3.661a3.313,3.313,0,0,0-1.825,0c-20.317,1.719-40.41,5-60.644,6.968-1.095,3.331.106,7.628.565,10.853,2.849.541,5.732,1.048,8.334,1.824-.141-1-.812-1.836-.565-3.2.53-2.978,3.578-2.119,6.274-1.942a23.847,23.847,0,0,0,7.31-.8c2.354-.577,4.8-.977,6.627-1.6a9.867,9.867,0,0,0,2.743-2.06c.435-.377,1.707-1.978,2.849-1.942.871.024,2.166,1.495,2.743,2.4,1.93,3.037,2.731,7.239,4.108,10.971,1.742,4.7,4.085,8.346,5.827,12.56a57.634,57.634,0,0,1,16.221-.224,27.832,27.832,0,0,0,4.791.565c-1.389-9.746-2.86-20.693-3.991-30.71Zm-29.816,6.05c-.624.789-1.672,1.189-2.06,2.06-.224.506-.247,1.307-.459,1.942-2.943,9.017-6.168,18.327-9.016,27.179a9.915,9.915,0,0,0,1.6-.577c3.425-10.158,6.945-20.234,10.158-30.6Zm-7.992,29.58c1.165-.318,2.86-1.107,4.226-1.6,1.672-5.038,3.425-11.241,5.144-16.668.553-1.742,1.742-4.085,1.707-5.591-.023-1.566-1.142-3.261-1.942-4.461C650.474,119.912,647.2,129.129,644.294,138.7Zm-.459-11.995c1.53-4.485,3.566-9.852,4.685-14.278a9.118,9.118,0,0,1-3.649,1.377c-1.754,5.109-3.637,11.241-5.485,16.668-.589,1.73-1.789,4.014-1.825,5.591-.035,1.424.695,4.084,1.483,4.685,1.707-4.438,3.143-9.181,4.791-14.055Zm106.774-13.478a1.2,1.2,0,0,0-.459.118c-5,2.319-9.417,6.086-10.052,12.9a31.813,31.813,0,0,0,4.791,2.178c1.271.553,3.92,1.318,4.791,2.284.777.859,1.248,3.1,1.483,5.144.377,3.119,1.13,6.8-.683,7.992-1.107.73-5.132,1-7.192,1.259-15.208,1.907-30.193,3.9-45.107,5.709-3.343.412-8.592,1.907-9.7-.906-1.7,3.414-5.862,3.249-10.394,3.884-13.76,1.9-28.062,3.437-41.916,5.144-2.378.294-5.061.989-7.086.8a5.374,5.374,0,0,1-3.767-2.4c-.2-.306-.435-.942-.577-.683.647,6.851,1.883,13.113,2.743,19.763,42.387-5.085,84.6-10.347,126.879-15.538-.541-6.627-2.013-13.348-2.625-20.893a98.015,98.015,0,0,1-.8-10.971c.094-3.9.2-7.639,2.166-9.7,2.142-2.272,5.8-2.719,9.593-3.543-3.99-.541-8.5-2.272-12.1-2.519Zm-107.351,1.036a9.1,9.1,0,0,1-1.836.459c-1.954,5.273-3.79,10.676-5.827,15.879a10.97,10.97,0,0,0,1.365,2.978c1.93-6.521,4.626-12.889,6.286-19.3Zm-7.31,1.483c-1.095,3.049-2.236,6.062-3.308,9.134.812,1.307,1.318,2.943,2.283,4.108,1.13-3.472,2.66-7.11,3.884-10.394a9.888,9.888,0,0,0,.918-3.425A22.524,22.524,0,0,1,635.948,115.745Zm-6.957-.235c-1.224,1.307.271,3.3.906,4.449a24.964,24.964,0,0,0,1.483-4.332,7.414,7.414,0,0,0-2.4-.118Zm3.649.341c-.553,1.989-1.354,3.755-1.942,5.709a6.842,6.842,0,0,0,1.142,1.825c.883-2.543,1.919-4.92,2.743-7.533a15.187,15.187,0,0,0-1.942,0ZM770.82,137.887c-.447-5.144-.859-10.629-1.26-15.879-.118-1.636-.024-3.531-1.024-4.791-4.767-.365-12.7,1.083-14.62,4.108-1.342,2.131-1.13,7.051-.918,10.617.589,9.77,2.237,20.576,3.308,28.662,5.3-.683,10.877-1.083,16.1-1.836.447-6.933-.977-13.866-1.6-20.893Zm-120.029-3.661a4.624,4.624,0,0,0-.459,2.284c.282-.212.777-.2,1.142-.341,1.142-4,2.66-8.7,3.884-12.783.636-2.119,1.8-4.544.577-6.286-1.66,5.732-3.461,11.594-5.144,17.127ZM615.62,119.277c-.106,5.215-.212,9.676-.341,14.726.836.188,1.53.518,2.4.683.212-5.909.883-10.429,1.142-15.879a2.953,2.953,0,0,0-3.2.459Zm4.449-.235c-.424,5.415-.906,10.311-1.142,16.1a3.915,3.915,0,0,0,1.366.8c.33-5.78.683-10.782,1.142-16.668-.577.035-.8-.271-1.377-.235Zm2.625.577c-.6,5.109-.812,11.653-1.142,17.139.777.377,1.836,1.648,2.4,1.483.424-6.121.8-12.112,1.365-17.821A10.707,10.707,0,0,0,622.694,119.618Zm-9.37.918c.353,4.049-.483,8.393,0,11.759.071.4-.247,1.318.577,1.26.424-4.367.224-8.852.565-13.478h-.224C613.878,120.171,613.76,120.5,613.324,120.536Zm13.137.224c-.494,5.98-.906,12.053-1.26,18.61.459.235.73.647,1.377.683.353-6.074.93-12.524,1.365-18.845a5.349,5.349,0,0,0-1.483-.459Zm26.5,15.079c1.177-.012,2.131-.235,3.319-.224.412-1.507.871-3.166,1.365-4.908.471-1.66,1.483-3.578,1.377-5.026-.118-1.613-1.46-2.849-1.824-4.461-1.365,4.908-2.849,9.711-4.226,14.62Zm-43.847-13.36c0,3.378.153,5.944.342,9.134a7.882,7.882,0,0,0,2.625,1.26c-.2-3.731.153-8.122,0-11.536h-.224C610.982,121.76,609.993,122.055,609.11,122.478Zm18.728,18.386a10.161,10.161,0,0,0,2.284.906c.106-3.343.588-7.957.8-11.536a22.411,22.411,0,0,0,.224-3.99c-.236-1.424-1.707-2.366-2.06-3.543-.53,6.392-.918,12.36-1.259,18.163Zm-21.011-17.586c-.024,2.413.188,4.6.341,6.851a9.886,9.886,0,0,0,.906.577c-.012-2.566-.2-5.45-.106-7.769A3.7,3.7,0,0,0,606.827,123.279Zm-1.26.8c-2.778.177-1.93,4.273.224,4.908C605.756,127.316,605.744,125.609,605.567,124.079Zm52.075,11.536a5.641,5.641,0,0,0,1.719-.118c.624-1.93,1.4-3.708,1.942-5.709-.506-.73-.753-1.754-1.483-2.284-.659,2.766-1.589,5.273-2.166,8.11Zm86.34-5.827a24.664,24.664,0,0,0-3.425-1.6c-2.272-.577-5.2-.33-7.887-.341-2.719,0-5.52-.106-7.992,0-13.278.589-27.05,3.225-36.537,7.427a20.2,20.2,0,0,0,.459,3.084c19.493-2.389,39.1-4.673,58.7-6.968-1.048-.553-2.189-1.083-3.307-1.6Zm-112.5,12.336h1.259c.071-1.73.153-3.814.236-5.933.118-3.225.777-6.368-.8-7.875-.177,5.05-.694,9.158-.683,13.819Zm29.239-6.733c.8-.106,1.719-.106,2.166-.565a4.271,4.271,0,0,0-.8-3.425c-.506,1.295-.953,2.625-1.365,4Zm-53.452-2.849c-.624.789-1.565,1.259-2.166,2.06a37.1,37.1,0,0,1,4.332-.565,14.068,14.068,0,0,0-2.166-1.483Zm26.72,9.476a3.533,3.533,0,0,0,2.625-1.26c-.73-2.7-1.012-5.838-2.284-7.992C634.218,135.65,634.124,139.146,633.994,142.018Zm54.817-1.836c.565,3.343.177,7.745,2.4,9.476,16.468-1.754,34.183-4.379,51.157-6.156,1.989-.212,6.156-.082,7.086-1.142.765-.883.341-3.178.224-4.685a45.837,45.837,0,0,0-.565-4.791c-.118,0-.141-.094-.235-.118C729.257,135.638,708.811,137.7,688.812,140.182Zm-23.989-4.908c-1.224,2.437-4.979,2.142-8.216,2.284a28.6,28.6,0,0,0-11.759,3.084c-2.26,1.095-4.614,2.389-7.086,1.825-2.166,1.966-7.263,1.9-10.053.577-.294,1.189-.883,2.1-1.141,3.319,19.975-2.672,39.9-5.4,60.067-7.887-.2-.942-.247-2.036-.459-2.966-6.639-1.354-14.278-1.059-21.352-.224Zm-42.14,20.776c-.847-6.721-.954-15.208-5.026-18.61-3.225-2.7-10.712-2.025-14.843-.683.259,7.157,1.542,14.337,2.507,21.353.989,7.121,1.789,14.172,3.543,20.67,5.5-.753,11.065-1.424,16.68-2.06-.706-6.309-1.9-13.078-2.849-20.67Zm1.365-5.132c.047-3.614,1.5-5.815,2.284-8.675-1.942-.871-3.378-2.248-5.144-3.308,1.789,3.166,2.166,7.734,2.86,11.995Zm63.045-9.252c-.118-.836-.141-1.483-.683-1.6-.377-.082-.459.071-.683.106-9.334,1.707-19.622,2.719-29.922,4.12-10.229,1.389-20.505,2.754-30.028,4.108-.082,2.625-.33,6.333,1.024,8.11,1.613,2.119,5.674.965,8.793.577,15.773-1.978,33.641-4.037,48.767-5.591a5.935,5.935,0,0,0,3.425-4c-.235-1.048-.459-4.2-.683-5.827Zm71.261,20.552c.2,1.165.871,1.872,1.142,2.966,3.5-.306,6.733-.883,10.17-1.26.165-.989.859-2.625.565-3.308C766.241,161.122,762.392,161.758,758.354,162.217ZM611.83,180.262a9.213,9.213,0,0,0,1.719,2.625c2.943-.459,6.015-.753,9.028-1.142.2-.977.53-1.836.683-2.849-3.884.377-7.639.883-11.418,1.365Z" transform="translate(-601.265 -89.123)" fill="#3c7786" fill-rule="evenodd"></path><path d="M728.424,112.935c0,.165-.024.33.106.341-.33.73-.753,1.483-1.142,2.284-.33.659-.612,1.836-1.707,1.707a.575.575,0,0,0-.341-.341,11.031,11.031,0,0,1,2.4-4.226,2.325,2.325,0,0,1,.683.224Z" transform="translate(-579.291 -84.948)" fill="#3c7786" fill-rule="evenodd"></path><path d="M730.7,113c.377.671-.33,1.307-.683,1.824a12.02,12.02,0,0,0-.918,1.719c-.53,1.095-.906,2.872-2.284,3.084-.553-1.059.541-2.684,1.142-3.884C728.531,114.593,729.273,112.722,730.7,113Z" transform="translate(-579.057 -84.899)" fill="#3c7786" fill-rule="evenodd"></path><path d="M726.281,113.312c-.377,1.224-.683,2.519-1.942,2.86-.106-.153-.306-.224-.459-.341C724.257,114.7,724.94,112.382,726.281,113.312Z" transform="translate(-579.55 -84.878)" fill="#3c7786" fill-rule="evenodd"></path></g><g transform="matrix(0.974, 0.225, -0.225, 0.974, 1185.398, 391.002)"><path d="M50.144,2.812c.942,5.732,1.519,11.677,2.166,17.7.624,5.909,1.518,11.912,1.707,17.821-1.036,1.589-3.32,1.695-5.25,2.06A121.338,121.338,0,0,1,28.9,42.339c.73,38.256.706,77.253,1.26,115.685,4.861.777,12.677,1.295,14.16,5.591.424,1.248.129,3.378.224,5.026-4.591,5.179-17.092,6.733-26.038,4.108-1.789-.53-6.556-1.836-7.427-3.425a9.988,9.988,0,0,1-.341-5.132c.542-2.272,3.331-3.625,5.827-4.461a32.067,32.067,0,0,1,8.793-1.483c0-38.209-.589-77.83-.459-115.8-4.508-.094-9.158-.177-13.478-.683C7.2,41.268,2.849,41.115,0,39.019.435,28.378,1.471,17.655,2.519,6.932c.141-1.518.106-3.7.577-4.344.753-1.048,4.037-1.177,6.05-1.365,13.313-1.248,29.981-2.542,41,1.6Zm-23.53-.8c-7.875.365-16.008.283-22.377,1.942C3.508,15.289,2.7,26.554,1.73,37.642c17.056,0,33.63-.389,50.592-.224C51.133,26.272,49.9,15.172,49.014,3.73c-6.368-1.789-14.4-2.083-22.388-1.719Zm2.178,37.22c-.082.541.129.789.106,1.259,6.321-.306,12.736-.506,18.386-1.483C41.069,39.031,35.125,39.325,28.792,39.231Zm-22.271.341c5.05.506,10.7.918,16.338.918.647,0,1.671.294,2.166-.341v-.683C19.681,39.255,12.195,39.231,6.521,39.573Zm19.87,0c.377,30.4.683,62.009.683,93.191,0,9.193-.059,19.716.235,29.133.023.706-.212,1.565.565,1.483.741-.082.459-1.212.459-1.483.141-4.591-.118-9.841-.118-13.713,0-35.4-.789-70.543-.8-105.75,0-.8.506-3.884-.906-3.2-.129.023-.118.188-.106.341ZM16,161.767c-1.06.483-3.555,1.813-3.531,3.084.035,1.86,4.19,3.178,6.274,3.778a32.726,32.726,0,0,0,17.821-.118c1.66-.541,6.25-1.989,6.168-3.99-.036-.789-1.154-1.53-2.178-2.166-2.813-1.754-6.768-2.437-10.276-2.86-.329,1.224.118,3.225-.224,4.461-.624,1.024-3.178,1.354-4.108.565-1.071-.895-.153-2.778-.459-4.45-3.367.283-6.827.518-9.476,1.707Zm-2.272,6.862c-.553-.306-1.036-.859-1.377-.683.035,1.189,1.554,1.542,2.519,1.942,7.91,3.249,22.906,3.249,28.2-2.284-.024-.094,0-.224-.118-.224-6.2,5.45-21.8,5.344-29.227,1.26Z" fill="#3c7786" fill-rule="evenodd"></path><path d="M4.586.808c-.777.647-3.92.777-4.567.106C-.346-.334,4.621-.24,4.586.808Z" transform="translate(5.348 4.865)" fill="#3c7786" fill-rule="evenodd"></path><path d="M2.744.479C2.932,1.691.284,1.48,0,.82-.069-.451,2.25.02,2.744.479Z" transform="translate(5.825 7.018)" fill="#3c7786" fill-rule="evenodd"></path><path d="M.014.982C-.045.605.1.452.132.181c.93-.118,2.519-.518,2.4.459C2.439,1.347.862,1.405.014.982Z" transform="translate(5.93 9.481)" fill="#3c7786" fill-rule="evenodd"></path><path d="M2.637.87c-.318.577-1.86.365-2.519.235C.13.94.142.776,0,.764-.035-.19,2.849-.354,2.625.87Z" transform="translate(5.591 11.418)" fill="#3c7786" fill-rule="evenodd"></path><path d="M0,.7A.667.667,0,0,0,.118.246c.789-.424,2-.318,1.942.459S.4,1.446,0,.7Z" transform="translate(5.944 13.643)" fill="#3c7786" fill-rule="evenodd"></path><path d="M2.283.215c-.023.129.024.2.118.224C2.636,1.64.094,1.451,0,.663.118-.338,1.507.05,2.283.2Z" transform="translate(5.827 15.851)" fill="#3c7786" fill-rule="evenodd"></path><path d="M2.329.4c.177,1.095-1.46.836-2.166.683C-.673-.237,1.952-.2,2.329.4Z" transform="translate(6.122 18.174)" fill="#3c7786" fill-rule="evenodd"></path><path d="M2.37.263V.945a4.12,4.12,0,0,1-2.178.224C-.667.039,1.581-.291,2.37.263Z" transform="translate(6.199 20.135)" fill="#3c7786" fill-rule="evenodd"></path><path d="M2.978.273C3.19,1.591.33,1.485,0,.838.059-.2,2.225-.128,2.978.273Z" transform="translate(5.933 22.527)" fill="#3c7786" fill-rule="evenodd"></path><path d="M4.073.568c-.177,1.283-2.943.553-4,.565C-.588-.433,3.567-.127,4.073.568Z" transform="translate(5.862 24.633)" fill="#3c7786" fill-rule="evenodd"></path><path d="M5.25.581c.071.506-.577.588-1.142.683C2.79,1.476-.035,1.582,0,.463,1,.075,4.626-.4,5.25.569Z" transform="translate(5.485 27.126)" fill="#3c7786" fill-rule="evenodd"></path><path d="M5.558.735c-.989.883-3.955.377-5.473.341C-.445-.313,1.615.04,3.4.04,4.487.04,5.758-.054,5.57.723Z" transform="translate(5.977 29.598)" fill="#3c7786" fill-rule="evenodd"></path><path d="M6.392.373c.141,1.024-1,.742-1.824.8C3.085,1.28.059,1.774,0,.832-.07-.25,5.568-.133,6.392.373Z" transform="translate(5.485 32.125)" fill="#3c7786" fill-rule="evenodd"></path><path d="M.012.982C.165-.289,2.025.076,3.661.076c1.107,0,4.084-.412,3.884.683-.177.918-4.685.4-5.72.459C1.048,1.265.353,1.7,0,.994Z" transform="translate(4.567 34.953)" fill="#3c7786" fill-rule="evenodd"></path><path d="M.112,1.4c0-.2-.141-.33-.106-.577C.076.235,3.643-.636,3.431.717c-.141.836-2.472,1-3.319.683Z" transform="translate(32.894 161.98)" fill="#3c7786" fill-rule="evenodd"></path><path d="M5.369.256C5.463,1.386,3.851,1.4,2.862,1.622s-2.354.847-2.849,0C-.14.821,1.073.657,1.956.48,3.2.245,4.463-.332,5.381.256Z" transform="translate(32.781 163.241)" fill="#3c7786" fill-rule="evenodd"></path><path d="M9.508.362c.059,1.095-1.118,1.307-1.824,1.6A29.725,29.725,0,0,1,2.422,3.447c-.789.177-2.178.812-2.4,0C-.286,2.328,2.951,2.034,4.14,1.74A19.467,19.467,0,0,0,8.707.033c.247-.129.718.153.8.341Z" transform="translate(30.926 164.277)" fill="#3c7786" fill-rule="evenodd"></path></g><g transform="translate(1135.969 651.741) rotate(-9)"><path d="M36.55,2.259c2.425,7.945,4.3,16.421,6.392,24.778.671,2.672,1.966,5.426,1.377,8.216A100.1,100.1,0,0,1,24.109,37.09c.282.659,1.13.483,1.365,1.26a8.979,8.979,0,0,1,0,2.519c.247,4.155,2,6.568,5.25,8.11.742.353,3.437,1.095,3.767,1.6.836,1.283-.177,5.179-.459,6.851a105.431,105.431,0,0,1-3.084,12.336,27.759,27.759,0,0,1-.906,2.978,27.754,27.754,0,0,0-1.26,2.507c-.247.812-.141,2.025-.683,2.519-.8.73-4.32.565-6.286.459-3.072-.165-6.651.035-6.392-3.084A42.652,42.652,0,0,1,9.83,57.783c-.188-1.93-.906-5.4-.118-6.968.4-.777,1.636-.989,2.519-1.365,3.366-1.471,5.791-3.92,6.05-8.569a10.579,10.579,0,0,1,0-2.284c.247-.836,1.507-1.024,1.483-2.178-4.72-.471-10.547-.365-15.42-.8C2.756,35.477,1.061,35.559,0,34.594c-.047-2.966.906-5.768,1.6-8.569C3.3,19.162,5.11,12.535,6.97,5.473c.353-1.342.553-3.437,1.142-4C8.995.635,14.244.223,16.1.105c6.733-.436,15.3.518,20.446,2.166Zm-27.4.906c-2.272,9.958-4.6,19.846-7.086,29.58a131.52,131.52,0,0,1,40.433.8Q38.787,18.539,35.3,3.283c-7.733-1.342-18.527-1.9-26.155-.118ZM9.83,34.123c3.437-.012,6.827.624,10.041.459V33.558a69.485,69.485,0,0,0-10.041.577Zm11.536,1.942h.906a11.346,11.346,0,0,0,.118-2.507H21.366Zm2.625-1.024a66.266,66.266,0,0,0,13.019-.577c-4.391-.283-8.675-.683-13.136-.906A11.485,11.485,0,0,1,23.991,35.042ZM20,39.15c-.129.024-.129.177-.118.341.271,4.873-1.248,7.934-3.767,9.935-.506.4-1.542.777-1.365,1.142,2.943-.094,4.885.259,8.11.106,1.012-.047,4.555-.671,4.461.683-.07.906-2.213.859-3.425.906-4.438.212-8.781.118-12.783.341.306,8.793,2.9,15.3,5.932,21.353,3.343.106,7.063.647,10.158,0,1.695-3.2,2.378-6.839,3.543-10.394a52.018,52.018,0,0,0,2.4-11.536c-5.827-1.566-9.77-4.991-9.252-12.9H20.012ZM17.14,75.581c-.083.024-.129.094-.106.224v.224a49.3,49.3,0,0,0,7.887.459c.765-.047,1.719-.024,2.166-.565-3.378.377-6.721-.188-9.935-.341Z" fill="#3c7786" fill-rule="evenodd"></path><path d="M.106,1.463C.13,1.334.083,1.263,0,1.239-.023-.256,3.637-.385,3.426.78c-.165.871-2.331.742-3.308.683Z" transform="translate(7.441 23.185)" fill="#3c7786" fill-rule="evenodd"></path><path d="M6.4.234C6.505,1.623,4.622,1.4,3.315,1.6c-.93.141-3.473.777-3.308-.459C.114.328,3.692.2,4.575.116,5.093.069,6.034-.178,6.4.234Z" transform="translate(6.056 25.332)" fill="#3c7786" fill-rule="evenodd"></path><path d="M0,1.684C.647,1.048,1.789,1.119,2.743,1,5.474.648,8.958.259,11.759.095c.483-.035,1.754-.365,1.824.459.082.953-2.189.812-3.308.906-2.613.224-4.791.565-7.31.918C1.883,2.531.129,3.1,0,1.7Z" transform="translate(4.345 27.413)" fill="#3c7786" fill-rule="evenodd"></path><path d="M9.608.528c-.188.977-2.178.859-3.2.906C5.323,1.482.168,1.882.015.87-.15-.166,1.121.164,1.839.187,3.287.234,6.383.1,7.889.081,8.49.069,9.5-.272,9.6.54Z" transform="translate(13.006 54.041)" fill="#3c7786" fill-rule="evenodd"></path><path d="M0,.775C.153-.5,2.025.174,3.649.2c.906.024,1.872-.247,1.719.683C5.191,1.9.518,1.61,0,.763Z" transform="translate(13.938 56.42)" fill="#3c7786" fill-rule="evenodd"></path><path d="M.046,1.17C-.507-.49,4.1-.136,4.154.711,4.248,1.865.917,1.441.046,1.17Z" transform="translate(14.693 58.308)" fill="#3c7786" fill-rule="evenodd"></path><path d="M0,.937C.153-.382,3.861-.241,3.649.937,3.473,1.914.494,1.607,0,.937Z" transform="translate(15.422 59.919)" fill="#3c7786" fill-rule="evenodd"></path><path d="M3.1.782C2.973,2.006.631,1.37.019,1.017-.264-.631,2.761.052,3.1.782Z" transform="translate(15.968 61.78)" fill="#3c7786" fill-rule="evenodd"></path><path d="M.007,1.033C-.158-.545,2.679-.027,2.75.691,2.844,1.7.6,1.551.007,1.033Z" transform="translate(16.439 63.248)" fill="#3c7786" fill-rule="evenodd"></path><path d="M2.55.507v.577C2.079,1.461.361,1.472.031.978-.31-.364,2.279-.129,2.55.519Z" transform="translate(16.756 65.021)" fill="#3c7786" fill-rule="evenodd"></path><path d="M2.3.332c.071.377-.082.53-.106.8a2.07,2.07,0,0,1-2.06-.106C-.579-.41,1.693-.033,2.3.343Z" transform="translate(17.119 66.574)" fill="#3c7786" fill-rule="evenodd"></path></g><g transform="translate(1062.408 201.352) rotate(16)"><path d="M7.667.843c-1.189.718-2.907.671-5.014.577C2.076,1.4.157,1.361.027.737-.231-.416,1.4.113,2.193.172c1.8.106,5.179-.541,5.473.683Z" transform="translate(20.56 67.1)" fill="#3c7786" fill-rule="evenodd"></path><path d="M.238.1C1.71.087,3.381.146,4.923.1,5.512.087,6.312-.266,6.642.44,6.689,1.711.851,1.605.015.9-.056.487.144.346.25.1Z" transform="translate(21.82 71.27)" fill="#3c7786" fill-rule="evenodd"></path><path d="M5.144.369C5.1,1.711.824,1.522,0,.828,0,.474.106.251.341.145,1.624.216,3.673-.349,5.132.369Z" transform="translate(22.965 73.048)" fill="#3c7786" fill-rule="evenodd"></path><path d="M.012,1.1C-.212-.147,3.343-.064,4.12.077c1.483.247.53,1.236-.459,1.365A9.312,9.312,0,0,1,0,1.1Z" transform="translate(23.53 74.717)" fill="#3c7786" fill-rule="evenodd"></path><path d="M4.344.334c0,.165-.024.318.118.341-.942,1.142-2.7.506-4.343.459C.142.993.095.934,0,.911-.047-.631,3.261.228,4.344.334Z" transform="translate(24.224 76.284)" fill="#3c7786" fill-rule="evenodd"></path><path d="M4.035.313C3.658,1.984,1.257,1.231.044,1-.438-.5,3.164.066,4.035.313Z" transform="translate(24.875 77.906)" fill="#3c7786" fill-rule="evenodd"></path><path d="M3.661.291C3.884,1.845.4,1.551,0,.75.141-.391,2.837.044,3.661.291Z" transform="translate(25.484 79.528)" fill="#3c7786" fill-rule="evenodd"></path><path d="M3.1.534C3.1,1.664.972,1.17.136,1.1.1.84-.052.676.018.3.619-.09,2.632-.184,3.1.534Z" transform="translate(26.266 80.992)" fill="#3c7786" fill-rule="evenodd"></path><path d="M3.209.532c-.33,1.283-1.9.6-3.084.577C.09.838-.051.685.02.309.632-.08,2.739-.2,3.221.532Z" transform="translate(26.501 82.478)" fill="#3c7786" fill-rule="evenodd"></path><path d="M.394.173c.647-.389.836,0,1.26,0,.859.023,1.566-.33,1.6.459C3.325,2.1-1.383,1.232.406.173Z" transform="translate(26.914 84.214)" fill="#3c7786" fill-rule="evenodd"></path><path d="M3.036.515c.118,1.271-2.284.812-2.978.577C-.46-.521,2.682-.014,3.036.515Z" transform="translate(27.71 86.261)" fill="#3c7786" fill-rule="evenodd"></path><path d="M3.224.823c-.353.73-2.507.553-3.2.236C-.307-.472,3.071-.154,3.224.823Z" transform="translate(28.087 88.014)" fill="#3c7786" fill-rule="evenodd"></path><path d="M2.981.31V.993C2.11,1.417.1,1.594,0,.652-.091-.337,2.063.016,2.981.31Z" transform="translate(28.565 89.786)" fill="#3c7786" fill-rule="evenodd"></path><path d="M2.743.459v.683A2.637,2.637,0,0,1,0,.8C0-.6,2.213.212,2.743.459Z" transform="translate(29.027 91.579)" fill="#3c7786" fill-rule="evenodd"></path><path d="M46.154,9.347c1.342-.989,2.519-2.59,4-3.885,1.354-1.189,2.813-2.9,5.014-2.742.129,1.848-1.365,3.237-2.284,4.567A118.854,118.854,0,0,0,44.553,20.2a81.358,81.358,0,0,0-7.192,21.129c2.3-6.074,4.885-12.371,8.675-17.244.577-.742,1.295-1.6,1.942-2.4.506-.612,1.165-2.013,2.284-1.483.8,1.46-.812,3.072-1.483,4.214a69.018,69.018,0,0,0-6.05,13.136c3.6-6.027,7.557-12.913,13.584-17.127.812-.553,1.813-1.542,2.978-.906.377,1.707-1.46,2.542-2.4,3.425-3.108,2.9-5.65,6.815-8.11,10.512A68,68,0,0,0,40.327,49.78a114.412,114.412,0,0,1,7.416-10.052c.812-.942,1.766-2.448,3.2-2.4.589,1.071-.553,1.919-1.036,2.625A111.318,111.318,0,0,0,39.974,58c4.732-.447,11.194-.153,11.771,4,.153,1.177-.024,3.543-1.377,3.661.424,7.063,1.154,13.313,1.483,20.328a14.918,14.918,0,0,1,.106,3.084c-.436,1.73-4.1,3.39-5.709,4.108A28.233,28.233,0,0,1,32.205,95.7c-2.06-.2-4.461-.859-5.368-1.942-.918-1.106-1.377-3.884-1.942-5.709-1.342-4.332-2.272-7.416-3.543-11.759a44.534,44.534,0,0,0-1.707-5.932c-.2-.424-.753-.753-1.036-1.26a6.469,6.469,0,0,1-.459-4.567,6.633,6.633,0,0,1,1.6-1.719c1.942-1.46,5.215-2.025,7.887-2.743-2.849-4.461-9.2-6.45-16.1-4.908-.777.177-1.7.388-2.507.565-.683.153-1.789.6-2.284-.224.129-.965,1.342-1.4,2.178-1.824a22.184,22.184,0,0,1,11.641-2.06,18.8,18.8,0,0,0-6.509-6.168A20.5,20.5,0,0,0,4.12,42.706c-1,.035-2.084.647-2.849,0,.071-1.86,2.778-1.683,4.226-1.719,4.956-.094,9.4,2.6,12.56,4.685A75.15,75.15,0,0,0,7.2,36.879c-1.259-.859-2.931-1.53-3.649-2.978,1.095-.93,2.366,0,3.308.459a42.321,42.321,0,0,1,8.452,5.6c-3.19-3.473-6.474-6.839-9.37-10.617a14.181,14.181,0,0,0-3.084-.577c-1.012-.094-2.166.247-2.86-.341,0-1.589,2.978-1.577,4.791-1.365a16.726,16.726,0,0,0-1.942-3.084c-.73-.953-2.072-1.66-2.284-2.966,1.978-.318,3.343,1.566,4.567,2.743,1.295,1.236,2.825,2.554,3.425,4.226,5.85,2.3,9.593,6.7,13.7,10.735-2.66-7.8-8.016-13.3-12.1-19.869-.647-1.036-1.248-2.3-1.942-3.425-.612-1-1.872-2.154-1.259-3.543.953-.177,1.495.777,1.942,1.377,6.886,9.228,15.09,17.915,18.386,30.84-.989-6.839-4.332-12.642-7.427-18.162-2.389-4.261-3.661-9.075-6.509-12.783-.459-.6-.883-1.248-1.365-1.836-.483-.565-1.236-1.083-1.259-1.942,1.177-1.636,2.731,1.083,3.661,2.284,5.591,7.31,11.347,15.667,14.5,24.9C27.85,27.133,24.66,18.976,21.353,11.2a37.65,37.65,0,0,0-1.825-3.649c-.577-1.06-1.683-2.3-1.365-3.661,1.036-.212,1.507.859,1.942,1.483a75.127,75.127,0,0,1,8.228,15.538,142.833,142.833,0,0,0-1.6-16.338C26.567,3.5,25.673-.069,27.191,0c1.118.047,1.518,5.1,1.707,6.274,1.118,6.851,2.825,13.242,3.425,20.446A129.561,129.561,0,0,0,35.748,9.477c.282-1.954.989-3.732,1.377-5.485.153-.753-.047-2.072.8-1.942.989.365.542,1.672.459,2.4-.694,5.744-1.954,12.5-1.707,18.61,3.884-6.6,7.5-13.536,12.1-19.528.612-.789,1.036-2.072,2.178-2.284.659,1.318-1.154,2.8-1.942,3.884-.953,1.307-1.825,2.754-2.625,3.99-.024.094-.106.106-.106.224h-.118ZM39.3,24.885a58.46,58.46,0,0,0-4.791,27.638,79.824,79.824,0,0,1,6.05-26.72c3.155-7.828,7.733-14.16,12.1-20.446C46.554,10.171,42.564,17.2,39.3,24.885ZM30.287,34.82c-.094.388.177.659.118.118-.612-7.451-3.19-13.8-5.709-19.187-.165-.353-.2-1.154-.459-.8A88.6,88.6,0,0,1,30.287,34.82Zm-.577-16.9c-.106-.553-.047-1.53-.341-1.26a17.393,17.393,0,0,1,.118,7.192c.683,2.06,1.154,4.332,1.719,6.509a73.863,73.863,0,0,0-1.483-12.442ZM18.174,19.058c.024.082,0,.224.106.224C22.129,28.84,28.415,35.961,29.7,48.062c-.577-12.489-6.25-20.846-11.536-29Zm15.879,6.733c-.553,2.366-1.377,4.873-1.142,6.957.353-2.319,2.178-4.756,2.519-6.851.33-2.013-.165-3.79-.118-5.932-.33,1.931-.8,3.861-1.26,5.827Zm3.543-.918c0-.118-.153-.082-.106.118-4.19,8.463-8.1,25.049-4,36.078.224.6.318,1.471.918,1.836-3.437-12.406-1.165-28.238,3.2-38.032Zm-30.946,2.4c.235-.129-.459-.906-.577-.683C6.392,26.7,6.25,27.239,6.651,27.274Zm17.7,13.937c.4.023.718,1.2.918.683A44.968,44.968,0,0,0,18.08,27.851C20.564,31.912,23.365,35.655,24.354,41.211Zm-4.567,1.142c-2.578-2.86-5.085-5.8-7.428-8.911,0-.271-.2-.33-.106-.695a38.945,38.945,0,0,0-3.99-2.625A120.383,120.383,0,0,0,19.8,42.341Zm23.872-11.3c.023-.2-.13-.282-.106,0C40,38.139,36.584,46.52,36.243,56.066A121.4,121.4,0,0,1,43.659,31.053Zm-19.41,14.62a41.429,41.429,0,0,0-8.558-9.935C18.528,39.069,21.47,42.294,24.248,45.672Zm6.05,7.533c.13-.341-.071-.777,0-1.365-1.483-2.248-3.013-5.05-4.685-6.733a39.35,39.35,0,0,1,4.685,8.11ZM40.01,54.23c-.212.553-.883,2.272-.683,2.06,1.13-2.578,2.743-5.521,3.99-7.993.129-.259.624-1,.341-.683a26.935,26.935,0,0,0-3.649,6.627ZM22.989,52.064c-.318-.177-.624-.965-.906-.8C22.4,51.44,22.541,52.405,22.989,52.064Zm6.627,7.992c-2.354-3.19-5.1-6.921-9.829-7.31a24.814,24.814,0,0,0-6.627.683c-.153,0-.435.023-.224.106a15.775,15.775,0,0,1,17.35,8.11c.318.612.565,1.766,1.365,1.824a10.508,10.508,0,0,0-2.06-3.425Zm-2.4-5.144c-.424-.412-.706-.965-1.142-1.377C26.073,54.289,26.932,54.818,27.214,54.912Zm4.226,5.25c-.012-1.248-1.024-1.483-1.6-2.166A17.455,17.455,0,0,0,31.44,60.162Zm7.992-.459a19.325,19.325,0,0,0-.459,2.625c3.108-.624,6.227-1.236,8.675-2.519-2.507-.753-5.685.023-8.216-.106Zm-2.86,4.909c-4.92.883-11.877,1.954-16.668,1.365a4.573,4.573,0,0,0,.8,2.625c5.827,1.507,11.936.023,17.7-1.036a57.335,57.335,0,0,0,6.286-1.483c1.73-.518,4.744-1.13,5.368-2.4a2.893,2.893,0,0,0-.565-2.966A47.314,47.314,0,0,1,36.584,64.6ZM28.58,61.528c-2.307,1-5.32,1.295-7.192,2.743a46.269,46.269,0,0,0,8.334-.577A5.772,5.772,0,0,0,28.58,61.528Zm-.224,30.946c3.578,2.213,10.041,1.4,14.5.118,1.872-.542,6.709-1.954,7.192-3.661a11.314,11.314,0,0,0-.106-2.743c-.459-6.768-.694-13.254-.906-19.87-7.969,2.825-17.28,5.7-27.638,4.449,2.3,7.263,4.673,14.431,6.968,21.706Z" fill="#3c7786" fill-rule="evenodd"></path></g><g transform="translate(1119.544 935.443) rotate(-19)"><path d="M592.151,516.462a35.348,35.348,0,0,1,9.472,2.049c2.553.937,4.93,1.592,4.671,5.117-.047.574-.577,1.51-.682,2.049-.471,2.213-.353,5.011-.577,7.611-1.33,15.971-2.753,32.317-4.106,48.615-.212,2.576.259,4.344-2.518,4.086-.388.855-1.93,1.323-2.165,0a2.733,2.733,0,0,1-1.706-.34c-.212-6.135.847-13.5,1.024-20.338-3.471.937-7.33,2.471-10.837,3.747-1.059,7.88-1.835,16.041-3.083,23.746-.247.41-.93.152-1.483.457-.577.3-.435.773-1.141.8a1.332,1.332,0,0,1-1.483-1.253c-1.871-.094-1.365-2.154-1.141-4.321.835-7.974,1.624-17.142,2.283-24.764-3.024-.82-6.142-1.546-9.366-2.154-.871,3.044-1.765,7.072-2.624,10.679a14.06,14.06,0,0,1-.918,3.407c-.506.8-1.647.738-2.283,1.253-.682-.492-1.424-.937-2.059-1.475.671-5.21,1.753-10,2.624-15-1.53-.41-2.977-1.229-4.565-1.253a19.65,19.65,0,0,0-4.212,1.019c-1.483.375-2.883.749-4.224,1.019-1.8,5.351-3.918,12.353-5.824,18.172a9.328,9.328,0,0,1-.906,2.506c-.33.433-1.565,1.534-2.506,1.358a3.227,3.227,0,0,1-1.483-1.815c-.153-.89.624-2.74.906-3.864,3.6-13.9,6.989-28,10.613-41.578,1.365-5.117,2.494-10.269,4.224-14.777a7.219,7.219,0,0,1-.8-3.185c-.341-6.1-.424-12.751-.918-19.2-.482-6.393-1.765-12.6-.918-18.055,1.447-1.335,4-.761,6.624-.913,1.8-.105,3.647-.3,5.142-.34,1.283-.023,4.695,0,5.589.913.753.773,1.341,3.583,1.706,5.117.459,1.92.647,4.145,1.035,5.8a35.842,35.842,0,0,0,9.813,17.271,20.206,20.206,0,0,0,3.765,3.068c2.059,1.253,4.506,1.909,5.024,4.766ZM554.935,482.05a76.311,76.311,0,0,0,2.4,19.085c1.612,5.843,5.271,10.058,8.789,13.641,7.848-2.225,16.308.422,23.744,1.358-.777-1.557-2.565-1.92-3.883-2.728a20.915,20.915,0,0,1-3.765-3.068,37.71,37.71,0,0,1-10.166-17.376c-.906-3.595-1.035-7.6-2.4-11.358-4.8-.609-9.978.222-14.719.457Zm2.283,31.345c.118,2.529-.412,5.96.8,7.271.93,1,3.2,1.159,4.8,1.358a39.162,39.162,0,0,0,5.706.34c-2.789-6.733-8.813-10.245-11.754-16.814.047,2.459.318,4.707.459,7.833Zm30.486,4.438c-6.777-1.03-13.766-3.056-20.085-1.358.282.855,1.353,1.909,1.824,2.951,5.554.644,10.966,1.792,16.32,2.728,5.648.984,10.789-.644,16.555-1.358-3.906-2.283-9.319-2.154-14.613-2.951Zm2.4,6.7c-6.954.023-13.225-3.009-19.861-3.407-.071,0-.129.023-.118.105a6.933,6.933,0,0,1,.577,1.827c3.895.784,7.942,1.885,11.754,2.611a24.656,24.656,0,0,0,4.106.8,32.367,32.367,0,0,0,4.224-.8c1.483-.234,3.083-.4,4.565-.574,3.094-.34,6.165-.152,8.9-1.019,0-.468.294-1.077,0-1.475-4.848.047-9.283,1.909-14.155,1.932Zm-33.11-2.037c-4.424,19.788-9.989,39.049-14.5,58.392a44.059,44.059,0,0,0,2.4-7.049c5.365-16.779,10.719-33.651,16.2-50.1a15.6,15.6,0,0,1-4.106-1.253Zm5.707,1.475c-3.553,11.791-7.283,23.43-10.954,35.1,2.4-.714,5.318-.913,7.413-1.932,1.941.117,3.836-.7,5.706-1.019,1.683-10.632,3.859-20.772,5.824-31.122-2.236-.773-5.342-.679-7.989-1.03Zm9.589,1.475c-1.659,10.2-3.542,20.174-5.365,30.221,2.177-.527,1.259,1.955-.341,1.71a11.093,11.093,0,0,0-.224,1.475c.494.187,1.082.281,1.6.457q3.759-16.808,7.989-33.171a33.824,33.824,0,0,0-3.659-.679Zm27.627,1.136c-.906,18.922-2.4,38.71-3.542,57.818a19.624,19.624,0,0,1,2.4.117c1.388-18.875,3.436-38.276,4.789-56.917.024-.386.341-1.3-.224-1.592C602.328,526.333,600.646,525.982,599.916,526.579ZM569.666,559.75c3.118.761,6.083,1.674,9.248,2.389.93-11.756,2.141-23.242,3.318-34.764-1.506-.363-3.071-.667-4.683-.913-2.777,10.936-4.883,22.551-7.883,33.288Zm15.755,3.864c.953.222,1.906.48,2.847.679a16.386,16.386,0,0,0,2.847.679c1.6,0,2.989-1.276,4.565-1.475.812-11.229,1.565-24.507,2.506-34.986.047-.55.435-1.546-.224-1.932-2.859.328-5.542.843-8.342,1.253m-5.93.222c-1.424,21.5-3.812,42.023-5.483,63.275.576.07.988.3,1.6.34,2.942-20.971,5.224-42.585,8.213-63.5-1.412.293-2.753-.328-4.106-.457a.306.306,0,0,0-.224.34Zm-20.2,30.1a3.013,3.013,0,0,1,.918.222.732.732,0,0,1,.106-.457,1.663,1.663,0,0,0-1.024.234Zm2.518,2.611a.587.587,0,0,1-.118.34c-.6,3.4-1.235,7.084-1.824,10.456-.2,1.124-.659,2.225-.341,3.29a39.792,39.792,0,0,0,1.941-6.815c.577-2.342,1.247-4.672,1.824-6.932a6.877,6.877,0,0,0-1.483-.34Zm19.061,6.135c.977-.351,2.071-.585,2.965-1.019a16.068,16.068,0,0,0-2.847-.679,11.211,11.211,0,0,0-.106,1.709Z" transform="translate(-778.992 -924.018)" fill="#3c7786" fill-rule="evenodd"></path><path d="M560.315,488.213c-.457-1.1.726-2.272,1.37-3.185.773-1.1,1.651-2.143,2.389-3.068,1.873.258-.422,2.74-1.136,3.747-.855,1.206-1.464,2.494-2.611,2.506Z" transform="translate(-775.469 -923.6)" fill="#3c7786" fill-rule="evenodd"></path><path d="M565.377,484.532c-.141,1.253-1.159,2.295-2.049,3.641-.609.925-1.487,3.36-2.728,3.068-.363-1.124.773-2.471,1.475-3.524.855-1.265,1.7-2.576,2.494-3.524.5-.105.527.246.8.34Z" transform="translate(-775.412 -923.222)" fill="#3c7786" fill-rule="evenodd"></path><path d="M565.127,487.525c.07,1.183-.89,2.049-1.475,2.951-.48.738-.984,2.482-2.271,1.709.562-2.014,1.979-3.173,2.845-4.883a.993.993,0,0,1,.9.222Z" transform="translate(-775.264 -922.69)" fill="#3c7786" fill-rule="evenodd"></path><path d="M565.375,490.349c-.5,1.347-1.03,2.681-2.389,3.185a2.408,2.408,0,0,1-.457-.457c.644-1.042,1.475-3.864,2.834-2.728Z" transform="translate(-775.063 -922.212)" fill="#3c7786" fill-rule="evenodd"></path><path d="M565.257,492.547a2.08,2.08,0,0,1-1.7,2.506c-.035-.234-.3-.222-.34-.457.445-.866.761-2.389,2.049-2.049Z" transform="translate(-774.942 -921.8)" fill="#3c7786" fill-rule="evenodd"></path><path d="M565.834,494.4c-.047,1.206-.539,1.967-1.71,2.049C563.3,495.678,564.815,493.688,565.834,494.4Z" transform="translate(-774.824 -921.5)" fill="#3c7786" fill-rule="evenodd"></path></g><g transform="matrix(0.966, 0.259, -0.259, 0.966, 1157.79, 734)"><path d="M5.371.241A10.276,10.276,0,0,1,3.087,3.89c-.4.506-.93,1.036-1.366,1.6C1.333,5.986.909,6.986,0,6.527-.068,5.1,1.18,4.079,1.945,3.1,2.769,2.042,3.676,1.03,4.453.017a1.034,1.034,0,0,1,.918.224Z" transform="translate(33.999 3.54)" fill="#3c7786" fill-rule="evenodd"></path><path d="M7.258.478A66.3,66.3,0,0,1,2.348,7.212c-.506.647-1.2,1.836-2.284,1.366-.342-1,.753-1.542,1.26-2.166C2.949,4.4,4.574,2.079,6.233.019,6.81-.063,7.1.125,7.258.478Z" transform="translate(34.055 4.444)" fill="#3c7786" fill-rule="evenodd"></path><path d="M5.827.126c.13,1.589-1.436,2.919-2.4,4.108-.436.542-1,1.318-1.483,1.942C1.519,6.73.907,7.813,0,7.095.247,5.729,1.413,4.646,2.284,3.552,3.167,2.433,4.144,1.374,4.909.244c.024-.129.224-.082.224-.224.353-.082.424.118.683.106Z" transform="translate(35.708 7.304)" fill="#3c7786" fill-rule="evenodd"></path><path d="M4.12.479A9.386,9.386,0,0,1,2.4,3.1C1.836,3.752.73,4.929,0,3.787,1,2.469,2.19,1.339,3.2.02A.76.76,0,0,1,4.12.479Z" transform="translate(37.309 11.177)" fill="#3c7786" fill-rule="evenodd"></path><path d="M4.385.452A9.121,9.121,0,0,1,2.561,3.313c-.6.8-1.13,2.166-2.4,2.284C-.417,4.655.713,3.537,1.3,2.748A30.926,30.926,0,0,1,3.585.005c.471-.047.6.247.8.459Z" transform="translate(43.201 43.071)" fill="#3c7786" fill-rule="evenodd"></path><path d="M4.909,0c.459,1.389-1.024,2.766-1.825,3.885C2.343,4.921,1.577,6.957,0,6.628,0,5.215,1.389,4.214,2.166,3.084,2.908,2.025,3.426.259,4.909,0Z" transform="translate(43.372 44.665)" fill="#3c7786" fill-rule="evenodd"></path><path d="M5.065.112c.024,1.366-1.189,2.813-1.942,4C2.346,5.327,1.534,6.787.274,7.423-.621,6.328.9,4.856,1.64,3.773,2.546,2.455,3.5,1.172,4.265.006c.306,0,.647-.047.8.118Z" transform="translate(44.358 46.378)" fill="#3c7786" fill-rule="evenodd"></path><path d="M3.991.487A14.335,14.335,0,0,1,2.507,3.112C2.013,3.842,1.5,5.02.341,5.055A2.219,2.219,0,0,0,0,4.6C.8,2.889,2.048,1.617,2.967.028A.843.843,0,0,1,3.991.487Z" transform="translate(46.233 48.969)" fill="#3c7786" fill-rule="evenodd"></path><path d="M3.038.341A4.629,4.629,0,0,1,1.9,2.743c-.388.577-.824,1.66-1.825,1.6C-.388,2.566,1.5,1.224,2.355,0a2.318,2.318,0,0,1,.683.341Z" transform="translate(47.869 51.057)" fill="#3c7786" fill-rule="evenodd"></path><path d="M3.084.447a9.551,9.551,0,0,1-2.4,3.543C.247,4.1.271,3.708,0,3.649A6.787,6.787,0,0,1,2.4,0c.389,0,.494.271.683.459Z" transform="translate(67.811 58.945)" fill="#3c7786" fill-rule="evenodd"></path><path d="M3.063.5C2.345,1.814,1.568,3.6.1,3.8-.457,2.179,1.521,1.225,2.157.025c.589-.118.706.212.918.459Z" transform="translate(69.998 59.356)" fill="#3c7786" fill-rule="evenodd"></path><path d="M2.967.33C2.649,1.813,1.683,3.708.106,3.19c0-.165.024-.318-.106-.341A29.88,29.88,0,0,1,2.284,0a2.475,2.475,0,0,1,.683.341Z" transform="translate(72.037 59.863)" fill="#3c7786" fill-rule="evenodd"></path><path d="M57.875,57.791c3.014-3.284,9.323-2.778,14.962-1.707,4.568.859,7.734,1.507,9.477,4.685,1.33,2.425.942,6.18,1.26,8.9a40.123,40.123,0,0,1,.235,9.476,15.356,15.356,0,0,1-7.993,12.219c-8.676,5.191-19.389,7.628-32.891,7.31.176,2.931-.624,5.992-.118,8.57.106.565.565.859.683,1.365.483,2.084-.506,4.12-.106,6.275,1.507-.541,4.826-1.766,6.392-.106a7.056,7.056,0,0,1,0,3.767,5.871,5.871,0,0,1,1.26,1.377,68.633,68.633,0,0,1,20.448,3.426c1.7.542,4.4,1.519,4.909,2.967A5.435,5.435,0,0,1,75.251,131c.718,1.366.93,3.567-.224,4.568a7.224,7.224,0,0,1-1.6.683c-2.084.871-3.967.459-4.567-2.06-1.825-.753-.342-3.273.223-4.344a123.846,123.846,0,0,0-19.753-2.166c.942,1.789,2.7,4.061,4.108,6.616,1.307,2.4,2.931,5.4,3.084,7.887.106,1.672-.282,3.6-1.6,4.108.541,1.024,1.636,2.578,1.024,3.991-.33.765-1.213.659-1.484,1.483a2.844,2.844,0,0,1-3.32.577c-.224-.106-.589-.6-.907-.683-.436-.106-.871.259-1.26.106a5.227,5.227,0,0,1-2.178-2.743c-.165-1.719,2.154-4.509,4.344-4.568a3.24,3.24,0,0,0-.907-2.849c-2.625-3.638-5.05-6.616-8.111-10.277-.836-1-2.5-3.4-3.532-3.779-2.225-.777-5.3,1.26-6.969,2.06-5.321,2.531-9.865,5.015-15.186,7.875-.577.306-2.978.989-2.978,1.6,0,.789,1.059.424,2.06.918,1.024.518,2.6,2.637.8,3.084-.047,1.577-.706,3.2-2.166,3.426-.577.094-1.177-.388-1.707-.459-.577-.071-1.13.247-1.719.106-.942-.2-2-.871-2.166-1.483-.377-1.354.553-2.507.683-3.661.153-1.389-.294-2.955.118-4.108a7.736,7.736,0,0,1,1.142-1.836c3.32-4.061,10.925-7.322,15.527-10.041-3.485-.824-7.676-.93-11.772-1.142.318.624,1.059.694,1.26,1.377.365,1.248.33,4.285-.341,5.027-.753.836-3.449.942-4.226,0-.6-.73-1.154-5.45,0-6.051a10.353,10.353,0,0,1-.459-3.308c1.036-1.46,3.12-1.813,4.909-2.166a49.842,49.842,0,0,1,16.1-.577c1.707.271,3.226.753,4.685,0-.035-2.3.129-4.4.223-6.734a17.711,17.711,0,0,1,0-2.849c.118-.506.742-.954.918-1.483.836-2.543-.247-5.933.342-9.029-4.544-1.307-8.123-2.472-12-3.885C18.721,91.683,8.3,89.54,6.49,81.653c-.954-4.132-.93-9.759-1.26-14.621C4.583,57.6,3.982,47.585,2.711,37.79c-.612-4.732-1.118-9.524-1.6-14.28C.6,18.578-.279,13.681.086,8.666c.188-2.672,1.2-4.815,4.108-4.8,2.719-2.025,7.016-2.131,11.3-2.507C23.1.685,29.752-.61,38.228.332,40.676.6,44.737,1.509,45.185,3.3a5.26,5.26,0,0,1-.106,1.483c-.365,5.7-.318,12.7-2.849,16.787a68.115,68.115,0,0,0,4.791,17.364c5.745,1.283,5.027,8.123,7.193,12.9a21.639,21.639,0,0,0,2.06,2.743,12.551,12.551,0,0,1,1.6,3.2ZM27.963,2.168c-3.555.165-7.711.765-11.654,1.024-3.873.271-7.828.141-10.618,1.6A37.109,37.109,0,0,0,8.539,24.559c5.191,1.648,12,.671,17.823-.118,4.308-.577,8.546-1.283,12.678-1.707,3.332-4.332,4.32-10.983,4.45-18.506C39.817,1.9,33.778,1.9,27.963,2.168ZM7.055,26.042C4.018,21.2,3.418,12.822,3.747,5.37,2.405,5.723,1.923,7.1,1.8,8.572c-.4,4.838.812,9.453,1.26,14.162C4.36,36.448,6.62,51.5,7.173,65a14.634,14.634,0,0,1,2.861-2.166C9.74,58.521,6.573,53.294,6.255,48.55c-.2-3.084,1.389-3.991,3.2-5.027-.389-6.227-1.66-11.6-2.4-17.47Zm33.127-1.6a62.175,62.175,0,0,0,3.767,13.244c.212.553.294,1.366.918,1.6a13.485,13.485,0,0,0-1.142-3.426,61.324,61.324,0,0,1-2.743-11.878c0-.071-.023-.129-.118-.106C40.547,23.97,40.559,24.394,40.182,24.441ZM8.656,26.607c1.059,5.651,2.449,10.948,2.849,17.246a9.047,9.047,0,0,1,4.462,3.426c.989,1.389,1.683,4.167,3.084,5.25,1.318,1.012,4.52,1.154,6.969,1.142a35,35,0,0,0,6.51-.918c2.119-.447,4.5-.789,5.721-1.719,1.966-1.483,2.1-5.6,3.308-8.217.412-.883,1.059-1.448,1.377-2.284A63.441,63.441,0,0,1,38.71,24.876c-9.653.718-20.024,3.9-30.042,1.719ZM27.044,66.126A19.821,19.821,0,0,1,29.21,68.3c.636.683,1.342,2.072,2.06,2.284a12.134,12.134,0,0,0,2.978-.118c6.074-.483,12.655-3.12,15.987-5.945a9.459,9.459,0,0,0,2.4-3.084c1.683-4.426-.541-8.982-1.6-13.244-.789-3.167-1.742-7.346-4.909-7.193a1.193,1.193,0,0,0-.459.106c-3.32,1.5-2.849,6.7-4.685,9.83s-8.44,4.414-13.255,4.685c-2.366.13-6.592.2-8.558-.683-2.8-1.26-3.037-4.45-4.685-6.851-.777-1.13-2.778-3.073-4.568-2.861-3.956.471-.718,7.31,0,9.359a41.325,41.325,0,0,1,2.06,7.887c6.145-.33,11.654,1.165,15.08,3.649Zm20.33,2.625c.306.765.165,1.966.459,2.743,1.236-.106,2.354-.306,3.649-.341C54.544,68.61,54.2,62.676,56.627,59.5a14.3,14.3,0,0,0-1.6-3.767C55.957,63.548,51.824,66.3,47.375,68.751Zm16.9-11.537c-7.4.718-7.2,8.134-9.818,13.7,8.582.4,17.1.859,23.415,3.543.083-5.085-.624-11.054.459-15.41-4.391-.824-8.994-2.319-14.044-1.825Zm-39.3,16.563c4.5,4.7,5.109,13.561,9.712,18.153a17.557,17.557,0,0,0,6.169,3.661c.859.294,1.683.989,2.284,1.024.624.047,1.236.2,1.825.235a58.166,58.166,0,0,0,19.989-2.978c5.392-1.7,11.984-4.485,14.621-8.335,1.883-2.743,2.59-6.9,2.4-12.1-.071-1.73-.377-3.579-.459-5.368-.165-3.649.223-6.333-1.719-7.77,0-.118-.141-.082-.118.118-.636,3.9.118,9.147.118,13.138s-.612,7.463-2.625,10.159C74.356,87.5,69.518,89.776,64.4,91.365A48.1,48.1,0,0,1,46.35,93.872c-2.908-.212-6.239-1.154-7.652-2.967-1.177-1.519-1.872-4.061-2.849-6.169-2.79-5.91-5.262-13.726-10.277-17.128A24.03,24.03,0,0,0,15.3,64.183c-2.978-.224-6.157-.082-7.087,2.861,5.757,2.2,12.867,2.637,16.787,6.734ZM7.515,71.835c6.051,1.26,11.207,3.414,17.022,4.909C21.158,71.67,13.577,70.8,7.409,68.515,7.314,69.752,7.585,70.634,7.515,71.835Zm24.9.683c.024.636.742,1.519,1.036,2.284a105.191,105.191,0,0,1,12.679-2.967c-.071-.848.082-1.919-.341-2.4a36.59,36.59,0,0,1-13.361,3.084Zm27.982.683c-9.806-.683-18.564,1.118-26.157,2.967.836,2.507,2.06,4.638,3.084,6.969a5.363,5.363,0,0,1,3.426,6.734c1.848,1.53,4.626,2.06,7.769,2.06a55.282,55.282,0,0,0,14.962-2.4c6.993-2.013,13.067-5.3,14.162-12.679C73.461,74.366,66.54,73.636,60.394,73.2Zm-52.656.683v.341c.318,4.144.177,7.687,2.166,10.053,2.755,3.249,7.31,4.768,11.878,6.392,4.615,1.636,9.382,3.331,13.6,4.685.177-.283-.318-.577-.459-.683-.294-.247-.753-.436-1.024-.683-4.167-3.661-5.745-10.136-8.229-15.3-6.1-1.471-11.913-3.237-17.929-4.791Zm31.514,33.574a4.567,4.567,0,0,0,1.719.118c-.023-3.131.13-6.11.224-9.135-.589-.177-1.342-.177-1.942-.341v9.371Zm-1.26,1.719v11.2c.812.494,2.272-.071,2.178,1.142-.129,1.53-4.332.377-4.344-1.036-1.825.436-3.32-.071-5.144-.341a33.792,33.792,0,0,0-11.313,0,61.376,61.376,0,0,1,12.114,1.142c.73.141,3.119.341,2.966,1.483-.082.683-2.107,1.083-3.084,1.483a33.577,33.577,0,0,0-2.967,1.6c-4.356,2.331-7.888,4.344-11.654,6.851-1.872,1.26-3.967,2.543-4.791,4.226,4.156-1.271,7.829-3.708,12.1-5.827,1.954-.965,4.038-1.9,6.168-2.849,2.107-.954,4.52-2.248,6.616-2.4,3.332-.247,4.391,2.072,6.051,3.885a105.24,105.24,0,0,1,9.477,11.419c.977,0,1.848.094,1.942.918.118,1.024-1.036.836-1.142,1.825.2.176.612.153.918.224.907-2.531-.506-4.544-1.483-6.628-2.084-4.391-4.379-8.77-7.31-12.1-.506-.589-2.037-1.46-1.825-2.284.212-.859,1.742-.294,2.743-.224,5.191.294,9.311.047,14.621.8,1.9.259,8.029.753,7.887,2.4-.153,1.613-3.32.353-4.567.118a157.678,157.678,0,0,0-17.364-1.719c.188.424.683,1.413,1.26,1.6a10.414,10.414,0,0,0,1.825,0c4.426.2,9.194.176,13.479.683,2.719.33,5.25,1.083,7.428,1.26a8.906,8.906,0,0,1,1.483,0c.671.2.789,1.2,1.719.918.424-.341.424-1.095.459-1.836-5.78-3.685-16.763-4.862-26.158-5.827-1.083-.106-3.579-.047-3.885-.683-.624-1.283.965-2.225,1.6-2.861.848-.848,1.413-1.448,2.06-2.166-1.99-.271-3.367.848-4.791,1.483-.224,1.66.706,4.673-1.142,4.45-1.354-.153-.671-3.932-.577-5.709.141-2.6.365-4.756.342-6.51A32.043,32.043,0,0,1,38,109.176ZM12.176,121.619c.047.6-.082,1.377.342,1.6.459-.306.565-.753,1.142-.907a9.52,9.52,0,0,1,2.625.106c3.979.177,9.783.082,12.561,1.26.2-.365.906-.247,1.036-.683A118.891,118.891,0,0,0,12.176,121.619Zm-.341,4.344c.035,1.118.306,1.978.341,3.084a3.274,3.274,0,0,0,1.719,0c-.035-1.13.2-2.013.118-3.2-.859-.094-1.365.153-2.178.106Zm59.049,4.909a5.09,5.09,0,0,1,2.849.918,2.324,2.324,0,0,0-.459-.918,2.913,2.913,0,0,1-2.166-.577c.082.353-.318.224-.235.577Zm-60.073,8.911c.624.023,1.26.047,1.142-.683-.177-.306-.859-.13-1.142-.341Zm.224,1.836a11.764,11.764,0,0,0-.565,2.4c.282.094.447.306.8.341.153-1.107.906-2.213,1.024-2.967a2.486,2.486,0,0,1-1.26.235Zm37.918,7.534a4.477,4.477,0,0,1,3.084-2.4A2.375,2.375,0,0,0,48.952,149.154Z" transform="translate(0 0)" fill="#3c7786" fill-rule="evenodd"></path></g></g></svg>