<svg xmlns="http://www.w3.org/2000/svg" width="24" height="24" fill="#3c7786"><path d="M1.282 11.934a10.73 10.73 0 0 1 18.5-7.328h-.548a.638.638 0 1 0 0 1.275h2.174a.639.639 0 0 0 .641-.638V3.081a.641.641 0 0 0-1.282 0v.706A12.013 12.013 0 0 0 0 11.934a11.885 11.885 0 0 0 2.985 7.877.64.64 0 0 0 .963-.842 10.614 10.614 0 0 1-2.666-7.035ZM23.235 7.734a.641.641 0 0 0-1.2.449 10.569 10.569 0 0 1 .682 3.752 10.731 10.731 0 0 1-15.633 9.472l.579-.2a.638.638 0 1 0-.428-1.2l-2.049.722a.637.637 0 0 0-.39.814l.726 2.038a.641.641 0 0 0 1.209-.426l-.213-.6a12.014 12.014 0 0 0 17.483-10.617 11.833 11.833 0 0 0-.766-4.204Z"/><path d="M12 3.993a7.854 7.854 0 1 0 7.9 7.854A7.885 7.885 0 0 0 12 3.993Zm6.063 8.491h.521a6.608 6.608 0 0 1-5.943 5.91v-.518a.641.641 0 0 0-1.282 0v.518a6.608 6.608 0 0 1-5.943-5.91h.521a.638.638 0 1 0 0-1.275h-.521a6.608 6.608 0 0 1 5.943-5.91v.523a.641.641 0 0 0 1.282 0v-.518a6.608 6.608 0 0 1 5.943 5.91h-.521a.638.638 0 1 0 0 1.275Z"/><path d="M14.883 11.851h-2.242V8.395a.641.641 0 0 0-1.282 0v4.094a.639.639 0 0 0 .641.638h2.883a.638.638 0 1 0 0-1.275Z"/></svg>