<svg xmlns="http://www.w3.org/2000/svg" width="32" height="32" viewBox="0 0 32 32"><path d="M12.273,20.225c2.87,2.855,6.192,5.583,7.5,4.266,1.867-1.885,3.017-3.525,7.161-.213s.979,5.543-.83,7.37c-2.087,2.107-9.9.148-17.654-7.559S-1.317,8.562.772,6.454C2.581,4.627,4.783,1.44,8.118,5.568s1.709,5.291-.158,7.177C6.656,14.061,9.4,17.37,12.273,20.225ZM16.435,6.6a1.843,1.843,0,0,0-1.472.472,1.69,1.69,0,0,0,.006,2.361,1.871,1.871,0,0,0,.937.472A7.643,7.643,0,0,1,20.3,12.167a7.669,7.669,0,0,1,2.252,4.4,1.878,1.878,0,0,0,.471.939,1.682,1.682,0,0,0,2.356.006,1.854,1.854,0,0,0,.471-1.475A11.406,11.406,0,0,0,16.435,6.6ZM24.556,7.9c3.14,3.147,4.479,6.718,4.043,9.613a1.9,1.9,0,0,0,.445,1.515,1.677,1.677,0,0,0,2.367,0,2.1,2.1,0,0,0,.492-1.065c.36-2.5-.093-7.532-4.986-12.435S17.006.175,14.51.535a2.089,2.089,0,0,0-1.062.493,1.685,1.685,0,0,0,0,2.372,1.886,1.886,0,0,0,1.512.446C17.852,3.41,21.416,4.752,24.556,7.9Z" transform="translate(0 -0.44)" fill="#FA1900"/></svg>