<svg xmlns="http://www.w3.org/2000/svg" width="176" height="88" viewBox="0 0 176 88"><g transform="translate(-693 -4207)"><rect width="176" height="88" transform="translate(693 4207)" fill="rgba(255,255,255,0)"/><g transform="translate(713.007 4217)"><circle cx="8.816" cy="8.816" r="8.816" transform="translate(9.447 4.749)" fill="#b3bfc9"/><path d="M19.062,100.394c1.012,2.827,3.23,2.93,3.714,4.977.712,3.044-3.539,5.65-2.488,7.4.453.761,1.766,1.141,3.47,1.667a4.051,4.051,0,0,1,2.283,1.172,2.058,2.058,0,0,1,.506,1.237c0,1.663-3.044,3.192-4.06,2.473-.381-.282-.278-.761-.441-1.427-.708-2.816-5.118-2.637-5.8-4.692-.826-2.466,4.787-4.912,4.01-8.325a42.925,42.925,0,0,0-2.078-3.976,5.848,5.848,0,0,0-1.1-1.629c-.833-.8-1.678-.974-3.272-1.45-.883-.263-2.157-.662-3.71-1.237.118-.894.274-1.826.476-2.789a40.048,40.048,0,0,1,2.222-7.229A11.906,11.906,0,0,0,14.241,92.4a10.8,10.8,0,0,0,2.283,2.861,10.058,10.058,0,0,0,2.237,1.461,7.42,7.42,0,0,0,.3,3.668Z" transform="translate(-6.255 -53.63)" fill="#b3bfc9"/><path d="M29.544,58.69a11.445,11.445,0,0,0,1.3.27,12.334,12.334,0,0,0,1.872.145L32.1,62.83l-3.71.316Q29,67.221,29.624,71.3q-.761,1.731-1.522,3.455A4.878,4.878,0,0,1,26.9,73.419a5.865,5.865,0,0,1-.731-3.234,17.228,17.228,0,0,1,.95-5.64l-4.356-1.32a4.893,4.893,0,0,1,2.059-2.135c1.739-.894,3.542-.255,4.38-1.4a1.982,1.982,0,0,0,.346-1Z" transform="translate(-14.104 -36.358)" fill="#b3bfc9"/><path d="M20.061,71.93l4.121,1.32c-1.469,3.87-1.488,7.61.381,9.341a7.609,7.609,0,0,0,2.283,1.282c2.686.974,4.246-.137,5.091.8s.228,3.227-.94,4.566c-1,1.142-2.88,2.138-3.931,1.522-1.119-.654-.381-2.61-1.872-3.645-.6-.426-.879-.2-1.868-.731a6.538,6.538,0,0,1-2.093-1.838,12.44,12.44,0,0,1-2.093-9.7A12.872,12.872,0,0,1,20.061,71.93Z" transform="translate(-11.721 -44.561)" fill="#b3bfc9"/><path d="M3.8,114.15a4.185,4.185,0,0,0,.16,2.256,5.209,5.209,0,0,0,1.21,1.651c1.454,1.651,2.283,2.614,2.561,3.927a4.349,4.349,0,0,1-.1,2.081c-.419,1.374-1.427,1.979-2.69,3.044a16.112,16.112,0,0,0-3.679,4.056c-.407.708-2.078,3.619-.791,5.867a4.239,4.239,0,0,0,2.093,1.743l10.749-.05c.129-.076,1.929-1.141,1.9-2.823a2.838,2.838,0,0,0-.571-1.587c-.841-1.161-1.861-.879-3.52-2-.7-.472-1.971-1.324-2.032-2.473-.03-.635.323-1.012,1.427-2.344,2.873-3.474,3.135-4.185,3.078-4.851a6.841,6.841,0,0,0-.89-2.093,19.67,19.67,0,0,0-1.2-1.967,9.9,9.9,0,0,0-1.556-2.062,5.866,5.866,0,0,0-2.378-.982,30.123,30.123,0,0,1-3.771-1.4Z" transform="translate(0 -70.716)" fill="#b3bfc9"/><circle cx="8.721" cy="8.721" r="8.721" transform="translate(119.495 0)" fill="#b3bfc9"/><path d="M322.042,47.05a8.516,8.516,0,0,0,1.545.167,8.948,8.948,0,0,0,1.4-.1,15.059,15.059,0,0,0-.095,1.568c0,.731.038.852.034,1.024v.118A25.632,25.632,0,0,1,322,52.971a8.005,8.005,0,0,1-.107,2.074,9.819,9.819,0,0,1-4.364,6.13q-.51-3.577-1.024-7.157a8.041,8.041,0,0,1,2.926-3.565,5.05,5.05,0,0,0,2.355-2.119A3.315,3.315,0,0,0,322.042,47.05Z" transform="translate(-196.082 -29.147)" fill="#b3bfc9"/><path d="M316.174,55.11q-.913.925-1.853,1.857l-1.373,1.355a7.762,7.762,0,0,1-.1,2.424,8.105,8.105,0,0,1-2,3.877c-.651.727-2.283,2.557-4.589,2.686-1.781.1-2.378-.9-3.463-.4-1.176.54-1.815,2.351-1.461,3.877a3.771,3.771,0,0,0,3.261,2.877,3.475,3.475,0,0,0,2.138-.594,4.221,4.221,0,0,0,1.785-2.9,32.593,32.593,0,0,0,4.041-2.865,22.185,22.185,0,0,0,2.428-2.222c1.077-1.18,4.494-4.92,3.333-7.823A4.107,4.107,0,0,0,316.174,55.11Z" transform="translate(-186.625 -34.141)" fill="#b3bfc9"/><path d="M322.121,81.55l-6.993,5.5c.042.944.08,1.9.118,2.827q-1.141.251-2.352.476c-.6.114-1.2.217-1.785.312a19.144,19.144,0,0,0,7.538,3.185l.023-4.281c.049-.285.126-.7.247-1.2a19.064,19.064,0,0,1,1.522-3.847A33.277,33.277,0,0,1,322.121,81.55Z" transform="translate(-192.737 -50.52)" fill="#b3bfc9"/><path d="M300.518,106.36a5.12,5.12,0,0,0,.791.62,5.248,5.248,0,0,0,.951.476,27.06,27.06,0,0,0,.289,3.215,39.657,39.657,0,0,0,1.423,5.536c1.115,3.991,1.674,5.989,1.073,7.359-1.229,2.812-5.015,2.664-5.978,5.943a5.061,5.061,0,0,0-.186,1.823,5.793,5.793,0,0,1-3.044-.62c-.525-.274-1.762-.925-1.758-1.807,0-.278.126-.708,1.328-1.56,1.979-1.412,3.075-1.271,4.425-2.283a6.357,6.357,0,0,0,1.941-2.5c.628-1.427.27-2.234-.609-7.77a43.371,43.371,0,0,1-.666-6.328C300.472,107.57,300.491,106.839,300.518,106.36Z" transform="translate(-182.187 -65.89)" fill="#b3bfc9"/><path d="M311.713,111.36a31.6,31.6,0,0,0,.906,5.091c1.176,4.452,2.9,7.112,1.807,10.091a5.393,5.393,0,0,1-.479.967,7.14,7.14,0,0,1-2.565,2.07c-1.522.982-2.283,1.472-2.713,2.234a3.609,3.609,0,0,0,0,3.52c1.062,1.492,4.022,1.012,9.943.049,2.9-.476,3.733-.8,4.326-1.571,1.484-1.929.221-5,0-5.517-.982-2.074-1.96-4.3-2.9-6.659-1.2-3.006-2.2-5.89-3.044-8.607Z" transform="translate(-190.94 -68.988)" fill="#b3bfc9"/><path d="M38.92,69.381l7.8-1.141q2.332,14.413,4.661,28.827L43.391,98.3l-1.522-9.7a5.9,5.9,0,0,0,2.816-2.5c.327-.59,1.111-2.005.563-3.272-.571-1.324-2.428-2.1-4.517-1.747Z" transform="translate(-24.115 -42.275)" fill="#e4e9ed"/><path d="M60.8,68.74l4.281,2.138q.548,2.557,1.092,5.114l-2.949.457q.582,3.976,1.141,7.964l3.265-.476c.03.217.061.43.1.643l-3.249.571Q65.336,91.071,66.2,97l-.906.285Q63.056,83.009,60.8,68.74Z" transform="translate(-37.67 -42.584)" fill="#e4e9ed"/><path d="M71.76,90.409,154.994,76.49q1.092,5.609,2.188,11.225L73.628,101.6Q72.692,96.006,71.76,90.409Z" transform="translate(-44.46 -47.386)" fill="#e4e9ed"/><path d="M80.08,88.035l.141.616,75.929-12.465c-.042-.225-.084-.445-.129-.666Z" transform="translate(-49.614 -46.785)" fill="#e4e9ed"/><path d="M275.92,34.28l3.756-3.66q2.481,14.215,4.969,28.435l-.639.141q-.982-5.822-1.96-11.636l-4.186.715c-.038-.217-.072-.43-.106-.643l4.129-.681q-.761-4.277-1.492-8.546l-3.733.731Q276.289,36.7,275.92,34.28Z" transform="translate(-170.937 -18.969)" fill="#e4e9ed"/><path d="M68.27,67.12q.567,3.512,1.141,7.024l83.341-13.8-1.381-7.427Z" transform="translate(-42.298 -32.784)" fill="#e4e9ed"/><path d="M287.8,28.112l7.918-1.252q1.792,11.034,3.588,22.039a3.536,3.536,0,0,1-1.473.346c-1.141,0-1.423-.575-2.458-.552a3.147,3.147,0,0,0-2.123.951,3.3,3.3,0,0,0-.761,1.788,4.565,4.565,0,0,0,.411,3.014,4.479,4.479,0,0,0,1.933,1.876l-2.409.3Q290.117,42.365,287.8,28.112Z" transform="translate(-178.296 -16.64)" fill="#e4e9ed"/><path d="M318.477,98v1.819l-1.427.034c.232-.247.476-.529.723-.841S318.279,98.312,318.477,98Z" transform="translate(-196.417 -60.711)" fill="#e4e9ed"/><path d="M69.67,30.051q1.244,7.157,2.485,14.314l75.906-13.032q-1.142-6.735-2.283-13.474Z" transform="translate(-43.165 -11.064)" fill="#e4e9ed"/><path d="M80.653,50.561c.807,4.094,1.115,7.336,2.028,7.412A5.172,5.172,0,0,0,83.4,57.9c1-.141,1.1-.266,1.142-.327.167-.282-.129-.742-.221-.89-.761-1.24-1.29-3.721-.666-5.007s2.664-2.036,3.425-1.461c.97.761.517,4.421.651,6.312a.761.761,0,0,0,.236.571c.148.1.438.049,1.016-.065.654-.129.982-.2,1.1-.354a.883.883,0,0,0,.1-.7c-.289-1.552-.053-5.749-2.443-12.507a2.036,2.036,0,0,0-.906-1.187c-.761-.381-1.937-.1-2.123.445s.586.818,1.267,2.154c.164.32,1.046,2.055.46,2.713-.38.445-1.069-.057-2.173.426-.814.358-1.035.985-1.347.871-.1-.034-.282-.164-.35-1.663s0-2.751,0-2.751c.042-.875.08-1.119-.118-1.339a1.433,1.433,0,0,0-1.792,0c-.506.415-.51,1.305-.476,1.933A51.361,51.361,0,0,0,80.653,50.561Z" transform="translate(-49.662 -26.087)" fill="#b3bfc9"/><path d="M114.557,57.471c-.236-.361-.445-1.9-.856-4.946a9.634,9.634,0,0,0-.491-2.663,3.78,3.78,0,0,0-1.937-2.157,3.044,3.044,0,0,0-3.2.571,2.488,2.488,0,0,0-.666,2.317,1.1,1.1,0,0,0,.521.742.662.662,0,0,0,.651,0c.263-.205,0-.613.19-1.046a1.5,1.5,0,0,1,1.712-.647,1.351,1.351,0,0,1,.879.8,1.309,1.309,0,0,1-.053.928c-.244.556-.719.662-1.347,1.084a4.657,4.657,0,0,0-1.682,1.88,3.832,3.832,0,0,0-.24,2.218,3.143,3.143,0,0,0,.529,1.324,2.991,2.991,0,0,0,1.142.974,5.711,5.711,0,0,0,2.561.16c.076,0,.7-.114,1.933-.331.255-.046.525-.1.635-.3C114.986,58.1,114.663,57.631,114.557,57.471ZM112.449,57c-.145.141-.381.145-.81.156A1.8,1.8,0,0,1,110.577,57a1.408,1.408,0,0,1-.556-.871,2.169,2.169,0,0,1,.556-2.062,1.142,1.142,0,0,1,.871-.445,1.1,1.1,0,0,1,.761.491c.217.3.19.495.3,1.682C112.57,56.615,112.612,56.828,112.449,57Z" transform="translate(-66.504 -29.413)" fill="#b3bfc9"/><path d="M127,44.017a1.853,1.853,0,0,0-.11,1.457c.453,1.963.635,3.98.982,5.962.3,1.735.563,3.9,1.221,3.98a3.865,3.865,0,0,0,.7-.034c.7-.1.708-.069.761-.11.38-.293-.35-1.522-.822-3.185a13.646,13.646,0,0,1-.43-3.8c-.027-1.309.084-2.131.571-2.363a.951.951,0,0,1,.335-.065,1.7,1.7,0,0,1,.982.335c1.031.742,1.435,6.088,1.427,8.371a.509.509,0,0,0,.126.38c.107.088.225.061.871-.049.441-.072.594-.1.715-.236a.654.654,0,0,0,.129-.3c.141-.761-1.092-7.127-.829-8.481a.933.933,0,0,1,.32-.586,1.1,1.1,0,0,1,.887-.1c1.248.323,1.655,3.759,1.792,4.9a23.811,23.811,0,0,1,.141,3.835l.932.049c.468.023.666.034.826-.1a.681.681,0,0,0,.206-.445c.525-3.98-1.473-8.611-1.473-8.611-.266-.613-.723-1.6-1.632-1.853a1.662,1.662,0,0,0-.445-.061c-1.214,0-1.556,1.237-2.473,1.187-.51-.03-.567-.422-1.317-.46a1.7,1.7,0,0,0-.871.141c-.35.171-.38.358-.814.662-.3.2-.62.422-.818.316-.312-.167.084-.974-.27-1.278S127.378,43.446,127,44.017Z" transform="translate(-78.549 -26.583)" fill="#b3bfc9"/><path d="M165.292,43.93a8.2,8.2,0,0,0-.982-3.014,3.677,3.677,0,0,0-2.283-1.758,2.829,2.829,0,0,0-3.044,1.332c-.4.852-.221,2.1.316,2.332a.761.761,0,0,0,.571-.034c.441-.205.38-.677.761-1.1a1.473,1.473,0,0,1,1.3-.441,1.454,1.454,0,0,1,1.077,1.24c.057,1.183-2.177,1.3-3.075,3.139a3.971,3.971,0,0,0,.856,4.612,4.436,4.436,0,0,0,2.785.533,13.214,13.214,0,0,0,1.845-.327c.46-.1.814-.183.917-.441a.761.761,0,0,0-.122-.613C165.7,48.477,165.981,47.153,165.292,43.93Zm-2.9,4.882a1.522,1.522,0,0,1-.761-1.043,2.246,2.246,0,0,1,.761-2.557,1.172,1.172,0,0,1,.963-.053c.483.232.578.86.654,1.355s.266,1.758-.472,2.234A1.244,1.244,0,0,1,162.393,48.812Z" transform="translate(-98.359 -24.228)" fill="#b3bfc9"/><path d="M179.051,20.694a1.2,1.2,0,0,0-.1.818c.285,1.522-.08,9.672,1.237,14.935a1.967,1.967,0,0,0,.666,1.141c.639.483,1.453.274,2.82,0,3.223-.651,5.038-.761,5.091-1.377a3.432,3.432,0,0,0-.091-.38,10.434,10.434,0,0,0-.38-1.1c-.506-1.393-.761-2.089-1.172-2.123-.6-.053-.723,1.267-2.032,1.838a2.237,2.237,0,0,1-1.712.1,2.38,2.38,0,0,1-1.141-1.552c-1.073-3.348-.381-11.034-.346-12.461a.806.806,0,0,0-.19-.6c-.3-.266-.864-.08-1.587.16C179.546,20.279,179.226,20.386,179.051,20.694Z" transform="translate(-110.847 -12.258)" fill="#b3bfc9"/><path d="M206.694,54.339a2,2,0,0,0-.331,1.815,2.146,2.146,0,0,0,.487.928,1.446,1.446,0,0,0,1.084.575,1.339,1.339,0,0,0,.967-.571,1.9,1.9,0,0,0,.335-1.332c-.038-.544-.312-1.727-1.191-1.9A1.557,1.557,0,0,0,206.694,54.339Z" transform="translate(-127.794 -33.343)" fill="#b3bfc9"/><path d="M214.015,20.183a1,1,0,0,0-.167.689c.05.81.38,8.927,1.64,13.032a1.16,1.16,0,0,0,.312.521,2.117,2.117,0,0,0,1.937.118.556.556,0,0,0,.381-.152c.244-.274,0-.845-.072-1.058,0,0-2.732-6.849-1.933-9.444.023-.072.087-.278.221-.308s.3.156.381.232a15.315,15.315,0,0,1,2.066,4.144c.479,1.522.734,2.336,1.377,2.5a.7.7,0,0,0,.453,0c.8-.323.331-2.435.791-5.909.152-1.142.342-1.982.658-2.013.167,0,.316.2.381.289,1.084,1.587.856,8.314,1.073,9.916a.944.944,0,0,0,.3.628c.453.381,1.316.034,1.5-.034a3.039,3.039,0,0,0,.5-.247c1.488-.989-1.191-11.343-2.013-13.808a1.2,1.2,0,0,0-.521-.712c-.635-.346-1.522.236-1.575.274a2.877,2.877,0,0,0-1.031,1.5c-.883,2.283-.8,3.6-1.221,3.672-.282.046-.472-.525-1.358-1.807-.567-.826-1.4-2.07-2.351-2.355a1.921,1.921,0,0,0-.453-.076A1.6,1.6,0,0,0,214.015,20.183Z" transform="translate(-132.478 -11.431)" fill="#b3bfc9"/><path d="M251.478,16.585c-1.461-.7-3.714-.936-4.779.167-.871.9-.331,2.051.285,6.586.677,4.981.487,7,1.807,7.587.563.247,1.248.126,2.618-.122a9.225,9.225,0,0,0,2.9-.925C256.957,28.042,256.208,18.849,251.478,16.585Zm.955,11.628a1.861,1.861,0,0,1-1.739,0c-.826-.453-.852-1.438-1.237-3.8-.639-3.969-1.244-5.46-.4-6.088a1.309,1.309,0,0,1,.807-.24c1.708,0,3.044,3.044,3.425,5.186.1.479.753,4.049-.86,4.946Z" transform="translate(-152.552 -9.907)" fill="#b3bfc9"/></g></g></svg>