<svg xmlns="http://www.w3.org/2000/svg" width="24" height="24" fill="#3c7786"><path d="M12 8.4a3.6 3.6 0 1 0 3.6 3.6A3.6 3.6 0 0 0 12 8.4ZM12 6a6 6 0 1 1-6 6 6 6 0 0 1 6-6Zm7.8-.3a1.5 1.5 0 1 1-1.5-1.5 1.5 1.5 0 0 1 1.5 1.5ZM12 2.4c-2.969 0-3.454.008-4.835.07a6.519 6.519 0 0 0-2.158.4 3.464 3.464 0 0 0-1.3.844 3.468 3.468 0 0 0-.845 1.3 6.51 6.51 0 0 0-.4 2.158C2.407 8.49 2.4 8.953 2.4 12c0 2.969.008 3.454.07 4.835a6.545 6.545 0 0 0 .4 2.156 3.731 3.731 0 0 0 2.138 2.14 6.533 6.533 0 0 0 2.16.4c1.325.062 1.788.07 4.835.07 2.969 0 3.454-.008 4.835-.07a6.558 6.558 0 0 0 2.156-.4 3.505 3.505 0 0 0 1.3-.842 3.47 3.47 0 0 0 .845-1.3 6.56 6.56 0 0 0 .4-2.16c.062-1.325.07-1.788.07-4.835 0-2.969-.008-3.454-.07-4.835a6.532 6.532 0 0 0-.4-2.158 3.493 3.493 0 0 0-.844-1.3 3.461 3.461 0 0 0-1.3-.845 6.516 6.516 0 0 0-2.158-.4C15.51 2.407 15.047 2.4 12 2.4ZM12 0c3.26 0 3.667.012 4.946.072A8.84 8.84 0 0 1 19.86.63a5.851 5.851 0 0 1 2.126 1.384A5.89 5.89 0 0 1 23.37 4.14a8.865 8.865 0 0 1 .558 2.914C23.984 8.333 24 8.74 24 12s-.012 3.667-.072 4.946a8.871 8.871 0 0 1-.558 2.914 6.127 6.127 0 0 1-3.51 3.51 8.865 8.865 0 0 1-2.914.558C15.667 23.984 15.26 24 12 24s-3.667-.012-4.946-.072a8.871 8.871 0 0 1-2.914-.558 6.127 6.127 0 0 1-3.51-3.51 8.834 8.834 0 0 1-.558-2.914C.016 15.667 0 15.26 0 12s.012-3.667.072-4.946A8.834 8.834 0 0 1 .63 4.14a5.856 5.856 0 0 1 1.384-2.126A5.876 5.876 0 0 1 4.14.63 8.834 8.834 0 0 1 7.054.072C8.333.016 8.74 0 12 0Z"/></svg>