<svg xmlns="http://www.w3.org/2000/svg" width="1291" height="175" viewBox="0 0 1291 175"><g transform="translate(-42 -3681)"><path d="M66,3826a2,2,0,0,1-1.327-3.5c.087-.077,2.177-1.923,6.326-5.1a2,2,0,1,1,2.434,3.175c-4.022,3.083-6.087,4.906-6.108,4.924A1.993,1.993,0,0,1,66,3826Zm879.272-11.928h-.006c-2.669-.008-5.374-.03-8.041-.067a2,2,0,0,1,.027-4h.028c2.652.036,5.343.059,8,.067a2,2,0,0,1-.006,4Zm22-.272a2,2,0,0,1-.057-4c2.648-.076,5.331-.171,7.975-.281l.084,0a2,2,0,0,1,.082,4c-2.661.111-5.361.206-8.026.282Zm-52-.424-.088,0c-2.657-.116-5.353-.248-8.012-.392a2,2,0,0,1,.217-3.994c2.646.144,5.327.275,7.97.39a2,2,0,0,1-.085,4Zm81.965-1.155a2,2,0,0,1-.151-3.994c2.638-.2,5.311-.424,7.945-.66a2,2,0,0,1,.357,3.984c-2.65.237-5.341.461-8,.664Q997.319,3812.222,997.242,3812.221Zm-111.908-.751q-.084,0-.169-.007c-2.643-.221-5.327-.46-7.979-.71a2,2,0,0,1,.185-3.991q.094,0,.19.009c2.638.248,5.309.486,7.938.706a2,2,0,0,1-.165,3.993Zm141.751-2.258a2,2,0,0,1-.246-3.985c2.626-.329,5.287-.679,7.907-1.042a2,2,0,0,1,.548,3.962c-2.638.365-5.315.717-7.958,1.048A2.033,2.033,0,0,1,1027.086,3809.212Zm-171.577-.818a2.033,2.033,0,0,1-.245-.015c-2.634-.322-5.314-.663-7.965-1.014a2,2,0,0,1,.524-3.966c2.638.349,5.305.688,7.926,1.009a2,2,0,0,1-.24,3.985Zm-765.293-.037a2,2,0,0,1-1.091-3.677c2.211-1.436,4.5-2.886,6.8-4.309a2,2,0,0,1,2.1,3.4c-2.277,1.407-4.539,2.841-6.726,4.261A1.991,1.991,0,0,1,90.215,3808.357Zm966.539-3.587a2,2,0,0,1-.341-3.971c2.607-.455,5.246-.933,7.846-1.422a2,2,0,1,1,.739,3.931c-2.617.492-5.274.973-7.9,1.431A2.017,2.017,0,0,1,1056.755,3804.77Zm-230.959-.55a2,2,0,0,1-.315-.025c-2.608-.412-5.267-.845-7.9-1.285a2,2,0,0,1,.659-3.945c2.625.439,5.273.869,7.87,1.28a2,2,0,0,1-.31,3.976Zm-29.546-5.153a2.013,2.013,0,0,1-.375-.035c-2.59-.492-5.238-1-7.872-1.525a2,2,0,1,1,.775-3.924c2.625.518,5.264,1.03,7.844,1.52a2,2,0,0,1-.371,3.965Zm289.916-.167a2,2,0,0,1-.437-3.952c2.582-.581,5.2-1.187,7.769-1.8a2,2,0,0,1,.928,3.891c-2.59.618-5.221,1.228-7.82,1.812A1.994,1.994,0,0,1,1086.166,3798.9Zm-319.315-5.817a2.009,2.009,0,0,1-.425-.046c-2.561-.554-5.192-1.13-7.822-1.715a2,2,0,1,1,.868-3.9c2.622.583,5.246,1.158,7.8,1.71a2,2,0,0,1-.421,3.955Zm-650.842-.054a2,2,0,0,1-.959-3.756c2.327-1.269,4.713-2.541,7.091-3.781a2,2,0,1,1,1.85,3.547c-2.356,1.229-4.72,2.49-7.026,3.747A1.993,1.993,0,0,1,116.01,3793.029Zm999.253-1.419a2,2,0,0,1-.532-3.928c2.552-.706,5.134-1.438,7.675-2.176a2,2,0,0,1,1.116,3.841c-2.558.743-5.157,1.48-7.725,2.19A2,2,0,0,1,1115.263,3791.61ZM737.6,3786.454a2.007,2.007,0,0,1-.461-.054c-2.527-.6-5.149-1.22-7.792-1.854a2,2,0,0,1,.933-3.89c2.638.633,5.255,1.256,7.777,1.851a2,2,0,0,1-.457,3.947Zm406.38-3.542a2,2,0,0,1-.626-3.9c2.514-.829,5.058-1.686,7.559-2.548a2,2,0,1,1,1.3,3.782c-2.518.867-5.078,1.73-7.609,2.564A2,2,0,0,1,1143.979,3782.911Zm-1001.169-3.346a2,2,0,0,1-.841-3.816c2.408-1.114,4.868-2.227,7.312-3.309a2,2,0,0,1,1.619,3.658c-2.424,1.073-4.864,2.177-7.252,3.282A1.993,1.993,0,0,1,142.811,3779.565Zm565.634-.185a2.008,2.008,0,0,1-.483-.059c-2.481-.615-5.021-1.248-7.766-1.934a2,2,0,1,1,.97-3.881c2.742.686,5.28,1.317,7.759,1.932a2,2,0,0,1-.48,3.942Zm463.787-6.56a2,2,0,0,1-.719-3.867c2.468-.95,4.962-1.93,7.413-2.911a2,2,0,0,1,1.487,3.713c-2.468.988-4.978,1.974-7.462,2.931A2,2,0,0,1,1172.231,3772.821Zm-492.884-.738a2,2,0,0,1-.491-.061l-.287-.073-7.47-1.883a2,2,0,1,1,.977-3.879l7.471,1.884.287.073a2,2,0,0,1-.488,3.94ZM170.4,3767.81a2,2,0,0,1-.729-3.863c2.475-.968,5-1.934,7.5-2.869a2,2,0,1,1,1.4,3.747c-2.483.928-4.988,1.886-7.443,2.847A2,2,0,0,1,170.4,3767.81Zm479.851-3.028a2,2,0,0,1-.483-.06c-2.673-.663-5.284-1.309-7.76-1.917a2,2,0,0,1,.955-3.885c2.479.61,5.093,1.256,7.769,1.92a2,2,0,0,1-.48,3.942Zm549.7-3.437a2,2,0,0,1-.812-3.829c2.418-1.073,4.86-2.175,7.256-3.277a2,2,0,1,1,1.671,3.634c-2.413,1.11-4.871,2.22-7.306,3.3A1.993,1.993,0,0,1,1199.951,3761.346ZM621.1,3757.7a2.007,2.007,0,0,1-.462-.054c-2.632-.623-5.252-1.237-7.787-1.826a2,2,0,1,1,.905-3.9c2.54.59,5.166,1.206,7.8,1.83a2,2,0,0,1-.459,3.947Zm-422.456-.022a2,2,0,0,1-.622-3.9c2.524-.826,5.094-1.647,7.64-2.44a2,2,0,1,1,1.189,3.819c-2.528.787-5.08,1.6-7.585,2.422A1.993,1.993,0,0,1,198.648,3757.676Zm393.2-6.643a2.01,2.01,0,0,1-.428-.046c-2.618-.571-5.244-1.135-7.8-1.678a2,2,0,1,1,.83-3.913c2.568.544,5.2,1.111,7.827,1.683a2,2,0,0,1-.424,3.955Zm-364.467-1.912a2,2,0,0,1-.518-3.932c2.566-.69,5.179-1.373,7.765-2.03a2,2,0,1,1,.985,3.877c-2.568.652-5.162,1.331-7.711,2.016A2,2,0,0,1,227.385,3749.12Zm999.657-.628a2,2,0,0,1-.906-3.784c2.37-1.2,4.758-2.432,7.1-3.659a2,2,0,0,1,1.858,3.542c-2.356,1.236-4.761,2.475-7.148,3.685A1.994,1.994,0,0,1,1227.042,3748.492Zm-664.564-3.517a2.006,2.006,0,0,1-.382-.037c-2.625-.508-5.268-1.01-7.857-1.492a2,2,0,0,1,.732-3.933c2.6.484,5.25.987,7.885,1.5a2,2,0,0,1-.378,3.964Zm-305.931-2.893a2,2,0,0,1-.417-3.956c2.6-.557,5.243-1.106,7.859-1.631a2,2,0,1,1,.786,3.922c-2.6.521-5.225,1.066-7.807,1.62A1.993,1.993,0,0,1,256.547,3742.082Zm276.4-2.4a2.013,2.013,0,0,1-.327-.027c-2.625-.431-5.275-.856-7.877-1.262a2,2,0,1,1,.616-3.952c2.613.407,5.274.834,7.91,1.267a2,2,0,0,1-.322,3.974Zm-246.924-3.16a2,2,0,0,1-.32-3.974c2.622-.429,5.289-.847,7.926-1.243a2,2,0,0,1,.594,3.956c-2.62.394-5.27.809-7.876,1.235A2.017,2.017,0,0,1,286.025,3736.521Zm217.25-1.24a2.008,2.008,0,0,1-.264-.017c-2.633-.347-5.3-.686-7.917-1.007a2,2,0,0,1,.487-3.97c2.632.323,5.307.663,7.952,1.011a2,2,0,0,1-.259,3.983Zm750.16-1.066a2,2,0,0,1-1-3.732c2.3-1.33,4.614-2.688,6.866-4.036a2,2,0,0,1,2.054,3.432c-2.27,1.359-4.6,2.728-6.92,4.068A1.991,1.991,0,0,1,1253.434,3734.215Zm-937.7-1.824a2,2,0,0,1-.226-3.987c2.641-.3,5.326-.6,7.981-.869a2,2,0,0,1,.409,3.979c-2.638.271-5.307.562-7.932.864A2.005,2.005,0,0,1,315.729,3732.391Zm157.752-.519q-.1,0-.2-.01c-2.645-.256-5.323-.5-7.962-.733a2,2,0,0,1,.348-3.985c2.651.231,5.342.479,8,.737a2,2,0,0,1-.191,3.991ZM345.6,3729.641a2,2,0,0,1-.136-4c2.65-.184,5.344-.355,8.006-.508.039,0,.078,0,.117,0a2,2,0,0,1,.113,4c-2.647.152-5.325.322-7.959.5C345.693,3729.64,345.646,3729.641,345.6,3729.641Zm97.973-.129q-.061,0-.123,0c-2.643-.161-5.323-.311-7.965-.446a2,2,0,0,1,.1-4c.034,0,.069,0,.1,0,2.655.136,5.348.286,8,.448a2,2,0,0,1-.12,4Zm-29.983-1.278h-.05c-2.639-.065-5.316-.117-7.959-.156a2,2,0,0,1,.029-4h.03c2.655.039,5.346.092,8,.157a2,2,0,0,1-.048,4Zm-38.022-.012a2,2,0,0,1-.051-4c2.654-.068,5.351-.122,8.016-.161h.03a2,2,0,0,1,.028,4c-2.65.038-5.332.092-7.971.16Zm903.378-9.794a2,2,0,0,1-1.11-3.666c2.248-1.495,4.461-3,6.579-4.472a2,2,0,1,1,2.283,3.284c-2.141,1.488-4.377,3.008-6.647,4.518A1.99,1.99,0,0,1,1278.946,3718.428Z" transform="translate(9.5)" fill="#e6f1fa"></path><path d="M14,26A12,12,0,1,1,26,14,12,12,0,0,1,14,26Zm0-2.4A9.6,9.6,0,1,0,4.4,14,9.6,9.6,0,0,0,14,23.6ZM14,20a6,6,0,1,1,6-6A6,6,0,0,1,14,20Z" transform="translate(40 3830)" fill="#047ae2"></path><path d="M14,26A12,12,0,1,1,26,14,12,12,0,0,1,14,26Zm0-2.4A9.6,9.6,0,1,0,4.4,14,9.6,9.6,0,0,0,14,23.6Zm0-6A3.6,3.6,0,1,1,17.6,14,3.6,3.6,0,0,1,14,17.6Z" transform="translate(1307 3679)" fill="#047ae2"></path></g></svg>