<svg xmlns="http://www.w3.org/2000/svg" viewBox="0 0 349.049 341.402"><g fill="#0068c4" fill-rule="evenodd"><path d="M331.923 95.204c-.879.773-2.591.743-3.819 1.167-.318.864 0 2.349-.591 2.94-1.712.273-4.092 1.2-6.032.879-1.455-.242-1.849-1.485-2.789-1.773-18.323 3.789-36.251 7.956-54.694 11.624-.136.485.273 2.561-.288 3.092a23.007 23.007 0 0 1-6.623 1.318 3.95 3.95 0 0 1-1.333-2.788 3.4 3.4 0 0 1-2.652-.3c-3.213-1.243-6.365-4.744-8.972-7.35-2.789-2.789-5.759-5.592-7.35-8.972-1.94-4.137-1.955-11.093-2.637-16.761a1400.035 1400.035 0 0 0-4.562-33.962 86.16 86.16 0 0 0-2.5-12.048c-.53-1.849-1.3-2.955-1.319-5.289-.046-5.077 3.016-9.229 5.88-12.2 8.684-9.048 23.915-13.988 39.4-14.7 15.4-.712 28.764 3.713 39.252 8.381 11.427 5.092 19.9 11.882 25.733 21.611-1.485 21.6-3.364 42.813-4.122 65.136Zm-77.776-56.907c-.091 0-.182-.015-.151-.136a61.228 61.228 0 0 0-12.5-11.76c-.879-.621-4.759-2.213-4.41-3.819.409-1.894 3.243-.091 3.819.288a57.448 57.448 0 0 1 19.55 21.763c8.8-2.864 20.05-3.895 31.613-3.531a97.384 97.384 0 0 1 2.789-21.626c.424-1.561 1.167-5.744 2.789-5.577 2.379.227.2 4.547-.137 5.744a108.556 108.556 0 0 0-3.531 21.611 45.964 45.964 0 0 1 24.551 8.093c.94.621 1.894 1.622 2.652 1.47.455-10.214 3.44-19.52 11.321-22.05a49.615 49.615 0 0 0-18.823-15.731 100.166 100.166 0 0 0-25.733-9.123 76.375 76.375 0 0 0-31.462.728c-9.093 2.273-17.792 6.4-22.945 11.912-2.334 2.5-5.456 6.153-5.138 10.881.394 6.229 5.668 8.941 9.7 11.76 2.486 1.743 4.728 3.773 7.047 4.85 1.273-3.531 4.531-5.85 8.972-5.744Zm78.079-7.35c-6.865 2.713-7.926 13.761-8.82 22.354 1.985 3.47 1.895 8.5 1.167 13.079-.364 2.3-1.349 4.274-1.622 6.032-.561 3.668-.258 7.487-.439 11.169a643.915 643.915 0 0 0-.44 11.321c2.591-.454 5.062-1.015 7.5-1.621.273-21.869 2.486-42.616 4.258-62.484a4.261 4.261 0 0 0-1.621.152Zm-101.6 6.032c0-.152-.2-.121-.137.152 2.955 12 4.759 28.522 6.471 42.646.561 4.713.53 10.411 2.213 14.109 1.394 3.061 4.183 5.516 6.32 7.638 1.788 1.788 3.516 3.592 5.289 5.153.5.424 1.167 1.167 1.91 1.031-1.849-15.685-2.591-31.326-5.289-45.874-.894-4.834-2.5-9.5-2.5-14.549-4.728-3.471-9.79-6.577-14.261-10.29Zm29.113 18.08c-.546-4.562-1.531-12.579-5.138-14.109-3.258-1.394-6.7 1.516-7.35 3.531-.743 2.3-.076 5.547.439 8.093.561 2.773 1.364 5.077 1.909 7.35 1.258 5.228 1.713 11 2.364 16.17 1.485 12.048 2.47 22.793 3.531 33.523 3.258-.561 6.138-1.516 9.411-2.061-1.622-17.231-3.076-34.9-5.153-52.5Zm1.334-7.941c.409 2.455.879 4.713 1.167 7.047.288 2.273.137 5.259.743 7.5.288 1.106 1.091 2.031 1.47 3.092a40.319 40.319 0 0 1 1.773 15.291c18.1-3.668 36.645-6.865 54.982-10.29 1.47-3.865 2.394-10.624.743-15-16.079 2.591-32.659 4.956-49.254 7.2-.849.121-6.335 1.606-6.471-.152-.076-.985 1.925-1.212 2.5-1.318 16.807-2.879 33.872-5.456 50.572-7.941-11.23-10.548-40.661-10.972-58.225-5.441Zm4.122 35.145c.743 8.184 1.773 16.064 2.2 24.566 17.307-3.819 34.766-7.487 52.042-11.321.2-6.835.818-13.867 1.318-20.444.06-.879.606-2.258-.152-2.5-18.353 3.365-36.614 6.8-55.422 9.7Zm57.635 15.443v.44a31.1 31.1 0 0 0 3.092-.591c.091-1.396-2.486-.108-3.092.15Zm-64.985 13.533c-.106.561.182.712.152 1.167 1.349-.258 2.637-.606 3.971-.879v-1.031c-1.455.151-2.652.575-4.123.742Z"></path><path d="M317.225 56.968c.227 1.3-.909 2.379-1.621 3.531-1.394 2.228-2.743 4.274-4.259 6.623-.591.909-1.318 3.046-2.788 1.758 0-1.167 1.091-2.076 1.758-3.092 1.713-2.607 3.956-6.4 5.592-8.669a.778.778 0 0 1 1.334-.136Zm-4.261 1.47c-.409 2.016-1.925 3.5-2.94 5.153-.985 1.576-1.622 3.789-3.531 4.562a2.39 2.39 0 0 0-.591-.439c1.425-3.455 3.759-6.365 5.592-9.411.091-.152.424-.076.44-.288.652-.152.682.3 1.031.44Zm6.017 1.03c.076 1.606-1.182 3.395-2.061 4.85-.773 1.288-1.576 3.7-3.379 3.38-.288-1.576 1.045-2.758 1.773-3.971.864-1.44 1.652-2.925 2.5-4.41a2.732 2.732 0 0 1 1.167.152Zm1.182 2.788c.046 1.834-1.7 5.713-3.682 4.122.8-1.516 1.8-2.8 2.652-4.259.393.001.833-.06 1.03.137ZM127.697 44.348c.892 10.225.971 20.945 1.358 31.583.125 3.4.982 7.058-.448 10.282-7.844-.315-16.262-.858-24.895-2.975.172.868 1.244.878 1.326 1.872.107 1.109-.536 2.31-.647 3.044-.77 5.084.73 8.45 4.26 11.148.804.617 3.871 2.207 4.14 2.903.68 1.765-1.545 6.214-2.316 8.16a130.212 130.212 0 0 1-6.898 14.117 34.284 34.284 0 0 1-1.86 3.365 34.26 34.26 0 0 0-2.167 2.708c-.506.915-.691 2.409-1.472 2.868-1.154.675-5.365-.425-7.713-1.06-3.675-.987-8.045-1.667-6.934-5.37a52.693 52.693 0 0 1-2.294-22.416c.268-2.381.293-6.761 1.65-8.45.682-.837 2.231-.775 3.394-1.003 4.445-.913 8.005-3.249 9.513-8.8a13.064 13.064 0 0 1 .586-2.76c.514-.946 2.084-.85 2.352-2.25-5.583-1.783-12.65-3.152-18.427-4.93-1.88-.582-3.95-.918-4.983-2.357.705-3.597 2.577-6.737 4.136-9.944 3.814-7.855 7.708-15.397 11.77-23.453.772-1.535 1.556-4.01 2.408-4.543 1.281-.783 7.732.068 10.011.404 8.245 1.204 18.351 4.557 24.147 7.871ZM94.35 38.4c-5.298 11.451-10.66 22.8-16.163 33.924a162.48 162.48 0 0 1 48.652 11.358q-.622-19.093-.913-38.417c-9-3.608-21.9-7.052-31.576-6.865Zm-7.131 37.583c4.156.869 8.089 2.509 12.014 3.135l.263-1.237a85.841 85.841 0 0 0-12.28-1.883Zm13.444 5.313 1.095.233c.459-.69.492-2.036.787-3.002l-1.237-.263Zm3.434-.563a81.864 81.864 0 0 0 15.88 2.649c-5.233-1.47-10.307-3.055-15.64-4.472a14.18 14.18 0 0 1-.24 1.822Zm-5.877 3.94c-.162-.006-.202.18-.23.382-.925 5.958-3.546 9.263-7.104 11.037-.714.353-2.063.542-1.944 1.029 3.58.643 5.836 1.568 9.773 2.212 1.235.203 5.676.36 5.215 1.972-.318 1.077-2.895.47-4.372.215-5.417-.884-10.64-2.115-15.534-2.872-1.89 10.703-.433 19.234 1.681 27.326 4.012.987 8.368 2.597 12.275 2.61 2.87-3.433 4.63-7.653 6.953-11.648a64.258 64.258 0 0 0 5.866-13.322c-6.64-3.389-10.523-8.54-7.864-17.966l-4.695-.998ZM85.4 127.956c-.104.008-.181.08-.186.243l-.057.27a60.902 60.902 0 0 0 9.411 2.581c.937.14 2.083.414 2.763-.128-4.179-.413-8.069-1.954-11.917-2.966Z"></path><path d="M86.897 63.947c.061-.15.02-.249-.07-.298.355-1.812 4.812-1.028 4.256.326-.42 1.01-3.007.297-4.173-.025Zm5.694 2.371c-.228 1.705-2.45.95-4.077.857-1.16-.068-4.395.047-3.879-1.404.337-.954 4.695-.19 5.782-.064.638.077 1.84.02 2.174.61ZM81.884 68.5c.946-.6 2.308-.224 3.49-.12 3.39.276 7.7.701 11.128 1.223.596.082 2.213.01 2.086 1.023-.147 1.173-2.848.417-4.23.245-3.215-.401-5.934-.546-9.068-.769-1.348-.093-3.612.139-3.409-1.587Zm15.53 35.475c-.48 1.132-2.853.478-4.102.273-1.321-.222-7.654-1.063-7.581-2.328.07-1.292 1.521-.569 2.382-.354 1.738.429 5.512 1.068 7.338 1.427.73.14 2.04-.012 1.945.993Zm-11.158.942c.511-1.497 2.6-.205 4.557.24 1.09.262 2.325.183 1.9 1.268-.475 1.192-6.046-.364-6.454-1.522Z"></path><path d="M86.636 107.883c-.243-2.143 5.229-.539 5.082.501-.182 1.414-4.1.05-5.082-.501Z"></path><path d="M87.108 109.722c.523-1.554 4.968-.433 4.409.938-.465 1.135-3.984 0-4.41-.938Z"></path><path d="M91.078 112.722c-.471 1.446-3.138.076-3.787-.508.083-2.064 3.563-.461 3.787.508Z"></path><path d="M87.466 114.124c.2-1.95 3.5-.593 3.404.293-.149 1.242-2.827.484-3.404-.293Z"></path><path d="m90.601 116.366-.148.698c-.665.33-2.746-.094-3.017-.776-.068-1.71 3.001-.759 3.162.093Z"></path><path d="M90.388 118.062c-.012.473-.234.619-.334.94a2.557 2.557 0 0 1-2.462-.658c-.498-1.919 2.15-.88 2.793-.268Zm255.848 184.472c.335 1.905 1.8 4.058 1.134 6.065-.974.945-1.5-.742-2.123-.567-26.629 10.151-52.923 20.637-80 30.337-.175 1.265.567 2.487-.7 2.967-1.542.567-3.767-2.632-4.8-3.81-3.083-3.49-5.352-5.934-8.464-9.308-1.367-1.483-3.592-3.185-4.232-4.654a39.537 39.537 0 0 1-1.265-5.5c-9.875-41.594-20.244-82.257-30.614-124.026-3.04-12.26-6.268-25.058-9.177-37.958-.378-1.7-1.294-4.785-1.12-5.5.291-1.236 3.65-2.254 5.076-2.967 1.876-.945 3.738-1.8 5.221-2.691 2.051-1.207 3.825-2.778 5.788-3.956 6.079-3.621 12.478-5.832 20.739-8.042 15.154-4.058 31.283-7.49 50.931-5.512 2.385.247 5.221.654 8.042 1.134 2.181.364 6.574.7 7.475 1.687.582.654.96 3.461 1.411 5.221 13.365 53.064 25.8 106.187 38.51 159.736.92 3.828 2.298 6.748-1.832 7.344Zm-82.4-171.858c12.112 49.742 24.343 99.36 36.269 149.287 13.06-4.014 25.742-8.406 38.656-12.565-10.6-45.4-21.859-90.169-32.17-135.878-12.449-2.138-29.552-2.88-42.757-.843Zm-41.9 12.7c-1.469.9-3.156 1.731-4.087 3.112 12.551 49.157 24.36 99.055 36.547 148.575 14.718-4.61 29.058-9.613 43.732-14.253-12.029-50.018-23.925-100.149-36.112-149.992-13.976 2.923-29.654 6.181-40.081 12.551Zm-14.967 8.042c13.511 52.152 26.571 107.2 39.791 160.151.9 3.636 1.382 7.766 2.676 10.718.524 1.178 1.92 2.356 2.967 3.534 2.632 2.952 5.265 5.73 7.766 8.464.494.538 1.091 1.527 1.556 1.265-15.2-62.842-30.992-125.058-45.71-188.365h-.291c-2.894 1.425-6.166 2.487-8.755 4.232ZM254.802 296.6c2.792 11.591 5.643 23.138 8.464 34.715 27.88-10.282 55.265-21.03 83.391-31.05-1.862-7.708-3.723-15.692-5.512-23.284a45.9 45.9 0 0 0-2.109-7.475Q297 283.118 254.802 296.6Zm89.311 6.777c-26.323 10.588-53.738 20.1-80.134 30.614a19.165 19.165 0 0 0 .567 2.545c26.556-10.6 53.563-20.739 80.425-31.05 0-.844-.364-1.324-.422-2.109-.058-.233-.189.029-.422 0Z"></path><path d="M235.053 140.405c.291 1.847-1.12 3.636-1.978 5.367-2.109 4.261-4.087 8.77-6.486 12.987-.407.713-.9 2.051-2.109 1.411-.218-1.832 1.28-3.243 2.109-4.8 2.443-4.552 4.887-10.282 7.33-14.82.116-.32.873-.378 1.134-.131Zm-4.946 1.556a39.606 39.606 0 0 1-3.112 7.2c-.465.945-1.149 2.283-1.687 3.389-.422.858-1.12 3-2.545 1.687 2.051-4.334 3.883-8.915 6.486-12.7.422 0 .553.291.844.422Zm7.199 2.53c.305 1.643-.989 3.083-1.687 4.523-1.425 2.894-2.749 5.7-4.232 8.741-.567 1.149-.814 3.738-2.821 3.243-.175-1.571.916-2.923 1.556-4.232 1.949-3.927 3.956-8.29 6.065-12.129.189-.393.756-.291 1.12-.145Zm1.557 4.804a20.683 20.683 0 0 1-2.123 5.643c-.654 1.382-1.454 4.363-3.519 3.519-.029-.96.742-1.643 1.12-2.4 1.091-2.138 2.109-4.552 3.243-6.908.116-.131.378-.087.422-.291.422 0 .553.305.844.422Zm2.399 2.265c-.771 2.24-1.28 4.727-3.389 5.643a2.992 2.992 0 0 1-.567-.567c.989-1.876 1.629-4.116 3.112-5.5.437.002.553.307.844.424Zm44.313 57.285c2.923-1.658 5.541 5.745 4.8 9.584-.175.887-.916 1.731-1.556 1.7-1.353-.087-2.138-3.549-2.531-4.93a14.115 14.115 0 0 1-.7-6.355Zm3.1 8.188a10.412 10.412 0 0 0-1.556-6.065 14.586 14.586 0 0 0 1.554 6.065Zm-12.145-6.502a2.23 2.23 0 0 1 1.134-.422c2.181.029 4.188 6.879 4.087 9.6-.044 1.353-.64 2.618-1.978 2.531-1.571-.1-2.341-3.359-2.676-4.945a21.831 21.831 0 0 1-.567-6.777Zm3.389 9.744a12.98 12.98 0 0 0-1.832-7.621 19.02 19.02 0 0 0 1.832 7.623Zm57.155 63.76c.349 2.152-2.6 3.665-4.668 4.232-1.236.349-2.894.567-3.81-.291-.393-2.5 3.723-3.9 6.21-4.232.814-.116 1.832-.422 2.269.276Zm-5.788 2.691c1.047-.145 3.04-.8 2.821-1.28a10.643 10.643 0 0 0-2.821 1.28Zm-66.319 22.716c-.8-2.269 4.072-4.247 6.486-4.509 1.236-.131 3.723-.131 3.956.844.305 1.338-2.152 2.341-3.243 2.821-2.225.974-4.93 2.123-7.184.844Zm2.254-1.12a11.744 11.744 0 0 0 5.366-1.833 10.9 10.9 0 0 0-5.365 1.834ZM64.08 309.661c-.887.611-.756 1.847-1.978 2.123-1.367.32-3.156-.64-4.377-.989a2.648 2.648 0 0 1 .145-2.254c-8.741-1.556-17.35-3.243-25.96-4.93-.843.887-.96 2.123-2.123 2.4a9.389 9.389 0 0 1-3.81-.422c-1.8-.712-3.81-4.1-3.81-4.93s.727-1.469 1.12-2.269c-3.578-4.552-7.693-8.581-11.286-13.118-.887.96-1.789.48-3.243-.145-2.589-1.105-6.966-4.552-3.665-7.621a22.235 22.235 0 0 0-2.691-3.1c-.713-.829-2.341-2.2-2.4-3.243-.058-.858 1.134-2.123 1.832-3.389 8.348-14.863 16.07-28.287 24.695-43.179.974-1.687 3.185-6.283 4.8-6.356 3.229-.131 6.923 1.091 10.3 1.687 8.61 1.512 16.885 2.981 25.393 4.508 1.643.305 3.869.422 4.93.989.931.494 2.4 2.763 3.389 3.956 6.646 7.984 12.842 15.2 19.619 23.575.873 1.062 2.938 2.923 2.967 4.232.029 1.091-1.862 4.668-3.52 4.378a1451.934 1451.934 0 0 1-24.273 42.045c-1.542 2.56-2.516 6.588-6.065 6.064Zm-5.369-59.392c11.591 1.425 23.895 3.243 35.7 5.221-7.068-8.362-14.238-16.448-21.306-24.971-.887-1.062-2.225-3.112-3.112-3.534a22.483 22.483 0 0 0-4.232-.713c-10.646-1.687-22.775-3.476-32.315-5.366 8.29 9.9 16.914 19.488 25.247 29.348Zm-28.634-27.94c7.9 9.453 16.725 18.935 24.695 28.214.524.611.989 1.658 1.556 1.411 1-.684 0-1.513-.422-1.978-8.406-9.351-17.219-18.906-25.262-28.214 0-.087-.029-.174-.131-.145-.175.218-.189.582-.422.713Zm-1.411 2.676c-8.319 15.6-17.321 30.556-25.829 45.986 7.723 8.653 15.154 17.583 22.993 26.105 8.886-15.285 17.67-30.672 27.094-45.433-8.1-8.871-16.085-17.874-24.273-26.672Zm29.625 27.516c0 .175-.175.189-.131.422 10.689 1.672 22.339 3.723 32.868 5.512 1.4.233 3.49 1.12 4.232-.145-11.955-2.371-24.665-3.927-36.547-6.21a.676.676 0 0 0-.422.422Zm-4.087.567c-8.173 14.5-17.321 29.785-25.683 44.168-.378.669-1.731 1.978-.276 2.676 8.973-14.936 17.976-31.006 26.949-46.132-.524-.044-.378-.742-.989-.7Zm-4.8 15.518c11.489 2.152 23.138 4.145 34.715 6.21 2.749-4.45 5.963-9.177 8.188-13.685-11.911-1.92-23.589-4.072-35.137-6.355-2.759 4.435-5.22 9.161-7.765 13.83Zm-9.452 16.363c11.533 2.2 22.935 4.523 34.293 6.908 2.705-5.047 5.846-9.671 8.464-14.82-11.591-1.992-23.2-3.985-34.57-6.21-2.894 4.538-5.512 9.351-8.188 14.107Zm-34.293-4.668c.843.625 1.425 1.5 2.254 2.123.058-.494.64-.494.567-1.134a23.855 23.855 0 0 0-2.123-2.4c-.16.536-.509.885-.698 1.409Zm3.956 3.112c.407-.044.436.32.843.276a.777.777 0 0 0-.713-.7.727.727 0 0 1-.134.422Zm20.884 17.917c11.707 1.789 23.095 3.9 34.569 5.919 2.778-4.465 5.425-9.061 8.042-13.685-11.693-1.905-23.124-4.072-34.424-6.355-2.851 4.581-5.468 9.395-8.173 14.107Zm-6.355-.567c.684.582 1.033 1.513 1.832 1.978.058-.407.494-.436.422-.989-.64-.567-.96-1.5-1.832-1.833-.131.291-.291.567-.422.844Zm3.388 3.106c.756-.116 1.149.174 1.832.145.131-.306.436-.422.422-.844-.945-.291-2.225-.524-2.254.713Zm32.17 5.221v.422c.873-.131 2.08.829 2.269-.291-.727-.025-1.571-.519-2.269-.127Z"></path><path d="M63.381 261.115c1.556-.48 2.458.32 2.4 1.556-.189 3.578-5.919-.465-2.4-1.556Zm13.395 3.113c1.512-.291 2.269.378 2.123 1.7-.436 3.696-6.15-.911-2.123-1.7Zm-22.441 13.685c.742-.1 1.745.116 1.978.844.844 2.691-3.447 2.923-3.519.713-.029-.785.174-1.367 1.556-1.556Zm13.133 3.389c3.025-.582 2.661 3.229.291 3.112-1.299-.073-2.836-2.618-.291-3.112Zm-22.716 13.263c1.527-.625 2.705.32 2.531 1.687-.436 3.359-5.643-.422-2.531-1.687Zm12.419 3.243a3.027 3.027 0 0 1 2.676.567c1.12 4.508-5.628 1.978-2.676-.567Z"></path></g></svg>