<svg xmlns="http://www.w3.org/2000/svg" width="1512" height="236" viewBox="0 0 1512 236"><g transform="translate(83.5 -2866.212)"><path d="M4235,3102.212a124.8,124.8,0,0,1-19.285-1.486,122.668,122.668,0,0,1-17.9-4.217,145.421,145.421,0,0,1-32.529-15.173,254.84,254.84,0,0,1-29.7-21.732c-9.631-8.013-18.9-16.459-28.722-25.4-21.375-19.468-43.478-39.6-69.678-55.137a212.424,212.424,0,0,0-20.458-10.705,190.483,190.483,0,0,0-22.306-8.493,187.019,187.019,0,0,0-24.475-5.791,200.727,200.727,0,0,0-26.963-2.6q-3.96-.117-7.858-.116c-63.969,0-114.907,23.2-168.717,47.7-31.578,14.379-64.231,29.248-101.367,40.379a420.406,420.406,0,0,1-59.46,13.348c-10.841,1.612-21.944,2.809-33,3.558-11.632.788-23.606,1.1-35.59.945-11.589-.155-22.776-.725-33.25-1.694-9.986-.924-19.656-2.241-28.739-3.915a241.84,241.84,0,0,1-46.521-13.233c-6.489-2.6-12.725-5.436-19.065-8.683-5.648-2.893-11.249-6.045-17.124-9.635-10.907-6.667-21.121-13.875-31-20.845-9.472-6.685-19.267-13.6-29.661-20.023a243.654,243.654,0,0,0-34.209-17.782,236.337,236.337,0,0,0-43.352-13.33c-8.416-1.763-17.347-3.21-26.543-4.3-9.651-1.144-19.93-1.935-30.552-2.35-10.859-.426-21.689-.375-32.19.148-10.044.5-20.055,1.448-29.755,2.816a302.3,302.3,0,0,0-52.4,12.155,277.011,277.011,0,0,0-77.774,40.059,267.785,267.785,0,0,0-26.161,22,247.207,247.207,0,0,0-18.2,19.365,159.952,159.952,0,0,0-14.069,19.008.5.5,0,0,1-.861-.509,161.158,161.158,0,0,1,14.165-19.143,248.089,248.089,0,0,1,18.272-19.444,268.67,268.67,0,0,1,26.259-22.078,278.006,278.006,0,0,1,78.054-40.2,303.308,303.308,0,0,1,52.576-12.2c9.729-1.372,19.77-2.322,29.844-2.825,10.531-.525,21.392-.575,32.279-.149,10.648.417,20.954,1.21,30.631,2.357,9.225,1.093,18.185,2.545,26.63,4.315a237.318,237.318,0,0,1,43.534,13.387,244.657,244.657,0,0,1,34.349,17.854c10.42,6.442,20.227,13.364,29.712,20.057,9.863,6.961,20.063,14.159,30.942,20.809,5.853,3.578,11.433,6.717,17.058,9.6,6.312,3.233,12.521,6.061,18.981,8.645a240.83,240.83,0,0,0,46.33,13.178c9.054,1.669,18.694,2.982,28.65,3.9,10.447.966,21.608,1.535,33.171,1.69,11.957.16,23.9-.157,35.509-.943,11.03-.746,22.106-1.941,32.921-3.549a419.4,419.4,0,0,0,59.32-13.317c37.07-11.112,69.692-25.966,101.24-40.331,28.505-12.98,55.43-25.24,84.144-34.2a303.167,303.167,0,0,1,44.47-10.472c7.839-1.209,15.78-2.076,23.6-2.576,8.183-.524,16.528-.665,24.8-.421a201.722,201.722,0,0,1,27.1,2.61,187.956,187.956,0,0,1,24.606,5.822,191.508,191.508,0,0,1,22.424,8.538,213.377,213.377,0,0,1,20.555,10.756c26.288,15.591,48.429,35.756,69.841,55.258,38.253,34.84,74.385,67.747,127.46,67.747a166.527,166.527,0,0,0,38.629-4.412,149.587,149.587,0,0,0,32.046-11.629,157.727,157.727,0,0,0,46.143-35.3,181.521,181.521,0,0,0,14.973-18.858,184.386,184.386,0,0,0,10.153-16.451,131.777,131.777,0,0,0,7.586-16.025.5.5,0,1,1,.939.342,132.815,132.815,0,0,1-7.648,16.162,185.4,185.4,0,0,1-10.208,16.541,182.465,182.465,0,0,1-15.056,18.962,158.715,158.715,0,0,1-46.436,35.517,150.6,150.6,0,0,1-32.26,11.707A167.535,167.535,0,0,1,4235,3102.212Z" transform="translate(-2972)" fill="#e6f1fa"></path><path d="M4235,3102.5a124.592,124.592,0,0,1-19.285-1.488,122.492,122.492,0,0,1-17.9-4.224,145.3,145.3,0,0,1-32.529-15.2,254.843,254.843,0,0,1-29.7-21.771c-9.631-8.027-18.9-16.488-28.723-25.446-21.375-19.5-43.478-39.669-69.678-55.235a212.333,212.333,0,0,0-20.458-10.725,190.334,190.334,0,0,0-22.307-8.508,186.683,186.683,0,0,0-24.474-5.8,200.358,200.358,0,0,0-26.963-2.6q-3.96-.117-7.858-.116c-63.969,0-114.906,23.237-168.716,47.782-31.578,14.4-64.232,29.3-101.367,40.451a419.739,419.739,0,0,1-59.46,13.372c-10.841,1.615-21.944,2.814-33,3.564-9.679.656-19.6.987-29.558.987q-3.015,0-6.033-.04c-11.589-.156-22.776-.726-33.25-1.7-9.986-.925-19.656-2.245-28.739-3.922a241.5,241.5,0,0,1-46.521-13.257c-6.489-2.6-12.725-5.446-19.065-8.7-5.648-2.9-11.249-6.055-17.124-9.653-10.908-6.679-21.121-13.9-31-20.883-9.472-6.7-19.267-13.622-29.661-20.059a243.493,243.493,0,0,0-34.209-17.814,236.027,236.027,0,0,0-43.352-13.354c-8.416-1.767-17.346-3.216-26.543-4.308-9.651-1.146-19.93-1.938-30.552-2.354a317.357,317.357,0,0,0-32.435.381,306.52,306.52,0,0,0-30.474,3.475c-9.55,1.58-19.137,3.646-28.5,6.14-8.89,2.369-17.806,5.187-26.5,8.374a329.768,329.768,0,0,0-85.682,47.237A362.264,362.264,0,0,0,2963,3032.946c-7.718,7.331-15.083,14.977-21.893,22.725a237.566,237.566,0,0,0-17.693,22.318.5.5,0,1,1-.833-.553,238.332,238.332,0,0,1,17.751-22.4c6.828-7.77,14.213-15.437,21.95-22.789a363.236,363.236,0,0,1,30.475-25.915,330.763,330.763,0,0,1,85.95-47.394c8.723-3.2,17.67-6.027,26.591-8.4,9.39-2.5,19.011-4.576,28.594-6.163a307.483,307.483,0,0,1,30.58-3.489,318.3,318.3,0,0,1,32.544-.383c10.648.418,20.954,1.212,30.631,2.361,9.226,1.1,18.185,2.55,26.63,4.323a237.015,237.015,0,0,1,43.534,13.411,244.5,244.5,0,0,1,34.349,17.886c10.42,6.454,20.227,13.387,29.711,20.093,9.864,6.973,20.063,14.184,30.942,20.846,5.853,3.584,11.433,6.729,17.058,9.615,6.313,3.239,12.521,6.072,18.98,8.661a240.516,240.516,0,0,0,46.33,13.2c9.054,1.672,18.693,2.987,28.65,3.91,10.448.968,21.608,1.538,33.171,1.693q3.011.04,6.022.04c9.939,0,19.831-.33,29.487-.985,11.03-.748,22.106-1.944,32.921-3.555a418.767,418.767,0,0,0,59.32-13.341c37.07-11.132,69.692-26.013,101.24-40.4,28.505-13,55.43-25.285,84.144-34.262a302.78,302.78,0,0,1,44.471-10.491c7.839-1.211,15.78-2.079,23.6-2.581,8.183-.525,16.528-.667,24.8-.422a201.36,201.36,0,0,1,27.1,2.615,187.694,187.694,0,0,1,24.606,5.833,191.255,191.255,0,0,1,22.425,8.553,213.342,213.342,0,0,1,20.555,10.775c26.287,15.619,48.429,35.82,69.841,55.356,38.253,34.9,74.385,67.868,127.46,67.868a154.1,154.1,0,0,0,20.187-1.312,144.013,144.013,0,0,0,18.547-3.707,142.073,142.073,0,0,0,32.373-13.233c17.3-9.694,33.171-23.214,47.175-40.184a212.293,212.293,0,0,0,15.531-21.478c3.842-6.067,7.422-12.373,10.642-18.744a165.532,165.532,0,0,0,8.074-18.292.5.5,0,1,1,.945.326,166.3,166.3,0,0,1-8.112,18.389c-3.232,6.4-6.827,12.733-10.685,18.826a213.412,213.412,0,0,1-15.6,21.584c-14.083,17.073-30.051,30.677-47.461,40.436A143.067,143.067,0,0,1,4274,3097.443a145.012,145.012,0,0,1-18.681,3.736A155.121,155.121,0,0,1,4235,3102.5Z" transform="translate(-2972 -35)" fill="#e6f1fa"></path><path d="M2889,3110.212a.5.5,0,0,1-.4-.8c.081-.11,8.28-11.19,23.056-27.384,8.676-9.509,17.892-18.9,27.39-27.906,11.873-11.26,24.223-21.953,36.709-31.782,31.788-25.024,64.634-44.67,97.625-58.391,9.539-3.967,19.217-7.484,28.765-10.454a302.992,302.992,0,0,1,30.274-7.745,281.527,281.527,0,0,1,31.665-4.508,269.332,269.332,0,0,1,32.936-.745c10.648.417,20.954,1.21,30.631,2.357,9.225,1.093,18.185,2.545,26.63,4.315a237.321,237.321,0,0,1,43.534,13.387,244.641,244.641,0,0,1,34.349,17.854c10.42,6.442,20.227,13.364,29.712,20.057,9.864,6.961,20.063,14.159,30.942,20.809,5.853,3.578,11.433,6.718,17.058,9.6,6.313,3.233,12.521,6.061,18.981,8.645a240.835,240.835,0,0,0,46.33,13.178c9.054,1.669,18.693,2.982,28.65,3.9,10.448.966,21.608,1.535,33.171,1.69,11.958.16,23.9-.157,35.509-.943,11.03-.747,22.106-1.941,32.921-3.549a419.35,419.35,0,0,0,59.32-13.317c37.07-11.112,69.692-25.966,101.24-40.331,28.505-12.98,55.43-25.24,84.144-34.2a303.2,303.2,0,0,1,44.47-10.473c7.839-1.209,15.78-2.076,23.6-2.576,8.183-.523,16.527-.665,24.8-.421a201.722,201.722,0,0,1,27.1,2.61,187.943,187.943,0,0,1,24.606,5.822,191.41,191.41,0,0,1,22.425,8.538,213.407,213.407,0,0,1,20.555,10.756c26.288,15.591,48.429,35.756,69.841,55.258,38.253,34.84,74.385,67.747,127.46,67.747a111.1,111.1,0,0,0,20.3-1.866,113.385,113.385,0,0,0,18.911-5.276,125.309,125.309,0,0,0,17.541-8.2,146.074,146.074,0,0,0,16.183-10.643c18.3-13.814,35.571-33.082,51.325-57.269,6.192-9.508,12.162-19.808,17.744-30.614,4.466-8.646,8.695-17.634,12.569-26.714,6.6-15.462,9.92-25.964,9.953-26.068a.5.5,0,0,1,.954.3c-.033.1-3.365,10.64-9.978,26.14-3.883,9.1-8.122,18.112-12.6,26.78-5.6,10.836-11.583,21.167-17.794,30.7-15.817,24.289-33.165,43.646-51.563,57.532a147.01,147.01,0,0,1-16.3,10.719,126.339,126.339,0,0,1-17.683,8.269,114.4,114.4,0,0,1-19.081,5.323,112.114,112.114,0,0,1-20.484,1.884,124.8,124.8,0,0,1-19.285-1.486,122.668,122.668,0,0,1-17.9-4.217,145.422,145.422,0,0,1-32.529-15.173,254.882,254.882,0,0,1-29.7-21.732c-9.631-8.013-18.9-16.459-28.722-25.4-21.375-19.468-43.478-39.6-69.678-55.137a212.34,212.34,0,0,0-20.458-10.705,190.43,190.43,0,0,0-22.307-8.493,186.98,186.98,0,0,0-24.475-5.791,200.715,200.715,0,0,0-26.963-2.6q-3.96-.117-7.858-.116c-63.969,0-114.907,23.2-168.717,47.7-31.578,14.379-64.232,29.248-101.367,40.379a420.373,420.373,0,0,1-59.46,13.349c-10.841,1.612-21.944,2.809-33,3.558-11.632.788-23.605,1.1-35.59.945-11.589-.155-22.776-.725-33.25-1.694-9.986-.924-19.656-2.241-28.739-3.915a241.822,241.822,0,0,1-46.521-13.233c-6.489-2.6-12.725-5.436-19.065-8.683-5.648-2.893-11.249-6.045-17.124-9.635-10.908-6.667-21.121-13.875-31-20.845-9.472-6.685-19.267-13.6-29.661-20.023a243.67,243.67,0,0,0-34.209-17.782,236.356,236.356,0,0,0-43.352-13.331c-8.416-1.763-17.346-3.21-26.543-4.3-9.651-1.144-19.93-1.935-30.552-2.35a268.182,268.182,0,0,0-32.809.741,280.467,280.467,0,0,0-31.548,4.491,301.89,301.89,0,0,0-30.171,7.717c-9.518,2.96-19.166,6.466-28.675,10.42-32.905,13.684-65.67,33.279-97.384,58.243-12.462,9.809-24.79,20.481-36.64,31.719-9.482,8.991-18.681,18.363-27.343,27.855-14.749,16.163-22.927,27.213-23.008,27.323A.5.5,0,0,1,2889,3110.212Z" transform="translate(-2972 -68)" fill="#e6f1fa"></path></g></svg>