<svg xmlns="http://www.w3.org/2000/svg" width="24" height="20.202" viewBox="0 0 24 20.202"><path d="M14.518,20.523a5.094,5.094,0,0,0-1-3.2,3.3,3.3,0,0,0-1.915-1.172,4.9,4.9,0,0,0-2.222-.04,6.265,6.265,0,0,1,1.1-4.361,9.319,9.319,0,0,1,3.691-3.468L11.893,5A15.41,15.41,0,0,0,8.632,7.172,16.54,16.54,0,0,0,5.89,10.194a11.976,11.976,0,0,0-1.8,3.882,11.678,11.678,0,0,0-.313,4.474A8.652,8.652,0,0,0,5.73,23.383,5.057,5.057,0,0,0,9.7,25.2a4.893,4.893,0,0,0,3.463-1.267,4.4,4.4,0,0,0,1.356-3.417l0,0Zm13.167,0a5.094,5.094,0,0,0-1-3.2,3.237,3.237,0,0,0-1.915-1.179,5,5,0,0,0-2.222-.032,6.265,6.265,0,0,1,1.082-4.358,9.4,9.4,0,0,1,3.69-3.463L25.05,5a15.6,15.6,0,0,0-3.261,2.172,16.291,16.291,0,0,0-2.733,3.022,12.086,12.086,0,0,0-1.789,3.882,11.6,11.6,0,0,0-.313,4.474A8.626,8.626,0,0,0,18.9,23.383a5.052,5.052,0,0,0,3.957,1.8,4.906,4.906,0,0,0,3.466-1.264,4.411,4.411,0,0,0,1.359-3.417v.014Z" transform="translate(-3.685 -5)" fill="#3c7786"></path></svg>