<svg xmlns="http://www.w3.org/2000/svg" width="580" height="330.165" viewBox="0 0 580 330.165"><g transform="translate(-13828 304)"><path d="M555.109,330.165,43.724,330S-22.452,238.362,8.018,151.174c32.85-94,109.9-88.352,173.855-87.981.729,0,1.458.008,2.183.01q1.326.006,2.639.006,1.884,0,3.743-.008l1.295-.006,1.568-.016c29.626-.31,55.494-3.258,71.4-20.2a123.67,123.67,0,0,1,33.988-25.263q1.424-.731,2.865-1.429C320.509,7.1,342.007,1.888,364.154.428q2.408-.162,4.824-.259C462.28-3.681,564.541,58.371,535,171.18c-20.449,78.088,62.234,80.926,20.1,158.985Z" transform="translate(13828.002 -304)" fill="#f1f7fc"></path><g transform="translate(13896.569 -30.836)"><rect width="49.18" height="55.223" transform="translate(49.18 55.223) rotate(180)" fill="#c3e1fc"></rect><rect width="49.18" height="55.223" transform="translate(73.769 55.223) rotate(180)" fill="#d4e7f8"></rect><path d="M349.08,1578.9h7.794l-.688-2.985.688-2.134H349.08Z" transform="translate(-349.052 -1537.683)" fill="#9dc3f3"></path></g><g transform="translate(13974.816 -30.836)"><rect width="49.18" height="55.223" transform="translate(49.18 55.223) rotate(180)" fill="#c3e1fc"></rect><rect width="49.18" height="55.223" transform="translate(73.769 55.223) rotate(180)" fill="#d4e7f8"></rect><path d="M747.27,1578.9h7.792l-.686-2.985.686-2.134H747.27Z" transform="translate(-747.242 -1537.683)" fill="#9dc3f3"></path><path d="M1090.673,1602.85h-7.793l.686,2.987-.686,2.134h7.793Z" transform="translate(-1016.902 -1561.041)" fill="#e3f0ff"></path></g><g transform="translate(13908.248 -68.371)" opacity="0.8"><rect width="45.519" height="37.533" transform="translate(45.519 37.533) rotate(180)" fill="#c3e1fc"></rect><rect width="45.519" height="37.533" transform="translate(68.281 37.533) rotate(180)" fill="#d4e7f8"></rect><path d="M726.344,1343.69H719.13l.637,2.03-.637,1.45h7.214Z" transform="translate(-658.063 -1315.273)" fill="#e3f0ff"></path><rect width="13.099" height="5.095" transform="translate(52.2 2.545)" fill="#fff"></rect></g><g transform="translate(14257.064 -133.882)"><g transform="translate(20.21 0)"><g transform="translate(5.031 23.994)"><path d="M2335.14,997.979s4.205-4.9.259-8.021c0,0-2.882-1.745-5.23-1.6,0,0,3.331,5.583,2.252,6.139s-3.262-6.489-3.262-6.489-6.56-.637-8.668.379c0,0,5.606,4.589,4.426,4.862s-7.237-4.231-7.237-4.231-6.1,1.039-5.779,4.763,2.429,4.874,3.352,4.775,6.332-2.164,6.45-1.405-3.137,3.233-5.416,3.349c0,0,4.3,4.746,7.163,3.376s3.105-3.541,4.887-4.354,3.306-.812,2.569.018-3.964,1.637-4.981,3.441-1.934,3.02,1.023,2.574,7.77-2.612,7.98-5.09l.212-2.48Z" transform="translate(-2311.886 -987.807)" fill="#6bbaff"></path><g transform="translate(3.013 6.042)"><path d="M2327.22,1018.582s16.579-.639,20.24,4.1a11.986,11.986,0,0,0,3.3,4.634l.389,1.059s-2.873-3.03-3.9-3.213C2347.25,1025.165,2348.857,1019.292,2327.22,1018.582Z" transform="translate(-2327.22 -1018.554)" fill="#436b8e"></path><path d="M2443.192,1061.436a10.408,10.408,0,0,1,3.807,7.334l-.646.057s-1.136-4.862-3.191-6.764.031-.629.031-.629Z" transform="translate(-2419.651 -1052.672)" fill="#436b8e"></path></g></g><g transform="translate(38.59 10.678)"><path d="M2487.061,937.362s-6.689-3.745-3.566-8.829c0,0,2.5-3.121,5.172-3.924,0,0-1.427,7.581,0,7.76s.98-8.562.98-8.562,7.045-3.39,9.81-3.12c0,0-4.371,7.4-2.944,7.224s6.331-7.67,6.331-7.67,7.224-1.338,8.383,2.944-.713,6.422-1.784,6.689-7.937.179-7.76,1.071,4.816,2.319,7.4,1.517c0,0-2.853,7.045-6.6,6.689s-4.9-2.677-7.224-2.853-4.012.446-2.854,1.071,5.084.2,6.957,1.8,3.389,2.572-.089,3.287-9.721.267-10.969-2.407l-1.248-2.677Z" transform="translate(-2482.664 -920.042)" fill="#6bbaff"></path><g transform="translate(0.863 4.476)"><path d="M2518.614,942.82s-18.729,6.064-20.87,12.842a14.237,14.237,0,0,1-1.784,6.51v1.338s1.963-4.549,3.032-5.172C2498.992,958.338,2494.8,952.453,2518.614,942.82Z" transform="translate(-2494.21 -942.82)" fill="#436b8e"></path><path d="M2488.807,1037.9a12.351,12.351,0,0,0-1.242,9.725l.743-.2s-.721-5.882.79-8.839-.291-.688-.291-.688Z" transform="translate(-2487.058 -1018.546)" fill="#436b8e"></path></g></g><path d="M2318.629,888.535s8.818-4.938,4.7-11.639c0,0-3.292-4.115-6.819-5.172,0,0,1.881,9.992,0,10.228s-1.292-11.285-1.292-11.285-9.287-4.467-12.932-4.115c0,0,5.76,9.759,3.879,9.523s-8.348-10.11-8.348-10.11-9.523-1.763-11.052,3.879.941,8.464,2.353,8.817,10.464.236,10.228,1.411-6.349,3.056-9.759,2c0,0,3.762,9.287,8.7,8.817s6.465-3.527,9.523-3.761,5.291.588,3.762,1.411-6.7.269-9.171,2.368-4.467,3.392.118,4.333,12.814.354,14.461-3.174l1.647-3.527Z" transform="translate(-2286.285 -865.703)" fill="#6bbaff"></path><g transform="translate(4.835 5.9)"><path d="M2310.89,895.732s24.687,7.994,27.509,16.929a18.736,18.736,0,0,0,2.353,8.581v1.763s-2.586-6-4-6.819c0,0,5.526-7.758-25.865-20.456Z" transform="translate(-2310.89 -895.73)" fill="#436b8e"></path><path d="M2458.028,1021.072a16.28,16.28,0,0,1,1.637,12.82l-.979-.263s.952-7.752-1.041-11.651S2458.028,1021.072,2458.028,1021.072Z" transform="translate(-2428.166 -995.56)" fill="#436b8e"></path></g><path d="M2381.781,1097.841a17.271,17.271,0,0,1-17.271-17.271h34.542A17.271,17.271,0,0,1,2381.781,1097.841Z" transform="translate(-2349.138 -1038.347)" fill="#fff"></path><path d="M2363.29,1164.23h35.021a2.13,2.13,0,0,0-2.13-2.13h-30.758a2.129,2.129,0,0,0-2.13,2.13h0Z" transform="translate(-2348.158 -1103.856)" fill="#aed9ff"></path></g><g transform="translate(0 96.314)"><rect width="75.084" height="61.912" transform="translate(75.084 61.912) rotate(180)" fill="#c3e1fc"></rect><rect width="75.084" height="61.912" transform="translate(112.625 61.912) rotate(180)" fill="#d4e7f8"></rect><path d="M2374.48,1429.87h11.9l-1.048-3.348,1.048-2.391h-11.9Z" transform="translate(-2336.939 -1410.709)" fill="#e3f0ff"></path><path d="M2325.829,1424.13h-11.9l1.049,3.348-1.049,2.392h11.9Z" transform="translate(-2288.288 -1410.709)" fill="#9dc3f3"></path><path d="M2707.929,1594.38h-11.9l1.05,3.349-1.05,2.392h11.9Z" transform="translate(-2595.302 -1547.503)" fill="#618dc1"></path><rect width="21.606" height="8.407" transform="translate(86.102 4.199)" fill="#fff"></rect></g><g transform="translate(19.008 60.408)"><rect width="43.507" height="35.875" transform="translate(21.753)" fill="#3a99ed"></rect><rect width="43.507" height="35.875" fill="#55b0ff"></rect><path d="M2280.17,1311.33h6.894l-.607,1.94.607,1.385h-6.894Z" transform="translate(-2280.17 -1284.168)" fill="#7dc2ff"></path></g><g transform="translate(53.472 115.475)"><rect width="51.849" height="42.752" transform="translate(25.925)" fill="#3a99ed"></rect><rect width="51.849" height="42.752" fill="#55b0ff"></rect><path d="M2817.576,1599.513h-8.216l.723-2.311-.723-1.653h8.216Z" transform="translate(-2739.833 -1567.605)" fill="#4fa5f1"></path></g></g><g transform="translate(14192.596 -145.691)"><path d="M1960.157,1267.737a33.129,33.129,0,0,1-.336,6.9c-1.417,11.354-6.043,29.484-6.043,29.484l-5.795.7c.422-3.205-.784-15.483-2.386-29.089-2.417-20.527-5.738-44.079-5.738-44.079s12.616-10.427,20.05-7.546S1959.285,1259.782,1960.157,1267.737Z" transform="translate(-1923.257 -1141.469)" fill="#f99482"></path><path d="M1962.24,833.086a8.425,8.425,0,0,0-6.483,0c-3.429,1.466-5.925,7.709-4.388,13.539s-3.649,5.928-1.248,10.605c.851,1.659,12.121,3.069,12.5-3.39.238-4-3.384-4.2-2.329-8.548s1.943-12.209,1.943-12.209Z" transform="translate(-1930.983 -827.163)" fill="#214565"></path><path d="M2004.843,1262.476a41.288,41.288,0,0,1-.081,9.08c-.984,11.573-4.13,28.113-4.13,28.113l-5.732,1.324c.218-3.166-1.652-15.074-4.015-28.4-3.672-20.726-8.524-44.879-8.524-44.879s11.95-11.187,19.547-8.768,1.576,35.638,2.934,43.524Z" transform="translate(-1957.405 -1137.45)" fill="#ff9d8c"></path><path d="M1947.879,1627.586a6.768,6.768,0,0,1-4,3.115,6.568,6.568,0,0,0-3.938,2.45,1.542,1.542,0,0,0,1.254,2.448l13.331-.077a1.917,1.917,0,0,0,1.9-2.12c-.1-.986-.216-2.136-.265-3.018-.11-1.924-2.2-3.655-2.2-3.655a13.637,13.637,0,0,1-2.537,1.173,9.44,9.44,0,0,1-3.545-.32Z" transform="translate(-1923.083 -1465.373)" fill="#21384c"></path><path d="M1923.134,977.46s-9.367,16.46-11.124,28.435c0,0,4.893,3.946,6.616-.069S1932.718,980.321,1923.134,977.46Z" transform="translate(-1900.88 -943.69)" fill="#f99482"></path><path d="M1977.07,813.307c.094-.155,3.991-6.32,11.28-7.55a10.778,10.778,0,0,1,12.337,9.092c.912,5.946-.018,13.651-9.72,16.428l-13.895-17.969Z" transform="translate(-1953.155 -805.61)" fill="#214565"></path><path d="M1986.13,918.193l10.979,6.52,2.9-7.705a22.262,22.262,0,0,1-1.767-7.344,29.962,29.962,0,0,1,.177-6.495l-9.546,4.146a17.838,17.838,0,0,1,.234,2.14,15.45,15.45,0,0,1-.474,4.936,6.848,6.848,0,0,1-2.5,3.8Z" transform="translate(-1960.434 -883.999)" fill="#ff9d8c"></path><path d="M1998.87,940.088c5.267.194,9.611-4.728,9.611-4.728l-9.136-.21a15.382,15.382,0,0,1-.476,4.936Z" transform="translate(-1970.671 -909.694)" fill="#e58878"></path><path d="M1973.227,857.47s10.311,3.437,14.459-4.673c4.477-8.75.611-15.581-2.922-16.249-7.045-1.334-11.343,1.112-12.773,3.895S1967.534,855.626,1973.227,857.47Z" transform="translate(-1947.392 -830.167)" fill="#ff9d8c"></path><path d="M1988.182,915.377s-.507,1.053-3.234.271c0,0-2.292-.656-1.95-1.863A7.65,7.65,0,0,1,1988.182,915.377Z" transform="translate(-1957.89 -892.506)" fill="#fcefec"></path><path d="M1964.08,1056.357c-2.981,2.847-24.988,8.733-37.391,4.5-2.223-.759,1.334-69.34,3.455-82.583a8.34,8.34,0,0,1,7.11-6.951c.615-.084,1.421-.246,2.142-.316-.153,1.629.265,3.24,3.1,3.8,3.777.737,7.349-1.643,9.185-3.3a34.78,34.78,0,0,1,7.025,1.822,6.177,6.177,0,0,1,3.736,6.52l-.709,5.229-2.26,16.66a22,22,0,0,0,.049,6.3c.963,6.332,2.492,21.757,3.518,33.491.721,8.253,1.193,14.683,1.042,14.827Z" transform="translate(-1912.108 -938.508)" fill="#3b5b77"></path><path d="M1981.163,825.245s-.976,9.672,8.2,13.1c3.649,1.364,5.547-13.41-2.075-16.361s-15.143.554-16.041,5.711-.214,6.231-.214,6.231S1974.6,824.115,1981.163,825.245Z" transform="translate(-1948.102 -817.902)" fill="#214565"></path><path d="M1934.633,990.54l-4.773,8.163s.615,3.789,4.186,4.164S1934.633,990.54,1934.633,990.54Z" transform="translate(-1915.222 -954.2)" fill="#3b5b77"></path><path d="M2079.939,833.17a7.571,7.571,0,0,1,6.483,0c3.429,1.651,5.925,8.68,4.388,15.247s3.649,6.675,1.248,11.942c-.851,1.867-12.121,3.457-12.5-3.816-.238-4.506,3.384-4.728,2.329-9.625S2079.939,833.17,2079.939,833.17Z" transform="translate(-2035.491 -827.165)" fill="#214565"></path><path d="M2011.679,1627.586a6.769,6.769,0,0,1-4,3.115,6.569,6.569,0,0,0-3.938,2.45,1.542,1.542,0,0,0,1.254,2.448l13.331-.077a1.917,1.917,0,0,0,1.9-2.12c-.1-.986-.216-2.136-.266-3.018-.11-1.924-2.195-3.655-2.195-3.655a13.671,13.671,0,0,1-2.535,1.173,9.438,9.438,0,0,1-3.545-.32Z" transform="translate(-1974.346 -1465.373)" fill="#2c4a64"></path><g transform="translate(0 32.713)"><path d="M1924.5,1116.59v12.376c0,1.486-1.678,2.7-3.728,2.7h-11.148c-2.052,0-3.728-1.216-3.728-2.7V1116.59h18.605Z" transform="translate(-1895.97 -1088.193)" fill="#fff"></path><path d="M1900.978,1034.33c-.018-.134-1.784-13.376-8.658-19.946l.187-.195c6.945,6.636,8.723,19.971,8.741,20.107l-.267.033Z" transform="translate(-1885.059 -1005.916)" fill="#436b8e"></path><path d="M1952.445,1009.45c-.287-8.42,1.926-26.033,1.95-26.21l.267.033c-.022.177-2.233,17.768-1.948,26.167Z" transform="translate(-1933.348 -981.047)" fill="#436b8e"></path><path d="M1972.747,1077.586l-.267-.026a10,10,0,0,1,5.1-7.727,15.325,15.325,0,0,1,4.537-1.8l.049.265a15.038,15.038,0,0,0-4.455,1.775,9.735,9.735,0,0,0-4.964,7.516Z" transform="translate(-1949.467 -1049.176)" fill="#436b8e"></path><path d="M1863.6,998.4s-.564-5.017-3.127-5.1a24.273,24.273,0,0,0-5.1.466,10.976,10.976,0,0,1,2.745,2.077c.88,1.081,5.483,2.551,5.483,2.551Z" transform="translate(-1855.37 -989.131)" fill="#acd8ff"></path><path d="M1884.242,1029.489s-3.211-.464-4.4.47-.776,3.781-.776,3.781a10.474,10.474,0,0,0,2.641-1.14,4.777,4.777,0,0,0,2.071-2.122l.466-.987Z" transform="translate(-1874.352 -1018.115)" fill="#acd8ff"></path><path d="M1897.336,1107.121s-4.315-2.429-6.526-1.759-3.189,4.954-3.189,4.954a15.934,15.934,0,0,0,4.388-.167,7.282,7.282,0,0,0,4.119-1.881l1.207-1.147Z" transform="translate(-1881.283 -1079.078)" fill="#6bbaff"></path><path d="M1936.617,974.4c.091.073-1.4-2.6-2.991-2.291a10.354,10.354,0,0,0-3.5,1.826,28.952,28.952,0,0,1,3.242.621c.99.311,2.66-.621,3.242-.155Z" transform="translate(-1915.439 -972.082)" fill="#6bbaff"></path><path d="M2016.766,1054.445c0,.106-1.126-2.83-.008-3.374a7.559,7.559,0,0,1,3.293-.261,15.7,15.7,0,0,0-1.357,2.136C2018.367,1053.7,2016.75,1053.771,2016.766,1054.445Z" transform="translate(-1984.647 -1035.28)" fill="#acd8ff"></path><path d="M1963.15,976.474a2.048,2.048,0,0,1,1.3-1.775,1.834,1.834,0,0,1,0,1.3C1964.16,976.539,1963.15,976.474,1963.15,976.474Z" transform="translate(-1941.97 -974.185)" fill="#6bbaff"></path><path d="M1980.234,1080.67a2.044,2.044,0,0,1-1.364-1.721,1.828,1.828,0,0,1,1.248.346C1980.566,1079.715,1980.234,1080.67,1980.234,1080.67Z" transform="translate(-1954.601 -1057.945)" fill="#acd8ff"></path><path d="M1962.62,986.969a4.9,4.9,0,0,1,1.916-.362c.751.1,1.5,2.02,1.5,2.02a9.388,9.388,0,0,1-2.071-.234C1963.449,988.188,1963.086,986.918,1962.62,986.969Z" transform="translate(-1941.544 -983.741)" fill="#6bbaff"></path><path d="M1999.35,1074.9a4.924,4.924,0,0,1,1.8-.754c.757-.055,1.891,1.663,1.891,1.663a9.466,9.466,0,0,1-2.075.2C2000.413,1075.917,1999.794,1074.752,1999.35,1074.9Z" transform="translate(-1971.057 -1054.088)" fill="#acd8ff"></path><path d="M1933.026,998.135s-2.02-1.515-3.626-1.289-3.16,2.3-3.16,2.3a8.493,8.493,0,0,0,2.822.415,6.415,6.415,0,0,0,2.68-1.165c.35-.35,1.281-.257,1.281-.257Z" transform="translate(-1912.314 -991.961)" fill="#acd8ff"></path><path d="M1954.514,992.3a1.52,1.52,0,0,0-.279-1.49c-.6-.583-.782-.758-.782-.758a2.54,2.54,0,0,0,.006,1.22c.179.546,1.057,1.028,1.057,1.028Z" transform="translate(-1934.118 -986.519)" fill="#6bbaff"></path><path d="M1958.982,1017.134s3.262-1.714,5.4-.509a7.063,7.063,0,0,1,2.836,4.038s-3.767-.079-5.011-1.049-1.142-2.37-1.7-2.447a11.326,11.326,0,0,0-1.527-.035Z" transform="translate(-1938.62 -1007.527)" fill="#acd8ff"></path><path d="M1955.79,1046.013s.971-2.25,2.58-2.519a4.69,4.69,0,0,1,3.154.9s-1.981,1.535-3.03,1.552-1.582-.749-1.9-.556a7.327,7.327,0,0,0-.8.621Z" transform="translate(-1936.057 -1029.428)" fill="#acd8ff"></path><path d="M1978.87,1091.359s4.329-2.274,7.163-.676,3.761,5.359,3.761,5.359-5-.1-6.648-1.391-1.515-3.144-2.252-3.246a14.866,14.866,0,0,0-2.024-.047Z" transform="translate(-1954.601 -1066.92)" fill="#acd8ff"></path><path d="M2013.932,1066.584s3.262-1.713,5.4-.509a7.061,7.061,0,0,1,2.835,4.038s-3.767-.079-5.011-1.049-1.142-2.37-1.7-2.446a10.96,10.96,0,0,0-1.527-.035Z" transform="translate(-1982.771 -1047.26)" fill="#acd8ff"></path><path d="M1936.376,1021.187a2.46,2.46,0,0,0-1.932-1.985c-1.627-.228-3.244,1.985-3.244,1.985a10.254,10.254,0,0,0,2.37.507c.855,0,1.723-1.334,2.144-1.043a5.3,5.3,0,0,1,.664.536Z" transform="translate(-1916.299 -1009.93)" fill="#6bbaff"></path><path d="M1915.955,1059.4s-2.519-3.012-5.87-1.653-4,7.359-4,7.359a22.517,22.517,0,0,0,5.072-1.647c1.629-.941,1.812-4.443,2.934-4.349a11.779,11.779,0,0,1,1.859.291Z" transform="translate(-1896.123 -1040.631)" fill="#acd8ff"></path><path d="M1962.11,1086.02s.266-1.895-1.043-2.525-3.337,1.266-3.337,1.266a7.656,7.656,0,0,0,1.853,1.1c.723.208,1.855-.963,2.124-.558a4.985,4.985,0,0,1,.4.718Z" transform="translate(-1937.615 -1061.498)" fill="#6bbaff"></path></g><path d="M2013.933,1016.81s-.141,20.429-2.537,22.685-12.5,7.273-12.5,7.273l.9,2.985s12.021-1.383,16.67-4.763,6.2-21.557,6.058-23.388-8.6-4.791-8.6-4.791Z" transform="translate(-1970.695 -975.307)" fill="#ff9d8c"></path><path d="M2065.05,986.552a9.726,9.726,0,0,1,3.883,5.388c1.058,3.7.94,12.1.94,12.1a14.771,14.771,0,0,1-11.414-1.48c-6.235-3.382,6.591-16.01,6.591-16.01Z" transform="translate(-2017.177 -950.994)" fill="#3b5b77"></path><path d="M1965.058,1164.854a3.98,3.98,0,0,0-2.266-.818c-1.12.071-3.4-.491-3.4.071s1.262.876,1.331,1.226-1.156,1.33-2,1.611-2.346.21-2.067,1.191,2.7,1.682,4.624,1.612,5.762-2.03,5.762-2.03l-1.991-2.863Z" transform="translate(-1936.729 -1093.457)" fill="#ff9d8c"></path><path d="M1898.317,1139.166s-1.391,2.343-.827,3.751,2.386,1.3,3.232.739-.238-2.034-.635-2.985C1899.681,1139.7,1899.3,1138.251,1898.317,1139.166Z" transform="translate(-1889.105 -1073.385)" fill="#f99482"></path></g><g transform="translate(13936.25 -213.743)"><path d="M900.764,689.007s-1.609-14.292,4.573-26.336a1.335,1.335,0,0,1,2.553.507,49.591,49.591,0,0,1-2.511,26.827c-6.308,15.825-4.614-1-4.614-1Z" transform="translate(-831.841 -622.067)" fill="#acd8ff"></path><path d="M934.177,709.42s1.01-14.347,9.277-25.068a1.334,1.334,0,0,1,2.417.961,49.578,49.578,0,0,1-7.338,25.925C929.459,725.653,934.177,709.42,934.177,709.42Z" transform="translate(-857.869 -639.654)" fill="#acd8ff"></path><path d="M914.99,692.214s.029-14.382,7.546-25.642a1.335,1.335,0,0,1,2.478.794,49.576,49.576,0,0,1-5.553,26.365C911.392,708.733,914.99,692.214,914.99,692.214Z" transform="translate(-842.795 -625.308)" fill="#6bbaff"></path><path d="M935.119,729s2.838-10.865,10.724-17.9c.835-.747,1.932-.055,1.718,1.085a38.7,38.7,0,0,1-9.36,18.839c-9.036,9.759-3.081-2.022-3.081-2.022Z" transform="translate(-858.064 -661.369)" fill="#6bbaff"></path><g transform="translate(0 97.721)"><path d="M554.1,1574.182s-3.9,3.557-3.136,6.084,4.276,4.211,4.751,7.3,2.376,4.773,4.087,4.773h8.155s1.26-2.174-1.782-2.828-4.188-4.284-4-7.654a59.283,59.283,0,0,0-.285-7.86l-6.463-1.5-1.33,1.684Z" transform="translate(-550.869 -1451.469)" fill="#233862"></path><path d="M732.96,1590.6s-1.4,15.064.309,15.907l21.893-.045s0-2.527-3.517-3.089-9.694-2.62-10.739-7.206-7.947-5.569-7.947-5.569Z" transform="translate(-696.744 -1466.012)" fill="#233862"></path><path d="M739.661,959.58s6.312,19.647,6.717,26.336-12.066,95.027-12.569,98.109c-.474,2.906-4.082,4.757-4.082,4.757a5.463,5.463,0,0,1-4.028.311c-3.286-.927-4.325-2.038-4.325-2.038s-4.913-63-1.873-85.507a356.448,356.448,0,0,0,3.075-41.968h17.079Z" transform="translate(-685.566 -958.992)" fill="#2c4963"></path><path d="M596.877,956.592s-9.629,12.918-10.527,21.651-1.409,39.41-3.321,47.922-8.939,24.9-8.939,51.452a5.3,5.3,0,0,0,2.985,2.333,24.463,24.463,0,0,0,2.625.725,4.129,4.129,0,0,0,4.616-2.191c4.75-9.564,19.881-40.412,20.657-46.814.548-4.531,5.327-34.523,15.748-52.12,2.5-4.225-1.535-21.026-1.535-21.026l-22.312-1.934Z" transform="translate(-569.527 -956.59)" fill="#3b5b77"></path></g><path d="M626.281,463.531c-.232-.56-2.93-6.512-12.1-3.264,0,0,4.651-1.208,6.168.5,0,0-3.954-1.295-6.123.479s-1.963,6.8-1.435,8.269,3.653,5.652,5.369,5.435a5.036,5.036,0,0,0,1.9-.745,24.577,24.577,0,0,0-.385,2.714c-.774,9.059,5.72,15.054,8.47,13.024,1.763-1.3,3.6,1.926,3.6,1.926l13.139-23.4s-12.531-12.154-18.6-4.948Z" transform="translate(-600.346 -459.302)" fill="#214565"></path><path d="M722.266,643.607c-12.445,5.732-21.8-14.5-20.987-14.709,1.244-1.45,2.527-6.618,1.615-14.058l.645.045,10.822.825s.169,3.461.542,6.687a19.589,19.589,0,0,0,1.026,5.027,9.9,9.9,0,0,0,2.48.615c.183.2,7.176,14.035,3.857,15.563Z" transform="translate(-671.682 -584.276)" fill="#ff9d8c"></path><path d="M665.71,698.281c.806,3.042,1.468,5.766,1.792,7.6,1.5,8.462.745,51.483.745,51.483C646.287,765.741,620,754.96,620,754.96c-.815-8.021,2.309-25.86,4.207-41.732.466-3.891.857-7.66,1.1-11.138a72.285,72.285,0,0,1,1-8.124c3.156-16.964,11.274-18.827,11.274-18.827,3.795,7.6,15.772,9.643,15.772,9.643a43.017,43.017,0,0,0-1.195-9.721c1.517.187,6.63.831,8.012,1.521,4.1,2.046,13.822,19.189,13.822,19.189s2.517-1.146-8.283,2.513Z" transform="translate(-606.305 -632.662)" fill="#bfdef9"></path><path d="M723.812,615.925s.165,3.458.542,6.687c-5.933.574-9.719-4.592-11.364-7.512l10.824.825Z" transform="translate(-681.132 -584.484)" fill="#e58878"></path><path d="M713.681,536.025s-13.962,2-15.037-6.98-3.6-14.77,5.268-16.428,11.014,1.548,12.081,4.457,1.293,18.2-2.313,18.951Z" transform="translate(-668.665 -501.776)" fill="#ff9d8c"></path><path d="M698.937,505.383c-2.484-2.429-4.046-1.631-4.866-.7a9.725,9.725,0,0,0-12.329,3.657,17.516,17.516,0,0,1-4.243,10.822s2.743,1.3,8.436-1a10.156,10.156,0,0,0,4.361-3.987,34.049,34.049,0,0,1-4.779,7.78c6.624-4.231,8.251-14.652,8.407-15.75a11.208,11.208,0,0,1,3.547,3.806c.969,2.2,1.841,6.868,3.154,6.54,0,0,2.036-7.526-1.688-11.169Z" transform="translate(-652.616 -495.028)" fill="#214565"></path><path d="M703.013,661.87a4.983,4.983,0,0,0-1.643,3.443s2.555,7.2,17.474,8.866C718.843,674.179,704.589,667.221,703.013,661.87Z" transform="translate(-671.795 -622.064)" fill="#a2c8ea"></path><path d="M771.936,661.6s3.266,5.909,3.158,9.381c0,0,.256-7.89-.277-9.721s-3.437-3.37-3.437-3.37Z" transform="translate(-728.048 -618.866)" fill="#a2c8ea"></path><path d="M757.6,606.054a4.108,4.108,0,0,0,2.9.79,1.7,1.7,0,0,0,1.562-1.582,6.88,6.88,0,0,0-2.022,0,16.121,16.121,0,0,0-2.439.79Z" transform="translate(-716.976 -576.517)" fill="#fcefec"></path><path d="M856.541,697.527s1.609-14.292-4.573-26.336a1.335,1.335,0,0,0-2.553.507,49.593,49.593,0,0,0,2.511,26.827c6.308,15.825,4.614-1,4.614-1Z" transform="translate(-790.098 -628.912)" fill="#acd8ff"></path><path d="M803.594,717.94s-1.01-14.347-9.277-25.069a1.334,1.334,0,0,0-2.417.961,49.58,49.58,0,0,0,7.338,25.925C808.312,734.173,803.594,717.94,803.594,717.94Z" transform="translate(-744.535 -646.5)" fill="#acd8ff"></path><path d="M830.916,700.742s-.029-14.382-7.546-25.642a1.334,1.334,0,0,0-2.478.794,49.573,49.573,0,0,0,5.553,26.365C834.515,717.261,830.916,700.742,830.916,700.742Z" transform="translate(-767.745 -632.159)" fill="#6bbaff"></path><path d="M887.259,699.8s2.712-14.125-2.521-26.611a1.335,1.335,0,0,0-2.584.306,49.593,49.593,0,0,0,.426,26.941c5.062,16.265,4.677-.637,4.677-.637Z" transform="translate(-815.716 -630.443)" fill="#6bbaff"></path><path d="M796.64,737.533s-2.838-10.865-10.724-17.9c-.835-.747-1.932-.055-1.717,1.085a38.7,38.7,0,0,0,9.36,18.839c9.035,9.759,3.081-2.022,3.081-2.022Z" transform="translate(-738.326 -668.223)" fill="#6bbaff"></path><path d="M798.205,797.82H836.51v14.752A11.714,11.714,0,0,1,824.8,824.28H809.3a11.714,11.714,0,0,1-11.708-11.708V798.435A.615.615,0,0,1,798.205,797.82Z" transform="translate(-749.107 -731.299)" fill="#fff"></path><path d="M668.24,760.871c-4.425-1.971-7.566,2.1-6.74,6.872,2.291,13.249,7.74,32.263,12.2,33.617,6.7,2.034,30.8-13.4,30.8-13.4l-2.765-4.009s-20.62,6.115-20.983,5.164-7.7-26.1-7.7-26.1l-4.822-2.148Z" transform="translate(-639.654 -701.202)" fill="#ff9d8c"></path><path d="M865.133,864.175a2.165,2.165,0,0,1,1.4-1.892,25.912,25.912,0,0,0,4.022-1.774c1.169-.827,1.2.21.69,1.026s-1.564,1.122-.849,1.362,3.582-1.485,5.83-2.242c1.21-.407.8,4.262-.395,5.18a14.577,14.577,0,0,1-6.139,2.511,11.244,11.244,0,0,0-4.974,1.8l.411-5.97Z" transform="translate(-803.046 -781.424)" fill="#ff9d8c"></path><path d="M667.473,710.9s-5.931,2.262-8,5.357-2.325,12.981.88,25.831c0,0,12.245-3.879,18.562-10.456,0,0-4.924-22.591-11.441-20.734Z" transform="translate(-636.888 -661.369)" fill="#bfdef9"></path></g><g transform="translate(14085.462 -236.409)"><path d="M1444.439,576.79s-20.111,35.142-16.076,47.262,17.529,12.893,17.529,12.893Z" transform="translate(-1404.709 -531.037)" fill="#bfdef9"></path><path d="M1459.29,1614.309h28.075c2.012-1.364-.542-14.7-.542-14.7s-7.662-2.906-8.986,3-9.761,7.788-14.223,8.507c-3.054.5-4.019,2.173-4.323,3.188Z" transform="translate(-1429.989 -1352.289)" fill="#234562"></path><path d="M1671.172,1614.309h28.075c2.012-1.364-.542-14.7-.542-14.7s-7.662-2.906-8.986,3-9.76,7.788-14.223,8.507c-3.054.5-4.018,2.173-4.325,3.188Z" transform="translate(-1600.233 -1352.289)" fill="#234562"></path><path d="M1497.73,976.049s1.262,15.744,2.745,34.67c2.016,25.709,7.453,89.45,7.453,89.45s3.565,3.042,11.46,1.377a249.57,249.57,0,0,0,8.731-47.087c.031-.411.063-.825.094-1.24,1.869-25.55,4.777-79.35,4.777-79.35l-35.26,2.181Z" transform="translate(-1460.875 -850.087)" fill="#205b8e"></path><path d="M1495.54,957.28s1.692,21.184,3.176,40.109l27.643,43.741c.031-.411.063-.825.094-1.24,1.869-25.55,4.777-79.35,4.777-79.35Z" transform="translate(-1459.115 -836.758)" fill="#205b8e"></path><path d="M1536.54,917.851s20.05,49.905,26.458,68.823c4.565,13.475,17.44,60.747,17.44,60.747s5.6,1.7,10.3-1.59c0,0,4.791-48.3-4.885-61.914-5.133-7.226-1.275-75.1-22.09-75.685S1536.54,917.851,1536.54,917.851Z" transform="translate(-1492.059 -797.329)" fill="#23649d"></path><path d="M1577.544,502.715a12.516,12.516,0,0,0,8.636,1.163,17.944,17.944,0,0,0,5.852-2.47,17.226,17.226,0,0,0,2.36-1.778s-.1-.149-.277-.444c-.9-1.547-3.645-7.108-2.427-16.041a6.3,6.3,0,0,0-2.2.365c-3.979.941-11.975,3.211-12.331,3.311h-.014s-.1,1.879-.428,5.247c-.028.3-.057.607-.091.929-.041.395-.083.814-.132,1.244-.369,3.5,1.052,8.473,1.052,8.473Z" transform="translate(-1524.108 -455.764)" fill="#ff9d8c"></path><path d="M1577.882,493.718c5.938,1.362,14.8-7.406,14.8-7.406a9.362,9.362,0,0,0-2.032-1.151c-3.979.941-11.975,3.211-12.331,3.311h-.014s-.1,1.879-.428,5.247Z" transform="translate(-1525.275 -457.413)" fill="#e58878"></path><path d="M1480.97,616.672c.432,5.722,1.641,9.815,4.292,9.815a89.035,89.035,0,0,0,25.856,4.258,65.035,65.035,0,0,0,9.881-1.057c3.3-.558,5.915-1.122,5.915-1.122,2.832-.652,5.954-2.4,5.536-5.63-.22-1.717-.383-3.924-.491-6.479-.008-.163-.016-.328-.021-.493-.311-7.477-.261-17.778-.3-27.639-.028-6.056-.087-11.944-.291-16.911,0,0,2.779-19.509-.3-22.708-3.616-3.745-14.229-4.9-14.9-4.75-.2-.041-.4-.093-.6-.126,0,0-9.04,5.094-15.756,1.324,0,0-.183-.2-.206-.191-1.572.525-9.78,2.366-12.6,5.345a26.2,26.2,0,0,0-4.962,14.239c-.147,9.643.23,20.6.23,20.6-.1,1.566-.271,3.586-.454,5.889-.2,2.456-.415,5.229-.6,8.124-.093,1.458-.177,2.946-.246,4.433a113.516,113.516,0,0,0,.02,13.082Z" transform="translate(-1447.249 -504.554)" fill="#bfdef9"></path><g transform="translate(48.943 0)"><path d="M1560.889,399.89a30.227,30.227,0,0,0,5.555,1.3c4.553.615,10.539.252,12.421-5.257,3.168-9.271,7.214-14.831-2.109-18.617-4.991-2.026-8.182-2.134-10.352-1.36a7.5,7.5,0,0,0-3.836,3.321c-1.81,2.838-5.451,19-1.68,20.62Z" transform="translate(-1559.243 -369.307)" fill="#ff9d8c"></path><path d="M1563.774,348.324c-2.1.511-3.053,3.828-1.049,5.207,3.594,2.472,7.984,1.5,9.6,2.223,2.319,1.03,2.735,4.919,2.777,6.153s.2,2.28,3.352,1.539a1.536,1.536,0,0,1,1.144.069c1.307.774-.364,4.531-.867,5.343,0,0-.725,2.69.883,4,.195.157,3.353,1.537,10.963-10.11a10.816,10.816,0,0,0,.491-9.912,16.892,16.892,0,0,0-14.4-8.876c-5.42,0-8.442,3.282-12.9,4.364Z" transform="translate(-1561.153 -343.96)" fill="#214565"></path><path d="M1567.248,469.127s-.194,1.2,2.6,2.158c0,0,2.343.8,2.771-.426A7.952,7.952,0,0,0,1567.248,469.127Z" transform="translate(-1565.673 -444.53)" fill="#fcefec"></path></g><path d="M1601.223,787.421c-1,1.877,3.3,4.355,3.3,4.355s11.895,5.655,24.09,6.616c-.008-.163-.016-.328-.022-.493-.311-7.477-.261-17.778-.3-27.639C1628.294,770.26,1602.872,784.326,1601.223,787.421Z" transform="translate(-1543.91 -686.489)" fill="#aad0f2"></path><g transform="translate(0 62.034)"><rect width="46.466" height="46.826" transform="translate(24.813)" fill="#3a99ed"></rect><rect width="46.466" height="46.826" transform="translate(1.58)" fill="#55b0ff"></rect><path d="M1318.21,840.05h7.363l-.648,2.533.648,1.81h-7.363Z" transform="translate(-1316.632 -804.598)" fill="#7dc2ff"></path><path d="M1310.244,742.557a2.6,2.6,0,0,1,1.944-2.234c1.482-.371,3.59-.654,3.846.664.4,2.057-2.346,7.237-4.142,7.237-1.364,0-1.9-3.329-1.649-5.665Z" transform="translate(-1310.181 -724.219)" fill="#f99482"></path></g><path d="M1535.84,861.941s-7.524,4.964-10.428,5.282c-1.975.216-9.782-.1-9.824-1.089-.061-1.393,4.768-2.865,6.019-3.425s2.228-1.2,2.22-1.745-4.838,1.248-4.317.069,4.983-3.229,6.06-3.425,4.555.983,5.905.358,4.365,3.975,4.365,3.975Z" transform="translate(-1475.223 -756.654)" fill="#ff9d8c"></path><path d="M1622.546,559.41s5.153,2.177,11.278,13.622,11.92,35.68,9.437,39.62-23.4,12.962-41.626,10.558c0,0-4.521-4.119-3.61-5.707,0,0,30.567-12.461,30.584-13.952s-13.746-24.591-14.367-30.983,8.3-13.158,8.3-13.158Z" transform="translate(-1541.363 -517.072)" fill="#bfdef9"></path></g><g transform="translate(14020.04 -148.225)"><path d="M1212.059,1631.765l-21.974-.095a27.791,27.791,0,0,1,.114-6.63,1.884,1.884,0,0,1,.546-1,7.928,7.928,0,0,0,5.28.012,10.855,10.855,0,0,0,3.9-2.4c.226.22,4.748,4.567,6.846,4.577C1208.92,1626.237,1212.2,1627.286,1212.059,1631.765Z" transform="translate(-1148.142 -1458.758)" fill="#2c4a64"></path><path d="M1152.273,1311.693s-8.768,4.17-13.917,1.313c0,0-2.008-7.153-4.408-17.556-1.989-8.611-4.245-19.45-5.854-30.3-.087-.57-.169-1.195-.246-1.867-1.287-10.934-1.149-33.892,21.017-27.715l3.407,76.127Z" transform="translate(-1097.904 -1147.71)" fill="#2e5980"></path><path d="M1060.409,1631.114l-21.973-.094a27.764,27.764,0,0,1,.114-6.63,1.883,1.883,0,0,1,.546-1,7.942,7.942,0,0,0,5.28.012,10.86,10.86,0,0,0,3.9-2.4c.226.222,4.748,4.567,6.846,4.577C1057.271,1625.587,1060.554,1626.636,1060.409,1631.114Z" transform="translate(-1026.292 -1458.235)" fill="#2c4a64"></path><g transform="translate(16.59 0)"><path d="M1119.531,914.463l-11.621,5.878-2.289-8.055a24.647,24.647,0,0,0,2.177-7.336,30.715,30.715,0,0,0,.269-6.62l9.427,4.877a17.637,17.637,0,0,0-.385,2.161,15.759,15.759,0,0,0,.141,5.056A6.993,6.993,0,0,0,1119.531,914.463Z" transform="translate(-1096.985 -877.576)" fill="#ff9d8c"></path><path d="M1126.152,937.495c-5.373-.167-9.452-5.475-9.452-5.475l9.311.419A15.758,15.758,0,0,0,1126.152,937.495Z" transform="translate(-1105.888 -904.646)" fill="#e58878"></path><path d="M1112.949,853.743s-10.729,2.783-14.388-5.754c-3.95-9.214.456-15.9,4.1-16.332,7.261-.87,11.464,1.916,12.728,4.846s3.484,15.758-2.435,17.24Z" transform="translate(-1090.065 -823.875)" fill="#ff9d8c"></path><path d="M1072.074,819.819s-1.242-3.694-1.083-5.661c0,0-2.781-3.578-1.148-4.453s2.5,1.238,2.879.825.989-7.416,2.965-7.186,9.289,2.529,12.51-.224-4.518-13.6-17.731-9.482-10.582,18.8,1.607,26.183Z" transform="translate(-1061.679 -792.715)" fill="#214565"></path><path d="M1072.144,814.046a4.646,4.646,0,0,1,.057-3.056,4.872,4.872,0,0,0,.709,2.537C1073.6,814.311,1072.144,814.046,1072.144,814.046Z" transform="translate(-1069.89 -807.399)" fill="#2c3a64"></path><path d="M1064.727,820.156a2.631,2.631,0,0,0-2.407,1.059,2.1,2.1,0,0,1,2.313.057l.1-1.116Z" transform="translate(-1062.194 -814.755)" fill="#2c3a64"></path><path d="M1158.54,918.282a2.921,2.921,0,0,0,2.032.99c1.163-.031,2.837-.279,3.128-.678a4.136,4.136,0,0,0,.37-1.525A16.354,16.354,0,0,0,1158.54,918.282Z" transform="translate(-1139.506 -892.633)" fill="#fcefec"></path></g><path d="M1032.149,1237.73c-.959.13,2.482,42.037.507,49.892s-.132,29.111-.132,29.111a26.929,26.929,0,0,0,15.5-.843s2.615-25.483,4.777-32.778c4.655-15.709,7.149-43.965,7.149-43.965l-27.8-1.415Z" transform="translate(-1021.036 -1150.281)" fill="#35638b"></path><path d="M1210.57,1030.28l6.795,17.8-9.385,1.159-1.9-14.512Z" transform="translate(-1161.114 -983.597)" fill="#f99482"></path><path d="M1068.689,1027.692a94.608,94.608,0,0,1-22.838,2.083,170.286,170.286,0,0,1-20.221-1.886c.218.055,2.156-39.74,2.156-39.74l-1.114-12.474c3.508-4.347,10.069-5.677,14.677-6.314,1.753,1.812,5.223,4.482,9.118,3.993,2.926-.37,3.482-1.747,3.439-3.413,6.113,1.034,10.387,6.151,10.387,6.151Z" transform="translate(-1016.124 -934.648)" fill="#047ae2"></path><path d="M987.99,998.36s-12.166,22.921-10.594,29.181,18.865,8.66,18.865,8.66l1.142-3.3s-12.867-8.67-11.407-10.118,6.882-11.022,7.178-12.474S992.06,998.814,987.99,998.36Z" transform="translate(-977.256 -957.949)" fill="#ff9d8c"></path><path d="M1007.809,980.17a17.423,17.423,0,0,0-7.805,6,60.836,60.836,0,0,0-5.2,9.647s4.63,5.327,11.246,5.282S1007.809,980.17,1007.809,980.17Z" transform="translate(-991.353 -943.334)" fill="#047ae2"></path><path d="M1191.96,980.36s4.862,2.056,6.736,5.626,4.168,11.433,4.168,11.433a27.579,27.579,0,0,1-4.871.269C1195.23,997.6,1191.96,980.36,1191.96,980.36Z" transform="translate(-1149.769 -943.486)" fill="#047ae2"></path><g transform="translate(14.472 61.107)"><rect width="34.432" height="28.391" transform="translate(23.587 0.091) rotate(0.25)" fill="#4297e2"></rect><rect width="34.432" height="28.391" transform="translate(6.374 0.014) rotate(0.25)" fill="#429eef"></rect><path d="M1091.722,1103.828l-6.846,7.442-33.976-.147,6.388-7.442Z" transform="translate(-1050.9 -1103.68)" fill="#61b5ff"></path><path d="M1323.375,1201.787l-5.455-.024.487-1.535-.478-1.1,5.457.023Z" transform="translate(-1265.448 -1180.373)" fill="#4fa5f1"></path><path d="M1258.57,1107.639l7.226,7.29,9.939.041.043-10.468-17.195-.073Z" transform="translate(-1217.761 -1104.283)" fill="#2e82cc"></path><path d="M1275.856,1104.5l7.709,7.5-17.228-.075-7.7-7.5Z" transform="translate(-1217.817 -1104.283)" fill="#61b5ff"></path></g><g transform="translate(18.286 72.917)"><path d="M1071.842,1168.136s2.934-1.841,4.294-1.181,3.748,3.25,2.437,3.736-3.128.35-3.838.729a5.061,5.061,0,0,1-3.891.093c-1.633-.607,1-3.376,1-3.376Z" transform="translate(-1070.309 -1166.217)" fill="#ff9d8c"></path><path d="M1078.76,1165.682a12.116,12.116,0,0,0,.635-1.664c.071-.423.45-.244.462.234s.035,1.336.035,1.336Z" transform="translate(-1077.099 -1163.779)" fill="#ffb27d"></path></g></g><g transform="translate(13858.038 -3.6)"><rect width="34.12" height="28.134" transform="translate(34.12 28.134) rotate(180)" fill="#3a99ed"></rect><rect width="34.12" height="28.134" transform="translate(51.179 28.134) rotate(180)" fill="#55b0ff"></rect><path d="M152.96,1624.887h5.408l-.477-1.521.477-1.086H152.96Z" transform="translate(-152.94 -1603.889)" fill="#4fa5f1"></path><path d="M391.2,1637.09H385.79l.478,1.521-.478,1.087H391.2Z" transform="translate(-340.017 -1632.688)" fill="#7dc2ff"></path></g><g transform="translate(13867.849 -141.464)"><g transform="translate(3.911 2.747)"><rect width="2.112" height="159.773" transform="translate(14.371)" fill="#aed9ff"></rect><path d="M253.536,1654.965H222.68a4.014,4.014,0,0,1,4.015-4.015h22.824a4.014,4.014,0,0,1,4.015,4.015h0Z" transform="translate(-222.68 -1491.808)" fill="#aed9ff"></path></g><path d="M240.187,874.461H202.78l5.072-47.341h27.264Z" transform="translate(-202.78 -827.12)" fill="#aed9ff"></path></g><path d="M40.023,1671.14H611c.356,0,.643.464.643,1.034v.332c0,.573-.289,1.034-.643,1.034H40.023c-.356,0-.643-.465-.643-1.034v-.332C39.38,1671.6,39.669,1671.14,40.023,1671.14Z" transform="translate(13796.359 -1647.795)" fill="#6389ab"></path></g></svg>