<svg xmlns="http://www.w3.org/2000/svg" width="24" height="24" fill="#394b5b"><path d="M17.823 12.857c-.717-.621-1.553-1.046-1.347-2.2.01-.052-.334-.134-.466-.252-.5-.446-1.222-.731-.74-1.71.217-.439.343-1.357-.8-1.152-.234.042-.36-.216-.476-.411-.13-.218-.267-.489-.558-.461-1.22.122-2.046-.7-3.009-1.2A1.67 1.67 0 0 0 9.083 5.2a3.656 3.656 0 0 1-2.192.35c-.279-.078-.7.173-.891.621 1.3.021 1.714 1 2.1 1.879a12.563 12.563 0 0 0 2.6 3.573 3.047 3.047 0 0 1 1 2.617 12.707 12.707 0 0 0-.351 3.642 1.191 1.191 0 0 0 .4.975c.27-.37 1.258.207 1.053-.813-.057-.284.289-.39.412-.594.507-.825 1.8-1.3 1.158-2.657-.166-.343.207-.47.453-.6.429-.23.376.093.4.343.018.171.126.2.252.1.357-.3.745.02 1.053-.04.686-.134 1.336.657 2.109-.12-.949-.269-.416-1.27-.816-1.619Z" fill="none"/><path d="M12.309 17.438a10.358 10.358 0 0 1 .875-1.241c.617-.6.066-1.352.418-2.057a2.494 2.494 0 0 1 1.936-1.068c.406.043.472.2.679.477a5.535 5.535 0 0 0 1.075.209 2.69 2.69 0 0 0-.371-.686 2.134 2.134 0 0 1-1.1-1.916c-.058-.037-.209-.256-.3-.328-.952-.531-1.639-1.451-1.2-2.428-.544-.035-.861-.558-1.136-1.134a6.106 6.106 0 0 1-1.938-.58c-.76-.319-1.661-.8-1.8-.827-.04 0-1.14.245-1.448.32.314.437.648.555.864 1.087a12.911 12.911 0 0 0 2.774 3.562 3.915 3.915 0 0 1 1.084 3.629m-1.031 5.05a1.3 1.3 0 0 1-.444-1.066 13.739 13.739 0 0 1 .391-3.984 3.312 3.312 0 0 0-1.121-2.862 13.75 13.75 0 0 1-2.874-3.906c-.424-.958-.882-2.031-2.319-2.055a1.081 1.081 0 0 1 .868-.7.443.443 0 0 1 .118.015 2.222 2.222 0 0 0 .591.079 6.169 6.169 0 0 0 1.836-.458 1.347 1.347 0 0 1 .406-.063 2.392 2.392 0 0 1 1.085.355c.994.513 1.856 1.33 3.062 1.33q.131 0 .268-.013h.045c.291 0 .435.279.573.507.119.2.248.454.472.454a.315.315 0 0 0 .055 0 1.9 1.9 0 0 1 .332-.032c.9 0 .767.86.551 1.292-.534 1.07.263 1.382.819 1.87.147.129.528.219.517.276-.228 1.267.7 1.73 1.491 2.41.442.378-.148 1.473.912 1.764a1.137 1.137 0 0 1-.831.379c-.455 0-.885-.265-1.32-.265a.959.959 0 0 0-.183.017.5.5 0 0 1-.1.009c-.206 0-.439-.1-.673-.1-.146 0-.3.212-.514.1s-.159-.534-.353-.534a.6.6 0 0 0-.259.086c-.272.147-.686.282-.5.661.714 1.477-.721 2-1.282 2.9-.137.223-.519.339-.457.649.231 1.11-.862.485-1.162.885Z"/><path d="M12 1.3a10.7 10.7 0 0 0-7.566 18.266A10.7 10.7 0 1 0 19.566 4.434 10.63 10.63 0 0 0 12 1.3M12 0A12 12 0 1 1 0 12 12 12 0 0 1 12 0Z"/></svg>