<svg xmlns="http://www.w3.org/2000/svg" width="176" height="88" viewBox="0 0 176 88"><g transform="translate(-992 -496)"><rect width="176" height="88" transform="translate(992 496)" fill="rgba(255,255,255,0)"/><g transform="translate(1016.843 508)"><path d="M13.436,37.928a2.087,2.087,0,0,1,1.747.711,2.133,2.133,0,0,1,.263,1.839l-.866,4.142a3.323,3.323,0,0,1-1.128,1.9,3.169,3.169,0,0,1-2.025.711H2.153a2.087,2.087,0,0,1-1.731-.711,2.21,2.21,0,0,1-.309-1.9L.561,42.38h5.5l-.587,2.782H8.954l1.1-5.209h-6.4a2.071,2.071,0,0,1-1.747-.711,2.179,2.179,0,0,1-.371-1.855l.881-4.142a3.246,3.246,0,0,1,1.128-1.9,3.091,3.091,0,0,1,2.025-.711h9.274a2.071,2.071,0,0,1,1.747.711,2.1,2.1,0,0,1,.309,1.87l-.464,2.241h-5.41l.572-2.7H8.135L7.022,37.959Z" transform="translate(0 16.712)" fill="#b3bfc9"/><path d="M25.375,47.29H19.841l1.113-5.255H17.476l-1.1,5.209H10.83L13.8,33.224a3.323,3.323,0,0,1,1.128-1.9,3.091,3.091,0,0,1,2.025-.711H26.3a2.133,2.133,0,0,1,1.793.757,2.164,2.164,0,0,1,.294,1.9Zm-5.92-14.53-1.546,7.28h3.478l1.546-7.28Z" transform="translate(5.899 16.702)" fill="#b3bfc9"/><path d="M33.747,47.272H22L25.524,30.64h5.534L27.966,45.2h6.183Z" transform="translate(11.994 16.72)" fill="#b3bfc9"/><path d="M46.053,44.659a3.354,3.354,0,0,1-1.144,1.9,3.091,3.091,0,0,1-2.025.711H33.61a2.118,2.118,0,0,1-1.747-.711,2.164,2.164,0,0,1-.309-1.9L34.522,30.64h5.5L36.933,45.2H40.4l3.091-14.56H49.02Z" transform="translate(17.155 16.72)" fill="#b3bfc9"/><path d="M58.855,37.381a2.195,2.195,0,0,1-.526.912,2.288,2.288,0,0,1-.881.634,1.546,1.546,0,0,1,.618.649,1.252,1.252,0,0,1,.108.912l-.866,4.173a3.354,3.354,0,0,1-1.144,1.9,3.091,3.091,0,0,1-2.009.711H42.27l3.509-16.632H57.727a2.118,2.118,0,0,1,1.747.711,2.164,2.164,0,0,1,.309,1.9Zm-9.568,2.581-1.113,5.209h3.478l1.1-5.209Zm1.546-7.28L49.72,37.891h3.462l1.175-5.147Z" transform="translate(23.055 16.718)" fill="#b3bfc9"/><path d="M67.955,47.274H62.421l-.8-5.255H60.072l-1.113,5.255H53.41l3.509-16.632H68.882a2.1,2.1,0,0,1,1.731.711,2.164,2.164,0,0,1,.278,1.9l-1.3,6.183a3.246,3.246,0,0,1-.881,1.669,2.937,2.937,0,0,1-1.546.85Zm-5.9-14.529L60.5,40.024h3.447l1.546-7.28Z" transform="translate(29.134 16.718)" fill="#b3bfc9"/><path d="M70.074,47.272H64.54L68.049,30.64H73.6Z" transform="translate(35.208 16.72)" fill="#b3bfc9"/><path d="M83.583,37.931a2.087,2.087,0,0,1,1.747.711,2.133,2.133,0,0,1,.294,1.839l-.866,4.142a3.323,3.323,0,0,1-1.128,1.9,3.091,3.091,0,0,1-2.025.711H72.331a2.087,2.087,0,0,1-1.731-.711,2.272,2.272,0,0,1-.309-1.9l.464-2.241h5.534l-.572,2.782h3.447l1.113-5.209H73.8a2.087,2.087,0,0,1-1.747-.711,2.133,2.133,0,0,1-.294-1.855l.866-4.142a3.323,3.323,0,0,1,1.128-1.9,3.091,3.091,0,0,1,2.025-.711h9.274a2.087,2.087,0,0,1,1.839.726,2.148,2.148,0,0,1,.294,1.87l-.464,2.241H81.172l.572-2.72H78.282l-1.113,5.209Z" transform="translate(38.299 16.709)" fill="#b3bfc9"/><path d="M84.008,41.946H81.72l.325-1.546h2.272Z" transform="translate(44.583 22.046)" fill="#b3bfc9"/><path d="M95.147,43.965h-2.8l1.329-6.183H92.133l-1.345,6.183H88.006l1.329-6.183H87.79l-1.345,6.183h-2.7L85.286,36.7H95.565a.881.881,0,0,1,.742.325,1,1,0,0,1,.139.819Z" transform="translate(45.685 20.026)" fill="#b3bfc9"/><path d="M98.956,44.6H93.268a1.051,1.051,0,0,1-1.113-1.422l1-4.637a1.36,1.36,0,0,1,.495-.819,1.3,1.3,0,0,1,.881-.325h3.091l.51-1.87h2.782ZM95.988,38.42l-1.113,5.255h1.546l1.113-5.255Z" transform="translate(50.238 19.388)" fill="#b3bfc9"/><path d="M40.2,9.116,43.319,4H23.225L18.14,11.265l.788,1.546L30.1,34.7h9.614l-.325-.526-6.167-10.5-.943-1.592.974-1.577Z" transform="translate(9.888 2.183)" fill="#b3bfc9"/><path d="M48.2,4l3.694,6.971,5.085,9.583.8,1.515-.866,1.5L52.59,30.91,50.349,34.7h9.259L70.783,12.81l.788-1.546L66.486,4Z" transform="translate(26.291 2.183)" fill="#b3bfc9"/><path d="M87.378,3.091,95.4,14.56l-.093.155H93.761L92.9,16.4l-12.1,23.572H31.1L19.058,16.4l-.866-1.685H16.647l-.093-.17L24.5,3.091H87.378M88.923,0H22.892L12.86,14.329l1.855,3.478h1.546L29.152,43.063H82.632L95.524,17.806h1.546l1.855-3.478L88.985,0Z" transform="translate(7.006)" fill="#b3bfc9"/><path d="M44.645,7.091,42.728,4h-2.8a3.6,3.6,0,0,0-3.091,1.747L35,8.73l6.492,4.127Z" transform="translate(19.088 2.183)" fill="#b3bfc9"/><path d="M52.242,9.673l-2.272-3.9A3.308,3.308,0,0,0,47.033,4H40l5.3,10.032-2.952,1.762,8.78,1,4.2-8.671Z" transform="translate(21.816 2.183)" fill="#b3bfc9"/><path d="M52.769,12,45.69,16.127l2.952,5.3h4.637l1.237-1.994a3.586,3.586,0,0,0,0-3.632Z" transform="translate(24.921 6.548)" fill="#b3bfc9"/><path d="M45.085,19.162V16.21L39.18,22.7l5.9,7.728V28.019h4.637a3.231,3.231,0,0,0,3.091-1.778l4.127-7.079Z" transform="translate(21.369 8.846)" fill="#b3bfc9"/><path d="M33.987,18.5,32.55,21.823l1.793,3.091a3.741,3.741,0,0,0,3.184,1.839h2.365V18.5Z" transform="translate(17.751 10.095)" fill="#b3bfc9"/><path d="M42.644,17.8,39.1,10.07l-9.444.587,3.385,2.087L30.85,17.149a3.617,3.617,0,0,0,0,3.54l3.277,5.657,1.221-2.118,4.39-7.62Z" transform="translate(16.174 5.495)" fill="#b3bfc9"/></g></g></svg>