<svg xmlns="http://www.w3.org/2000/svg" width="176" height="88" viewBox="0 0 176 88"><g transform="translate(-640 -7863)"><rect width="176" height="88" transform="translate(640 7863)" fill="rgba(255,255,255,0)"/><g transform="translate(641 7879)"><path d="M47.789,14.009,23.9,0,0,14.012V41.989L23.9,55.5l17.613-9.961V40.958L23.9,51.164,3.852,39.566V16.406L23.9,4.826,43.918,16.42V44.179l3.871-2.19Z" fill="#b3bfc9"/><path d="M42.238,230.66,25.61,240.414V259.87l16.628,9.4,13.918-7.874h0l2.693-1.522V240.414Zm0,3.354,13.918,8.067-13.918,8.069-13.946-8.069h0ZM28.291,245.282l12.6,7.124v13.066l-12.6-7.288Zm15.284,20.2V252.412l12.589-7.118v12.892Z" transform="translate(-18.336 -221.934)" fill="#99a9b7"/><g transform="translate(53.402 11.926)"><text transform="translate(0 23)" fill="#b3bfc9" font-size="23" font-family="SourceSansPro-SemiBold, Source Sans Pro" font-weight="600"><tspan x="0" y="0">am</tspan><tspan y="0" letter-spacing="-0.01em">b</tspan><tspan y="0">alaje</tspan><tspan y="0" fill="#99a9b7" font-size="18" font-family="SourceSansPro-Regular, Source Sans Pro" font-weight="400">.md</tspan></text></g></g></g></svg>