<svg xmlns="http://www.w3.org/2000/svg" viewBox="0 0 359.91 178.9"><circle cx="48.01" cy="35.65" r="23.17" style="fill:#1241ff"/><path d="M33.67,122.9c2.66,7.43,8.49,7.7,9.76,13.08,1.87,8-9.3,14.85-6.54,19.46,1.19,2,4.64,3,9.12,4.38,2.2.66,4.41,1.09,6,3.08a5.41,5.41,0,0,1,1.33,3.25c0,4.37-8,8.39-10.67,6.5-1-.74-.73-2-1.16-3.75-1.86-7.4-13.45-6.93-15.25-12.33-2.17-6.48,12.58-12.91,10.54-21.88-.17-.75-1.93-4-5.46-10.45a15.37,15.37,0,0,0-2.9-4.28c-2.19-2.09-4.41-2.56-8.6-3.81-2.32-.69-5.67-1.74-9.75-3.25.31-2.35.72-4.8,1.25-7.33a105.25,105.25,0,0,1,5.84-19A31.29,31.29,0,0,0,21,101.9a28.39,28.39,0,0,0,6,7.52,26.43,26.43,0,0,0,5.88,3.84A19.5,19.5,0,0,0,33.67,122.9Z" style="fill:#1241ff"/><path d="M40.59,58.69A30.07,30.07,0,0,0,44,59.4a32.41,32.41,0,0,0,4.92.38l-1.62,9.79-9.75.83q1.62,10.71,3.25,21.42-2,4.55-4,9.08a12.82,12.82,0,0,1-3.17-3.5c-1.21-2-1.89-4.31-1.92-8.5a45.29,45.29,0,0,1,2.5-14.83L22.76,70.61A12.86,12.86,0,0,1,28.17,65c4.57-2.35,9.31-.67,11.51-3.69A5.21,5.21,0,0,0,40.59,58.69Z" style="fill:#1241ff"/><path d="M21.93,71.93,32.76,75.4c-3.86,10.17-3.91,20,1,24.55a20,20,0,0,0,6,3.37c7.06,2.56,11.16-.36,13.38,2.11s.6,8.48-2.47,12c-2.63,3-7.57,5.62-10.33,4-2.94-1.72-1-6.86-4.92-9.58-1.59-1.12-2.31-.52-4.91-1.92a17.18,17.18,0,0,1-5.5-4.83c-4.32-5.39-7.46-15.22-5.5-25.5A33.83,33.83,0,0,1,21.93,71.93Z" style="fill:#1241ff"/><path d="M10,114.15a11,11,0,0,0,.42,5.93c.65,1.69,1.49,2.42,3.18,4.34,3.82,4.34,6,6.87,6.73,10.32a11.43,11.43,0,0,1-.26,5.47c-1.1,3.61-3.75,5.2-7.07,8-2.65,2.25-6.92,5.88-9.67,10.66-1.07,1.86-5.46,9.51-2.08,15.42a11.14,11.14,0,0,0,5.5,4.58L35,178.74c.34-.2,5.07-3,5-7.42a7.46,7.46,0,0,0-1.5-4.17c-2.21-3.05-4.89-2.31-9.25-5.25-1.84-1.24-5.18-3.48-5.34-6.5-.08-1.67.85-2.66,3.75-6.16,7.55-9.13,8.24-11,8.09-12.75-.1-1.19-.85-2.63-2.34-5.5a51.7,51.7,0,0,0-3.16-5.17c-2-3-3-4.55-4.09-5.42-1.78-1.46-3.3-1.71-6.25-2.58A79.17,79.17,0,0,1,10,114.15Z" style="fill:#1241ff"/><circle cx="336.98" cy="22.92" r="22.92" style="fill:#1241ff"/><path d="M331.05,47.05a22.39,22.39,0,0,0,4.06.44,23.52,23.52,0,0,0,3.69-.25,39.65,39.65,0,0,0-.25,4.12c0,1.92.1,2.24.09,2.69,0,0,0,.15,0,.31-.06.45-3.2,3.83-7.69,8.25a21.05,21.05,0,0,1-.28,5.45c-1.68,9.16-9,14.49-11.47,16.11q-1.34-9.4-2.69-18.81c2.46-5.27,5.41-7.92,7.69-9.37,2-1.27,4.85-2.5,6.19-5.57A8.7,8.7,0,0,0,331.05,47.05Z" style="fill:#1241ff"/><path d="M340.48,55.11q-2.4,2.43-4.87,4.88L332,63.55a20.4,20.4,0,0,1-.25,6.37,21.3,21.3,0,0,1-5.25,10.19c-1.71,1.91-6,6.72-12.06,7.06-4.68.27-6.25-2.37-9.1-1.06-3.09,1.42-4.77,6.18-3.84,10.19a9.91,9.91,0,0,0,8.57,7.56,9.13,9.13,0,0,0,5.62-1.56,11.09,11.09,0,0,0,4.69-7.63A85.67,85.67,0,0,0,331,87.14a58.3,58.3,0,0,0,6.38-5.84c2.83-3.1,11.81-12.93,8.76-20.56C345.66,59.45,344.35,57.1,340.48,55.11Z" style="fill:#1241ff"/><path d="M340.05,81.55,321.67,96c.11,2.48.21,5,.31,7.43q-3,.66-6.18,1.25c-1.59.3-3.15.57-4.69.82a50.31,50.31,0,0,0,19.81,8.37l.06-11.25c.13-.75.33-1.84.65-3.15a50.15,50.15,0,0,1,4-10.11A87.42,87.42,0,0,1,340.05,81.55Z" style="fill:#1241ff"/><path d="M311,106.36a13.47,13.47,0,0,0,2.08,1.63,13.8,13.8,0,0,0,2.5,1.25,71,71,0,0,0,.76,8.45c1,6.34,2.37,9.66,3.74,14.55,2.93,10.49,4.4,15.74,2.82,19.34-3.23,7.39-13.18,7-15.71,15.62a13.29,13.29,0,0,0-.49,4.79,15.22,15.22,0,0,1-8-1.63c-1.38-.72-4.63-2.43-4.62-4.75,0-.73.33-1.86,3.49-4.1,5.2-3.71,8.08-3.34,11.63-6a16.71,16.71,0,0,0,5.1-6.58c1.65-3.75.71-5.87-1.6-20.42a114,114,0,0,1-1.75-16.63C310.88,109.54,310.93,107.62,311,106.36Z" style="fill:#1241ff"/><path d="M317.42,111.36a83,83,0,0,0,2.38,13.38c3.09,11.7,7.62,18.69,4.75,26.52a14.18,14.18,0,0,1-1.26,2.54c-1.73,2.65-3.84,3.58-6.74,5.44-4,2.58-6,3.87-7.13,5.87-1.35,2.5-1.86,6.63,0,9.25,2.79,3.92,10.57,2.66,26.13.13,7.63-1.25,9.81-2.1,11.37-4.13,3.9-5.07.58-13.15,0-14.5-2.58-5.45-5.15-11.29-7.62-17.5-3.15-7.9-5.79-15.48-8-22.62Z" style="fill:#1241ff"/><path d="M38.92,71.24l20.5-3Q65.55,106.12,71.67,144l-21,3.25q-2-12.75-4-25.5a15.49,15.49,0,0,0,7.4-6.56c.86-1.55,2.92-5.27,1.48-8.6-1.5-3.48-6.38-5.53-11.87-4.59Q41.3,86.62,38.92,71.24Z" style="fill:#d9d999"/><path d="M60.8,68.74l11.25,5.62q1.44,6.72,2.87,13.44L67.17,89q1.53,10.45,3,20.93l8.58-1.25c.08.57.16,1.13.25,1.69l-8.54,1.5q2.26,15.56,4.54,31.13l-2.38.75Q66.73,106.24,60.8,68.74Z" style="fill:#d9d999"/><path d="M71.76,113.07,290.51,76.49q2.87,14.74,5.75,29.5L76.67,142.49Q74.21,127.78,71.76,113.07Z" style="fill:#d9d999"/><path d="M80.08,108.41l.37,1.62L280,77.27c-.11-.59-.22-1.17-.34-1.75Z" style="fill:#d9d999"/><path d="M275.92,40.24l9.87-9.62q6.52,37.36,13.06,74.73l-1.68.37q-2.58-15.3-5.15-30.58l-11,1.88c-.1-.57-.19-1.13-.28-1.69l10.85-1.79q-2-11.24-3.92-22.46L277.86,53Q276.89,46.61,275.92,40.24Z" style="fill:#d9d999"/><path d="M68.27,90.24q1.49,9.23,3,18.46L290.3,72.44l-3.63-19.52Z" style="fill:#d9d999"/><path d="M287.8,30.15l20.81-3.29q4.71,29,9.43,57.92a9.29,9.29,0,0,1-3.87.91c-3,0-3.74-1.51-6.46-1.45a8.27,8.27,0,0,0-5.58,2.5,8.67,8.67,0,0,0-2,4.7,12,12,0,0,0,1.08,7.92,11.77,11.77,0,0,0,5.08,4.93l-6.33.78Q293.89,67.61,287.8,30.15Z" style="fill:#d9d999"/><path d="M320.8,98v4.78l-3.75.09c.61-.65,1.25-1.39,1.9-2.21S320.28,98.82,320.8,98Z" style="fill:#d9d999"/><path d="M69.67,49.9q3.27,18.81,6.53,37.62L275.69,53.27q-3-17.7-6-35.41Z" style="fill:#d9d999"/><path d="M81.46,64.32c2.12,10.76,2.93,19.28,5.33,19.48a13.59,13.59,0,0,0,1.88-.2c2.63-.37,2.9-.7,3-.86.44-.74-.34-1.95-.58-2.34-2-3.26-3.39-9.78-1.75-13.16s7-5.35,9-3.84c2.55,2,1.36,11.62,1.71,16.59a2,2,0,0,0,.62,1.5c.39.27,1.15.13,2.67-.17,1.72-.34,2.58-.52,2.88-.93a2.32,2.32,0,0,0,.25-1.83c-.76-4.08-.14-15.11-6.42-32.87a5.35,5.35,0,0,0-2.38-3.12c-2-1-5.09-.26-5.58,1.17s1.54,2.15,3.33,5.66c.43.84,2.75,5.4,1.21,7.13-1,1.17-2.81-.15-5.71,1.12-2.14.94-2.72,2.59-3.54,2.29-.25-.09-.74-.43-.92-4.37s0-7.23,0-7.23c.11-2.3.21-2.94-.31-3.52-1-1.11-3.38-1.09-4.71,0s-1.34,3.43-1.25,5.08C80.82,61,81.46,64.32,81.46,64.32Z" style="fill:#e40000"/><path d="M126.3,73.74c-.62-.95-1.17-5-2.25-13-.69-5.12-.73-5.7-1.29-7-.71-1.57-2-4.43-5.09-5.67a8,8,0,0,0-8.41,1.5,6.54,6.54,0,0,0-1.75,6.09,2.88,2.88,0,0,0,1.37,1.95,1.74,1.74,0,0,0,1.71,0c.69-.54,0-1.61.5-2.75a3.93,3.93,0,0,1,4.5-1.7,3.55,3.55,0,0,1,2.31,2.1,3.44,3.44,0,0,1-.14,2.44c-.64,1.46-1.89,1.74-3.54,2.85a12.24,12.24,0,0,0-4.42,4.94,10.07,10.07,0,0,0-.63,5.83,8.26,8.26,0,0,0,1.39,3.48,7.86,7.86,0,0,0,3,2.56c1.37.67,3.16.58,6.73.42.2,0,1.83-.3,5.08-.87.67-.12,1.38-.26,1.67-.8C127.43,75.38,126.58,74.16,126.3,73.74Zm-5.54-1.25c-.38.37-1,.38-2.13.41a4.74,4.74,0,0,1-2.79-.41,3.7,3.7,0,0,1-1.46-2.29,5.7,5.7,0,0,1,1.46-5.42,3,3,0,0,1,2.29-1.17,2.89,2.89,0,0,1,2,1.29c.57.78.5,1.3.79,4.42C121.08,71.49,121.19,72.05,120.76,72.49Z" style="fill:#e40000"/><path d="M127.34,45.82a4.87,4.87,0,0,0-.29,3.83c1.19,5.16,1.67,10.46,2.58,15.67.8,4.56,1.48,10.24,3.21,10.46a10.16,10.16,0,0,0,1.83-.09c1.85-.26,1.86-.18,2-.29,1-.77-.92-4-2.16-8.37-1-3.48-1-5.81-1.13-10-.07-3.44.22-5.6,1.5-6.21a2.5,2.5,0,0,1,.88-.17,4.46,4.46,0,0,1,2.58.88c2.71,1.95,3.77,16,3.75,22a1.34,1.34,0,0,0,.33,1c.28.23.59.16,2.29-.13,1.16-.19,1.56-.25,1.88-.62a1.72,1.72,0,0,0,.34-.78c.37-2-2.87-18.73-2.18-22.29a2.45,2.45,0,0,1,.84-1.54,2.88,2.88,0,0,1,2.33-.27c3.28.85,4.35,9.88,4.71,12.88A62.58,62.58,0,0,1,153,71.86l2.45.13c1.23.06,1.75.09,2.17-.25a1.79,1.79,0,0,0,.54-1.17c1.38-10.46-3.87-22.63-3.87-22.63-.7-1.61-1.9-4.2-4.29-4.87a4.37,4.37,0,0,0-1.17-.16c-3.19,0-4.09,3.25-6.5,3.12-1.34-.08-1.49-1.11-3.46-1.21a4.46,4.46,0,0,0-2.29.37c-.92.45-1,.94-2.14,1.74-.78.53-1.63,1.11-2.15.83-.82-.44.22-2.56-.71-3.36S128.34,44.32,127.34,45.82Z" style="fill:#e40000"/><path d="M175.92,51.78c-.85-4-1.3-6-2.58-7.92-.94-1.38-2.73-4-6-4.62-3-.56-6.72.69-8,3.5-1.06,2.24-.58,5.53.83,6.13a2,2,0,0,0,1.5-.09c1.16-.54,1-1.78,2-2.88a3.87,3.87,0,0,1,3.42-1.16A3.82,3.82,0,0,1,169.92,48c.15,3.11-5.72,3.42-8.08,8.25-1.92,3.92-1,9.75,2.25,12.12,2,1.51,4.8,1.45,7.32,1.4a34.73,34.73,0,0,0,4.85-.86c1.21-.25,2.14-.48,2.41-1.16a2,2,0,0,0-.32-1.61C177,63.73,177.73,60.25,175.92,51.78ZM168.3,64.61a4,4,0,0,1-2-2.74c-.69-2.33-.14-5.65,2-6.72a3.08,3.08,0,0,1,2.53-.14c1.27.61,1.52,2.26,1.72,3.56s.7,4.62-1.24,5.87A3.27,3.27,0,0,1,168.3,64.61Z" style="fill:#e40000"/><path d="M179.26,22.17a3.14,3.14,0,0,0-.25,2.15c.75,4-.21,25.42,3.25,39.25a5.17,5.17,0,0,0,1.75,3c1.68,1.27,3.82.72,7.41,0,8.47-1.71,13.24-2,13.38-3.62a9,9,0,0,0-.24-1,27.41,27.41,0,0,0-1-2.9c-1.33-3.66-2-5.49-3.08-5.58-1.57-.14-1.9,3.33-5.34,4.83a5.88,5.88,0,0,1-4.5.25c-1.64-.73-2.47-2.45-3-4.08-2.82-8.8-1-29-.91-32.75a2.12,2.12,0,0,0-.5-1.59c-.78-.7-2.27-.21-4.17.42C180.56,21.08,179.72,21.36,179.26,22.17Z" style="fill:#e40000"/><path d="M207.37,55.18c-1.61,1.73-1,4.18-.87,4.77a5.64,5.64,0,0,0,1.28,2.44,3.8,3.8,0,0,0,2.85,1.51,3.52,3.52,0,0,0,2.54-1.5,5,5,0,0,0,.88-3.5c-.1-1.43-.82-4.54-3.13-5C209,53.45,207.44,55.11,207.37,55.18Z" style="fill:#e40000"/><path d="M214.3,23a2.63,2.63,0,0,0-.44,1.81c.13,2.13,1,23.46,4.31,34.25a3.05,3.05,0,0,0,.82,1.37c1.31,1.19,3.58.76,5.09.31a1.46,1.46,0,0,0,1-.4c.64-.72,0-2.22-.19-2.78,0,0-7.18-18-5.08-24.82.06-.19.23-.73.58-.81s.79.41,1,.61c3.21,3.93,5.43,10.89,5.43,10.89,1.26,4,1.93,6.14,3.62,6.56a1.84,1.84,0,0,0,1.19,0c2.09-.85.87-6.4,2.08-15.53.4-3,.9-5.21,1.73-5.29.44,0,.83.52,1,.76,2.85,4.17,2.25,21.85,2.82,26.06a2.48,2.48,0,0,0,.79,1.65c1.19,1,3.46.09,3.93-.09a8,8,0,0,0,1.32-.65c3.91-2.6-3.13-29.81-5.29-36.29a3.15,3.15,0,0,0-1.37-1.87c-1.67-.91-4,.62-4.14.72a7.56,7.56,0,0,0-2.71,3.94c-2.32,6-2.1,9.47-3.21,9.65-.74.12-1.24-1.38-3.57-4.75-1.49-2.17-3.69-5.44-6.18-6.19a5.05,5.05,0,0,0-1.19-.2C217.19,21.89,215.18,21.83,214.3,23Z" style="fill:#e40000"/><path d="M260,17.55c-3.84-1.84-9.76-2.46-12.56.44-2.29,2.36-.87,5.39.75,17.31,1.78,13.09,1.28,18.41,4.75,19.94,1.48.65,3.28.33,6.88-.32,1.07-.19,5.53-1,7.62-2.43C274.4,47.66,272.43,23.5,260,17.55Zm2.51,30.56a4.89,4.89,0,0,1-4.57,0c-2.17-1.19-2.24-3.78-3.25-10-1.68-10.43-3.27-14.35-1.06-16a3.44,3.44,0,0,1,2.12-.63c4.49,0,8,8,9,13.63C265,36.37,266.73,45.75,262.49,48.11Z" style="fill:#e40000"/></svg>