<svg xmlns="http://www.w3.org/2000/svg" width="18" height="18" fill="#fff"><path d="M6.9 11.129c1.614 1.606 3.483 3.14 4.217 2.4 1.05-1.06 1.7-1.983 4.028-.12s.551 3.118-.467 4.146c-1.174 1.185-5.571.083-9.93-4.252S-.741 4.569.434 3.383C1.452 2.355 2.69.56 4.566 2.884s.962 2.976-.089 4.037c-.733.739.812 2.602 2.423 4.208Zm2.344-7.662a1.037 1.037 0 0 0-.828.266.951.951 0 0 0 0 1.328 1.052 1.052 0 0 0 .527.266 4.3 4.3 0 0 1 2.47 1.27 4.314 4.314 0 0 1 1.267 2.475 1.056 1.056 0 0 0 .265.528.946.946 0 0 0 1.325 0 1.043 1.043 0 0 0 .265-.83 6.416 6.416 0 0 0-5.3-5.307Zm4.568.728a6.635 6.635 0 0 1 2.274 5.407 1.067 1.067 0 0 0 .25.852.943.943 0 0 0 1.332 0 1.182 1.182 0 0 0 .277-.6c.2-1.407-.052-4.237-2.8-6.995S9.566-.149 8.162.053a1.175 1.175 0 0 0-.6.278.948.948 0 0 0 0 1.334 1.061 1.061 0 0 0 .85.251c1.63-.245 3.634.509 5.401 2.279Z"/></svg>