<svg xmlns="http://www.w3.org/2000/svg" width="23" height="24" fill="#0075db"><path d="M11.223 0C9.404 0 4.905.191 2.511 2.486.788 4.111.118 6.6.023 9.562c-.191 4.685.861 7.649 2.584 9.179a9.635 9.635 0 0 0 3.16 1.627v2.39s0 .955.574 1.147c.1 0 .192.1.288.1.574 0 1.052-.67 1.722-1.339a14.633 14.633 0 0 0 1.341-1.625h2.107c1.819 0 6.318-.191 8.712-2.486 1.723-1.721 2.394-4.208 2.394-7.364a8.731 8.731 0 0 0 .1-1.625c-.1-3.538-1.148-5.928-2.584-7.267C19.841 1.817 17.351 0 11.99 0Zm-.191 2.486h.862c5.074 0 6.594 1.533 6.785 1.724 1.149.956 1.736 2.452 1.832 5.225v.383a7.778 7.778 0 0 1 .1 1.337c-.1 2.869-.642 4.528-1.79 5.771-2.011 1.817-5.7 1.624-6.851 1.624h-1.824l-1.6 2.3-.96 1.05-.193.286a4.429 4.429 0 0 1-.669.67v-.192l.2-4.388a4.734 4.734 0 0 1-2.645-1.347c-1.34-1.147-2.1-3.633-1.912-7.362v-.956c.191-2.295.6-3.107 1.553-4.159 2.003-1.82 5.963-1.966 7.112-1.966Zm-.1 1.434a.336.336 0 1 0 0 .67c3.542 0 6.606 2.39 6.606 6.884a.336.336 0 1 0 .669 0c.006-4.874-3.249-7.65-7.27-7.554Zm-3.794.885a.838.838 0 0 0-.61.166c-.957.478-1.916 1.436-1.629 2.488a11.13 11.13 0 0 0 1.245 2.676c.574.861 1.053 1.626 1.531 2.2a9.98 9.98 0 0 0 2.01 2.008 17.849 17.849 0 0 0 4.98 2.773c.957.287 2.01-.67 2.489-1.627a.911.911 0 0 0-.288-1.147 11.877 11.877 0 0 0-2.2-1.625.972.972 0 0 0-1.245.19l-.479.573a.9.9 0 0 1-.669.288 6.157 6.157 0 0 1-4.022-4.112 1.036 1.036 0 0 1 .288-.669l.574-.478a.969.969 0 0 0 .191-1.244 7.959 7.959 0 0 0-.765-1.147c-.287-.382-.862-1.051-.862-1.051a.921.921 0 0 0-.534-.262Zm4.463 1.027c-.479-.1-.574.67-.1.67a4.06 4.06 0 0 1 4.118 4.3c-.1.478.669.478.669 0a4.589 4.589 0 0 0-4.682-4.97Zm.288 1.817c-.479-.1-.479.669 0 .669a1.591 1.591 0 0 1 1.722 1.817c.1.478.767.478.767 0a2.36 2.36 0 0 0-2.484-2.485Z"/></svg>