<svg xmlns="http://www.w3.org/2000/svg" width="24" height="24" fill="#0075db"><path d="M12 2.4a9.6 9.6 0 1 0 9.6 9.6A9.611 9.611 0 0 0 12 2.4M12 0A12 12 0 1 1 0 12 12 12 0 0 1 12 0Z"/><path d="M11.635 4a4.129 4.129 0 1 0 4.129 4.13A4.133 4.133 0 0 0 11.635 4Zm0 2.42a1.71 1.71 0 1 1-1.709 1.71 1.711 1.711 0 0 1 1.709-1.71ZM8.173 12.4a1.209 1.209 0 0 0-.607 2.233 7.74 7.74 0 0 0 2.4.993l-2.313 2.309a1.21 1.21 0 1 0 1.711 1.711l2.267-2.269 2.27 2.269a1.21 1.21 0 0 0 1.709-1.711l-2.308-2.308a7.728 7.728 0 0 0 2.4-.993 1.21 1.21 0 0 0-1.288-2.049 5.244 5.244 0 0 1-5.56 0 1.2 1.2 0 0 0-.681-.185Z"/></svg>