<svg xmlns="http://www.w3.org/2000/svg" id="Layer_2" data-name="Layer 2" viewBox="0 0 231.95 38.34"><defs><style>      .cls-1 {        isolation: isolate;      }      .cls-2 {        fill: #0c2e4b;      }    </style></defs><g id="Layer_1-2" data-name="Layer 1"><g class="cls-1"><path class="cls-2" d="M15.2,22.64l.74,1.8c-.14,.13-.32,.27-.52,.42-.2,.15-.44,.31-.71,.48-.27,.09-.6,.22-.99,.39-.38,.17-.82,.36-1.32,.59-.38,.23-.69,.41-.93,.53-.24,.12-.41,.18-.5,.18-.17,0-.48,.07-.93,.21s-1.04,.36-1.77,.64c-.39,.14-.8,.29-1.24,.44-.44,.15-.89,.28-1.36,.4l-1.21-.25-.74,.33c-.25,0-.5,0-.75,0s-.5-.02-.73-.05c-.38-.01-.66-.07-.85-.16-.19-.09-.28-.22-.28-.39l.12-.74-.12-.14c-.44,0-.74-.06-.89-.18-.15-.12-.22-.39-.22-.82,0-.2,0-.52,.03-.98s.05-1.05,.09-1.78c0-.07,.04-.2,.13-.41,.08-.21,.13-.36,.13-.45-.07-.13-.1-.23-.12-.31-.01-.08-.02-.15-.02-.21,.03-.51,.08-1.13,.17-1.88,.08-.74,.19-1.62,.32-2.64,.16-.61,.29-1.3,.39-2.07-.03-.57-.05-1.16-.08-1.76,.48-2.16,.98-4.34,1.48-6.52,.08-.39,.22-.76,.44-1.11s.47-.69,.77-1.02c.13-.09,.21-.16,.25-.21,.06-.12,.15-.26,.25-.44,.1-.18,.23-.37,.37-.6,.08-.05,.21-.13,.38-.23s.41-.25,.71-.43c.13-.1,.28-.23,.45-.37,.17-.14,.36-.31,.59-.51,.49-.3,.95-.62,1.38-.95,.42-.33,.95-.54,1.59-.62,.3-.01,.6-.03,.9-.05,.3-.02,.59-.04,.86-.07,.26-.05,.49-.08,.68-.1,.13-.03,.24-.05,.34-.08s.19-.04,.26-.04,.19,0,.32,.03,.32,.05,.56,.09c.18,.01,.34,.02,.47,.02s.25,0,.37-.02c.52,.16,.9,.38,1.15,.68,.25,.3,.37,.66,.37,1.07,0,.9-.09,1.57-.26,2s-.45,.65-.83,.65c-.29,0-.61-.15-.98-.44-.36-.29-1.35-.44-2.95-.44-.66,.13-1.32,.26-1.97,.39-.07,.1-.14,.18-.22,.23-.08,.05-.16,.09-.22,.12l-.68-.25c-.21,.08-.44,.29-.7,.64-.26,.35-.53,.83-.82,1.45-.07,.13-.11,.29-.15,.49-.03,.2-.05,.42-.05,.68-.23,.94-.47,1.84-.7,2.71-.22,.94-.4,1.65-.54,2.13s-.22,.77-.24,.88c-.04,.13-.07,.25-.1,.37-.03,.12-.04,.23-.04,.35,0,.17,.03,.3,.1,.39,.06,.09,.16,.14,.29,.14,.12,0,.4-.21,.85-.64s.78-.67,1.01-.72c.27-.08,.55-.16,.83-.25,.28-.09,.57-.2,.87-.33,.12-.04,.43-.09,.93-.16,.5-.07,1.2-.14,2.1-.23l.55,.16,1.04-.2,.55,.25c.13,.13,.25,.29,.36,.48,.11,.19,.21,.39,.3,.62,0,.78-.08,1.37-.25,1.78-.17,.4-.42,.61-.76,.61l-1.07-.43c-.89,.09-1.76,.18-2.63,.26-.87,.08-1.75,.17-2.65,.24-1.09,.22-1.93,.58-2.52,1.07s-.91,1.15-.98,1.95c-.01,.17-.06,.43-.14,.78s-.17,.79-.27,1.31l.14,.59c-.12,.56-.21,1.09-.27,1.58-.07,.5-.1,.94-.1,1.33,0,.13,.02,.22,.06,.28s.08,.08,.14,.05c.62-.05,1.13-.09,1.5-.12,.38-.03,.64-.03,.8-.02,.34,.03,.68,.05,1.04,.08l1.23-.1c.13-.03,.41-.13,.85-.31,.44-.18,.83-.27,1.18-.27,.38,0,.76-.04,1.14-.12,.38-.08,.75-.18,1.1-.31s.7-.26,1.04-.4c.34-.14,.69-.27,1.04-.4,.13-.04,.3-.11,.52-.21s.47-.24,.75-.41Z"></path><path class="cls-2" d="M15.08,22.64l.18-.16c.01-.14,.1-.31,.27-.51,.17-.2,.41-.42,.72-.68,.2-.14,.4-.28,.62-.41s.42-.27,.62-.43c.82-.7,1.61-1.38,2.38-2.03,.44-.39,.89-.73,1.33-1.01,.44-.28,.86-.5,1.25-.67,.27-.35,.78-.71,1.53-1.07,.75-.36,1.36-.55,1.83-.55,.18,0,.33,.05,.44,.16,.11,.1,.18,.23,.21,.39v1.07c0,.38-.11,.71-.32,1.01s-.54,.56-.97,.81c-.29,.13-.57,.27-.86,.43-.29,.16-.57,.3-.86,.43-.1,.13-.38,.37-.83,.73s-1.06,.84-1.83,1.44c-.35,.27-.64,.52-.88,.73s-.4,.39-.49,.52c-.13,.25-.23,.52-.3,.82-.07,.3-.11,.64-.11,1.04,0,.3,.05,.56,.14,.77,.09,.21,.23,.39,.41,.52,.13,.09,.31,.18,.54,.27,.23,.09,.51,.18,.85,.27,.2-.08,.45-.15,.77-.22,.32-.07,.67-.17,1.06-.28,.44-.26,.9-.53,1.36-.82,.46-.29,.92-.58,1.38-.88,.06-.04,.15-.08,.24-.13s.2-.11,.3-.21c.13-.17,.31-.36,.54-.59,.23-.22,.5-.48,.83-.76,.52,1.13,.78,1.73,.78,1.8-.48,.39-.97,.79-1.46,1.2-.5,.41-1.06,.75-1.7,1.01-.21,.17-.38,.33-.53,.47-.65,.65-1.41,1.14-2.28,1.47-.87,.33-1.85,.5-2.96,.5-.25,0-.47-.02-.66-.06s-.36-.09-.49-.16c-.39-.26-.72-.49-1-.68-.29-.21-.53-.41-.72-.6s-.34-.37-.43-.54c-.12-.18-.2-.4-.24-.66-.05-.26-.07-.58-.07-.96,0-.1,.03-.27,.1-.51s.1-.4,.1-.49c-.09-.29-.2-.58-.33-.88-.13-.3-.28-.61-.45-.92Z"></path><path class="cls-2" d="M27.4,22.64c.29-.25,.51-.44,.66-.59s.28-.27,.37-.37c.21-.2,.38-.38,.51-.57,.13-.18,.2-.34,.21-.49,.12-.44,.25-1,.41-1.66s.36-1.43,.61-2.3c.12-.26,.24-.59,.38-.99s.28-.84,.44-1.34c.16-.65,.35-1.24,.59-1.78s.49-1.02,.78-1.45c.09-.12,.18-.26,.27-.44,.09-.18,.18-.38,.27-.62,.09-.21,.22-.45,.38-.73,.16-.28,.35-.61,.56-.99,.53-.78,1-1.45,1.41-2.01,.4-.56,.74-1.01,1-1.35,.47-.56,.94-1.08,1.42-1.57,.48-.49,.95-.94,1.44-1.36,.44-.38,.83-.65,1.15-.83,.33-.18,.59-.26,.78-.26,.18,.16,.31,.3,.39,.43,.09,0,.18-.01,.27-.04,.34,0,.59,.14,.74,.41s.23,.68,.23,1.21c0,.12-.02,.27-.06,.46s-.09,.42-.16,.69c-.09,.09-.16,.21-.2,.35s-.07,.29-.1,.43c-.01,.18-.03,.34-.06,.47-.03,.13-.06,.25-.1,.35-.17,.31-.35,.69-.55,1.14s-.4,.97-.62,1.57c-.13,.22-.29,.51-.49,.88s-.43,.77-.7,1.21c-.13,.25-.3,.56-.5,.93-.2,.37-.46,.8-.77,1.28-.08,.18-.21,.38-.4,.6-.19,.21-.41,.47-.67,.75-.08,.21-.3,.57-.65,1.07-.36,.51-.86,1.17-1.49,1.97-.31,.4-.72,.91-1.21,1.5-.5,.6-1.07,1.31-1.72,2.13-.25,.98-.43,1.85-.56,2.61-.12,.76-.19,1.42-.19,1.98,0,.22,.02,.39,.05,.5,.03,.11,.09,.17,.19,.17,.06-.09,.16-.2,.28-.31,.12-.12,.25-.25,.38-.41,.25-.22,.54-.63,.87-1.23s.71-1.37,1.14-2.32c.38-.86,.72-1.52,1.02-1.98,.3-.46,.55-.74,.74-.83l.68-.29c.13-.05,.25-.1,.35-.14,.1-.04,.19-.06,.25-.06,.17,0,.33,.1,.47,.31,.14,.21,.26,.5,.35,.86,.17,.66,.31,1.17,.41,1.53,.1,.36,.16,.57,.18,.63,.17,.39,.37,.68,.62,.86,.24,.18,.53,.27,.87,.27,.4-.07,.88-.16,1.43-.27,.1,.26,.22,.54,.36,.84s.28,.62,.42,.96c-.31,.21-.63,.41-.95,.61-.32,.2-.63,.39-.95,.59-.21,.12-.51,.21-.9,.26s-.85,.09-1.37,.09c-.79,0-1.41-.37-1.85-1.12-.44-.75-.7-1.12-.79-1.1h-.12c-.21,.26-.43,.53-.65,.8-.23,.27-.45,.56-.67,.86-.14,.3-.35,.64-.61,1.04-.26,.39-.57,.82-.94,1.29-.43,.52-.81,.91-1.13,1.17-.33,.26-.61,.39-.84,.39-.5,0-.88-.06-1.16-.17-.28-.11-.45-.28-.5-.5-.16-.73-.28-1.36-.36-1.9-.08-.54-.13-1-.13-1.38,0-.12,0-.22,.02-.31,.01-.09,.03-.18,.04-.25,.04-.17,.08-.35,.14-.55,0-.07-.02-.11-.05-.15-.03-.03-.09-.05-.17-.05-.04,.05-.09,.11-.16,.18-.07,.07-.16,.14-.27,.21-.05-.17-.14-.4-.27-.7-.13-.3-.3-.66-.51-1.09ZM40.1,4.59c-.14,0-.43,.26-.86,.77s-.98,1.27-1.64,2.28c-.38,.56-.75,1.12-1.11,1.67-.36,.55-.72,1.1-1.07,1.63-.16,.16-.27,.31-.34,.47-.07,.16-.11,.32-.11,.49-.26,.73-.51,1.41-.76,2.05-.23,.69-.43,1.22-.58,1.6-.15,.38-.24,.6-.26,.66l.1,.1c.26-.23,.48-.48,.66-.74,.26-.3,.58-.69,.95-1.16s.79-1.03,1.26-1.67c.47-.6,.95-1.36,1.45-2.28,.49-.92,1.03-1.98,1.6-3.17,.33-.65,.57-1.17,.73-1.56,.16-.39,.24-.66,.24-.82,0-.09-.02-.17-.05-.22-.03-.06-.1-.09-.21-.09Z"></path><path class="cls-2" d="M41.74,22.64l.12-.14,.06-.2c.35-.48,.97-1.11,1.86-1.88,.89-.77,1.5-1.4,1.84-1.88,.13-.21,.28-.36,.45-.45,.17-.09,.34-.14,.51-.14,.46,0,.84,.11,1.15,.34s.52,.57,.62,1.03c.09,.4,.18,.81,.25,1.22s.14,.82,.2,1.24c.09,.26,.2,.65,.33,1.18,.13,.53,.23,.83,.29,.91,.06,.13,.16,.22,.29,.28,.13,.06,.29,.09,.49,.09,.23,0,.48-.04,.72-.13,.25-.08,.5-.23,.76-.44,.2-.17,.4-.34,.62-.52s.43-.35,.63-.52l.78,1.8c-.21,.21-.49,.45-.83,.71-.35,.27-.76,.58-1.24,.93-.53,.39-.99,.68-1.37,.87-.38,.19-.66,.28-.86,.28-1.19,0-1.95-.14-2.3-.41s-.74-1.04-1.17-2.29c-.05-.1-.13-.23-.23-.37-.1-.14-.22-.31-.35-.51-.16-.3-.29-.52-.41-.67s-.21-.22-.29-.22c-.21,0-.49,.14-.84,.42s-.78,.7-1.29,1.26c-.07-.17-.15-.37-.24-.61s-.2-.51-.3-.82c-.03-.08-.06-.15-.1-.21s-.08-.12-.14-.16Zm8.16-15.41c.33,0,.56,.07,.71,.2,.15,.13,.22,.32,.22,.57-.08,.36-.14,.67-.2,.92-.13,.47-.24,.85-.34,1.15s-.17,.51-.22,.64c-.12,.29-.28,.54-.48,.75-.2,.21-.45,.41-.73,.58-.3,.21-.55,.35-.75,.44-.2,.08-.34,.12-.42,.11-.22-.03-.43-.05-.63-.07-.2-.02-.4-.03-.6-.03-.17-.09-.3-.27-.4-.53s-.15-.61-.15-1.05c0-.39,.24-.88,.71-1.47,.48-.59,.9-.91,1.26-.95,.22-.27,.48-.59,.78-.94,.13-.09,.3-.17,.51-.22,.21-.06,.45-.09,.72-.09Z"></path><path class="cls-2" d="M52.91,22.64c.26-.34,.6-.75,1.01-1.22s.91-1.02,1.49-1.63c.04-.12,.09-.26,.16-.42,.06-.16,.16-.37,.29-.62,.69-1.03,1.31-2.02,1.86-2.97s1.02-1.88,1.41-2.77c.12-.22,.24-.5,.38-.83s.31-.71,.52-1.12c.18-.31,.36-.55,.54-.72s.35-.25,.52-.25c.26,0,.45,.11,.58,.33,.12,.22,.19,.57,.19,1.04,0,.26-.22,1.1-.67,2.53s-1.12,3.43-2,6.03c-.23,.62-.5,1.5-.78,2.63-.29,1.13-.62,2.53-1,4.21-.04,.25-.08,.53-.13,.86-.05,.33-.11,.7-.21,1.13-.22,.83-.38,1.5-.47,1.99-.09,.5-.13,.81-.12,.96l.08,.16c.06-.04,.14-.16,.22-.37,.08-.21,.16-.51,.22-.9,.08-.35,.14-.65,.18-.89s.05-.44,.02-.6c.29-.75,.62-1.72,1.02-2.9s.85-2.55,1.37-4.11c.21-.38,.45-.84,.71-1.38,.27-.54,.55-1.18,.85-1.92,.3-.29,.57-.5,.81-.63,.24-.14,.45-.21,.62-.21,.36,0,.7,.1,1.02,.29s.6,.48,.86,.86c.06,.09,.19,.32,.36,.69s.41,.88,.71,1.51c.17,.39,.34,.69,.53,.91,.18,.21,.36,.33,.53,.34l.82,1.8c-.07,.01-.24,.06-.52,.14-.28,.08-.68,.16-1.2,.25l-1.33-.49c-.33-.09-.72-.41-1.18-.96-.46-.55-.84-.87-1.12-.96-.27,.2-.57,.58-.88,1.15s-.63,1.32-.96,2.23c-.08,.21-.18,.43-.3,.67-.12,.24-.25,.52-.38,.83-.08,.5-.17,.97-.27,1.43-.17,.39-.35,.89-.55,1.49s-.4,1.33-.62,2.16c-.07,.29-.23,.72-.5,1.29-.27,.57-.43,1.01-.48,1.31-.03,.18-.08,.42-.17,.72-.08,.3-.21,.65-.38,1.05-.3,.52-.57,.92-.82,1.18-.25,.27-.46,.4-.62,.4-.39,0-.68-.19-.88-.57s-.29-.94-.29-1.68c0-1.12,.06-2.35,.2-3.69,.13-1.34,.33-2.78,.59-4.32,.08-.44,.16-.89,.25-1.35,.09-.46,.18-.92,.27-1.39,.12-.55,.2-1.05,.24-1.5,.05-.46,.06-.87,.03-1.23-.13,.04-.35,.21-.65,.5-.31,.29-.69,.73-1.16,1.32-.05-.2-.14-.44-.27-.72-.13-.29-.3-.64-.51-1.07Z"></path><path class="cls-2" d="M67.19,21.78l1.78-1.17c.06-.07,.14-.15,.23-.26,.09-.11,.2-.27,.31-.48,.09-.17,.21-.31,.36-.43,.15-.12,.32-.22,.52-.31,.1-.13,.25-.29,.45-.49s.44-.42,.74-.68c.14-.08,.33-.19,.55-.34,.22-.15,.46-.35,.72-.6,1.18-1.12,2.22-1.96,3.12-2.52,.89-.56,1.64-.84,2.26-.84,.34,0,.59,.07,.75,.21,.16,.14,.24,.34,.24,.61s-.05,.51-.15,.72-.25,.38-.46,.53c-.33,.23-.68,.5-1.05,.78-.21,.27-.46,.56-.76,.87-.3,.31-.65,.61-1.05,.91-.13,.17-.24,.32-.33,.45-.07,.07-.19,.18-.37,.35-.18,.17-.42,.36-.72,.59-.13,.29-.41,.66-.85,1.11-.44,.46-1.02,1-1.75,1.64-.09,.09-.25,.3-.49,.62s-.54,.75-.92,1.29l.14,.18c.29-.09,.59-.25,.9-.47s.66-.51,1.04-.88c.44-.4,.8-.73,1.08-.99,.28-.25,.48-.42,.6-.5,.09-.05,.18-.1,.27-.16,.09-.05,.2-.12,.31-.2,.6-.72,1.16-1.25,1.68-1.59,.52-.34,1-.52,1.45-.52,.27,0,.48,.11,.62,.32,.14,.21,.23,.54,.25,.97-.03,.65-.04,1.28-.04,1.88-.01,.42,.1,.79,.34,1.12,.24,.33,.56,.5,.95,.5,.12,0,.23-.03,.34-.1,.11-.07,.22-.15,.34-.25,.09-.12,.18-.23,.26-.33,.08-.1,.17-.21,.26-.31,.05-.03,.13-.07,.22-.14s.19-.14,.28-.23c.18,.39,.33,.73,.46,1.03,.12,.29,.22,.55,.28,.77-.3,.27-.6,.56-.89,.85s-.6,.57-.93,.83c-.39,.3-.77,.52-1.13,.67-.36,.15-.73,.22-1.09,.22-.85,0-1.5-.24-1.95-.72-.46-.48-.72-1.21-.8-2.19,0-.12-.02-.24-.05-.36-.03-.12-.1-.25-.21-.38-.07,.07-.14,.13-.21,.21s-.17,.17-.27,.28c-.17,.13-.38,.29-.63,.49s-.55,.43-.89,.7c-.46,.47-.84,.85-1.15,1.15s-.53,.51-.66,.64c-.26,.22-.56,.44-.91,.66-.35,.22-.73,.45-1.16,.68-.27,.14-.51,.26-.7,.34s-.34,.13-.43,.13c-.62,0-1.09-.15-1.39-.46-.3-.31-.45-.78-.45-1.42,0-.35,.08-.69,.22-1.01,.15-.32,.37-.63,.67-.93,.03-.17,.04-.31,.04-.41,0-.07-.02-.13-.05-.21-.03-.07-.07-.15-.13-.24-.08-.18-.17-.39-.26-.62s-.21-.47-.32-.73c.05-.05,.13-.15,.22-.3s.21-.33,.34-.56Z"></path><path class="cls-2" d="M111.88,1.15c.22,0,.38,.12,.47,.36,.09,.24,.14,.59,.14,1.04,0,.3-.05,.84-.16,1.61-.1,.77-.25,1.79-.45,3.04l.23,1.27c-.1,.3-.21,.65-.31,1.05-.1,.4-.2,.85-.27,1.33-.1,.55-.2,1.01-.28,1.39s-.17,.68-.24,.92c-.1,.4-.2,.78-.28,1.12-.08,.34-.15,.69-.19,1.03-.09,.82-.21,1.6-.36,2.33s-.35,1.44-.6,2.12c-.17,.5-.43,1.44-.77,2.83-.35,1.39-.79,3.22-1.32,5.49-.23,1.02-.5,1.78-.78,2.29-.29,.51-.6,.76-.94,.76-.17,0-.29-.04-.37-.12s-.13-.21-.16-.41c-.01-.07-.02-.14,0-.21,0-.08,0-.31,0-.68-.01-.14-.05-.29-.12-.43l.39-1.52c-.01-.17-.05-.35-.1-.55,0-.46,.11-1.38,.34-2.76,.23-1.39,.56-3.25,.99-5.58,.16-.77,.31-1.61,.45-2.52,0-.16-.01-.27-.04-.33-.03-.07-.08-.1-.16-.1-.14,.07-.29,.13-.45,.19l-.49-.23c-.08,.03-.24,.15-.48,.36-.24,.21-.42,.32-.54,.32-.25,0-.61-.04-1.08-.13-.48-.08-.83-.13-1.06-.13-.29,0-.59,.07-.92,.22-.33,.15-.66,.37-1.02,.67-.61,.09-1.16,.24-1.63,.44-.48,.2-.9,.46-1.26,.77-.18,.14-.38,.3-.59,.47-.1,.09-.18,.41-.22,.97-.05,.55-.07,1.31-.07,2.28,0,.89,.05,1.54,.14,1.96,.09,.42,.23,.63,.41,.63,.12,0,.22-.03,.31-.09,.09-.06,.2-.15,.33-.28,.08-.09,.17-.19,.27-.28,.1-.1,.19-.2,.25-.3l.16-.02c.09-.01,.16,.01,.21,.08,.05,.07,.07,.16,.07,.29-.13,.29-.26,.55-.38,.78-.12,.23-.23,.43-.32,.59-.4,.61-.8,1.22-1.19,1.82-.23,.31-.51,.55-.84,.72-.33,.17-.7,.25-1.13,.25-.35,0-.61-.48-.79-1.43-.18-.95-.26-2.37-.26-4.26,0-.73-.05-1.37-.14-1.91s-.24-1.01-.45-1.4c-.19-.34-.33-.64-.41-.9-.08-.26-.12-.48-.12-.67,0-.14,.04-.31,.11-.49,.07-.18,.18-.36,.32-.55,.17-.21,.3-.38,.4-.52s.15-.25,.17-.34c.08-.21,.15-.48,.22-.82,.07-.34,.15-.73,.24-1.17,.08-.3,.15-.72,.21-1.27,.06-.55,.11-1.2,.14-1.97,.06-1.46,.2-2.56,.41-3.32,.21-.75,.29-1.2,.25-1.35l-.12-.49c.03-.27,.06-.62,.12-1.05,.05-.43,.12-.92,.21-1.48,.12-.08,.25-.19,.39-.34,.14-.15,.29-.33,.45-.56,.9-.34,1.39-.51,1.46-.51,.47,0,.82,.12,1.05,.37s.35,.6,.35,1.05c0,.13-.04,.31-.11,.55-.07,.23-.16,.53-.26,.88-.12,.3-.24,.85-.38,1.66-.14,.81-.29,1.84-.46,3.11-.12,.91-.24,1.77-.38,2.57s-.3,1.55-.48,2.24c-.03,.09-.05,.2-.06,.33,0,.2,.03,.33,.1,.42,.06,.08,.16,.13,.29,.13,.48-.04,.92-.08,1.31-.12,.13,0,.58-.14,1.35-.43h1.5c.21,0,.51-.02,.91-.07,.4-.05,.69-.07,.89-.07,.18,0,.46,.04,.83,.13,.37,.08,.66,.13,.87,.13,.16,0,.36-.03,.61-.08,.25-.05,.55-.14,.9-.27,.17,0,.31-.02,.43-.06s.18-.1,.18-.18c.06-.17,.14-.38,.22-.62,.08-.25,.17-.53,.26-.86,.03-.3,.06-.66,.11-1.07,.05-.42,.11-.91,.19-1.46,.18-1.04,.32-1.89,.4-2.56,.08-.66,.13-1.13,.13-1.41,0-.1-.01-.2-.04-.29-.03-.09-.07-.16-.14-.21-.1-.12-.22-.26-.35-.43,.09-.26,.19-.46,.29-.61,.3-.46,.55-.84,.76-1.14,.21-.31,.38-.52,.51-.65,.21-.22,.46-.44,.75-.65s.64-.43,1.04-.63Z"></path><path class="cls-2" d="M112.56,21.78l1.78-1.17c.06-.07,.14-.15,.23-.26,.09-.11,.2-.27,.31-.48,.09-.17,.21-.31,.36-.43,.15-.12,.32-.22,.52-.31,.1-.13,.25-.29,.45-.49,.19-.2,.44-.42,.74-.68,.14-.08,.33-.19,.55-.34s.46-.35,.72-.6c1.18-1.12,2.22-1.96,3.12-2.52s1.64-.84,2.26-.84c.34,0,.59,.07,.75,.21s.24,.34,.24,.61-.05,.51-.15,.72-.25,.38-.46,.53c-.33,.23-.68,.5-1.05,.78-.21,.27-.46,.56-.76,.87s-.65,.61-1.05,.91c-.13,.17-.24,.32-.33,.45-.07,.07-.19,.18-.37,.35s-.42,.36-.72,.59c-.13,.29-.41,.66-.85,1.11s-1.02,1-1.75,1.64c-.09,.09-.25,.3-.49,.62s-.54,.75-.92,1.29l.14,.18c.29-.09,.59-.25,.9-.47s.66-.51,1.04-.88c.44-.4,.8-.73,1.08-.99s.48-.42,.6-.5c.09-.05,.18-.1,.27-.16s.2-.12,.31-.2c.6-.72,1.16-1.25,1.68-1.59s1-.52,1.45-.52c.27,0,.48,.11,.62,.32s.23,.54,.25,.97c-.03,.65-.04,1.28-.04,1.88-.01,.42,.1,.79,.34,1.12s.56,.5,.95,.5c.12,0,.23-.03,.34-.1s.22-.15,.34-.25c.09-.12,.18-.23,.26-.33s.17-.21,.26-.31c.05-.03,.13-.07,.22-.14s.19-.14,.28-.23c.18,.39,.33,.73,.46,1.03s.22,.55,.28,.77c-.3,.27-.6,.56-.89,.85s-.6,.57-.93,.83c-.39,.3-.77,.52-1.13,.67s-.73,.22-1.09,.22c-.85,0-1.5-.24-1.95-.72s-.72-1.21-.8-2.19c0-.12-.02-.24-.05-.36s-.1-.25-.21-.38c-.07,.07-.14,.13-.21,.21s-.17,.17-.27,.28c-.17,.13-.38,.29-.63,.49s-.55,.43-.89,.7c-.46,.47-.84,.85-1.15,1.15s-.53,.51-.66,.64c-.26,.22-.56,.44-.91,.66-.35,.22-.73,.45-1.16,.68-.27,.14-.51,.26-.7,.34s-.34,.13-.43,.13c-.62,0-1.09-.15-1.39-.46-.3-.31-.45-.78-.45-1.42,0-.35,.08-.69,.22-1.01,.15-.32,.37-.63,.67-.93,.03-.17,.04-.31,.04-.41,0-.07-.02-.13-.05-.21-.03-.07-.07-.15-.13-.24-.08-.18-.17-.39-.26-.62s-.21-.47-.32-.73c.05-.05,.13-.15,.22-.3s.21-.33,.34-.56Z"></path><path class="cls-2" d="M126.95,22.64c.08-.09,.17-.21,.27-.36s.22-.32,.35-.5c.57-.72,1.13-1.36,1.67-1.92s1.05-1.07,1.54-1.51c.25-.23,.55-.54,.9-.91,.35-.37,.76-.8,1.23-1.28,.47-.18,.98-.39,1.54-.62,.35,0,.61,.11,.78,.34s.25,.56,.25,.99c0,.36-.03,.76-.09,1.18s-.14,.86-.24,1.3c-.12,.35-.21,.69-.29,1.02,0,.09,.02,.16,.06,.21s.1,.07,.2,.07c.2-.09,.57-.42,1.13-.98s1.3-1.34,2.21-2.34c.78-.86,1.46-1.5,2.05-1.92s1.05-.63,1.41-.63c.38,0,.65,.14,.83,.42s.26,.69,.26,1.24c0,.79-.06,1.56-.18,2.29s-.32,1.44-.6,2.12c-.05,.13-.08,.24-.1,.33-.01,.09-.02,.18-.02,.25,0,.09,.08,.18,.23,.25,.1-.09,.22-.22,.36-.39s.3-.38,.48-.64c.3-.25,.6-.5,.9-.74,.3-.25,.62-.5,.98-.76,.36-.29,.74-.5,1.11-.65s.75-.22,1.11-.22c.06,0,.13,.02,.19,.06,.07,.04,.13,.08,.2,.14,.3,.26,.55,.5,.74,.71,.19,.21,.33,.4,.41,.56,.51,1.04,.96,1.82,1.36,2.33s.74,.77,1.04,.77c.06,0,.13-.02,.19-.05,.07-.03,.13-.08,.2-.13,.3,.64,.55,1.24,.76,1.8-.47,.36-.88,.64-1.25,.83s-.68,.28-.96,.28c-.9,0-1.83-.58-2.78-1.75-.96-1.17-1.69-1.75-2.2-1.75-.68,0-1.8,1-3.38,3s-2.56,3-2.95,3c-.2,0-.46-.02-.78-.06-.1-.04-.18-.12-.23-.24s-.08-.27-.08-.44c0-.2,.04-.45,.12-.77s.18-.69,.31-1.12c.17-.55,.31-.98,.41-1.31s.16-.55,.18-.68c.04-.17,.09-.5,.17-1s.17-1.15,.28-1.97c0-.14-.04-.25-.12-.33s-.17-.12-.27-.12c-.09,0-.19,.03-.3,.09s-.24,.15-.38,.28c-.16,.17-.33,.34-.52,.51s-.49,.41-.91,.72c-.46,.52-.92,1.05-1.4,1.59s-.96,1.08-1.46,1.63c-.78,.91-1.4,1.58-1.87,2.02s-.76,.65-.89,.65c-.39,0-.69-.05-.89-.14-.2-.09-.3-.23-.3-.41,0-.43,.23-1.33,.69-2.69,.46-1.36,.7-2.32,.7-2.88,0-.09-.03-.17-.09-.22s-.13-.09-.22-.09c-.16,0-.34,.09-.56,.26-.21,.18-.46,.45-.73,.83-.18,.21-.41,.45-.67,.72-.26,.27-.58,.59-.96,.96-.04,.1-.09,.21-.16,.3s-.14,.19-.22,.28c-.05-.2-.14-.44-.27-.72-.13-.29-.3-.64-.51-1.07Z"></path><path class="cls-2" d="M152.23,21.78l1.78-1.17c.07-.07,.14-.15,.23-.26s.2-.27,.31-.48c.09-.17,.21-.31,.36-.43s.32-.22,.52-.31c.1-.13,.25-.29,.45-.49s.44-.42,.74-.68c.14-.08,.33-.19,.55-.34s.46-.35,.72-.6c1.18-1.12,2.22-1.96,3.12-2.52s1.64-.84,2.26-.84c.34,0,.59,.07,.75,.21s.24,.34,.24,.61-.05,.51-.15,.72-.25,.38-.46,.53c-.33,.23-.68,.5-1.05,.78-.21,.27-.46,.56-.76,.87s-.65,.61-1.05,.91c-.13,.17-.24,.32-.33,.45-.07,.07-.19,.18-.37,.35s-.42,.36-.72,.59c-.13,.29-.41,.66-.85,1.11s-1.02,1-1.75,1.64c-.09,.09-.25,.3-.49,.62s-.54,.75-.92,1.29l.14,.18c.29-.09,.59-.25,.9-.47s.66-.51,1.04-.88c.44-.4,.8-.73,1.08-.99s.48-.42,.6-.5c.09-.05,.18-.1,.27-.16s.2-.12,.31-.2c.6-.72,1.16-1.25,1.68-1.59s1-.52,1.45-.52c.27,0,.48,.11,.62,.32s.23,.54,.25,.97c-.03,.65-.04,1.28-.04,1.88-.01,.42,.1,.79,.34,1.12s.56,.5,.95,.5c.12,0,.23-.03,.34-.1s.22-.15,.34-.25c.09-.12,.18-.23,.26-.33s.17-.21,.26-.31c.05-.03,.13-.07,.22-.14s.19-.14,.28-.23c.18,.39,.33,.73,.46,1.03s.22,.55,.28,.77c-.3,.27-.6,.56-.89,.85s-.6,.57-.93,.83c-.39,.3-.77,.52-1.13,.67s-.73,.22-1.09,.22c-.85,0-1.5-.24-1.95-.72s-.72-1.21-.8-2.19c0-.12-.02-.24-.05-.36s-.1-.25-.21-.38c-.07,.07-.14,.13-.21,.21s-.17,.17-.27,.28c-.17,.13-.38,.29-.63,.49s-.55,.43-.89,.7c-.46,.47-.84,.85-1.15,1.15s-.53,.51-.66,.64c-.26,.22-.56,.44-.91,.66s-.73,.45-1.16,.68c-.27,.14-.51,.26-.7,.34s-.34,.13-.43,.13c-.62,0-1.09-.15-1.39-.46-.3-.31-.45-.78-.45-1.42,0-.35,.08-.69,.22-1.01,.15-.32,.38-.63,.67-.93,.03-.17,.04-.31,.04-.41,0-.07-.02-.13-.05-.21s-.07-.15-.13-.24c-.08-.18-.17-.39-.26-.62s-.21-.47-.32-.73c.05-.05,.13-.15,.22-.3s.21-.33,.34-.56Z"></path><path class="cls-2" d="M179.18,22.64c.52,1.13,.78,1.73,.78,1.8-.17,.23-.33,.48-.47,.74s-.3,.53-.47,.8c-.16,.23-.36,.44-.61,.61s-.53,.31-.86,.43c-.47,.18-.91,.36-1.33,.54s-.79,.35-1.13,.52c-.38,.18-.78,.3-1.22,.36s-.86,.11-1.26,.17c-.29,.08-.57,.13-.85,.15s-.54,.03-.77,.03c-.2,0-.36,0-.49-.03s-.24-.06-.33-.11c-.12-.08-.23-.16-.34-.23s-.22-.15-.32-.21c-.22-.13-.39-.23-.51-.29-.16-.09-.27-.35-.34-.78s-.11-1.06-.11-1.88c0-.57,.16-1.49,.49-2.74s.49-2.08,.49-2.5c0-.09-.01-.22-.04-.38-.03-.16-.04-.3-.04-.4,0-.36,.13-1.2,.38-2.49,.25-1.3,.38-2.2,.38-2.71,0-.25-.09-.43-.28-.54-.19-.11-.28-.28-.28-.5,0-.31,.03-.66,.08-1.05s.14-.82,.27-1.29c.1-.38,.2-.76,.29-1.14s.18-.76,.27-1.12c.09-.43,.19-.87,.28-1.31s.18-.87,.24-1.29c.08-.29,.2-.64,.37-1.05s.37-.89,.61-1.42c.12-.26,.22-.5,.31-.73,.09-.23,.19-.47,.29-.73,.1-.21,.25-.39,.45-.56,.2-.16,.44-.31,.72-.44,.23-.09,.44-.16,.62-.21s.31-.07,.37-.07c.35,0,.61,.12,.77,.36s.24,.61,.24,1.1c0,.16,0,.33-.03,.54s-.07,.43-.15,.69c-.05,.27-.1,.51-.15,.7s-.08,.35-.11,.47c-.01,.31-.03,.6-.06,.86s-.06,.5-.1,.72c-.08,.16-.18,.34-.31,.57-.09,.61-.17,1.12-.22,1.53s-.09,.7-.09,.87c0,.55-.14,1.23-.42,2.06s-.42,1.46-.42,1.88c0,.18-.03,.42-.1,.71s-.16,.64-.29,1.04c-.14,.55-.26,.97-.34,1.27s-.14,.48-.17,.55c-.03,.2-.06,.42-.09,.68s-.08,.57-.15,.92c-.3,1.42-.52,2.59-.67,3.53s-.22,1.63-.22,2.1c0,.43,.05,.76,.14,1s.23,.35,.41,.35c.82,0,1.65-.09,2.49-.27s1.72-.45,2.63-.8c.1-.01,.21-.04,.3-.08s.2-.08,.3-.12c.16-.18,.27-.35,.35-.51,.17-.1,.32-.21,.45-.32s.24-.22,.33-.34Z"></path><path class="cls-2" d="M185.55,27.17c0,.18-.05,.36-.15,.53s-.24,.33-.44,.49c-.07,.2-.15,.34-.24,.44s-.22,.15-.38,.15c-.53,0-.99-.19-1.37-.57s-.68-.94-.9-1.68l.14-.14-.2-.51c.07-.21,.12-.41,.18-.61s.1-.39,.16-.59c.07-.25,.17-.43,.32-.54s.32-.17,.52-.17c.34,0,.65,.09,.95,.27s.56,.46,.79,.84c.22,.34,.38,.68,.48,1.03s.15,.69,.15,1.04Z"></path><path class="cls-2" d="M191.76,9.1c-.04-.26-.08-.53-.14-.82,0,.12,.02,.03,.06-.27s.09-.81,.16-1.54c.1-.14,.18-.27,.22-.38s.09-.21,.13-.3c-.12-.14-.21-.26-.26-.36s-.09-.18-.09-.24c.1-.79,.2-1.55,.29-2.27,.01-.2,.13-.42,.34-.66s.51-.51,.89-.8c.3-.25,.59-.46,.88-.62s.56-.31,.82-.41c.35-.12,.56-.21,.62-.29s.14-.12,.21-.12c.21,0,.37,.1,.48,.31s.17,.52,.17,.94c0,.22-.06,.53-.17,.92s-.17,.68-.17,.86c0,.08,0,.38,.03,.9s.05,1.27,.09,2.25c.01,.7,.11,1.45,.3,2.25,.19,.79,.43,1.62,.73,2.48,.4,1.12,.84,1.96,1.31,2.51,.47,.55,.98,.83,1.54,.83,.44,0,1.03-.29,1.76-.86s1.59-1.43,2.58-2.58c.76-.89,1.43-1.71,2.02-2.48s1.07-1.47,1.44-2.11c.34-.57,.74-1.09,1.19-1.54s.98-.87,1.56-1.25c.18-.1,.33-.19,.45-.25s.21-.1,.27-.1c.23,0,.41,.18,.53,.53s.18,.87,.18,1.56c-.08,.64-.14,1.27-.19,1.89-.12,.98-.29,1.99-.52,3.05s-.52,2.15-.89,3.28c-.18,.57-.34,1.07-.47,1.5s-.22,.79-.27,1.09c-.03,.17-.06,.38-.11,.63-.05,.25-.09,.55-.15,.89-.13,.33-.27,.65-.43,.98-.13,.26-.24,.57-.32,.94-.08,.36-.16,.79-.22,1.27,0,.09,0,.21-.02,.35-.01,.14-.03,.29-.04,.45-.3,1.33-.61,2.62-.92,3.87-.03,.12-.08,.27-.18,.45-.17,.05-.36,.16-.58,.33-.21,.17-.44,.4-.67,.7-.23,.26-.43,.45-.58,.58-.16,.12-.27,.19-.35,.19-.1,0-.19-.03-.25-.1s-.1-.18-.1-.33c.01-.1,.03-.19,.06-.25,.18-.44,.34-1.08,.48-1.91s.26-1.86,.38-3.09c.01-.26,.12-.96,.31-2.11s.48-2.73,.86-4.77c.05-.33,.12-.73,.21-1.2s.19-1.02,.32-1.63c.09-.31,.17-.58,.22-.81s.09-.39,.09-.5c0-.13-.02-.22-.07-.28s-.11-.09-.21-.09c-.08,0-.22,.1-.43,.3-.21,.2-.47,.5-.78,.91-.18,.22-.37,.46-.56,.7-.19,.25-.39,.49-.6,.72-.35,.36-.68,.71-.98,1.04l-1.45,1.45c-.13,.08-.29,.18-.48,.29-.19,.12-.41,.25-.67,.41-.25,.39-.64,.73-1.18,1.01-.54,.28-1.04,.42-1.5,.42-.55,0-1.07-.17-1.57-.52-.5-.34-.99-.88-1.46-1.59-.21-.35-.41-.7-.62-1.05-.2-.35-.42-.7-.66-1.05l-.1,.02c-.07,.08-.19,.61-.36,1.58s-.4,2.41-.67,4.3c-.3,1.94-.53,3.46-.68,4.57s-.23,1.82-.23,2.15c-.03,.44-.11,.78-.24,1.03s-.35,.38-.63,.42c-.14,.01-.34,.05-.61,.11s-.57,.13-.94,.22c-.07-.01-.12-.04-.18-.07s-.08-.08-.08-.15l.12-.72-.2-.74c.08-.4,.16-.79,.23-1.17,.05-.78,.1-1.52,.14-2.21,.01-.14,.06-.38,.15-.72s.13-.59,.13-.76c0-.09-.02-.22-.06-.4s-.06-.31-.06-.4c0-.72,.11-1.78,.34-3.18s.34-2.47,.34-3.2c-.04-.3-.08-.6-.14-.9,.07-.47,.17-1.05,.31-1.76s.31-1.52,.49-2.46Z"></path><path class="cls-2" d="M231.21,22.62c.29,.64,.53,1.24,.74,1.8-.26,.26-.61,.5-1.04,.71-.43,.21-.93,.41-1.5,.58-.16,.04-.34,.09-.56,.16s-.46,.13-.73,.2c-.38,.03-.83,.07-1.36,.12-.53,.05-1.15,.12-1.87,.21-1.02,.8-1.92,1.42-2.71,1.88s-1.45,.75-1.98,.88l-.29,.25c-.44,.2-.98,.35-1.61,.48s-1.38,.23-2.24,.32c-.16-.04-.32-.13-.48-.28s-.35-.36-.56-.63c.13-.14,.29-.33,.49-.56,.2-.23,.41-.5,.64-.81,.2-.29,.43-.52,.69-.7,.27-.18,.61-.3,1.03-.38,.43-.09,.91-.22,1.43-.39,.13-.1,.29-.21,.48-.32s.4-.24,.63-.4c.3-.14,.61-.34,.94-.61s.68-.58,1.07-.96c.52-.51,.94-.92,1.25-1.22s.5-.5,.57-.58c.1-.18,.21-.35,.33-.5s.26-.29,.43-.42c.18-.31,.41-.71,.68-1.18s.6-1.03,.98-1.65c.07-.07,.15-.16,.24-.28s.21-.26,.34-.4c.26-.3,.45-.75,.57-1.37s.18-1.35,.18-2.23c0-.6-.15-1.22-.46-1.88-.31-.65-.78-1.34-1.42-2.07-.53-.6-1.1-1.14-1.7-1.61s-1.2-.86-1.81-1.16c-.47-.23-.91-.47-1.32-.69-.41-.23-.78-.43-1.12-.62-.18,.65-.41,1.55-.69,2.7-.28,1.15-.6,2.54-.95,4.18-.39,1.85-.68,3.34-.88,4.47s-.29,1.89-.29,2.29c-.08,.33-.14,.65-.19,.98l-.78,3.85c-.46,.89-.85,1.54-1.17,1.97-.33,.43-.58,.64-.76,.64-.09,0-.18-.08-.26-.22s-.16-.39-.24-.71l.24-1.11c-.04-.08-.08-.19-.12-.33,.08-.85,.15-1.7,.22-2.57,.07-.87,.14-1.73,.22-2.59,.07-.96,.16-1.87,.29-2.72s.27-1.63,.43-2.34l-.23-1c.09-.25,.17-.55,.24-.92,.07-.36,.13-.78,.19-1.25,.05-.6,.1-1.08,.14-1.46s.08-.63,.14-.77c.05-.17,.11-.38,.17-.64s.13-.57,.21-.94c.04-.14,.27-.42,.68-.83s.68-.72,.8-.93c.27-.04,.48-.09,.61-.17,.13-.07,.2-.17,.2-.28,0-.09-.08-.17-.22-.23-.15-.07-.37-.12-.67-.16-.14,0-.31-.02-.5-.05-.19-.03-.38-.09-.58-.17l-1.6-.78c-.34-.16-.6-.31-.78-.47s-.27-.32-.27-.49c.08-.26,.14-.52,.2-.78-.09-.26-.17-.47-.23-.64-.06-.17-.09-.3-.09-.39,0-.12,.03-.21,.09-.27s.14-.1,.24-.1c.36,.07,.68,.12,.96,.18,.13-.04,.26-.08,.39-.13s.26-.09,.39-.15c.31,0,.59,.02,.84,.07s.44,.09,.57,.15c.18,.09,.37,.19,.57,.29s.38,.2,.57,.27c.16-.03,.36-.06,.62-.1,.08,0,.15,.01,.21,.04,.16,.1,.34,.2,.57,.28s.48,.16,.76,.22c.31,.05,.58,.11,.8,.17s.4,.12,.53,.19c1.38,.72,2.59,1.39,3.62,2.02s1.89,1.25,2.57,1.85c1.07,.93,1.86,1.92,2.36,2.97s.76,2.16,.76,3.3c0,1.82-.54,3.76-1.62,5.8-1.08,2.05-2.69,4.2-4.82,6.45,.18-.08,.42-.16,.72-.25s.64-.2,1.04-.33c.82-.18,1.67-.38,2.54-.59,.55-.16,1.01-.33,1.39-.51s.68-.4,.92-.65Z"></path></g></g></svg>