<svg xmlns="http://www.w3.org/2000/svg" viewBox="0 0 212 159.392"><g transform="translate(-0.002 0)"><g transform="translate(0.002 0)"><path d="M36.328,151s-26.4-18.8-34-50.8,4-70.8,26-90.4,61.6-6.4,79.2,10l17.6,16.4a82.377,82.377,0,0,0,38.8,8.4c22-.8,41.6,29.2,46.8,52.8s-7.2,54.8-7.2,54.8L36.328,151Z" transform="translate(-0.002 0)" fill="#f1f7fc"></path><g transform="translate(162.742 70.963)"><rect width="33.05" height="19.532" rx="5" fill="#047ae2"></rect><path d="M377.058,200.551l4.284-10.141H372.78Z" transform="translate(-360.533 -173.383)" fill="#047ae2"></path><g transform="translate(6.145 2.307)"><g transform="translate(10.283 0.863)"><path d="M379.69,170.753h7.727v1.131l3.788-2.19-3.788-2.184v1.132H379.69Z" transform="translate(-379.69 -167.51)" fill="#fff"></path><path d="M391.2,179.472h-7.727V178.34l-3.788,2.184,3.788,2.184v-1.131H391.2Z" transform="translate(-379.69 -171.787)" fill="#d2eaff"></path></g><path d="M368.235,177.11l-.369.133a11.556,11.556,0,0,1-1.743-2.735,9.906,9.906,0,0,1-.617-3.165l.266-.115-1.634-3.909a3.227,3.227,0,0,0-.793.9c-.926,1.561-.835,3.963.1,6.3s1.924,4.435,3.739,5.748a3.579,3.579,0,0,0,2.7.8l-1.652-3.957Z" transform="translate(-362.696 -166.572)" fill="#fff"></path><path d="M373.448,182.7l-.508.188,1.67,4.006a3.29,3.29,0,0,0,.508-.218.98.98,0,0,0,.442-1.216l-.871-2.2a.975.975,0,0,0-1.234-.557Z" transform="translate(-366.741 -172.624)" fill="#fff"></path><path d="M366.774,166.142a3.7,3.7,0,0,0-.654.309l1.67,3.994.563-.236a.976.976,0,0,0,.533-1.253l-.877-2.251a.964.964,0,0,0-1.228-.563Z" transform="translate(-364.048 -166.083)" fill="#fff"></path></g></g><path d="M116.912,246.749v-36s-.4-9.7,4.7-12.5,26.6-1.3,26.6-1.3v49.8Z" transform="translate(-60.402 -101.552)" fill="#466988"></path><g transform="translate(60.23 31.861)"><path d="M190.455,127.645s-1.3,10.9-1.8,11.8l-.5.9-2.5,1.7s4.8,6.8,10.7,7.9,5.4-2.4,5.4-2.4l-.9-1.9,1.2-10.4s-10.7-4.9-11.6-7.6Z" transform="translate(-156.156 -97.809)" fill="#ff9d8c"></path><path d="M179.23,157.491l3.9-1.7a18.365,18.365,0,0,0,8.3,6.5c5.8,2.4,5.9,1,6.2,0a3.789,3.789,0,0,0-.1-2.1l.43-3.5,2.32.773,8.052,65.129-20.7,1-8.4-66.1Z" transform="translate(-152.834 -112.354)" fill="#fff"></path><path d="M218.745,157.785s1.4,3.233,2.7,10.831a258.3,258.3,0,0,1,2.8,29.2c.3,8.8.5,28.9.5,28.9h26.1c.3,0,2.1-9.9,2.1-9.9s-11.4-9.768-12-11.368c-.4-1.068-.2-20.832-1.9-29.933s-3.9-10.933-8.5-13.2a99.7,99.7,0,0,0-11.8-4.534Z" transform="translate(-173.247 -113.382)" fill="#2f475b"></path><path d="M246.094,231.931a.239.239,0,0,1-.242-.242c0-.715-.126-10.875-.251-20.7s-.251-19.986-.251-20.7a.242.242,0,1,1,.483,0c0,.715.126,10.875.251,20.7s.251,19.986.251,20.7A.239.239,0,0,1,246.094,231.931Z" transform="translate(-186.996 -130.055)" fill="#637c91"></path><path d="M139.088,271.647l-.2,13.9h30.4s1.3-11.8.8-12.9-31-1-31-1Z" transform="translate(-131.991 -172.212)" fill="#2f475b"></path><g transform="translate(35.135 31.015)"><path d="M203.105,140.409a15.937,15.937,0,0,0,4.253,2.286l.715-6.187s-8.038-3.683-10.764-6.419A16.763,16.763,0,0,0,203.105,140.409Z" transform="translate(-197.31 -130.09)" fill="#e58878"></path></g><path d="M214.717,83.247a21.681,21.681,0,0,1,2.5,8c.4,4.4,0,15.7-3.6,20.5s-11.1,3.4-14.5.5c-3.122-2.663-6.2-5.6-7-11.4s1.7-16.8,8.8-19.1,13.8,1.5,13.8,1.5Z" transform="translate(-159.417 -73.711)" fill="#ff9d8c"></path><g transform="translate(38.002 98.618)"><path d="M229.558,278.389s-.353,0-.889-.014c-.126,0-.266,0-.411,0-.517-.014-1.145-.029-1.779-.048l-.425-.014c-.628-.014-1.165.063-1.667.034h-.015c-.106,0-.261.01-.387.015a.939.939,0,0,1-.16,0,2.35,2.35,0,0,1-.662-.261,44.96,44.96,0,0,0-10.372-1.382c-4.466.019-8.473.324-9.125-.222s-1.054-6.167,2.76-6.535l4.688,1.779s10.706-1.271,14.63,1.624S229.558,278.389,229.558,278.389Z" transform="translate(-203.241 -269.96)" fill="#ff9d8c"></path><path d="M240.413,283.9c-.106,0-.261.01-.387.015a4.533,4.533,0,0,0-.411-.551c-1.208-1.233-4.128-2.03-5.186-2.286a.182.182,0,0,1-.135-.217.186.186,0,0,1,.222-.135c1.542.372,4.814,1.324,5.742,2.885.029.043.106.193.155.29Z" transform="translate(-219.283 -275.521)" fill="#2f475b"></path><path d="M244,282.581c-.14,0-.285,0-.425-.015-1.319-2.407-3.48-3.1-6.143-3.954l-.16-.053a.188.188,0,0,1-.116-.232.186.186,0,0,1,.232-.116l.155.053c2.823.9,5.089,1.634,6.462,4.316Z" transform="translate(-220.757 -274.219)" fill="#2f475b"></path><path d="M247.819,281.473c-.126,0-.266,0-.411,0a10.541,10.541,0,0,0-6.95-5.152.185.185,0,0,1-.15-.213.188.188,0,0,1,.213-.145,10.8,10.8,0,0,1,7.3,5.515Z" transform="translate(-222.391 -273.058)" fill="#2f475b"></path></g><path d="M189.525,88.105a9.36,9.36,0,0,0,3.751-4,11.351,11.351,0,0,0,1.348-5.6,17.271,17.271,0,0,1,7,.8c4.2,1.252,9.2,2.948,13.4.551s4.2-6.249,2.151-7.849c-2.3-1.793-6.849-.7-6.849-.7s1.75-1.7.8-2.7-4.4.3-4.4.3-4.2-3.349-12.151-2.948-11.75,5.95-12.2,12.151a34.372,34.372,0,0,0,1.8,12.4l5.35-2.4Z" transform="translate(-154.428 -65.921)" fill="#214565"></path><g transform="translate(49.173 23.556)"><path d="M228.406,114.79a12.756,12.756,0,0,0-.551,3.577c-.087.918-.256,1.986.585,2.605.4.295,2.3,1.092,1.324,1.74a2.574,2.574,0,0,1-1.421.159c-.29-.014-.585-.024-.88-.048-.314-.024-.619-.116-.933-.121a.183.183,0,0,0-.092.338,3.921,3.921,0,0,0,1.832.435,2.732,2.732,0,0,0,1.518-.266,1.079,1.079,0,0,0,.691-.778,1.253,1.253,0,0,0-.6-1.073c-.377-.28-.841-.411-1.223-.686-.532-.377-.488-1.02-.449-1.609.092-1.421.416-2.818.541-4.234.019-.217-.28-.217-.348-.048h0Z" transform="translate(-226.353 -114.659)" fill="#e58878"></path></g><path d="M236.675,119.958c-.15.841-.764,1.44-1.368,1.334s-.976-.88-.831-1.721.764-1.44,1.368-1.334S236.82,119.117,236.675,119.958Z" transform="translate(-181.361 -92.945)" fill="#254d71"></path><path d="M220.666,118.472c-.135.909-.778,1.566-1.431,1.469s-1.078-.913-.942-1.822.778-1.566,1.431-1.469S220.8,117.563,220.666,118.472Z" transform="translate(-173.003 -92.126)" fill="#254d71"></path><path d="M235.014,113.339c.469.077.938,0,1.411.034.111.01.227.024.338.034.082.01-.15-.024-.039,0,.024,0,.048.01.073.01.058.01.116.024.174.039.1.024.2.063.3.082a1.158,1.158,0,0,0,.285.039c.053,0,.1-.015.155-.019a.683.683,0,0,0-.1.019,1,1,0,0,0,.193-.019.519.519,0,0,0,.358-.633.535.535,0,0,0-.1-.2.89.89,0,0,0-.063-.077c.019.019.039.044.058.063a.923.923,0,0,0-.063-.082.281.281,0,0,0-.106-.106c-.039-.029-.072-.058-.111-.087a1.369,1.369,0,0,0-.435-.174,3.683,3.683,0,0,0-.86-.111,6.242,6.242,0,0,0-.851.068,1.632,1.632,0,0,0-.73.271.492.492,0,0,0-.227.469.46.46,0,0,0,.338.391h0Z" transform="translate(-181.479 -89.801)" fill="#254d71"></path><path d="M219.772,111.263a1.861,1.861,0,0,0-.193-.1c-.058-.024-.213-.106-.1-.044-.044-.024-.087-.048-.131-.068a3.007,3.007,0,0,0-.6-.217,4.047,4.047,0,0,0-1.406-.1,3.264,3.264,0,0,0-1.387.435.762.762,0,0,0-.174.126l-.1.131.029-.043a.475.475,0,0,0-.208.406.4.4,0,0,0,.217.358.582.582,0,0,0,.483,0h-.251a.9.9,0,0,0,.377,0s.135-.034.048-.015.135-.014.16-.019.179-.019.019,0a.533.533,0,0,0,.087-.01c.077-.01.15-.019.227-.024.329-.024.657-.039.991-.053.3-.01.619-.014.928,0l.391.014c.073,0,.044.015-.01,0a.5.5,0,0,0,.082.019c.053.014.106.034.159.053a.456.456,0,0,0,.546-.271.465.465,0,0,0-.189-.58h0Z" transform="translate(-171.573 -89.064)" fill="#254d71"></path><path d="M225.043,138.237A4.534,4.534,0,0,1,227.3,136.2c-.836-.087-4.795-.449-5.79.116-1.116.633.208,3.185,2.518,3.311a3.074,3.074,0,0,0,.677-.039A3.33,3.33,0,0,1,225.043,138.237Z" transform="translate(-174.47 -102.133)" fill="#194265"></path><path d="M191.44,129.081a7.239,7.239,0,0,0,2.7,3.349,26.794,26.794,0,0,0,5.636,3.117l.266-1.165a19.7,19.7,0,0,1-5.051-3.151,6.491,6.491,0,0,1-1.8-2.552l-1.75.4Z" transform="translate(-159.142 -98.347)" fill="#dee1eb"></path><path d="M208.366,138.686a2.886,2.886,0,0,1,3.011,2.325c.13.947-.759,2.011-2.842,1.078-2.586-1.16-2.025-3.316-.174-3.4Z" transform="translate(-167.068 -103.515)" fill="#1c4568"></path><path d="M190,85.555a19.136,19.136,0,0,1,4.65-9.652c7.351-7.448,13.6-7,13.6-7s-.048-1.049-2.4-1.851c-2.209-.749-3.2-.348-3.2-.348a18.5,18.5,0,0,0-11.15,6.148,23.957,23.957,0,0,0-5.65,12.852Z" transform="translate(-156.254 -66.271)" fill="#dee1eb"></path><g transform="translate(25.487 18.471)"><path d="M185.059,104.25c-4.814-.817-7.5,2.948-7.7,6.752s2.562,6.689,6.249,6.4c8.3-.648,7.351-12.151,1.45-13.151Z" transform="translate(-177.349 -104.137)" fill="#fff"></path><path d="M184.688,115.94a3.277,3.277,0,0,1-2.958-1.764,3.657,3.657,0,0,1,.14-3.78.185.185,0,0,1,.251-.048.18.18,0,0,1,.048.251,3.293,3.293,0,0,0-.121,3.4,2.923,2.923,0,0,0,2.736,1.576,3.162,3.162,0,0,0,2.624-1.416,4.012,4.012,0,0,0,.4-3.552,2.7,2.7,0,0,0-2.7-1.774.18.18,0,0,1-.048-.358,3.032,3.032,0,0,1,3.084,2.006,4.372,4.372,0,0,1-.435,3.881,3.515,3.515,0,0,1-2.914,1.576h-.1Z" transform="translate(-179.376 -106.369)" fill="#819cb3"></path></g><path d="M151.916,156.41s-14.6,3.6-19.7,9.4-7.5,34.4-7.6,39.7,3.6,7.5,5.8,9,11.9,4.2,19.7,4.6,15.2,0,15.2,0a10.409,10.409,0,0,1,1.174-4.2,5.154,5.154,0,0,1,2.523-2.8l-6.7-2.4s-1.174-21.02-3-31.2a90.257,90.257,0,0,0-7.4-22.1Z" transform="translate(-124.616 -112.674)" fill="#2f475b"></path><path d="M226.727,207.639a.216.216,0,0,1-.1-.019.239.239,0,0,1-.121-.319c1.368-3.088,2.784-9.145,3.581-13.4l.068-.343c.242-1.252.541-2.8-.058-3.881-.3-.546-1-1.735-1.663-2.876-.691-1.184-1.339-2.305-1.522-2.639-.353-.652.759-2.4,2.363-4.79.435-.648.807-1.2,1.025-1.581.57-.991.193-1.895-.251-2.948l-.15-.363c-.4-.981-.856-1.962-1.3-2.914-.179-.387-.358-.778-.537-1.17-.237-.517-.469-1.044-.71-1.576a91.854,91.854,0,0,0-4.746-9.555.243.243,0,1,1,.416-.251,92.288,92.288,0,0,1,4.77,9.6c.237.532.474,1.059.706,1.571.179.391.358.778.537,1.165.44.957.9,1.943,1.3,2.934l.15.358c.449,1.068.913,2.18.222,3.374-.227.392-.6.957-1.044,1.609-.836,1.247-2.576,3.842-2.339,4.292.179.329.826,1.445,1.513,2.624.667,1.145,1.358,2.334,1.667,2.885.686,1.228.367,2.881.111,4.2l-.068.343c-.29,1.547-1.832,9.473-3.615,13.5a.241.241,0,0,1-.222.145Z" transform="translate(-175.232 -113.961)" fill="#637c91"></path><path d="M188.477,207.622a.227.227,0,0,1-.169-.072c-1.136-1.145-6.617-10.633-7.023-12.417-.222-.976.338-3.456.88-5.853a18.986,18.986,0,0,0,.73-4.3c-.184-.778-1.585-1.924-2.939-3.03-1.638-1.339-3.33-2.721-3.659-3.968-.372-1.416-.053-10.28.155-16.143.077-2.107.135-3.775.135-4.369a.239.239,0,0,1,.242-.242h0a.239.239,0,0,1,.242.242c0,.6-.058,2.272-.135,4.384-.2,5.481-.527,14.655-.174,16,.29,1.092,1.991,2.484,3.494,3.712,1.484,1.213,2.881,2.354,3.1,3.291a17.115,17.115,0,0,1-.73,4.514c-.508,2.233-1.078,4.766-.88,5.636.4,1.75,5.781,11.059,6.9,12.185a.248.248,0,0,1,0,.343.234.234,0,0,1-.169.073Z" transform="translate(-151.229 -113.098)" fill="#637c91"></path><path d="M160.77,222.214h-.034a.249.249,0,0,1-.208-.275c.179-1.257,2.953-26.293,3.079-28.212a.242.242,0,0,1,.256-.227.246.246,0,0,1,.227.256c-.126,1.919-2.9,26.989-3.084,28.246a.243.243,0,0,1-.237.208Z" transform="translate(-143.17 -131.837)" fill="#637c91"></path><path d="M175.22,257.055a.209.209,0,0,1-.092-.019c-.614-.251-3.33-1.165-6.767-2.325-6.941-2.339-16.443-5.544-18.25-6.486a.24.24,0,1,1,.222-.425c1.774.923,11.648,4.253,18.183,6.457,3.446,1.165,6.167,2.078,6.8,2.334a.242.242,0,0,1,.135.314.246.246,0,0,1-.222.15Z" transform="translate(-137.721 -159.877)" fill="#637c91"></path><path d="M166.319,282.52c-6.109,0-17.946-1.1-26.941-4.282a.242.242,0,0,1,.164-.454c11.363,4.021,27.26,4.708,30.218,4.041a.243.243,0,1,1,.106.474,19.2,19.2,0,0,1-3.538.222Z" transform="translate(-132.16 -175.376)" fill="#637c91"></path></g><g transform="translate(16.083 61.456)"><path d="M47.662,144.667c1.895,1.667,4.3,2.736,5.959,4.664.652.759,1.242,1.566,1.851,2.363.44.58,1.624,1.542,1.812,2.267.082.319.068-.116-.019-.435,0-.015-.01-.024-.014-.039-.164-1.474-.285-2.953-.338-4.437s.039-2.963-.053-4.437a7.057,7.057,0,0,0-2.484-5.4c-.831-.638-1.9-1.025-2.668-1.735-.725-.672-.435-1.44-.01-2.189a7.4,7.4,0,0,0,1.039-2.2,3.868,3.868,0,0,0-.633-2.644c-.991-1.663-3.185-3.519-5.268-3.267-1.735.208-1.933,2.209-1.9,3.6.024,1.353.159,2.707.169,4.06.014,1.392-.222,2.76-.242,4.147a7.2,7.2,0,0,0,2.789,5.679Z" transform="translate(-39.261 -127.152)" fill="#6bbaff"></path><path d="M59.3,177.019a22.172,22.172,0,0,1,1.88-3.581,27.675,27.675,0,0,0,2.842-4.862,16.734,16.734,0,0,0,.667-5.607,36.685,36.685,0,0,0,.353-4.171c-.053-.667-.44-1.75-1.3-1.639-.672.087-1.073.918-1.329,1.455a25.464,25.464,0,0,0-1.1,2.9c-.13.382-.256.769-.42,1.136-.1.213-.4.735-.691.667-.493-.121-.043-2.127.029-2.484a32.67,32.67,0,0,0,1-5.278c.111-2.663-.1-5.829-2.7-7.289a1.858,1.858,0,0,0-2.189-.039,3.648,3.648,0,0,0-.913,2.334,16.013,16.013,0,0,0,1.078,7.1,20.52,20.52,0,0,1,1.484,5.926c.053,1.967-.967,3.707-1.45,5.568a17.489,17.489,0,0,0-.609,5.486c0,1.2.039,2.388.126,3.586.082,1.1.174,2.2.309,3.3.029.222.053.454.082.686-.425-1.02-.57-2.185-.923-3.209-.623-1.817-1.344-3.6-1.943-5.428a46.316,46.316,0,0,0-1.609-4.485,10.827,10.827,0,0,0-2.489-3.8,3.645,3.645,0,0,0-2.446-.952,6.488,6.488,0,0,0-1.682.358,1.888,1.888,0,0,1-1.808-.319c-1.866-1.436-2.436-4.007-3.813-5.824-1.029-1.353-3.475-3.664-5.273-2.185a4.337,4.337,0,0,0-1.165,3.461,8.428,8.428,0,0,0,1.455,4.007c.807,1.3,1.846,2.455,2.586,3.784a3.983,3.983,0,0,1,.435,2.426,5.742,5.742,0,0,0,.145,2.45c.855,2.421,3.528,2.083,5.607,2.146a15.57,15.57,0,0,1,4.393.725,4.887,4.887,0,0,1,3.2,3.151,11.245,11.245,0,0,0,1.411,3.407,3.684,3.684,0,0,0,1.382,1.029c.812.358,3.282.512,3.3.29a11.315,11.315,0,0,1,.643-2.267c.42-1.344.913-2.653,1.46-3.954Z" transform="translate(-33.277 -137.86)" fill="#6bbaff"></path><path d="M96.065,202.652a13.448,13.448,0,0,0-.826-4.181.188.188,0,0,0-.256-.068c-.469.261-.488,1.02-.527,1.484-.063.773-.015,1.547-.111,2.315a17.091,17.091,0,0,1-.967,4.016,4.319,4.319,0,0,1-3.006,2.707,7.714,7.714,0,0,0-2.634,1.16,5.487,5.487,0,0,0-1.542,2.127,31.854,31.854,0,0,0-1.885,6.941c-.3,1.566-.551,3.142-.933,4.693a45.532,45.532,0,0,0-1.005,4.679c-.039.082-.077.159-.111.242-.1.237.271.363.4.169a15.559,15.559,0,0,1,5.829-5.66c1.126-.575,2.624-.7,3.567-1.6A3.128,3.128,0,0,0,92.759,219a8.4,8.4,0,0,0-1.344-3.287,2.768,2.768,0,0,1-.6-1.89,2.46,2.46,0,0,1,1.218-1.484c1.039-.643,2.252-.933,3.1-1.861a5.1,5.1,0,0,0,1.315-3.1,21.379,21.379,0,0,0-.387-4.737Z" transform="translate(-58.577 -163.953)" fill="#6bbaff"></path><path d="M59.451,217.989a19.924,19.924,0,0,0-4.722-4.374c-.962-.638-3.224-1.895-3.683-.014-.266,1.1.812,2.185,1.522,2.876a28.806,28.806,0,0,1,3.2,3.132A9.21,9.21,0,0,0,52.52,220.8,2.562,2.562,0,0,0,52,224.6a7.233,7.233,0,0,0,1.977,1.213c.9.435,1.812.826,2.731,1.213a23.057,23.057,0,0,1,5.689,3.03,9.149,9.149,0,0,1,3.485,5.984c.015.218-.068.019.058-.077.073.063.3-.048.3-.174a23.839,23.839,0,0,0-2.006-9.613,40.165,40.165,0,0,0-4.785-8.178Z" transform="translate(-42.436 -171.305)" fill="#6bbaff"></path><path d="M58.979,158.951c.73,1.518,1.493,3,2.305,4.48a35.737,35.737,0,0,1,2.146,4.36c.72,1.87,1.474,3.712,2.233,5.568a54.263,54.263,0,0,1,2.064,5.9,69.831,69.831,0,0,1,2.334,11.991,48.235,48.235,0,0,1,.242,6.2c-.043,1.614-.227,3.214-.377,4.824a28.4,28.4,0,0,0-.131,5.046c.116,1.4.338,3.074,1.431,4.074a.25.25,0,0,0,.391-.3c-1.3-2.653-1.223-5.549-.976-8.424.135-1.59.324-3.171.382-4.766a47.362,47.362,0,0,0-.2-6.085,72.407,72.407,0,0,0-2.194-11.75,53.189,53.189,0,0,0-1.928-5.814c-.754-1.9-1.624-3.76-2.354-5.674-1.319-3.465-3.33-6.535-5.114-9.763-.092-.169-.333-.019-.256.15h0Z" transform="translate(-46.546 -143.471)" fill="#436b8e"></path><path d="M81.846,202.849a28.747,28.747,0,0,1,1.281-7.356c.4-1.121.875-2.214,1.261-3.34a6.4,6.4,0,0,0,.546-3.2.113.113,0,0,0-.217,0c-.164.566-.145,1.184-.261,1.764a16.593,16.593,0,0,1-.44,1.668c-.372,1.165-.86,2.281-1.281,3.432a16.956,16.956,0,0,0-1.058,7.032.087.087,0,0,0,.174,0h0Z" transform="translate(-58.262 -159.041)" fill="#436b8e"></path><path d="M51.819,187.61c1,2.417,4.012,2.557,6.206,3.1a5.811,5.811,0,0,1,3.552,2.789,21.391,21.391,0,0,1,2.03,4.882c0,.019.034.01.029-.01-.614-2.9-1.493-6.39-4.48-7.738-2.4-1.083-5.553-.536-7.081-3.127-.077-.126-.309-.044-.246.106h0Z" transform="translate(-42.856 -158.303)" fill="#436b8e"></path><path d="M78.789,216.945c.121.16.227.329.353.488a1.378,1.378,0,0,0,.2.213.447.447,0,0,0,.28.14.063.063,0,0,0,.053-.092.855.855,0,0,0-.208-.189c-.073-.063-.145-.126-.213-.193-.14-.13-.266-.275-.406-.411-.024-.024-.077.01-.053.043h0Z" transform="translate(-56.791 -173.519)" fill="#43588e"></path><path d="M65.8,232.632a24.291,24.291,0,0,1,4.587,4.935,30.573,30.573,0,0,1,1.672,2.745,30.235,30.235,0,0,1,1.348,3.185c.034.082.184.082.169-.024-.242-2.276-1.682-4.224-2.832-6.119a14.7,14.7,0,0,0-2.146-2.6,19.167,19.167,0,0,0-2.639-2.33c-.116-.082-.271.111-.155.2h0Z" transform="translate(-50.062 -181.535)" fill="#436b8e"></path><path d="M88.787,227.31c-.831.474-.86,1.783-.875,2.624-.029,1.614.367,3.127-.338,4.664a35.839,35.839,0,0,1-2.46,3.833,8.354,8.354,0,0,0-1.474,4.2c0,.082.13.13.169.044a17.2,17.2,0,0,0,.628-2.1,8.717,8.717,0,0,1,1.025-2.165,36.088,36.088,0,0,0,2.349-3.572,8.383,8.383,0,0,0,.522-4.171c-.029-.938-.121-2.446.633-3.142a.139.139,0,0,0-.169-.217h0Z" transform="translate(-59.298 -178.891)" fill="#436b8e"></path><path d="M72.384,259.252c-3.349-.048-9.734-.082-9.734-.082L64.23,270.9A5.315,5.315,0,0,0,69.5,275.5H75.27a5.312,5.312,0,0,0,5.268-4.606l1.58-11.726S75.734,259.209,72.384,259.252Z" transform="translate(-48.453 -195.362)" fill="#fff"></path></g><g transform="translate(90.14 102.398)"><path d="M337.878,214.182l-19.116,37.869-55.733.4,17.2-38.8Z" transform="translate(-226.041 -210.785)" fill="#f6f8fa"></path><path d="M186.5,251.527l.01-3.049h36.059l16.588-36.618h57.666l1.449,1.41H241.939L224.7,251.5S186.5,251.43,186.5,251.527Z" transform="translate(-186.434 -211.86)" fill="#d9e1e8"></path><path d="M344.024,254.157c-.628,1.89-4.045,3.349-7.632,3.258s-5.984-1.692-5.35-3.581,4.045-3.349,7.632-3.258S344.657,252.267,344.024,254.157Z" transform="translate(-261.128 -231.861)" fill="#d9e1e8"></path><g transform="matrix(0.998, 0.07, -0.07, 0.998, 65.833, 16.334)" opacity="0.87"><circle cx="1.548" cy="1.548" r="1.548" transform="translate(1.653 0.834)" fill="#1241ff"></circle><path d="M11.666,89c.178.5.567.514.652.874.125.535-.621.992-.437,1.3.08.134.31.2.609.293a.711.711,0,0,1,.4.206.361.361,0,0,1,.089.217c0,.292-.535.561-.713.434-.067-.049-.049-.134-.078-.251-.124-.494-.9-.463-1.019-.824-.145-.433.841-.863.7-1.462a7.539,7.539,0,0,0-.365-.7,1.027,1.027,0,0,0-.194-.286,1.251,1.251,0,0,0-.575-.255c-.155-.046-.379-.116-.651-.217.021-.157.048-.321.084-.49a7.032,7.032,0,0,1,.39-1.27,2.091,2.091,0,0,0,.255,1.024,1.9,1.9,0,0,0,.4.5,1.766,1.766,0,0,0,.393.257,1.3,1.3,0,0,0,.053.644Z" transform="translate(-9.422 -80.786)" fill="#1241ff"></path><path d="M23.951,58.69a2.009,2.009,0,0,0,.228.047,2.165,2.165,0,0,0,.329.025l-.108.654-.651.055q.108.716.217,1.431l-.267.607a.857.857,0,0,1-.212-.234,1.03,1.03,0,0,1-.128-.568,3.025,3.025,0,0,1,.167-.99l-.765-.232a.859.859,0,0,1,.361-.375c.305-.157.622-.045.769-.247A.348.348,0,0,0,23.951,58.69Z" transform="translate(-21.246 -54.768)" fill="#1241ff"></path><path d="M19.115,71.93l.724.232a1.575,1.575,0,0,0,.067,1.64,1.336,1.336,0,0,0,.4.225c.472.171.746-.024.894.141s.04.567-.165.8c-.176.2-.506.376-.69.267s-.067-.458-.329-.64c-.106-.075-.154-.035-.328-.128a1.148,1.148,0,0,1-.367-.323,2.185,2.185,0,0,1-.367-1.7A2.26,2.26,0,0,1,19.115,71.93Z" transform="translate(-17.656 -67.124)" fill="#1241ff"></path><path d="M.662,114.15a.735.735,0,0,0,.028.4.915.915,0,0,0,.212.29,1.6,1.6,0,0,1,.45.69.764.764,0,0,1-.017.365c-.073.241-.251.347-.472.535a2.83,2.83,0,0,0-.646.712,1.125,1.125,0,0,0-.139,1.03.744.744,0,0,0,.367.306l1.888-.009a.65.65,0,0,0,.334-.5.5.5,0,0,0-.1-.279c-.148-.2-.327-.154-.618-.351-.123-.083-.346-.233-.357-.434-.005-.112.057-.178.251-.412.5-.61.551-.735.541-.852a1.2,1.2,0,0,0-.156-.367,3.455,3.455,0,0,0-.211-.345,1.739,1.739,0,0,0-.273-.362,1.03,1.03,0,0,0-.418-.172,5.289,5.289,0,0,1-.662-.245Z" transform="translate(0 -106.523)" fill="#1241ff"></path><circle cx="1.531" cy="1.531" r="1.531" transform="translate(20.978 0)" fill="#1241ff"></circle><path d="M317.482,47.05a1.5,1.5,0,0,0,.271.029,1.571,1.571,0,0,0,.247-.017,2.651,2.651,0,0,0-.017.275c0,.128.007.15.006.18v.021a4.5,4.5,0,0,1-.514.551,1.407,1.407,0,0,1-.019.364,1.724,1.724,0,0,1-.766,1.076q-.09-.628-.18-1.257a1.412,1.412,0,0,1,.514-.626.887.887,0,0,0,.414-.372A.582.582,0,0,0,317.482,47.05Z" transform="translate(-295.368 -43.906)" fill="#1241ff"></path><path d="M303.866,55.11q-.16.162-.325.326l-.241.238a1.363,1.363,0,0,1-.017.426,1.423,1.423,0,0,1-.351.681,1.24,1.24,0,0,1-.806.472c-.313.018-.418-.158-.608-.071a.621.621,0,0,0-.257.681.662.662,0,0,0,.573.505.61.61,0,0,0,.376-.1.741.741,0,0,0,.313-.51,5.722,5.722,0,0,0,.71-.5,3.893,3.893,0,0,0,.426-.39c.189-.207.789-.864.585-1.374A.721.721,0,0,0,303.866,55.11Z" transform="translate(-281.122 -51.428)" fill="#1241ff"></path><path d="M313.044,81.55l-1.228.966c.007.166.014.334.021.5q-.2.044-.413.084c-.106.02-.21.038-.313.055a3.362,3.362,0,0,0,1.324.559l0-.752c.009-.05.022-.123.043-.21a3.35,3.35,0,0,1,.267-.676A5.838,5.838,0,0,1,313.044,81.55Z" transform="translate(-290.329 -76.101)" fill="#1241ff"></path><path d="M295.211,106.36a.9.9,0,0,0,.139.109.922.922,0,0,0,.167.084,4.748,4.748,0,0,0,.051.565,6.968,6.968,0,0,0,.25.972c.2.7.294,1.052.188,1.292-.216.494-.881.468-1.05,1.044a.887.887,0,0,0-.033.32,1.017,1.017,0,0,1-.535-.109c-.092-.048-.309-.162-.309-.317,0-.049.022-.124.233-.274.347-.248.54-.223.777-.4a1.116,1.116,0,0,0,.341-.44c.11-.251.047-.392-.107-1.364a7.616,7.616,0,0,1-.117-1.111C295.2,106.572,295.206,106.444,295.211,106.36Z" transform="translate(-274.437 -99.253)" fill="#1241ff"></path><path d="M308.824,111.36a5.544,5.544,0,0,0,.159.894c.206.782.509,1.249.317,1.772a.947.947,0,0,1-.084.17,1.253,1.253,0,0,1-.45.363c-.267.172-.4.259-.476.392a.634.634,0,0,0,0,.618c.186.262.706.178,1.746.009.51-.084.655-.14.76-.276.261-.339.039-.879,0-.969-.172-.364-.344-.754-.509-1.169-.21-.528-.387-1.034-.535-1.511Z" transform="translate(-287.621 -103.919)" fill="#1241ff"></path><path d="M38.92,68.44l1.37-.2q.41,2.531.819,5.062l-1.4.217-.267-1.7a1.035,1.035,0,0,0,.494-.438.684.684,0,0,0,.1-.575.71.71,0,0,0-.793-.307Z" transform="translate(-36.326 -63.68)" fill="#d9d999"></path><path d="M60.8,68.74l.752.376q.1.449.192.9l-.518.08q.1.7.2,1.4L62,71.409c.005.038.011.076.017.113l-.571.1q.151,1.04.3,2.08l-.159.05Q61.2,71.246,60.8,68.74Z" transform="translate(-56.744 -64.147)" fill="#d9d999"></path><path d="M71.76,78.934,86.376,76.49l.384,1.971L72.088,80.9Q71.924,79.917,71.76,78.934Z" transform="translate(-66.971 -71.379)" fill="#d9d999"></path><path d="M80.08,77.718l.025.108,13.334-2.189c-.007-.039-.015-.078-.023-.117Z" transform="translate(-74.736 -70.474)" fill="#d9d999"></path><path d="M275.92,31.263l.66-.643q.436,2.5.873,4.993l-.112.025L277,33.595l-.735.126c-.007-.038-.013-.076-.019-.113l.725-.12q-.134-.751-.262-1.5l-.655.128Z" transform="translate(-257.49 -28.574)" fill="#d9d999"></path><path d="M68.27,55.414q.1.617.2,1.233l14.635-2.423-.243-1.3Z" transform="translate(-63.715 -49.384)" fill="#d9d999"></path><path d="M287.8,27.08l1.391-.22q.315,1.938.63,3.87a.621.621,0,0,1-.259.061c-.2,0-.25-.1-.432-.1a.553.553,0,0,0-.373.167.579.579,0,0,0-.134.314.8.8,0,0,0,.072.529.787.787,0,0,0,.339.329l-.423.052Q288.207,29.583,287.8,27.08Z" transform="translate(-268.576 -25.065)" fill="#d9d999"></path><path d="M317.3,98v.319l-.251.006c.041-.043.084-.093.127-.148S317.266,98.055,317.3,98Z" transform="translate(-295.872 -91.452)" fill="#d9d999"></path><path d="M69.67,20q.219,1.257.436,2.514l13.329-2.289-.4-2.366Z" transform="translate(-65.021 -16.667)" fill="#d9d999"></path><path d="M80.245,43.594c.142.719.2,1.288.356,1.3a.908.908,0,0,0,.126-.013c.176-.025.194-.047.2-.057.029-.049-.023-.13-.039-.156a1.128,1.128,0,0,1-.117-.879c.11-.226.468-.357.6-.257.17.134.091.776.114,1.109a.134.134,0,0,0,.041.1c.026.018.077.009.178-.011s.172-.035.192-.062a.155.155,0,0,0,.017-.122,8.04,8.04,0,0,0-.429-2.2.358.358,0,0,0-.159-.208c-.134-.067-.34-.017-.373.078s.1.144.223.378c.029.056.184.361.081.476-.067.078-.188-.01-.382.075-.143.063-.182.173-.237.153-.017-.006-.049-.029-.061-.292s0-.483,0-.483c.007-.154.014-.2-.021-.235a.252.252,0,0,0-.315,0c-.089.073-.09.229-.084.339A9.019,9.019,0,0,0,80.245,43.594Z" transform="translate(-74.808 -39.296)" fill="#e40000"></path><path d="M108.61,49.234a4.363,4.363,0,0,1-.15-.869,1.692,1.692,0,0,0-.086-.468.664.664,0,0,0-.34-.379.535.535,0,0,0-.562.1.437.437,0,0,0-.117.407.192.192,0,0,0,.092.13.116.116,0,0,0,.114,0c.046-.036,0-.108.033-.184a.263.263,0,0,1,.3-.114.237.237,0,0,1,.154.14.23.23,0,0,1-.009.163c-.043.1-.126.116-.237.19a.818.818,0,0,0-.3.33.673.673,0,0,0-.042.39.552.552,0,0,0,.093.233.525.525,0,0,0,.2.171,1,1,0,0,0,.45.028c.013,0,.122-.02.339-.058.045-.008.092-.017.112-.053S108.629,49.262,108.61,49.234Zm-.37-.084c-.025.025-.067.025-.142.027a.317.317,0,0,1-.186-.027.247.247,0,0,1-.1-.153.381.381,0,0,1,.1-.362.2.2,0,0,1,.153-.078.193.193,0,0,1,.134.086c.038.052.033.087.053.3C108.262,49.083,108.269,49.121,108.24,49.15Z" transform="translate(-100.178 -44.307)" fill="#e40000"></path><path d="M126.824,43.1a.325.325,0,0,0-.019.256c.08.345.112.7.172,1.047.053.3.1.684.214.7a.679.679,0,0,0,.122-.006c.124-.017.124-.012.134-.019.067-.051-.061-.267-.144-.559a2.4,2.4,0,0,1-.076-.668c0-.23.015-.374.1-.415a.167.167,0,0,1,.059-.011.3.3,0,0,1,.172.059c.181.13.252,1.069.251,1.47a.09.09,0,0,0,.022.067c.019.015.039.011.153-.009.078-.013.1-.017.126-.041a.115.115,0,0,0,.023-.052c.025-.134-.192-1.251-.146-1.489a.164.164,0,0,1,.056-.1.192.192,0,0,1,.156-.018c.219.057.291.66.315.861a4.18,4.18,0,0,1,.025.674l.164.009c.082,0,.117.006.145-.017a.12.12,0,0,0,.036-.078,3.4,3.4,0,0,0-.259-1.512c-.047-.108-.127-.281-.287-.325a.292.292,0,0,0-.078-.011c-.213,0-.273.217-.434.208-.09-.005-.1-.074-.231-.081a.3.3,0,0,0-.153.025c-.061.03-.067.063-.143.116-.052.035-.109.074-.144.055-.055-.029.015-.171-.047-.225S126.891,43,126.824,43.1Z" transform="translate(-118.322 -40.043)" fill="#e40000"></path><path d="M159.911,39.956a1.441,1.441,0,0,0-.172-.529.646.646,0,0,0-.4-.309.5.5,0,0,0-.535.234c-.071.15-.039.37.055.41a.134.134,0,0,0,.1-.006c.077-.036.067-.119.134-.192a.259.259,0,0,1,.229-.078.255.255,0,0,1,.189.218c.01.208-.382.229-.54.551a.7.7,0,0,0,.15.81.779.779,0,0,0,.489.094,2.32,2.32,0,0,0,.324-.057c.081-.017.143-.032.161-.078a.134.134,0,0,0-.021-.108A7.658,7.658,0,0,1,159.911,39.956Zm-.509.857a.267.267,0,0,1-.134-.183.394.394,0,0,1,.134-.449.206.206,0,0,1,.169-.009c.085.041.1.151.115.238s.047.309-.083.392A.219.219,0,0,1,159.4,40.813Z" transform="translate(-148.163 -36.496)" fill="#e40000"></path><path d="M178.945,19.946a.21.21,0,0,0-.017.144,17.643,17.643,0,0,0,.217,2.623.345.345,0,0,0,.117.2c.112.085.255.048.5,0,.566-.114.885-.134.894-.242a.6.6,0,0,0-.016-.067,1.835,1.835,0,0,0-.067-.194c-.089-.245-.134-.367-.206-.373-.1-.009-.127.223-.357.323a.393.393,0,0,1-.3.017.418.418,0,0,1-.2-.273,8.552,8.552,0,0,1-.061-2.188.142.142,0,0,0-.033-.106c-.052-.047-.152-.014-.279.028C179.032,19.874,178.976,19.892,178.945,19.946Z" transform="translate(-166.974 -18.465)" fill="#e40000"></path><path d="M206.352,53.913a.351.351,0,0,0-.058.319.377.377,0,0,0,.086.163.254.254,0,0,0,.19.1.235.235,0,0,0,.17-.1.334.334,0,0,0,.059-.234c-.007-.1-.055-.3-.209-.334A.273.273,0,0,0,206.352,53.913Z" transform="translate(-192.502 -50.226)" fill="#e40000"></path><path d="M213.871,18.756a.176.176,0,0,0-.029.121,12.338,12.338,0,0,0,.288,2.289.2.2,0,0,0,.055.092.372.372,0,0,0,.34.021.1.1,0,0,0,.067-.027c.043-.048,0-.148-.013-.186a4.076,4.076,0,0,1-.339-1.658c0-.013.015-.049.039-.054s.053.027.067.041a2.69,2.69,0,0,1,.363.728c.084.267.129.41.242.438a.123.123,0,0,0,.08,0c.14-.057.058-.428.139-1.038.027-.2.06-.348.116-.353.029,0,.055.035.067.051a6.766,6.766,0,0,1,.188,1.741.166.166,0,0,0,.053.11c.08.067.231.006.263-.006a.534.534,0,0,0,.088-.043c.261-.174-.209-1.992-.353-2.425a.211.211,0,0,0-.092-.125c-.112-.061-.267.041-.277.048a.505.505,0,0,0-.181.263c-.155.4-.14.633-.214.645-.049.008-.083-.092-.239-.317-.1-.145-.247-.363-.413-.414a.337.337,0,0,0-.08-.013A.281.281,0,0,0,213.871,18.756Z" transform="translate(-199.558 -17.219)" fill="#e40000"></path><path d="M247.163,16.1a.8.8,0,0,0-.839.029c-.153.158-.058.36.05,1.157.119.875.086,1.23.317,1.332a.848.848,0,0,0,.46-.021,1.62,1.62,0,0,0,.509-.162C248.125,18.108,247.994,16.494,247.163,16.1Zm.168,2.042a.327.327,0,0,1-.305,0c-.145-.08-.15-.253-.217-.668-.112-.7-.218-.959-.071-1.069a.23.23,0,0,1,.142-.042c.3,0,.535.535.6.911.017.084.132.711-.151.869Z" transform="translate(-229.797 -14.923)" fill="#e40000"></path></g><path d="M265.32,252.738a.252.252,0,0,1-.1-.019.243.243,0,0,1-.121-.319l17.313-38.14h56.521a.242.242,0,0,1,0,.483H282.72L265.533,252.6a.245.245,0,0,1-.222.14Z" transform="translate(-227.099 -213.1)" fill="#fff"></path></g><g transform="translate(18.129 141.794)"><g transform="translate(3.2 2.9)"><rect width="69.921" height="14.698" fill="#597c9b"></rect><rect width="116.286" height="14.698" transform="translate(68.921)" fill="#7a96af"></rect></g><path d="M110.428,299.37H44.13v2.7H229.337v-2.7Z" transform="translate(-40.93 -296.47)" fill="#bdcbd7"></path><rect width="121.286" height="3.601" transform="translate(70.021)" fill="#9cb1c3"></rect><rect width="72.021" height="3.601" fill="#6f8ea9"></rect></g><g transform="translate(44.862 47.743)"><rect width="28.652" height="16.931" rx="5.43" fill="#047ae2"></rect><path d="M156.5,112.327l-8.792-3.707v7.414Z" transform="translate(-121.18 -103.864)" fill="#047ae2"></path><g transform="translate(7.153 6.844)"><circle cx="1.619" cy="1.619" r="1.619" fill="#fff"></circle><circle cx="1.619" cy="1.619" r="1.619" transform="translate(5.553)" fill="#fff"></circle><circle cx="1.619" cy="1.619" r="1.619" transform="translate(11.107)" fill="#fff"></circle></g></g><g transform="translate(129.729 11.798)"><path d="M328.725,24.41H274.693a6.283,6.283,0,0,0-6.283,6.283V56.324a6.283,6.283,0,0,0,6.283,6.283h4.843a22.216,22.216,0,0,1-2.136,10.2,27.157,27.157,0,0,0,11.716-10.2h39.614a6.283,6.283,0,0,0,6.283-6.283V30.693a6.283,6.283,0,0,0-6.283-6.283Z" transform="translate(-268.41 -24.41)" fill="#047ae2"></path><path d="M315.435,46.828h-26.8a1.337,1.337,0,0,1-1.334-1.334h0a1.337,1.337,0,0,1,1.334-1.334h26.8a1.334,1.334,0,0,1,1.334,1.334h0A1.334,1.334,0,0,1,315.435,46.828Z" transform="translate(-278.17 -34.614)" fill="#fff"></path><path d="M334.652,64H288.117a.819.819,0,0,1-.817-.817h0a.819.819,0,0,1,.817-.817h46.535a.819.819,0,0,1,.817.817h0A.819.819,0,0,1,334.652,64Z" transform="translate(-278.17 -44.023)" fill="#d2eaff"></path><path d="M334.652,73.384H288.117a.819.819,0,0,1-.817-.817h0a.819.819,0,0,1,.817-.817h46.535a.819.819,0,0,1,.817.817h0A.819.819,0,0,1,334.652,73.384Z" transform="translate(-278.17 -48.869)" fill="#d2eaff"></path><path d="M324.507,83.384h-36.38a.819.819,0,0,1-.817-.817h0a.819.819,0,0,1,.817-.817h36.38a.819.819,0,0,1,.817.817h0A.819.819,0,0,1,324.507,83.384Z" transform="translate(-278.175 -54.036)" fill="#d2eaff"></path><path d="M369.418,46.828H356.634a1.337,1.337,0,0,1-1.334-1.334h0a1.337,1.337,0,0,1,1.334-1.334h12.784a1.334,1.334,0,0,1,1.334,1.334h0A1.337,1.337,0,0,1,369.418,46.828Z" transform="translate(-313.303 -34.614)" fill="#fff"></path></g></g></g></svg>