<svg xmlns="http://www.w3.org/2000/svg" id="Layer_2" data-name="Layer 2" viewBox="0 0 263.03 40.2"><defs><style>      .cls-1 {        isolation: isolate;      }      .cls-2 {        fill: #0c2e4b;      }    </style></defs><g id="Layer_1-2" data-name="Layer 1"><g class="cls-1"><path class="cls-2" d="M16.11,22.64c.53,1.13,.8,1.73,.8,1.8-.26,.27-.61,.58-1.05,.92-.44,.34-.98,.72-1.62,1.15-.68,.47-1.25,.81-1.71,1.02-.46,.21-.82,.31-1.06,.31-.53,0-1.01-.14-1.44-.41-.42-.27-.79-.7-1.08-1.29-.04-.08-.08-.17-.13-.26-.05-.1-.1-.2-.17-.3-.33-.31-.64-.62-.94-.94-.14-.16-.42-.53-.82-1.12-.4-.59-.91-1.4-1.52-2.43-.27-.48-.57-.97-.88-1.46s-.64-1-.98-1.5c-.09,.13-.19,.43-.3,.91-.11,.48-.22,1.12-.32,1.94,0,.13-.04,.34-.13,.64-.08,.3-.13,.52-.13,.66,0,.07,.02,.17,.05,.32,.03,.15,.05,.26,.05,.32,0,.42-.06,1.05-.18,1.89s-.18,1.48-.18,1.89c0,.34-.06,.59-.17,.74-.11,.16-.3,.23-.56,.23-.27-.03-.49-.07-.64-.12-.2,.05-.38,.09-.55,.12-.14,0-.26-.09-.34-.26-.08-.18-.13-.45-.13-.83,0-.13,.03-.34,.1-.62,.06-.29,.1-.51,.1-.66,0-.1-.02-.27-.06-.5s-.06-.39-.06-.5,.03-.43,.09-.98,.15-1.33,.28-2.36c.12-1.05,.22-1.89,.31-2.5,.09-.61,.16-.98,.2-1.11,.04-.09,.09-.2,.16-.33,.06-.13,.11-.29,.14-.47l-.29-1.11c.1-.6,.23-1.48,.38-2.65,.15-1.17,.33-2.63,.54-4.4,.12-1.04,.21-1.85,.27-2.42,.06-.57,.1-.9,.12-.98,.18-.53,.46-.98,.84-1.34,.38-.36,.86-.63,1.45-.81,.08-.05,.17-.12,.28-.21,.11-.09,.24-.2,.4-.31,.17-.03,.38,.21,.64,.7,.26,.5,.39,.86,.39,1.09,0,.1-.01,.24-.04,.42-.03,.18-.08,.38-.16,.62-.09,.29-.16,.52-.21,.7-.05,.18-.08,.31-.1,.37-.21,.72-.44,1.61-.7,2.7-.26,1.08-.55,2.36-.86,3.83-.03,.12-.06,.26-.09,.44-.03,.18-.09,.39-.17,.63-.05,.22-.1,.42-.14,.61s-.06,.34-.06,.47c0,.17,.06,.36,.2,.57,.39-.14,1.02-.68,1.88-1.6s1.97-2.22,3.32-3.89c1.38-1.69,2.42-3.07,3.11-4.13,.69-1.06,1.04-1.81,1.04-2.24,0-.16-.1-.35-.3-.6-.2-.24-.3-.45-.3-.62,0-.34,.16-.62,.47-.85,.31-.23,.79-.4,1.42-.52,.13-.01,.33-.13,.6-.34,.27-.21,.51-.32,.7-.32,.19,.04,.38,.06,.54,.08,.22-.12,.44-.24,.64-.37,.2,.2,.34,.41,.43,.65s.13,.52,.13,.83c0,.62-.08,1.17-.22,1.65-.15,.48-.38,.86-.69,1.14-.09,.08-.19,.17-.29,.27-.1,.1-.21,.22-.31,.35-.21,.44-.5,.93-.86,1.46-.37,.53-.8,1.12-1.31,1.76-1.12,1.38-2.15,2.59-3.09,3.63s-1.78,1.91-2.54,2.62c-.31,.3-.55,.56-.7,.77s-.23,.4-.23,.56c.22,.43,.42,.83,.59,1.19,.31,.75,.64,1.49,.99,2.21,.34,.72,.69,1.44,1.03,2.17,.57,1.09,1.1,1.91,1.59,2.45s.93,.81,1.34,.81c.06,0,.26-.08,.59-.22,.33-.15,.75-.36,1.29-.63,.12-.17,.37-.37,.75-.62,.38-.24,.58-.4,.6-.48Z"></path><path class="cls-2" d="M16.04,22.64c.09-.09,.19-.21,.28-.36s.21-.32,.34-.5l1.5-1.04c.18-.22,.46-.5,.84-.85,.38-.34,.85-.76,1.41-1.26,.06-.14,.17-.31,.32-.5,.15-.19,.33-.37,.54-.56,.18-.17,.36-.33,.55-.48,.18-.15,.35-.3,.51-.44,.2-.2,.38-.39,.56-.59s.35-.38,.54-.57c.21-.18,.42-.33,.64-.43,.22-.1,.46-.16,.72-.16,.29,0,.5,.04,.65,.11,.15,.07,.23,.17,.24,.3-.13,.3-.27,.6-.41,.9l.12,.18c.57-.22,1.02-.38,1.35-.49,.33-.1,.53-.16,.62-.16,.95,0,1.66,.29,2.14,.87,.47,.58,.71,1.46,.71,2.63,0,.22-.03,.48-.08,.78-.05,.3-.14,.62-.25,.98-.13,.39-.27,.72-.42,.98-.15,.26-.29,.45-.42,.57,.05,.17,.11,.29,.18,.36,.06,.07,.15,.11,.25,.11s.21-.03,.32-.1c.11-.07,.24-.16,.4-.29,.13,.29,.26,.58,.38,.89,.12,.31,.25,.61,.38,.91-.23,.21-.46,.41-.68,.61-.22,.2-.46,.38-.7,.57-.3,.25-.58,.43-.85,.54-.27,.11-.53,.17-.79,.17-.3,0-.55-.07-.74-.21s-.35-.34-.47-.61c-.33,.43-.72,.82-1.18,1.18-.46,.36-.97,.65-1.53,.89-.33,.16-.62,.28-.89,.36-.27,.08-.51,.13-.73,.13-.07,0-.19,.03-.38,.08-.19,.05-.34,.08-.46,.08-.74,0-1.41-.31-2.01-.94-.6-.62-.9-1.32-.9-2.09,0-.31,.07-.73,.21-1.24,.14-.51,.21-.82,.21-.91s-.03-.17-.09-.22-.14-.09-.24-.09c-.07,0-.22,.1-.47,.29-.25,.2-.6,.48-1.05,.84-.04,.05-.08,.13-.14,.23-.05,.1-.14,.22-.25,.35-.1-.3-.22-.6-.35-.91s-.27-.6-.43-.89Zm9.39-3.57c-.07,.01-.16,.08-.28,.21-.12,.12-.24,.28-.36,.46-.18,.3-.39,.62-.62,.98-.14,.16-.3,.28-.46,.36-.16,.08-.35,.15-.56,.19-.13,.01-.27,.14-.41,.38-.14,.24-.29,.59-.43,1.04-.14,.4-.25,.75-.31,1.04-.07,.29-.1,.53-.1,.72,0,.36,.09,.64,.27,.82,.18,.18,.46,.27,.84,.27,.6,0,1.15-.17,1.65-.5,.5-.33,.97-.83,1.42-1.49,.21-.25,.4-.48,.59-.7,.1-.08,.19-.21,.25-.38,.06-.18,.13-.39,.2-.65l.35-1.11c-.12-.39-.23-.7-.33-.93-.1-.23-.21-.37-.31-.42-.07-.04-.21-.08-.43-.13-.22-.05-.54-.09-.96-.15Z"></path><path class="cls-2" d="M50.43,24.16c-.23,.23-.48,.46-.73,.67s-.5,.41-.75,.6c-.39,.27-.78,.53-1.16,.77-.38,.24-.75,.42-1.1,.54-.39,.13-.76,.2-1.1,.21-.35,0-.62-.04-.81-.15-.23-.12-.4-.29-.49-.52-.09-.23-.14-.48-.14-.75,0-.31,.04-.65,.13-1.02,.08-.36,.19-.72,.3-1.05,.05-.18,.12-.38,.21-.6,.09-.21,.18-.43,.25-.63,.16-.39,.29-.74,.39-1.05,.1-.31,.12-.49,.04-.53-.07-.03-.2,.05-.41,.21-.21,.17-.45,.4-.72,.68-.23,.25-.5,.53-.79,.86s-.59,.66-.89,1.02c-.23,.27-.5,.59-.78,.94-.29,.35-.57,.7-.84,1.04-.12,.13-.22,.3-.3,.5-.08,.2-.18,.36-.28,.48-.21,.27-.42,.49-.62,.65-.21,.16-.35,.29-.43,.38-.23,.26-.54,.31-.91,.14s-.54-.4-.52-.68c0-.08-.03-.16-.1-.25-.07-.09-.1-.19-.1-.29,.01-.2,.07-.41,.18-.64,.1-.23,.16-.46,.16-.68,0-.21,.02-.43,.06-.66s.06-.47,.06-.7c.03-.31,.04-.62,.06-.94,.01-.31,.02-.61,.02-.9,.01-.25,0-.49-.04-.72s-.06-.46-.06-.68c0-.33,.03-.64,.09-.94s.09-.54,.09-.72c0-.1-.04-.16-.11-.16s-.14,.08-.21,.23c-.05,.16-.08,.37-.1,.63-.01,.27-.06,.51-.14,.73-.14,.38-.3,.78-.48,1.21s-.36,.86-.54,1.29c-.12,.27-.24,.55-.37,.84-.13,.29-.25,.57-.37,.84-.1,.21-.24,.4-.42,.58s-.3,.35-.38,.54c-.1,.2-.18,.41-.22,.64-.05,.23-.12,.44-.22,.62-.13,.23-.27,.49-.42,.75-.15,.27-.29,.5-.42,.69-.16,.23-.33,.43-.52,.59-.19,.16-.36,.29-.52,.41s-.37,.18-.63,.18h-.63c-.13,0-.26-.02-.39-.05-.13-.03-.25-.09-.37-.17s-.23-.18-.33-.3-.2-.28-.27-.48c-.04-.09-.1-.21-.2-.35s-.16-.31-.2-.51c-.05-.2-.08-.42-.1-.68s-.02-.55-.02-.88c0-.25,.02-.53,.06-.84s.07-.64,.1-1c.01-.22,.04-.46,.08-.7s.08-.5,.12-.76c.04-.22,.31-.29,.81-.21s.74,.17,.71,.26c0,.08,0,.18-.02,.31-.01,.13-.02,.27-.02,.43,0,.23,.02,.5,.05,.8,.03,.3,.07,.57,.13,.8,.07,.22,.15,.41,.24,.56s.22,.22,.36,.22c.17,0,.33-.05,.49-.16s.31-.24,.47-.41c.1-.12,.21-.27,.33-.46s.23-.39,.33-.6c.08-.16,.15-.34,.21-.55s.13-.42,.22-.62c.09-.2,.18-.39,.27-.6,.09-.2,.18-.4,.25-.6,.03-.08,.08-.17,.17-.27,.08-.1,.14-.2,.17-.29,.04-.12,.07-.24,.09-.36s.05-.24,.09-.34c.05-.14,.09-.29,.12-.45s.06-.31,.1-.47c.04-.14,.11-.29,.21-.44s.17-.29,.21-.42c.04-.12,.1-.22,.18-.31s.14-.2,.18-.31,.06-.25,.07-.41c0-.16,.02-.29,.05-.41,.05-.2,.11-.39,.19-.6,.07-.2,.13-.4,.19-.6,.05-.18,.1-.36,.16-.54,.05-.18,.1-.34,.14-.5,.03-.09,.14-.2,.33-.33s.4-.25,.61-.37c.16-.08,.34-.16,.54-.25,.2-.09,.4-.17,.6-.23,.2-.07,.41-.11,.63-.14s.43-.03,.6,0c.17,.03,.32,.08,.45,.18s.2,.21,.21,.37c.01,.2,.02,.42,.02,.67v.77c0,.23,.02,.48,.05,.74,.03,.26,.05,.52,.05,.78,0,.34,0,.59,0,.76,0,.17-.02,.41-.03,.72-.03,.35-.06,.68-.11,1-.05,.31-.07,.59-.07,.84,0,.36,.04,.78,.12,1.25,.36-.25,.66-.5,.9-.76,.04-.05,.1-.09,.19-.13s.17-.09,.23-.17c.05-.05,.1-.13,.15-.24s.1-.2,.17-.26c.08-.08,.18-.15,.3-.22,.12-.07,.22-.15,.3-.22,.08-.09,.14-.2,.19-.33,.04-.13,.11-.23,.19-.31,.12-.14,.24-.28,.36-.42,.12-.14,.26-.28,.42-.44,.21-.23,.42-.45,.62-.63s.41-.41,.6-.65c.26-.31,.46-.57,.61-.78s.32-.43,.5-.66c.05-.08,.26-.14,.62-.18s.67-.04,.92,0c.23,.04,.43,.12,.6,.25,.16,.13,.2,.31,.11,.55-.04,.12-.11,.31-.21,.59s-.22,.59-.36,.94c-.05,.14-.12,.32-.21,.54-.08,.21-.17,.43-.24,.63-.08,.23-.16,.47-.24,.71-.08,.24-.15,.44-.19,.6-.1,.3-.2,.6-.28,.9-.08,.3-.15,.58-.21,.84-.08,.46-.11,.85-.11,1.17,0,.33,.09,.53,.24,.61,.1,.05,.28,.03,.52-.08,.24-.1,.5-.26,.79-.47,.14-.12,.29-.24,.45-.38s.3-.28,.43-.42l.8,1.76Z"></path><path class="cls-2" d="M50.1,21.78l1.78-1.17c.06-.07,.14-.15,.23-.26,.09-.11,.2-.27,.31-.48,.09-.17,.21-.31,.36-.43,.15-.12,.32-.22,.52-.31,.1-.13,.25-.29,.45-.49s.44-.42,.74-.68c.14-.08,.33-.19,.55-.34,.22-.15,.46-.35,.72-.6,1.18-1.12,2.22-1.96,3.12-2.52,.89-.56,1.64-.84,2.26-.84,.34,0,.59,.07,.75,.21,.16,.14,.24,.34,.24,.61s-.05,.51-.15,.72-.25,.38-.46,.53c-.33,.23-.68,.5-1.05,.78-.21,.27-.46,.56-.76,.87-.3,.31-.65,.61-1.05,.91-.13,.17-.24,.32-.33,.45-.07,.07-.19,.18-.37,.35-.18,.17-.42,.36-.72,.59-.13,.29-.41,.66-.85,1.11-.44,.46-1.02,1-1.75,1.64-.09,.09-.25,.3-.49,.62s-.54,.75-.92,1.29l.14,.18c.29-.09,.59-.25,.9-.47s.66-.51,1.04-.88c.44-.4,.8-.73,1.08-.99,.28-.25,.48-.42,.6-.5,.09-.05,.18-.1,.27-.16,.09-.05,.2-.12,.31-.2,.6-.72,1.16-1.25,1.68-1.59,.52-.34,1-.52,1.45-.52,.27,0,.48,.11,.62,.32,.14,.21,.23,.54,.25,.97-.03,.65-.04,1.28-.04,1.88-.01,.42,.1,.79,.34,1.12,.24,.33,.56,.5,.95,.5,.12,0,.23-.03,.34-.1,.11-.07,.22-.15,.34-.25,.09-.12,.18-.23,.26-.33,.08-.1,.17-.21,.26-.31,.05-.03,.13-.07,.22-.14s.19-.14,.28-.23c.18,.39,.33,.73,.46,1.03,.12,.29,.22,.55,.28,.77-.3,.27-.6,.56-.89,.85s-.6,.57-.93,.83c-.39,.3-.77,.52-1.13,.67-.37,.15-.73,.22-1.09,.22-.85,0-1.5-.24-1.95-.72-.46-.48-.72-1.21-.8-2.19,0-.12-.02-.24-.05-.36-.03-.12-.1-.25-.21-.38-.07,.07-.14,.13-.21,.21s-.17,.17-.27,.28c-.17,.13-.38,.29-.63,.49s-.55,.43-.89,.7c-.46,.47-.84,.85-1.15,1.15s-.53,.51-.66,.64c-.26,.22-.56,.44-.91,.66-.35,.22-.73,.45-1.16,.68-.27,.14-.51,.26-.7,.34s-.34,.13-.43,.13c-.62,0-1.09-.15-1.39-.46s-.45-.78-.45-1.42c0-.35,.08-.69,.22-1.01s.37-.63,.67-.93c.03-.17,.04-.31,.04-.41,0-.07-.02-.13-.05-.21-.03-.07-.08-.15-.13-.24-.08-.18-.17-.39-.26-.62s-.21-.47-.32-.73c.05-.05,.13-.15,.22-.3s.21-.33,.34-.56Z"></path><path class="cls-2" d="M82.42,24.39c-.08,.13-.14,.22-.2,.27-.05,.05-.14,.15-.25,.29-.08,.08-.17,.16-.28,.24-.11,.08-.22,.18-.32,.28-.1,.09-.21,.2-.3,.33s-.21,.23-.32,.31c-.3,.21-.62,.39-.96,.56-.34,.16-.67,.3-1,.4-.23,.08-.48,.14-.72,.19-.25,.05-.48,.07-.7,.07-.16,0-.3-.02-.44-.06s-.26-.08-.38-.14-.23-.13-.33-.22c-.1-.1-.2-.2-.27-.3s-.15-.23-.21-.37-.11-.29-.15-.45c-.01-.09-.03-.2-.04-.32-.01-.12-.03-.24-.04-.36-.01-.16-.04-.32-.07-.48-.03-.16-.05-.33-.05-.52,0-.12,.02-.23,.06-.35s.06-.23,.06-.35c.01-.2,.03-.4,.06-.61,.03-.21,.06-.41,.1-.61-.17,.01-.35,.05-.54,.1-.19,.05-.36,.13-.52,.23-.16,.12-.3,.26-.43,.43-.13,.17-.27,.33-.43,.49-.16,.17-.34,.35-.54,.54-.2,.19-.38,.39-.54,.62-.14,.2-.28,.41-.4,.63-.12,.23-.26,.46-.42,.69-.12,.16-.22,.36-.31,.61-.09,.25-.2,.46-.33,.62-.1,.13-.23,.31-.39,.53s-.29,.4-.39,.53c-.1,.13-.27,.21-.51,.24s-.41,.08-.53,.15c-.2,.09-.36,.12-.48,.08-.12-.04-.27-.1-.44-.18-.12-.04-.23-.11-.35-.21s-.21-.2-.27-.27c-.1-.12-.16-.26-.16-.44s.01-.35,.04-.54c.01-.13,.05-.28,.12-.45,.06-.17,.12-.33,.16-.49,.05-.22,.11-.45,.17-.68s.12-.46,.19-.68c.09-.27,.19-.54,.29-.81,.1-.27,.2-.52,.27-.75,.09-.27,.18-.54,.26-.8,.08-.26,.15-.49,.19-.68,.05-.26,.07-.48,.07-.65,0-.18-.06-.29-.17-.34-.08-.04-.2-.02-.35,.05s-.32,.19-.49,.34c-.16,.13-.33,.29-.51,.48-.18,.19-.37,.38-.55,.58-.1,.12-.22,.25-.35,.39-.13,.14-.26,.29-.39,.45-.16,.18-.32,.37-.5,.56s-.34,.36-.5,.52c-.1,.12-.21,.22-.32,.32-.11,.1-.21,.18-.28,.24l-.78-1.78c.12-.09,.24-.2,.36-.32s.25-.26,.38-.4c.23-.23,.49-.51,.76-.83s.55-.64,.82-.97,.55-.66,.83-1c.28-.34,.56-.66,.83-.96,.18-.21,.37-.42,.56-.64,.19-.22,.37-.44,.56-.64,.25-.3,.49-.59,.73-.86,.24-.27,.46-.49,.65-.64,.23-.2,.46-.35,.68-.47,.22-.12,.45-.18,.68-.18,.14,0,.3,.02,.47,.07,.17,.05,.34,.11,.53,.19,.16,.08,.28,.2,.37,.35,.09,.16,.15,.33,.18,.53,.04,.22,.04,.47,0,.75-.03,.28-.09,.58-.17,.89-.04,.21-.1,.43-.19,.65-.08,.23-.17,.46-.24,.69-.05,.16-.11,.33-.19,.51-.07,.18-.14,.35-.21,.51-.1,.23-.21,.48-.33,.74s-.23,.51-.35,.74c-.13,.29-.28,.58-.45,.88-.17,.3-.29,.56-.37,.78-.09,.25-.13,.45-.11,.62s.08,.27,.19,.32c.08-.03,.14-.1,.2-.22,.05-.12,.12-.24,.21-.36,.12-.13,.21-.29,.27-.47,.06-.18,.16-.37,.29-.57,.12-.18,.27-.37,.45-.58,.18-.2,.34-.4,.47-.6,.12-.16,.26-.29,.44-.41s.32-.23,.44-.35c.17-.17,.36-.32,.59-.46,.22-.14,.45-.24,.68-.32,.14-.05,.3-.1,.46-.14,.16-.04,.32-.07,.48-.08,.04-.16,.08-.31,.12-.46s.08-.3,.14-.44c.05-.16,.11-.31,.19-.45,.07-.14,.13-.28,.17-.41,.05-.16,.09-.32,.13-.49,.03-.17,.07-.32,.11-.45,.04-.16,.09-.32,.15-.48s.11-.32,.15-.46c.08-.22,.29-.42,.63-.6,.34-.18,.69-.31,1.04-.4,.3-.08,.65-.1,1.06-.06s.6,.11,.56,.21c-.04,.13-.09,.27-.16,.43-.07,.16-.12,.32-.16,.49-.12,.36-.25,.76-.4,1.19-.15,.43-.28,.84-.4,1.23-.05,.2-.11,.39-.17,.59s-.11,.37-.15,.53c.08,.01,.25,.05,.53,.12,.12,.12,.15,.28,.1,.5-.05,.21-.14,.41-.27,.58-.09,.47-.17,.73-.23,.78-.08,.08-.29,.14-.62,.18-.04,.17-.07,.3-.1,.4-.03,.1-.05,.23-.08,.4-.04,.2-.06,.35-.06,.47v.41c-.01,.33,0,.6,.05,.83,.04,.23,.15,.35,.3,.38,.09,.01,.21,0,.35-.03,.14-.03,.29-.09,.45-.17,.14-.08,.29-.17,.45-.28s.31-.22,.45-.34c.14-.12,.29-.25,.43-.39,.14-.14,.27-.29,.39-.43,.08-.1,.13-.17,.16-.21,.03-.03,.06-.1,.12-.21l.78,1.82Z"></path><path class="cls-2" d="M98.48,24.38c-.14,.18-.31,.37-.51,.56s-.4,.38-.61,.58c-.12,.1-.27,.2-.47,.29s-.37,.19-.51,.29c-.18,.14-.34,.3-.48,.46s-.29,.3-.46,.42c-.27,.2-.54,.38-.81,.57-.27,.18-.5,.34-.69,.47-.08,.2-.15,.39-.22,.6-.07,.2-.14,.4-.21,.6-.08,.23-.18,.48-.31,.73-.13,.25-.23,.49-.31,.71-.07,.17-.11,.34-.15,.53-.03,.18-.08,.35-.13,.51-.16,.43-.34,.84-.54,1.24-.2,.4-.38,.77-.52,1.12-.16,.35-.29,.7-.41,1.04s-.25,.66-.39,.96c-.1,.22-.23,.44-.38,.65-.15,.21-.28,.41-.4,.6-.16,.27-.3,.53-.44,.76s-.26,.44-.38,.62-.22,.36-.32,.53-.21,.31-.32,.43c-.1,.12-.23,.21-.39,.28s-.28,.13-.37,.17c-.23,.12-.46,.15-.67,.11s-.42-.17-.62-.36c-.13-.13-.22-.34-.26-.62-.05-.29-.05-.62,0-1.02,.04-.4,.13-.87,.28-1.39,.15-.52,.33-1.07,.56-1.66,.2-.55,.43-1.09,.7-1.64s.56-1.08,.86-1.6c.35-.61,.72-1.2,1.11-1.77s.78-1.08,1.17-1.55c.04-.13,.13-.28,.26-.45s.23-.34,.28-.51c.06-.23,.09-.49,.09-.76,0-.27,0-.53,.05-.78,.04-.23,.11-.47,.21-.69s.17-.45,.21-.65c.03-.16,.03-.32,0-.48-.03-.16-.04-.3-.04-.42,.03-.21,.02-.44-.02-.68-.3-.03-.49-.02-.57,.02-.1,.05-.19,.15-.26,.28-.07,.14-.18,.26-.32,.36-.1,.08-.23,.16-.38,.23-.15,.08-.28,.16-.4,.25-.14,.1-.28,.22-.4,.35-.12,.13-.26,.25-.4,.35-.18,.13-.38,.27-.58,.42-.2,.15-.4,.29-.6,.42-.14,.08-.31,.16-.51,.25s-.37,.18-.51,.25c-.25,.16-.47,.31-.67,.46-.2,.15-.41,.26-.63,.34-.2,.08-.39,.15-.6,.22-.2,.07-.39,.11-.56,.11-.21,0-.41-.04-.6-.13-.19-.08-.34-.2-.46-.34-.1-.1-.19-.24-.26-.42-.07-.18-.11-.37-.11-.6s.02-.49,.07-.79c.04-.31,.13-.64,.24-1.01,.06-.21,.15-.43,.26-.66,.11-.23,.22-.48,.34-.72-.33,.21-.63,.5-.92,.89-.29,.38-.57,.67-.86,.87l-.78-1.78c.14-.14,.3-.29,.47-.45s.34-.31,.53-.45c.4-.36,.84-.74,1.32-1.13,.47-.39,.95-.76,1.42-1.11,.66-.5,1.34-.98,2.02-1.45s1.34-.89,1.98-1.27c.62-.38,1.22-.72,1.79-1.02s1.07-.53,1.51-.68c.31-.12,.6-.2,.86-.24,.26-.05,.47-.05,.62,0s.32,.08,.49,.13c.17,.05,.31,.11,.41,.19,.09,.08,.19,.21,.28,.39s.15,.32,.15,.41c0,.14-.04,.3-.12,.46s-.22,.32-.43,.48c-.08,.07-.18,.13-.3,.21-.12,.07-.26,.13-.4,.19-.16,.07-.34,.1-.54,.1s-.39,.04-.56,.12c-.47,.22-.94,.52-1.43,.9-.48,.38-.94,.74-1.37,1.09-.37,.29-.72,.59-1.06,.9-.35,.31-.65,.61-.93,.88-.26,.27-.5,.54-.7,.8-.21,.26-.37,.49-.49,.68-.12,.21-.19,.39-.21,.56-.03,.16,0,.28,.1,.36,.26,.13,.44,.19,.55,.18,.08-.01,.16-.07,.25-.16,.09-.09,.2-.18,.31-.25,.08-.04,.2-.09,.35-.15s.28-.12,.37-.19c.22-.16,.43-.34,.62-.57s.42-.44,.66-.64c.23-.2,.51-.42,.83-.66,.32-.25,.64-.48,.97-.7,.22-.14,.45-.29,.69-.43,.24-.14,.46-.26,.67-.35,.18-.08,.35-.14,.52-.2,.16-.05,.3-.08,.42-.08,.2,0,.36,.06,.5,.19s.24,.28,.3,.48c.08,.2,.13,.42,.15,.66s.03,.51,.03,.78c0,.23-.01,.48-.04,.73-.03,.25-.06,.5-.1,.73-.05,.36-.12,.72-.2,1.07s-.16,.67-.23,.96c.12-.08,.24-.17,.37-.26,.13-.1,.25-.19,.37-.26,.13-.09,.26-.21,.39-.36,.13-.15,.25-.27,.37-.36,.14-.1,.29-.19,.43-.26,.14-.07,.27-.15,.37-.22,.2-.16,.37-.32,.52-.48,.15-.16,.27-.32,.36-.48l.78,1.86Z"></path><path class="cls-2" d="M98.26,21.78l1.78-1.17c.06-.07,.14-.15,.23-.26,.09-.11,.2-.27,.31-.48,.09-.17,.21-.31,.36-.43,.15-.12,.32-.22,.52-.31,.1-.13,.25-.29,.45-.49s.44-.42,.74-.68c.14-.08,.33-.19,.55-.34,.22-.15,.46-.35,.72-.6,1.18-1.12,2.22-1.96,3.12-2.52,.89-.56,1.64-.84,2.26-.84,.34,0,.59,.07,.75,.21,.16,.14,.24,.34,.24,.61s-.05,.51-.15,.72-.25,.38-.46,.53c-.33,.23-.68,.5-1.05,.78-.21,.27-.46,.56-.76,.87-.3,.31-.65,.61-1.05,.91-.13,.17-.24,.32-.33,.45-.07,.07-.19,.18-.37,.35-.18,.17-.42,.36-.72,.59-.13,.29-.41,.66-.85,1.11-.44,.46-1.02,1-1.75,1.64-.09,.09-.25,.3-.49,.62s-.54,.75-.92,1.29l.14,.18c.29-.09,.59-.25,.9-.47s.66-.51,1.04-.88c.44-.4,.8-.73,1.08-.99,.28-.25,.48-.42,.6-.5,.09-.05,.18-.1,.27-.16,.09-.05,.2-.12,.31-.2,.6-.72,1.16-1.25,1.68-1.59,.52-.34,1-.52,1.45-.52,.27,0,.48,.11,.62,.32,.14,.21,.23,.54,.25,.97-.03,.65-.04,1.28-.04,1.88-.01,.42,.1,.79,.34,1.12,.24,.33,.56,.5,.95,.5,.12,0,.23-.03,.34-.1,.11-.07,.22-.15,.34-.25,.09-.12,.18-.23,.26-.33,.08-.1,.17-.21,.26-.31,.05-.03,.13-.07,.22-.14s.19-.14,.28-.23c.18,.39,.33,.73,.46,1.03,.12,.29,.22,.55,.28,.77-.3,.27-.6,.56-.89,.85s-.6,.57-.93,.83c-.39,.3-.77,.52-1.13,.67-.37,.15-.73,.22-1.09,.22-.85,0-1.5-.24-1.95-.72-.46-.48-.72-1.21-.8-2.19,0-.12-.02-.24-.05-.36-.03-.12-.1-.25-.21-.38-.07,.07-.14,.13-.21,.21s-.17,.17-.27,.28c-.17,.13-.38,.29-.63,.49s-.55,.43-.89,.7c-.46,.47-.84,.85-1.15,1.15s-.53,.51-.66,.64c-.26,.22-.56,.44-.91,.66-.35,.22-.73,.45-1.16,.68-.27,.14-.51,.26-.7,.34s-.34,.13-.43,.13c-.62,0-1.09-.15-1.39-.46s-.45-.78-.45-1.42c0-.35,.08-.69,.22-1.01s.37-.63,.67-.93c.03-.17,.04-.31,.04-.41,0-.07-.02-.13-.05-.21-.03-.07-.08-.15-.13-.24-.08-.18-.17-.39-.26-.62s-.21-.47-.32-.73c.05-.05,.13-.15,.22-.3s.21-.33,.34-.56Z"></path><path class="cls-2" d="M142.95,1.15c.22,0,.38,.12,.47,.36,.09,.24,.14,.59,.14,1.04,0,.3-.05,.84-.16,1.61-.1,.77-.25,1.79-.45,3.04l.23,1.27c-.1,.3-.21,.65-.31,1.05-.1,.4-.2,.85-.27,1.33-.1,.55-.2,1.01-.28,1.39s-.17,.68-.24,.92c-.1,.4-.2,.78-.28,1.12s-.15,.69-.19,1.03c-.09,.82-.21,1.6-.36,2.33-.15,.74-.35,1.44-.6,2.12-.17,.5-.43,1.44-.77,2.83s-.79,3.22-1.32,5.49c-.23,1.02-.5,1.78-.78,2.29s-.6,.76-.94,.76c-.17,0-.29-.04-.37-.12s-.13-.21-.16-.41c-.01-.07-.02-.14,0-.21,0-.08,0-.31,0-.68-.01-.14-.05-.29-.12-.43l.39-1.52c-.01-.17-.05-.35-.1-.55,0-.46,.11-1.38,.34-2.76,.23-1.39,.56-3.25,.99-5.58,.16-.77,.31-1.61,.45-2.52,0-.16-.01-.27-.04-.33-.03-.07-.08-.1-.16-.1-.14,.07-.29,.13-.45,.19l-.49-.23c-.08,.03-.24,.15-.48,.36-.24,.21-.42,.32-.54,.32-.25,0-.61-.04-1.08-.13-.48-.08-.83-.13-1.06-.13-.29,0-.59,.07-.92,.22-.33,.15-.66,.37-1.02,.67-.61,.09-1.16,.24-1.63,.44-.48,.2-.9,.46-1.26,.77-.18,.14-.38,.3-.59,.47-.1,.09-.18,.41-.22,.97-.05,.55-.07,1.31-.07,2.28,0,.89,.04,1.54,.14,1.96,.09,.42,.23,.63,.41,.63,.12,0,.22-.03,.31-.09,.09-.06,.2-.15,.33-.28,.08-.09,.17-.19,.27-.28,.1-.1,.19-.2,.25-.3l.16-.02c.09-.01,.16,.01,.21,.08,.04,.07,.07,.16,.07,.29-.13,.29-.26,.55-.38,.78-.12,.23-.23,.43-.32,.59-.4,.61-.8,1.22-1.19,1.82-.23,.31-.51,.55-.84,.72-.33,.17-.7,.25-1.13,.25-.35,0-.61-.48-.79-1.43-.18-.95-.26-2.37-.26-4.26,0-.73-.05-1.37-.14-1.91s-.24-1.01-.45-1.4c-.19-.34-.33-.64-.41-.9s-.12-.48-.12-.67c0-.14,.04-.31,.11-.49,.07-.18,.18-.36,.32-.55,.17-.21,.3-.38,.4-.52s.15-.25,.17-.34c.08-.21,.15-.48,.22-.82,.07-.34,.15-.73,.24-1.17,.08-.3,.15-.72,.21-1.27,.06-.55,.11-1.2,.14-1.97,.06-1.46,.2-2.56,.41-3.32,.21-.75,.29-1.2,.25-1.35l-.12-.49c.03-.27,.06-.62,.12-1.05,.05-.43,.12-.92,.21-1.48,.12-.08,.25-.19,.39-.34,.14-.15,.29-.33,.45-.56,.9-.34,1.39-.51,1.46-.51,.47,0,.82,.12,1.05,.37s.35,.6,.35,1.05c0,.13-.04,.31-.11,.55-.07,.23-.16,.53-.26,.88-.12,.3-.24,.85-.38,1.66-.14,.81-.29,1.84-.46,3.11-.12,.91-.24,1.77-.38,2.57s-.3,1.55-.48,2.24c-.03,.09-.05,.2-.06,.33,0,.2,.03,.33,.1,.42,.06,.08,.16,.13,.29,.13,.48-.04,.92-.08,1.31-.12,.13,0,.58-.14,1.35-.43h1.5c.21,0,.51-.02,.91-.07,.4-.05,.69-.07,.89-.07,.18,0,.46,.04,.83,.13,.37,.08,.66,.13,.87,.13,.16,0,.36-.03,.61-.08,.25-.05,.55-.14,.9-.27,.17,0,.31-.02,.43-.06s.18-.1,.18-.18c.06-.17,.14-.38,.22-.62,.08-.25,.17-.53,.26-.86,.03-.3,.06-.66,.11-1.07,.04-.42,.11-.91,.19-1.46,.18-1.04,.32-1.89,.4-2.56,.08-.66,.13-1.13,.13-1.41,0-.1-.01-.2-.04-.29-.03-.09-.07-.16-.14-.21-.1-.12-.22-.26-.35-.43,.09-.26,.19-.46,.29-.61,.3-.46,.55-.84,.76-1.14,.21-.31,.38-.52,.51-.65,.21-.22,.46-.44,.75-.65s.64-.43,1.04-.63Z"></path><path class="cls-2" d="M143.63,21.78l1.78-1.17c.06-.07,.14-.15,.23-.26,.09-.11,.2-.27,.31-.48,.09-.17,.21-.31,.36-.43,.15-.12,.32-.22,.52-.31,.1-.13,.25-.29,.45-.49s.44-.42,.74-.68c.14-.08,.33-.19,.55-.34,.22-.15,.46-.35,.72-.6,1.18-1.12,2.22-1.96,3.12-2.52,.89-.56,1.64-.84,2.26-.84,.34,0,.59,.07,.75,.21,.16,.14,.24,.34,.24,.61s-.05,.51-.15,.72-.25,.38-.46,.53c-.33,.23-.68,.5-1.05,.78-.21,.27-.46,.56-.76,.87-.3,.31-.65,.61-1.05,.91-.13,.17-.24,.32-.33,.45-.07,.07-.19,.18-.37,.35-.18,.17-.42,.36-.72,.59-.13,.29-.41,.66-.85,1.11-.44,.46-1.02,1-1.75,1.64-.09,.09-.25,.3-.49,.62s-.54,.75-.92,1.29l.14,.18c.29-.09,.59-.25,.9-.47s.66-.51,1.04-.88c.44-.4,.8-.73,1.08-.99,.28-.25,.48-.42,.6-.5,.09-.05,.18-.1,.27-.16,.09-.05,.2-.12,.31-.2,.6-.72,1.16-1.25,1.68-1.59,.52-.34,1-.52,1.45-.52,.27,0,.48,.11,.62,.32,.14,.21,.23,.54,.25,.97-.03,.65-.04,1.28-.04,1.88-.01,.42,.1,.79,.34,1.12,.24,.33,.56,.5,.95,.5,.12,0,.23-.03,.34-.1,.11-.07,.22-.15,.34-.25,.09-.12,.18-.23,.26-.33,.08-.1,.17-.21,.26-.31,.05-.03,.13-.07,.22-.14s.19-.14,.28-.23c.18,.39,.33,.73,.46,1.03,.12,.29,.22,.55,.28,.77-.3,.27-.6,.56-.89,.85s-.6,.57-.93,.83c-.39,.3-.77,.52-1.13,.67-.37,.15-.73,.22-1.09,.22-.85,0-1.5-.24-1.95-.72-.46-.48-.72-1.21-.8-2.19,0-.12-.02-.24-.05-.36-.03-.12-.1-.25-.21-.38-.07,.07-.14,.13-.21,.21s-.17,.17-.27,.28c-.17,.13-.38,.29-.63,.49s-.55,.43-.89,.7c-.46,.47-.84,.85-1.15,1.15s-.53,.51-.66,.64c-.26,.22-.56,.44-.91,.66-.35,.22-.73,.45-1.16,.68-.27,.14-.51,.26-.7,.34s-.34,.13-.43,.13c-.62,0-1.09-.15-1.39-.46s-.45-.78-.45-1.42c0-.35,.08-.69,.22-1.01s.37-.63,.67-.93c.03-.17,.04-.31,.04-.41,0-.07-.02-.13-.05-.21-.03-.07-.08-.15-.13-.24-.08-.18-.17-.39-.26-.62s-.21-.47-.32-.73c.05-.05,.13-.15,.22-.3s.21-.33,.34-.56Z"></path><path class="cls-2" d="M158.03,22.64c.08-.09,.17-.21,.27-.36,.1-.15,.22-.32,.35-.5,.57-.72,1.13-1.36,1.67-1.92s1.05-1.07,1.54-1.51c.25-.23,.55-.54,.9-.91,.35-.37,.76-.8,1.23-1.28,.47-.18,.98-.39,1.54-.62,.35,0,.61,.11,.78,.34,.17,.23,.25,.56,.25,.99,0,.36-.03,.76-.09,1.18s-.14,.86-.24,1.3c-.12,.35-.21,.69-.29,1.02,0,.09,.02,.16,.06,.21s.1,.07,.2,.07c.2-.09,.57-.42,1.13-.98,.56-.56,1.29-1.34,2.21-2.34,.78-.86,1.46-1.5,2.05-1.92s1.05-.63,1.41-.63c.38,0,.65,.14,.83,.42s.26,.69,.26,1.24c0,.79-.06,1.56-.18,2.29s-.32,1.44-.61,2.12c-.05,.13-.08,.24-.1,.33-.01,.09-.02,.18-.02,.25,0,.09,.08,.18,.23,.25,.1-.09,.22-.22,.36-.39s.3-.38,.48-.64c.3-.25,.6-.5,.9-.74,.3-.25,.62-.5,.98-.76,.36-.29,.73-.5,1.11-.65,.38-.15,.75-.22,1.11-.22,.07,0,.13,.02,.2,.06,.06,.04,.13,.08,.2,.14,.3,.26,.55,.5,.74,.71s.33,.4,.41,.56c.51,1.04,.96,1.82,1.36,2.33,.4,.51,.75,.77,1.04,.77,.07,0,.13-.02,.2-.05,.06-.03,.13-.08,.2-.13,.3,.64,.55,1.24,.76,1.8-.47,.36-.88,.64-1.25,.83s-.68,.28-.96,.28c-.9,0-1.82-.58-2.78-1.75-.96-1.17-1.69-1.75-2.2-1.75-.68,0-1.8,1-3.38,3-1.58,2-2.56,3-2.95,3-.2,0-.46-.02-.78-.06-.1-.04-.18-.12-.23-.24-.05-.12-.08-.27-.08-.44,0-.2,.04-.45,.12-.77s.18-.69,.31-1.12c.17-.55,.31-.98,.41-1.31,.1-.33,.16-.55,.18-.68,.04-.17,.09-.5,.17-1,.07-.5,.17-1.15,.28-1.97,0-.14-.04-.25-.12-.33s-.17-.12-.27-.12c-.09,0-.19,.03-.3,.09-.11,.06-.24,.15-.38,.28-.16,.17-.33,.34-.52,.51-.19,.17-.49,.41-.91,.72-.46,.52-.92,1.05-1.4,1.59-.48,.54-.96,1.08-1.46,1.63-.78,.91-1.4,1.58-1.87,2.02-.46,.44-.76,.65-.89,.65-.39,0-.69-.05-.89-.14s-.3-.23-.3-.41c0-.43,.23-1.33,.7-2.69s.7-2.32,.7-2.88c0-.09-.03-.17-.09-.22s-.13-.09-.23-.09c-.16,0-.34,.09-.56,.26s-.46,.45-.73,.83c-.18,.21-.41,.45-.67,.72-.26,.27-.58,.59-.96,.96-.04,.1-.09,.21-.16,.3-.06,.1-.14,.19-.21,.28-.05-.2-.14-.44-.27-.72s-.3-.64-.51-1.07Z"></path><path class="cls-2" d="M183.3,21.78l1.78-1.17c.06-.07,.14-.15,.23-.26,.09-.11,.2-.27,.31-.48,.09-.17,.21-.31,.36-.43,.15-.12,.32-.22,.52-.31,.1-.13,.25-.29,.45-.49s.44-.42,.74-.68c.14-.08,.33-.19,.55-.34,.22-.15,.46-.35,.72-.6,1.18-1.12,2.22-1.96,3.12-2.52,.89-.56,1.64-.84,2.26-.84,.34,0,.59,.07,.75,.21,.16,.14,.24,.34,.24,.61s-.05,.51-.15,.72-.25,.38-.46,.53c-.33,.23-.68,.5-1.05,.78-.21,.27-.46,.56-.76,.87-.3,.31-.65,.61-1.05,.91-.13,.17-.24,.32-.33,.45-.07,.07-.19,.18-.37,.35-.18,.17-.42,.36-.72,.59-.13,.29-.41,.66-.85,1.11-.44,.46-1.02,1-1.75,1.64-.09,.09-.25,.3-.49,.62s-.54,.75-.92,1.29l.14,.18c.29-.09,.59-.25,.9-.47s.66-.51,1.04-.88c.44-.4,.8-.73,1.08-.99,.28-.25,.48-.42,.6-.5,.09-.05,.18-.1,.27-.16,.09-.05,.2-.12,.31-.2,.6-.72,1.16-1.25,1.68-1.59,.52-.34,1-.52,1.45-.52,.27,0,.48,.11,.62,.32,.14,.21,.23,.54,.25,.97-.03,.65-.04,1.28-.04,1.88-.01,.42,.1,.79,.34,1.12,.24,.33,.56,.5,.95,.5,.12,0,.23-.03,.34-.1,.11-.07,.22-.15,.34-.25,.09-.12,.18-.23,.26-.33,.08-.1,.17-.21,.26-.31,.05-.03,.13-.07,.22-.14s.19-.14,.28-.23c.18,.39,.33,.73,.46,1.03,.12,.29,.22,.55,.28,.77-.3,.27-.6,.56-.89,.85s-.6,.57-.93,.83c-.39,.3-.77,.52-1.13,.67-.37,.15-.73,.22-1.09,.22-.85,0-1.5-.24-1.95-.72-.46-.48-.72-1.21-.8-2.19,0-.12-.02-.24-.05-.36-.03-.12-.1-.25-.21-.38-.07,.07-.14,.13-.21,.21s-.17,.17-.27,.28c-.17,.13-.38,.29-.63,.49s-.55,.43-.89,.7c-.46,.47-.84,.85-1.15,1.15s-.53,.51-.66,.64c-.26,.22-.56,.44-.91,.66-.35,.22-.73,.45-1.16,.68-.27,.14-.51,.26-.7,.34s-.34,.13-.43,.13c-.62,0-1.09-.15-1.39-.46s-.45-.78-.45-1.42c0-.35,.08-.69,.22-1.01s.37-.63,.67-.93c.03-.17,.04-.31,.04-.41,0-.07-.02-.13-.05-.21-.03-.07-.08-.15-.13-.24-.08-.18-.17-.39-.26-.62s-.21-.47-.32-.73c.05-.05,.13-.15,.22-.3s.21-.33,.34-.56Z"></path><path class="cls-2" d="M210.25,22.64c.52,1.13,.78,1.73,.78,1.8-.17,.23-.33,.48-.47,.74-.14,.26-.3,.53-.47,.8-.16,.23-.36,.44-.61,.61-.25,.17-.53,.31-.86,.43-.47,.18-.91,.36-1.33,.54-.42,.18-.79,.35-1.13,.52-.38,.18-.79,.3-1.22,.36-.44,.06-.86,.11-1.26,.17-.29,.08-.57,.13-.85,.15-.28,.02-.54,.03-.77,.03-.2,0-.36,0-.49-.03-.13-.02-.24-.06-.33-.11-.12-.08-.23-.16-.34-.23-.11-.08-.22-.15-.32-.21-.22-.13-.39-.23-.51-.29-.16-.09-.27-.35-.34-.78-.07-.43-.11-1.06-.11-1.88,0-.57,.16-1.49,.49-2.74,.33-1.25,.49-2.08,.49-2.5,0-.09-.01-.22-.04-.38-.03-.16-.04-.3-.04-.4,0-.36,.13-1.2,.38-2.49,.25-1.3,.38-2.2,.38-2.71,0-.25-.09-.43-.28-.54-.19-.11-.28-.28-.28-.5,0-.31,.03-.66,.08-1.05,.05-.39,.14-.82,.27-1.29,.1-.38,.2-.76,.29-1.14,.09-.38,.18-.76,.27-1.12,.09-.43,.19-.87,.28-1.31s.18-.87,.24-1.29c.08-.29,.2-.64,.37-1.05,.17-.42,.37-.89,.61-1.42,.12-.26,.22-.5,.31-.73,.09-.23,.19-.47,.29-.73,.1-.21,.25-.39,.45-.56,.2-.16,.44-.31,.72-.44,.23-.09,.44-.16,.62-.21,.18-.05,.31-.07,.37-.07,.35,0,.61,.12,.77,.36,.16,.24,.24,.61,.24,1.1,0,.16,0,.33-.03,.54s-.07,.43-.15,.69c-.05,.27-.1,.51-.15,.7-.05,.2-.08,.35-.11,.47-.01,.31-.03,.6-.06,.86-.03,.26-.06,.5-.1,.72-.08,.16-.18,.34-.31,.57-.09,.61-.17,1.12-.22,1.53s-.09,.7-.09,.87c0,.55-.14,1.23-.42,2.06-.28,.83-.42,1.46-.42,1.88,0,.18-.03,.42-.1,.71-.07,.29-.16,.64-.29,1.04-.14,.55-.26,.97-.34,1.27-.08,.3-.14,.48-.17,.55-.03,.2-.06,.42-.09,.68-.03,.26-.08,.57-.15,.92-.3,1.42-.52,2.59-.67,3.53-.15,.93-.22,1.63-.22,2.1,0,.43,.04,.76,.14,1,.09,.23,.23,.35,.41,.35,.82,0,1.65-.09,2.49-.27s1.71-.45,2.63-.8c.1-.01,.21-.04,.3-.08s.2-.08,.3-.12c.16-.18,.27-.35,.35-.51,.17-.1,.32-.21,.45-.32,.13-.11,.24-.22,.33-.34Z"></path><path class="cls-2" d="M216.62,27.17c0,.18-.05,.36-.15,.53s-.24,.33-.44,.49c-.07,.2-.15,.34-.24,.44s-.22,.15-.38,.15c-.53,0-.99-.19-1.37-.57-.38-.38-.68-.94-.9-1.68l.14-.14-.2-.51c.06-.21,.12-.41,.18-.61,.05-.2,.1-.39,.16-.59,.06-.25,.17-.43,.32-.54,.15-.11,.32-.17,.52-.17,.34,0,.65,.09,.95,.27s.56,.46,.79,.84c.22,.34,.38,.68,.48,1.03s.15,.69,.15,1.04Z"></path><path class="cls-2" d="M222.83,9.1c-.04-.26-.08-.53-.14-.82,0,.12,.02,.03,.06-.27s.09-.81,.16-1.54c.1-.14,.18-.27,.22-.38,.04-.11,.09-.21,.13-.3-.12-.14-.21-.26-.26-.36s-.09-.18-.09-.24c.1-.79,.2-1.55,.29-2.27,.01-.2,.13-.42,.34-.66s.51-.51,.89-.8c.3-.25,.59-.46,.88-.62,.29-.17,.56-.31,.82-.41,.35-.12,.56-.21,.62-.29,.06-.08,.14-.12,.21-.12,.21,0,.37,.1,.48,.31,.11,.21,.17,.52,.17,.94,0,.22-.06,.53-.17,.92-.11,.39-.17,.68-.17,.86,0,.08,0,.38,.03,.9s.05,1.27,.09,2.25c.01,.7,.11,1.45,.3,2.25,.19,.79,.43,1.62,.73,2.48,.4,1.12,.84,1.96,1.31,2.51,.47,.55,.98,.83,1.54,.83,.44,0,1.03-.29,1.76-.86s1.59-1.43,2.58-2.58c.76-.89,1.43-1.71,2.02-2.48s1.07-1.47,1.44-2.11c.34-.57,.74-1.09,1.19-1.54s.98-.87,1.56-1.25c.18-.1,.33-.19,.45-.25s.21-.1,.27-.1c.23,0,.41,.18,.53,.53s.18,.87,.18,1.56c-.08,.64-.14,1.27-.2,1.89-.12,.98-.29,1.99-.52,3.05s-.52,2.15-.89,3.28c-.18,.57-.34,1.07-.47,1.5-.13,.43-.22,.79-.27,1.09-.03,.17-.06,.38-.11,.63-.04,.25-.09,.55-.15,.89-.13,.33-.27,.65-.43,.98-.13,.26-.24,.57-.32,.94-.08,.36-.16,.79-.22,1.27,0,.09,0,.21-.02,.35s-.03,.29-.04,.45c-.3,1.33-.6,2.62-.92,3.87-.03,.12-.08,.27-.17,.45-.17,.05-.36,.16-.58,.33-.21,.17-.44,.4-.67,.7-.23,.26-.43,.45-.59,.58s-.27,.19-.35,.19c-.1,0-.19-.03-.25-.1-.07-.07-.1-.18-.1-.33,.01-.1,.03-.19,.06-.25,.18-.44,.34-1.08,.48-1.91s.26-1.86,.38-3.09c.01-.26,.12-.96,.31-2.11s.48-2.73,.86-4.77c.05-.33,.12-.73,.21-1.2,.08-.48,.19-1.02,.32-1.63,.09-.31,.17-.58,.22-.81s.09-.39,.09-.5c0-.13-.02-.22-.07-.28-.05-.06-.11-.09-.21-.09-.08,0-.22,.1-.43,.3s-.47,.5-.78,.91c-.18,.22-.37,.46-.56,.7-.19,.25-.39,.49-.6,.72-.35,.36-.68,.71-.98,1.04l-1.45,1.45c-.13,.08-.29,.18-.48,.29-.19,.12-.41,.25-.67,.41-.25,.39-.64,.73-1.18,1.01s-1.04,.42-1.5,.42c-.55,0-1.07-.17-1.57-.52s-.99-.88-1.46-1.59c-.21-.35-.41-.7-.62-1.05s-.42-.7-.65-1.05l-.1,.02c-.07,.08-.19,.61-.36,1.58s-.4,2.41-.67,4.3c-.3,1.94-.53,3.46-.68,4.57s-.23,1.82-.23,2.15c-.03,.44-.11,.78-.24,1.03s-.35,.38-.63,.42c-.14,.01-.35,.05-.61,.11-.26,.06-.57,.13-.94,.22-.07-.01-.12-.04-.18-.07-.05-.03-.08-.08-.08-.15l.12-.72-.2-.74c.08-.4,.16-.79,.23-1.17,.05-.78,.1-1.52,.14-2.21,.01-.14,.06-.38,.15-.72,.08-.34,.13-.59,.13-.76,0-.09-.02-.22-.06-.4s-.06-.31-.06-.4c0-.72,.11-1.78,.34-3.18,.23-1.41,.34-2.47,.34-3.2-.04-.3-.08-.6-.14-.9,.06-.47,.17-1.05,.31-1.76,.14-.7,.31-1.52,.49-2.46Z"></path><path class="cls-2" d="M262.29,22.62c.29,.64,.53,1.24,.74,1.8-.26,.26-.61,.5-1.04,.71-.43,.21-.93,.41-1.5,.58-.16,.04-.34,.09-.56,.16s-.46,.13-.73,.2c-.38,.03-.83,.07-1.36,.12-.53,.05-1.15,.12-1.87,.21-1.02,.8-1.92,1.42-2.71,1.88-.79,.46-1.45,.75-1.98,.88l-.29,.25c-.44,.2-.98,.35-1.61,.48-.63,.12-1.38,.23-2.24,.32-.16-.04-.32-.13-.48-.28-.16-.15-.35-.36-.56-.63,.13-.14,.29-.33,.49-.56,.2-.23,.41-.5,.64-.81,.2-.29,.43-.52,.69-.7,.27-.18,.61-.3,1.03-.38,.43-.09,.9-.22,1.43-.39,.13-.1,.29-.21,.48-.32,.19-.11,.4-.24,.63-.4,.3-.14,.61-.34,.94-.61,.33-.26,.68-.58,1.07-.96,.52-.51,.94-.92,1.25-1.22s.5-.5,.57-.58c.1-.18,.21-.35,.33-.5s.26-.29,.43-.42c.18-.31,.41-.71,.68-1.18s.6-1.03,.98-1.65c.06-.07,.15-.16,.24-.28s.21-.26,.34-.4c.26-.3,.45-.75,.57-1.37s.18-1.35,.18-2.23c0-.6-.15-1.22-.46-1.88s-.78-1.34-1.42-2.07c-.53-.6-1.1-1.14-1.7-1.61-.6-.48-1.2-.86-1.82-1.16-.47-.23-.91-.47-1.32-.69-.41-.23-.78-.43-1.12-.62-.18,.65-.41,1.55-.69,2.7-.28,1.15-.6,2.54-.95,4.18-.39,1.85-.68,3.34-.88,4.47s-.29,1.89-.29,2.29c-.08,.33-.14,.65-.2,.98l-.78,3.85c-.46,.89-.85,1.54-1.17,1.97s-.58,.64-.76,.64c-.09,0-.18-.08-.26-.22s-.16-.39-.24-.71l.24-1.11c-.04-.08-.08-.19-.12-.33,.08-.85,.15-1.7,.22-2.57,.07-.87,.14-1.73,.22-2.59,.06-.96,.16-1.87,.29-2.72,.13-.85,.27-1.63,.43-2.34l-.23-1c.09-.25,.17-.55,.24-.92,.07-.36,.13-.78,.19-1.25,.05-.6,.1-1.08,.14-1.46s.08-.63,.14-.77c.05-.17,.11-.38,.17-.64s.13-.57,.21-.94c.04-.14,.27-.42,.68-.83,.42-.41,.68-.72,.8-.93,.27-.04,.47-.09,.61-.17,.13-.07,.2-.17,.2-.28,0-.09-.08-.17-.22-.23-.15-.07-.38-.12-.67-.16-.14,0-.31-.02-.5-.05-.19-.03-.38-.09-.58-.17l-1.6-.78c-.34-.16-.6-.31-.78-.47s-.27-.32-.27-.49c.08-.26,.14-.52,.2-.78-.09-.26-.17-.47-.23-.64-.06-.17-.09-.3-.09-.39,0-.12,.03-.21,.09-.27s.14-.1,.24-.1c.36,.07,.68,.12,.96,.18,.13-.04,.26-.08,.39-.13,.13-.05,.26-.09,.39-.15,.31,0,.59,.02,.84,.07,.25,.05,.44,.09,.57,.15,.18,.09,.37,.19,.57,.29s.38,.2,.57,.27c.16-.03,.36-.06,.62-.1,.08,0,.15,.01,.21,.04,.16,.1,.34,.2,.57,.28,.22,.08,.47,.16,.76,.22,.31,.05,.58,.11,.8,.17,.22,.06,.4,.12,.53,.19,1.38,.72,2.59,1.39,3.62,2.02s1.89,1.25,2.57,1.85c1.07,.93,1.86,1.92,2.36,2.97s.76,2.16,.76,3.3c0,1.82-.54,3.76-1.62,5.8-1.08,2.05-2.69,4.2-4.82,6.45,.18-.08,.42-.16,.72-.25,.3-.09,.64-.2,1.04-.33,.82-.18,1.67-.38,2.54-.59,.55-.16,1.01-.33,1.39-.51,.38-.18,.68-.4,.92-.65Z"></path></g></g></svg>