<svg xmlns="http://www.w3.org/2000/svg" width="580" height="355.194" viewBox="0 0 580 355.194"><g transform="translate(-0.824 0.003)"><g transform="translate(0.824 -0.003)"><path d="M29.183,353.845s-55.3-89.155-19.025-181.208c23.646-60,112.347-92.881,162.4-60,21.32,14,89.723.472,126.245-57.5,70.972-112.658,318.665-44.24,273.571,128.73-21.823,83.7,32.328,72.19-20.155,169.983H29.185Z" transform="translate(2.175 0.003)" fill="#f1f7fc"></path><g transform="translate(32.138 149.352)"><g transform="translate(57.204 42.719)"><path d="M453.914,873.712s-7.486-8.733-.461-14.282c0,0,5.131-3.105,9.316-2.854,0,0-5.928,9.94-4.01,10.929s5.807-11.554,5.807-11.554,11.677-1.132,15.434.673c0,0-9.982,8.168-7.879,8.654S485,857.749,485,857.749s10.867,1.849,10.287,8.479-4.324,8.676-5.97,8.5-11.274-3.851-11.483-2.5,5.586,5.756,9.645,5.961c0,0-7.663,8.451-12.754,6.012s-5.526-6.3-8.7-7.753-5.884-1.446-4.573.033,7.056,2.915,8.87,6.127,3.443,5.376-1.825,4.584-13.832-4.648-14.209-9.062l-.375-4.414Z" transform="translate(-441.261 -855.602)" fill="#6bbaff"></path><g transform="translate(0 10.756)"><path d="M478.995,904.389s-29.517-1.137-36.037,7.3a21.353,21.353,0,0,1-5.877,8.25l-.691,1.885s5.116-5.394,6.946-5.718C443.336,916.109,440.473,905.65,478.995,904.389Z" transform="translate(-430.307 -904.338)" fill="#436b8e"></path><path d="M415.606,972.417a18.531,18.531,0,0,0-6.776,13.057l1.15.1s2.024-8.656,5.681-12.042S415.606,972.417,415.606,972.417Z" transform="translate(-408.83 -956.813)" fill="#436b8e"></path></g></g><g transform="translate(0 19.009)"><path d="M193.322,779.012s11.909-6.67,6.352-15.718c0,0-4.445-5.557-9.21-6.985,0,0,2.54,13.5,0,13.814s-1.746-15.244-1.746-15.244-12.545-6.034-17.466-5.557c0,0,7.78,13.178,5.24,12.86s-11.274-13.655-11.274-13.655-12.86-2.381-14.926,5.24,1.271,11.432,3.176,11.909,14.132.318,13.814,1.9-8.574,4.129-13.178,2.7c0,0,5.081,12.543,11.75,11.909s8.733-4.763,12.86-5.081,7.144.794,5.081,1.9-9.051.364-12.386,3.2-6.034,4.582.159,5.851,17.308.477,19.53-4.286l2.223-4.763Z" transform="translate(-149.641 -748.174)" fill="#6bbaff"></path><g transform="translate(6.528 7.973)"><path d="M179.22,784.3s33.344,10.8,37.155,22.865a25.329,25.329,0,0,0,3.176,11.591v2.381s-3.494-8.1-5.4-9.21C214.153,811.928,221.615,801.449,179.22,784.3Z" transform="translate(-179.22 -784.3)" fill="#436b8e"></path><path d="M356.332,935.184a21.993,21.993,0,0,1,2.211,17.314l-1.322-.355s1.284-10.47-1.406-15.736.519-1.223.519-1.223Z" transform="translate(-316.003 -900.727)" fill="#436b8e"></path></g></g><g transform="translate(52.309)"><path d="M396.971,702.7s-15.7-8.791-8.371-20.722c0,0,5.86-7.325,12.139-9.21,0,0-3.348,17.791,0,18.21s2.3-20.093,2.3-20.093,16.535-7.954,23.024-7.325c0,0-10.256,17.372-6.908,16.955s14.86-18,14.86-18,16.954-3.141,19.673,6.908-1.675,15.07-4.187,15.7-18.627.419-18.21,2.512,11.3,5.443,17.372,3.558c0,0-6.7,16.535-15.489,15.7s-11.512-6.279-16.954-6.7-9.42,1.046-6.7,2.512,11.931.481,16.325,4.218,7.954,6.038-.21,7.714-22.814.627-25.745-5.652l-2.931-6.279Z" transform="translate(-386.651 -662.045)" fill="#6bbaff"></path><g transform="translate(2.029 10.509)"><path d="M467.6,709.66S423.65,723.893,418.627,739.8a33.384,33.384,0,0,1-4.187,15.279v3.141s4.6-10.675,7.115-12.139c0,0-9.837-13.814,46.048-36.418Z" transform="translate(-410.336 -709.66)" fill="#436b8e"></path><path d="M399.948,908.562s-6.778,10.294-2.913,22.823l1.744-.468s-1.693-13.8,1.854-20.742S399.948,908.562,399.948,908.562Z" transform="translate(-395.844 -863.141)" fill="#436b8e"></path></g></g><path d="M322.431,1033.4a30.749,30.749,0,0,0,30.748-30.751h-61.5a30.75,30.75,0,0,0,30.748,30.751Z" transform="translate(-260.331 -927.477)" fill="#fff"></path></g><g transform="translate(160.576 165.188)"><path d="M1103.024,1301.459h.152a2.068,2.068,0,0,0,2.086-2.209l-8.29-82.78-7.232.645,11.9,83.225a1.346,1.346,0,0,0,1.381,1.119Z" transform="translate(-1010.695 -1113.178)" fill="#466988"></path><path d="M780.364,1301.459h-.152a2.068,2.068,0,0,1-2.086-2.209l8.29-82.78,7.232.645-11.9,83.225a1.346,1.346,0,0,1-1.382,1.119Z" transform="translate(-767.848 -1113.178)" fill="#3d6080"></path><path d="M1367.974,1301.459h.152a2.068,2.068,0,0,0,2.086-2.209l-8.29-82.78-7.232.645,11.9,83.225a1.346,1.346,0,0,0,1.381,1.119Z" transform="translate(-1217.17 -1113.178)" fill="#466988"></path><path d="M746.577,840.383,731.865,767.19c-1.889-9.91,6.264-18.972,16.846-18.727l28.376.654a22.444,22.444,0,0,1,21.02,16.3l21.525,74.969H746.577Z" transform="translate(-731.592 -748.458)" fill="#466988"></path><path d="M786.907,841.3,772.2,767.377c-1.889-10.008,6.264-19.161,16.846-18.914l28.376.66a22.484,22.484,0,0,1,21.02,16.462L859.962,841.3H786.907Z" transform="translate(-763.021 -748.458)" fill="#466988"></path><path d="M4.1,0H116.364a4.343,4.343,0,0,1,4.1,4.548V14.7H4.1A4.344,4.344,0,0,1,0,10.148v-5.6A4.345,4.345,0,0,1,4.1,0Z" transform="translate(135.448 104.501) rotate(180)" fill="#3d6080"></path><rect width="78.171" height="13.251" rx="6.626" transform="translate(146.635 104.501) rotate(180)" fill="#3d6080"></rect></g><g transform="translate(50.359 253.916)"><rect width="64.218" height="94.681" transform="translate(4.593 4.554)" fill="#597c9b"></rect><path d="M323.907,1152.056v2.478c0,.867-.28,1.576-.625,1.576H232.825c-.342,0-.625-.708-.625-1.576v-2.478c0-.868.28-1.576.625-1.576h90.458C323.624,1150.48,323.907,1151.191,323.907,1152.056Z" transform="translate(-232.2 -1150.48)" fill="#6f8ea9"></path><rect width="64.218" height="94.681" transform="translate(22.589 4.554)" fill="#7a96af"></rect><path d="M390.108,1152.056v2.478c0,.867-.258,1.576-.572,1.576H317.722c-.316,0-.572-.708-.572-1.576v-2.478c0-.868.258-1.576.572-1.576h71.813c.316,0,.572.711.572,1.576Z" transform="translate(-298.401 -1150.48)" fill="#9cb1c3"></path><g transform="translate(26.041 8.276)"><path d="M407.507,1273.77H350.19v-85.79h57.317Zm-56.7-.618h56.079V1188.6H350.808Z" transform="translate(-350.19 -1187.98)" fill="#a9c0d5"></path><rect width="56.699" height="0.618" transform="translate(0.309 28.38)" fill="#a9c0d5"></rect><rect width="56.699" height="0.618" transform="translate(0.309 57.312)" fill="#a9c0d5"></rect><path d="M465.93,1206.489H455.409a.932.932,0,0,1-.929-.929h0a.932.932,0,0,1,.929-.929H465.93a.932.932,0,0,1,.929.929h0A.932.932,0,0,1,465.93,1206.489Z" transform="translate(-431.463 -1200.955)" fill="#a9c0d5"></path><path d="M465.93,1334.688H455.409a.932.932,0,0,1-.929-.929h0a.932.932,0,0,1,.929-.929H465.93a.932.932,0,0,1,.929.929h0A.932.932,0,0,1,465.93,1334.688Z" transform="translate(-431.463 -1300.861)" fill="#a9c0d5"></path><path d="M465.93,1468.318H455.409a.932.932,0,0,1-.929-.929h0a.932.932,0,0,1,.929-.929H465.93a.932.932,0,0,1,.929.929h0A.932.932,0,0,1,465.93,1468.318Z" transform="translate(-431.463 -1404.999)" fill="#a9c0d5"></path></g></g><g transform="translate(166.68 92.116)"><path d="M1414.6,1485.276c-.344,3.335,4.295,4.2,9.673,4.522s3.741,1.41,11.1,2.825,10.338-.572,10.883-1.562c.485-.878-2.929-2.3-6.566-3.9-.459-.2-.916-.406-1.375-.611-4.094-1.852-6.361-5.566-9.53-9.02-3-3.271-5.776-13.672-5.776-13.672l-10-2.247s2.715,9.364,3.648,13.359c.55,2.35-.327,4.961-1.1,6.948a13.118,13.118,0,0,0-.958,3.361Z" transform="translate(-1268.722 -1231.142)" fill="#ff9d8c"></path><path d="M1429.818,1561.484c5.378.327,3.741,1.41,11.1,2.825s10.338-.572,10.883-1.562c.485-.878-2.929-2.3-6.566-3.9l-.057.062a20.986,20.986,0,0,1-11.172.013c-4.864-1.377-9.55-4.343-12.9-5.321a13.118,13.118,0,0,0-.958,3.361c-.344,3.335,4.3,4.2,9.674,4.522Z" transform="translate(-1274.27 -1302.83)" fill="#2c4963"></path><path d="M1011.06,938.428c-5.381-3.778-40.971-10.512-59.133-12.461L931.851,908.54s-17.087,25.308-17.224,44.67c-.064,9.029,4.094,9.925,4.1,9.927s64.355.477,67.175.768c4.617.477,10.708,11.98,12.229,22.457s28.358,53.088,28.358,53.088,5.6,1.792,8.184,1.642a8.187,8.187,0,0,0,4.072-1.095s-15.551-93.049-27.685-101.568Z" transform="translate(-880.334 -800.137)" fill="#2c4963"></path><path d="M1339.169,1485.276c-.344,3.335,4.295,4.2,9.673,4.522s3.741,1.41,11.1,2.825,10.338-.572,10.883-1.562c.485-.878-2.929-2.3-6.566-3.9-.457-.2-.916-.406-1.375-.611-4.094-1.852-6.36-5.566-9.53-9.02-3-3.271-5.776-13.672-5.776-13.672l-10-2.247s2.715,9.364,3.648,13.359c.549,2.35-.327,4.961-1.1,6.948a13.118,13.118,0,0,0-.958,3.361Z" transform="translate(-1209.94 -1231.142)" fill="#ff9d8c"></path><path d="M1354.4,1561.484c5.379.327,3.741,1.41,11.1,2.825s10.338-.572,10.883-1.562c.485-.878-2.929-2.3-6.566-3.9l-.057.062a20.986,20.986,0,0,1-11.172.013c-4.864-1.377-9.55-4.343-12.9-5.321a13.108,13.108,0,0,0-.958,3.361c-.344,3.335,4.295,4.2,9.674,4.522Z" transform="translate(-1215.495 -1302.83)" fill="#3b5b77"></path><path d="M934.97,938.428c-4.674-3.282-18.733-5.827-34.251-7.716a10.441,10.441,0,0,1-8.861-7.835h0l-36.1-14.337s-17.087,25.308-17.224,44.67c-.064,9.029,4.094,9.925,4.1,9.927s64.355.477,67.176.768c4.617.477,10.709,11.98,12.229,22.457S950.4,1039.45,950.4,1039.45s5.6,1.792,8.184,1.642a8.187,8.187,0,0,0,4.072-1.095S947.1,946.949,934.967,938.43Z" transform="translate(-821.038 -800.137)" fill="#3b5b77"></path><path d="M824.882,420.618c-4.959-2.6-12.507-2.957-13.734-3.121-14.672-1.971-23.5,19.349-24.024,25.809-.958,11.907-7.257,13.723-16.122,21.181-17.778,14.953-12.565,32.329-2.843,38.784,5.833,3.873,16.114,0,16.114,0,.146.1,28.118-15.637,41.905-23.229,20.671-2.938,11.344-52.786-1.3-59.425Z" transform="translate(-759.249 -417.369)" fill="#214565"></path><path d="M973.478,596.428c.064.033-6.52,3.028-11.274,1.457-4.471-1.472-8.409-8.2-8.347-8.215,1.94-.28,3.913-2.2,4.465-13.54l.859.216L973.63,580s-.572,4.577-.808,8.905c-.2,3.633-.159,7.091.653,7.524Z" transform="translate(-910.906 -541.091)" fill="#ff9d8c"></path><path d="M991,584.223s0,.942-.541,5.2c-8.173-2.061-11.775-4.772-14.317-7.872L991,584.223Z" transform="translate(-928.271 -545.315)" fill="#e58878"></path><path d="M977.026,484.645s-19.106,3.112-20.861-8.817-5.4-19.561,6.723-22.05,15.171,1.713,16.725,5.551,2.339,24.2-2.587,25.319Z" transform="translate(-911.217 -445.159)" fill="#ff9d8c"></path><path d="M958.734,446.606s-8.678,13.7-16.423,16.941-11.552,1.6-11.552,1.6a32.618,32.618,0,0,0,4.443-12.518,5.876,5.876,0,0,1,3.628-4.721c5.56-2.227,16.31-5.736,19.905-1.3Z" transform="translate(-892.907 -438.491)" fill="#214565"></path><path d="M1022.97,447.208s5.085,2.607,7.179,5.052c2.022,2.357,4.357,8.758,4.189,11.631,0,0,2.509-13.772-2.717-18.506C1026.079,440.366,1022.97,447.208,1022.97,447.208Z" transform="translate(-964.766 -437.768)" fill="#214565"></path><path d="M930.23,668.2c-.581,38.839-.159,30.722-4.407,34.408-1.024.887-3.9,1.417-7.689,1.666-11.909.79-32.843-1.172-33.64-3.372-2.748-7.614-.808-9.98-3.1-21.64-.238-1.24-.534-2.582-.881-4.043-1.911-8.007-3.77-10.733,3.008-23.6,6.149-11.653,13.377-21.119,13.953-20.779,16.219,9.629,16.776,1.558,16.776,1.558s16.266,16.855,15.981,35.8Z" transform="translate(-852.372 -583.718)" fill="#fff"></path><path d="M1039.61,637.94s16.6,2.814,18.561,10,13.494,49.431,13.494,49.431-8.484,1.525-12.4-2.395-13.64-36.365-13.64-36.365l-6.01-20.669Z" transform="translate(-977.733 -589.259)" fill="#fff"></path><path d="M927.488,818.168c-11.909.79-32.843-1.172-33.64-3.372-2.748-7.614-.808-9.98-3.1-21.64l5.745-16.175s-.949,18.012,4.361,22.75,21.748,9.146,24.33,13.1a14.54,14.54,0,0,1,2.3,5.334Z" transform="translate(-861.727 -697.613)" fill="#ebf6ff"></path><path d="M995.39,922.848s11.75-2.615,13.644-1.574,6.528,4.84,7.109,6.162-4.22-1-5.782-1.421c-1.011-.271-3.672.653-4.99,1.093-5.544,1.849-8.943.9-8.943.9l-1.037-5.156Z" transform="translate(-943.273 -809.87)" fill="#ff9d8c"></path><path d="M826.2,630.88s-16.628.971-22.09,8.59c-7.687,10.722-22.938,56.418-14.2,62.512,9.843,6.864,44.8,1.8,44.8,1.8s1.163-5.436-.455-8.067-27.919-6.879-29.133-8.093,15.173-23.671,15.173-27.312S826.2,630.88,826.2,630.88Z" transform="translate(-781.1 -583.757)" fill="#fff"></path><path d="M1059.79,936.96s2.461,3.176,3.269,3.556a2.4,2.4,0,0,0,1.328.285l-1.66-2.986Z" transform="translate(-993.46 -822.284)" fill="#ff9d8c"></path><path d="M1057.21,922.14l7.157,3.476a1.275,1.275,0,0,1-1.185.459,17.04,17.04,0,0,1-3.105-.854Z" transform="translate(-991.449 -810.735)" fill="#ff9d8c"></path></g><g transform="translate(225.566 175.557)"><path d="M1059.3,950.121H1026.06a2.651,2.651,0,0,1,2.651-2.651H1059.3Z" transform="translate(-1026.06 -913.916)" fill="#d9e1e8"></path><path d="M1131.54,795.44h51.4l-12.328,36.2H1118.88Z" transform="translate(-1098.394 -795.44)" fill="#d9e1e8"></path><path d="M1186.357,795.44l-12.328,36.2H1122.3l12.662-36.2Z" transform="translate(-1101.06 -795.44)" fill="#fafbfc"></path><path d="M1269.065,867.095a3.342,3.342,0,0,1-3.083,2.505,1.928,1.928,0,0,1-1.927-2.505,3.342,3.342,0,0,1,3.083-2.5A1.929,1.929,0,0,1,1269.065,867.095Z" transform="translate(-1211.477 -849.328)" fill="#fff"></path><g transform="matrix(0.998, 0.07, -0.07, 0.998, 45.042, 14.374)" opacity="0.87"><circle cx="1.343" cy="1.343" r="1.343" transform="translate(1.44 0.723)" fill="#1241ff"></circle><path d="M1.366,2.105c.154.431.492.446.566.758.108.464-.539.861-.379,1.128.069.116.269.174.529.254a.617.617,0,0,1,.348.178.313.313,0,0,1,.077.188c0,.253-.464.486-.618.377-.058-.043-.042-.116-.067-.217-.108-.429-.779-.4-.884-.715-.126-.376.729-.748.611-1.268a6.538,6.538,0,0,0-.316-.606.89.89,0,0,0-.168-.248,1.085,1.085,0,0,0-.5-.221c-.134-.04-.329-.1-.565-.188C.018,1.39.042,1.248.072,1.1A6.1,6.1,0,0,1,.411,0,1.813,1.813,0,0,0,.632.888a1.645,1.645,0,0,0,.348.436,1.531,1.531,0,0,0,.341.223,1.13,1.13,0,0,0,.046.559Z" transform="translate(0.585 5.017)" fill="#1241ff"></path><path d="M1.033,0a1.742,1.742,0,0,0,.2.041,1.878,1.878,0,0,0,.285.022L1.422.63.857.679q.094.621.188,1.241l-.232.526a.743.743,0,0,1-.184-.2.893.893,0,0,1-.111-.493A2.624,2.624,0,0,1,.663.892L0,.691A.745.745,0,0,1,.314.366C.578.229.853.327.981.152A.3.3,0,0,0,1.033,0Z" transform="translate(1.319 3.401)" fill="#1241ff"></path><path d="M.175,0,.8.2A1.366,1.366,0,0,0,.86,1.624a1.159,1.159,0,0,0,.348.2c.409.148.647-.021.775.122s.035.491-.143.7c-.152.174-.439.326-.6.232s-.058-.4-.285-.555C.864,2.248.823,2.283.672,2.2a1,1,0,0,1-.319-.28A1.9,1.9,0,0,1,.035.444,1.96,1.96,0,0,1,.175,0Z" transform="translate(1.096 4.168)" fill="#1241ff"></path><path d="M.58,0A.637.637,0,0,0,.6.344.793.793,0,0,0,.789.6a1.388,1.388,0,0,1,.39.6.662.662,0,0,1-.015.317c-.064.209-.217.3-.41.464a2.454,2.454,0,0,0-.56.618.975.975,0,0,0-.121.894.646.646,0,0,0,.319.265l1.637-.008a.564.564,0,0,0,.29-.43.432.432,0,0,0-.087-.242c-.128-.177-.283-.134-.536-.3-.107-.072-.3-.2-.309-.377,0-.1.049-.154.217-.357.438-.529.478-.637.469-.739A1.042,1.042,0,0,0,1.936.976a3,3,0,0,0-.183-.3A1.508,1.508,0,0,0,1.516.362a.893.893,0,0,0-.362-.15A4.587,4.587,0,0,1,.58,0Z" transform="translate(0 6.615)" fill="#1241ff"></path><circle cx="1.328" cy="1.328" r="1.328" transform="translate(18.2 0)" fill="#1241ff"></circle><path d="M.843,0a1.3,1.3,0,0,0,.235.025A1.363,1.363,0,0,0,1.292.011,2.3,2.3,0,0,0,1.277.25c0,.111.006.13.005.156V.424A3.9,3.9,0,0,1,.837.9a1.22,1.22,0,0,1-.016.316,1.5,1.5,0,0,1-.665.934Q.078,1.606,0,1.061A1.224,1.224,0,0,1,.446.518.769.769,0,0,0,.8.2.5.5,0,0,0,.843,0Z" transform="translate(18.342 2.727)" fill="#1241ff"></path><path d="M2.274,0,1.992.283,1.782.489a1.183,1.183,0,0,1-.014.369,1.234,1.234,0,0,1-.3.591,1.076,1.076,0,0,1-.7.409C.494,1.874.4,1.721.237,1.8a.539.539,0,0,0-.223.591.574.574,0,0,0,.5.438.529.529,0,0,0,.326-.09.643.643,0,0,0,.272-.442,4.963,4.963,0,0,0,.615-.436,3.377,3.377,0,0,0,.37-.338c.164-.18.684-.749.508-1.191A.625.625,0,0,0,2.274,0Z" transform="translate(17.457 3.194)" fill="#1241ff"></path><path d="M1.677,0,.612.837c.006.144.012.29.018.431q-.174.038-.358.072C.18,1.358.089,1.373,0,1.388a2.915,2.915,0,0,0,1.148.485l0-.652c.008-.043.019-.107.038-.183A2.905,2.905,0,0,1,1.421.453,5.057,5.057,0,0,1,1.677,0Z" transform="translate(18.029 4.726)" fill="#1241ff"></path><path d="M.981,0A.778.778,0,0,0,1.1.094a.8.8,0,0,0,.145.072,4.112,4.112,0,0,0,.044.49,6.043,6.043,0,0,0,.217.843c.17.608.255.912.163,1.121-.187.428-.764.406-.91.905A.77.77,0,0,0,.731,3.8a.882.882,0,0,1-.464-.094C.188,3.667,0,3.568,0,3.434c0-.042.019-.108.2-.238C.5,2.981.671,3,.876,2.848a.968.968,0,0,0,.3-.381c.1-.217.041-.34-.093-1.183A6.608,6.608,0,0,1,.978.32C.974.184.976.073.981,0Z" transform="translate(17.042 6.164)" fill="#1241ff"></path><path d="M.534,0A4.809,4.809,0,0,0,.672.775c.179.678.442,1.083.275,1.537a.82.82,0,0,1-.073.147,1.087,1.087,0,0,1-.391.315c-.232.15-.348.224-.413.34a.55.55,0,0,0,0,.536c.162.227.613.154,1.514.008.442-.072.569-.122.659-.239.226-.294.034-.762,0-.84-.15-.316-.3-.654-.442-1.014-.183-.458-.336-.9-.464-1.311Z" transform="translate(17.861 6.453)" fill="#1241ff"></path><path d="M0,.174,1.188,0q.355,2.2.71,4.39L.681,4.579.449,3.1a.9.9,0,0,0,.429-.38.593.593,0,0,0,.086-.5.616.616,0,0,0-.688-.266Z" transform="translate(2.256 3.954)" fill="#d9d999"></path><path d="M0,0,.652.326.818,1.1l-.449.07q.089.606.174,1.213l.5-.072c0,.033.009.065.014.1L.56,2.5q.131.9.263,1.8l-.138.043Q.344,2.173,0,0Z" transform="translate(3.524 3.983)" fill="#d9d999"></path><path d="M0,2.12,12.677,0l.333,1.71L.285,3.825Q.142,2.972,0,2.12Z" transform="translate(4.159 4.433)" fill="#d9d999"></path><path d="M0,1.906.021,2,11.585.1c-.006-.034-.013-.068-.02-.1Z" transform="translate(4.641 4.376)" fill="#d9d999"></path><path d="M0,.557.572,0q.378,2.165.757,4.331l-.1.021L.933,2.58.3,2.689c-.006-.033-.011-.065-.016-.1l.629-.1q-.116-.651-.227-1.3L.112,1.3Z" transform="translate(15.99 1.774)" fill="#d9d999"></path><path d="M0,2.163q.086.535.174,1.07l12.693-2.1L12.656,0Z" transform="translate(3.957 3.067)" fill="#d9d999"></path><path d="M0,.191,1.206,0q.273,1.681.546,3.356a.538.538,0,0,1-.224.053c-.174,0-.217-.088-.374-.084A.479.479,0,0,0,.83,3.47a.5.5,0,0,0-.116.272A.7.7,0,0,0,.777,4.2a.682.682,0,0,0,.294.286L.7,4.532Q.353,2.361,0,.191Z" transform="translate(16.678 1.557)" fill="#d9d999"></path><path d="M.217,0V.277L0,.282C.035.245.072.2.11.154S.187.048.217,0Z" transform="translate(18.373 5.679)" fill="#d9d999"></path><path d="M0,1.857q.19,1.09.378,2.18l11.56-1.985L11.591,0Z" transform="translate(4.038 1.035)" fill="#d9d999"></path><path d="M.075,1.287C.2,1.911.245,2.4.384,2.416A.787.787,0,0,0,.493,2.4c.152-.021.168-.041.174-.05.025-.043-.02-.113-.034-.136a.978.978,0,0,1-.1-.763c.1-.2.406-.31.522-.223.148.116.079.673.1.961a.116.116,0,0,0,.036.087c.023.016.067.008.155-.01s.15-.03.167-.054a.134.134,0,0,0,.014-.106,6.973,6.973,0,0,0-.372-1.9A.31.31,0,0,0,1.015.027C.9-.031.72.012.691.094S.781.219.884.422c.025.049.159.313.07.413C.9.9.792.827.624.9.5.955.466,1.051.419,1.033.4,1.028.376,1.008.365.78s0-.419,0-.419C.372.228.377.191.347.157a.218.218,0,0,0-.273,0C0,.22,0,.356,0,.451A7.823,7.823,0,0,0,.075,1.287Z" transform="translate(4.646 2.44)" fill="#e40000"></path><path d="M1.1,1.522A3.784,3.784,0,0,1,.968.768,1.467,1.467,0,0,0,.893.363.576.576,0,0,0,.6.034.464.464,0,0,0,.111.121a.379.379,0,0,0-.1.353A.167.167,0,0,0,.089.587a.1.1,0,0,0,.1,0C.228.556.188.494.217.428a.228.228,0,0,1,.261-.1A.206.206,0,0,1,.612.451.2.2,0,0,1,.6.592C.567.677.494.693.4.757a.709.709,0,0,0-.256.286.584.584,0,0,0-.037.338.479.479,0,0,0,.081.2.456.456,0,0,0,.174.148.87.87,0,0,0,.39.024c.012,0,.106-.017.294-.05.039-.007.08-.015.1-.046S1.115,1.546,1.1,1.522ZM.777,1.449c-.022.021-.058.022-.123.024a.275.275,0,0,1-.162-.024.214.214,0,0,1-.085-.133A.33.33,0,0,1,.492,1,.174.174,0,0,1,.625.935a.167.167,0,0,1,.116.075c.033.045.029.075.046.256C.8,1.391.8,1.424.777,1.449Z" transform="translate(6.221 2.751)" fill="#e40000"></path><path d="M.032.169A.282.282,0,0,0,.015.391c.069.3.1.606.15.908.046.264.086.593.186.606A.589.589,0,0,0,.457,1.9c.107-.015.108-.01.116-.017C.631,1.838.519,1.651.448,1.4A2.078,2.078,0,0,1,.382.818c0-.2.013-.325.087-.36A.145.145,0,0,1,.52.449.258.258,0,0,1,.669.5c.157.113.218.927.217,1.275a.078.078,0,0,0,.019.058c.016.013.034.009.133-.008.067-.011.09-.014.109-.036a.1.1,0,0,0,.02-.045C1.189,1.628,1,.658,1.041.452A.142.142,0,0,1,1.09.363.167.167,0,0,1,1.225.347c.19.049.252.573.273.746a3.626,3.626,0,0,1,.021.584l.142.008c.071,0,.1.005.126-.014A.1.1,0,0,0,1.818,1.6,2.948,2.948,0,0,0,1.594.291C1.553.2,1.484.048,1.345.009A.253.253,0,0,0,1.277,0C1.092,0,1.04.188.9.181.823.176.814.116.7.111A.258.258,0,0,0,.567.132C.514.158.51.187.443.233.4.264.349.3.319.281.271.256.332.133.278.086S.09.082.032.169Z" transform="translate(7.348 2.487)" fill="#e40000"></path><path d="M.994.734A1.25,1.25,0,0,0,.845.275.56.56,0,0,0,.5.008a.431.431,0,0,0-.464.2C-.028.34,0,.531.081.566A.116.116,0,0,0,.168.56C.236.529.226.457.284.394a.224.224,0,0,1,.2-.067A.221.221,0,0,1,.646.515C.655.7.315.713.178.993a.6.6,0,0,0,.13.7.676.676,0,0,0,.424.081,2.012,2.012,0,0,0,.281-.05c.07-.014.124-.028.14-.067a.116.116,0,0,0-.019-.093A6.64,6.64,0,0,1,.994.734Zm-.442.743a.232.232,0,0,1-.116-.159A.342.342,0,0,1,.553.93.178.178,0,0,1,.7.921c.074.035.088.131.1.206s.041.268-.072.34A.19.19,0,0,1,.553,1.478Z" transform="translate(9.201 2.266)" fill="#e40000"></path><path d="M.02.138A.182.182,0,0,0,.005.263,15.3,15.3,0,0,0,.193,2.537a.3.3,0,0,0,.1.174c.1.074.221.042.429,0,.491-.1.767-.116.775-.21a.527.527,0,0,0-.014-.058,1.593,1.593,0,0,0-.058-.168c-.077-.212-.116-.318-.178-.323-.091-.008-.11.193-.309.28a.341.341,0,0,1-.261.014A.363.363,0,0,1,.505,2.01,7.416,7.416,0,0,1,.452.112.123.123,0,0,0,.423.02C.378-.021.292.008.182.044.095.075.046.091.02.138Z" transform="translate(10.369 1.147)" fill="#e40000"></path><path d="M.063.079a.3.3,0,0,0-.05.276A.327.327,0,0,0,.087.5.22.22,0,0,0,.252.584.2.2,0,0,0,.4.5.29.29,0,0,0,.45.294C.445.211.4.031.269,0A.237.237,0,0,0,.063.079Z" transform="translate(11.954 3.119)" fill="#e40000"></path><path d="M.027.264A.152.152,0,0,0,0,.368a10.7,10.7,0,0,0,.25,1.985A.177.177,0,0,0,.3,2.433a.322.322,0,0,0,.295.018.085.085,0,0,0,.058-.023c.037-.042,0-.129-.011-.161A3.535,3.535,0,0,1,.346.828C.349.817.359.786.38.781S.425.8.438.816a2.333,2.333,0,0,1,.315.631c.073.232.112.356.21.38a.107.107,0,0,0,.069,0c.121-.049.05-.371.121-.9.023-.174.052-.3.1-.307.025,0,.048.03.058.044a5.868,5.868,0,0,1,.163,1.51.144.144,0,0,0,.046.1c.069.058.2.005.228-.005a.464.464,0,0,0,.076-.038C2.05,2.077,1.642.5,1.517.125A.183.183,0,0,0,1.437.017c-.1-.053-.232.036-.24.042A.438.438,0,0,0,1.04.287C.906.634.919.836.854.846.811.853.782.766.647.571.561.445.433.255.289.212A.293.293,0,0,0,.22.2.244.244,0,0,0,.027.264Z" transform="translate(12.392 1.069)" fill="#e40000"></path><path d="M.8.09A.69.69,0,0,0,.069.116c-.133.137-.05.312.043,1,.1.759.074,1.067.275,1.156a.735.735,0,0,0,.4-.019,1.4,1.4,0,0,0,.442-.141C1.632,1.835,1.517.435.8.09ZM.943,1.861a.283.283,0,0,1-.265,0c-.126-.069-.13-.219-.188-.579C.392.677.3.45.428.355A.2.2,0,0,1,.551.318c.26,0,.464.464.522.79.014.073.115.617-.131.753Z" transform="translate(14.27 0.927)" fill="#e40000"></path></g></g><g transform="translate(204.594 211.761)"><path d="M967.945,959.48h225.226a1.715,1.715,0,0,1,1.715,1.715v4.714a1.715,1.715,0,0,1-1.715,1.715H967.945a1.715,1.715,0,0,1-1.715-1.715v-4.714A1.715,1.715,0,0,1,967.945,959.48Z" transform="translate(-958.462 -959.48)" fill="#6f8ea9"></path><path d="M1929.446,1116.427l.1-.011a2.068,2.068,0,0,0,1.825-2.3L1911.3,978.26l-7.347.21,23.615,136.591a1.689,1.689,0,0,0,1.883,1.366Z" transform="translate(-1689.224 -974.115)" fill="#6f8ea9"></path><path d="M932.973,1116.427l-.1-.011a2.068,2.068,0,0,1-1.825-2.3L951.121,978.26l7.347.21-23.615,136.591a1.688,1.688,0,0,1-1.883,1.366Z" transform="translate(-931.034 -974.115)" fill="#6f8ea9"></path><path d="M1143.5,1116.427l-.1-.011a2.068,2.068,0,0,1-1.825-2.3l20.071-135.856,7.347.21-23.615,136.591a1.689,1.689,0,0,1-1.883,1.366Z" transform="translate(-1095.099 -974.115)" fill="#6f8ea9"></path></g><rect width="547.829" height="2.403" rx="1.202" transform="translate(17.444 352.791)" fill="#6389ab"></rect><g transform="translate(353.802 78.868)"><path d="M1686.842,1531.872h39.826c1.916-2.337,1.209-10.963.92-13.781-.06-.567-.1-.9-.1-.9s-13.6-10.879-15.469-2.549c-.057.26-.126.516-.2.768-2.353,7.791-12.911,11.331-19.007,12.318-3.964.642-5.427,2.7-5.97,4.14Z" transform="translate(-1669.239 -1256.777)" fill="#0d3558"></path><path d="M1876.967,1017.43c-1.437,0-68.222,12.538-79.268,26.213-5.518,6.831-6.339,85.724-6.339,85.724s6.827,8.464,21.572,3.549c0,0,10.81-53.978,10.013-70.347-.221-4.527,45.631-.656,54.022-2.827s28.9-20.428,24.379-29.32S1876.967,1017.43,1876.967,1017.43Z" transform="translate(-1750.691 -871.747)" fill="#1b507e"></path><path d="M1733.584,929.9s-13.472.181-16.657,1.547-9.649,4.5-7.919,4.981,9.982-.2,11.766.075a29.979,29.979,0,0,0,5.074-.075h6.187Z" transform="translate(-1686.289 -803.535)" fill="#ff9d8c"></path><path d="M1653.541,720.07s-4.593-3.282-9.053-3.92a39.149,39.149,0,0,1-6.511-1.344c-4.116-1.45-12.351-8.855-11.726-9.722,2-2.783,11.611,3.108,13.289,2.474s-3.225-4.118-1.521-5.345c.892-.64,2.975,2.569,4.677,2.891,2.3.437,4.1,3.69,4.8,3.86,1.351.331,7.266,4.73,7.266,4.73l-1.218,6.374Z" transform="translate(-1621.996 -626.034)" fill="#ff9d8c"></path><path d="M1888.238,609.752s-10.254,3.178-20.358,31-13.94,29.325-17.612,30.415-35.908,7.51-35.908,7.51v8.256h49.669s18.625-17.718,24.209-29.645,0-47.54,0-47.54Z" transform="translate(-1768.615 -554.043)" fill="#0a6cc2"></path><path d="M1607.092,1531.872h39.826c1.916-2.337,1.209-10.963.92-13.781-.059-.567-.1-.9-.1-.9s-13.6-10.879-15.469-2.549c-.058.26-.126.516-.2.768-2.353,7.791-12.911,11.331-19.007,12.318-3.964.642-5.427,2.7-5.97,4.14Z" transform="translate(-1607.09 -1256.777)" fill="#154065"></path><path d="M1787.807,1017.43c-1.439,0-68.222,12.538-79.268,26.213-5.518,6.831-6.339,85.724-6.339,85.724s6.828,8.464,21.572,3.549c0,0,10.81-53.978,10.013-70.347-.221-4.527,45.63-.656,54.022-2.827s28.9-20.428,24.379-29.32S1787.807,1017.43,1787.807,1017.43Z" transform="translate(-1681.209 -871.747)" fill="#23649d"></path><path d="M2094.267,523.589a64.866,64.866,0,0,0,14.2-3.09c5.443-1.766,9.828-4.348,7-9.32-2.6-4.584-6.822-14.825-6.537-23.309l-10.126,8.162-6.879,5.542a82.435,82.435,0,0,0,.781,9c.136,1.044.3,2.172.487,3.374a2.453,2.453,0,0,1-1.13,2.463c-.053.033-.1.064-.155.1a3.841,3.841,0,0,0,2.364,7.085Z" transform="translate(-1983.492 -459.063)" fill="#ff9d8c"></path><path d="M2098.032,528.806s-.351,1.187.254,5.568c6.133-1,11.865-5.893,11.865-5.893-3.123-.856-4.258-4.231-6.583-3.915Z" transform="translate(-1989.601 -487.644)" fill="#e58878"></path><path d="M2056.432,410.577s23.589,3.92,25.8-10.81,6.752-24.141-8.217-27.266-18.747,2.055-20.68,6.791-2.986,29.885,3.094,31.285Z" transform="translate(-1953.675 -368.415)" fill="#ff9d8c"></path><path d="M2042.2,361.7c-1.013,3.547,1.7,7.866,6.248,9.289,6.756,2.11,5.262,10.4,8.3,10.285s4.266-4.763,6.981-1.048c2.315,3.169-1.927,6.926-1.635,8.665.5,2.984,5.175,9.089,9.387,8.782s12.092-20.322,10.516-26.515-7.881-12.724-13.849-13.624-14.255,1.675-16.169,1.675-9.236.574-9.784,2.49Z" transform="translate(-1946.007 -357.345)" fill="#214565"></path><path d="M2082.952,603.121c-3.41-13.723-12.834-28.122-19.205-28.111-10.859.02-26.467,2.887-32.768,18.433-4.641,11.45-10.832,77.315-3.836,82,15.994,10.708,53.07,32.567,59.656,10.276,6.034-20.426,2.07-58.778-3.849-82.6Z" transform="translate(-1931.982 -526.97)" fill="#047ae2"></path><path d="M1814.611,611.345a12.859,12.859,0,0,0-19.9-5.542,121.663,121.663,0,0,0-13.648,12.754c-20.263,21.578-24.381,21.444-28.186,21s-35.957-7.27-35.957-7.27a9.715,9.715,0,0,0-2.615,3.178,5.992,5.992,0,0,0-.642,4.41c-1.26-.814,11.4,7.91,17.7,11.388,8.32,4.593,20.856,8.9,25.849,10.536a6.673,6.673,0,0,0,4.344-.064c7.411-2.67,32.3-12.406,52.558-29.294,5.339-4.449,3.377-13.622.505-21.093Z" transform="translate(-1690.013 -548.851)" fill="#047ae2"></path><path d="M2109.622,556.057l-2.458-5.537s-22,1.794-25.7,14.317c0,0,17.056-8.513,28.159-8.78Z" transform="translate(-1976.765 -507.885)" fill="#fff"></path></g><g transform="translate(415.077 165.577)"><path d="M2404.214,1301.459h.152a2.068,2.068,0,0,0,2.086-2.209l-8.289-82.78-7.233.645,11.9,83.225a1.345,1.345,0,0,0,1.381,1.119Z" transform="translate(-2279.209 -1113.567)" fill="#466988"></path><path d="M2210.912,1301.459h.153a2.068,2.068,0,0,0,2.085-2.209l-8.288-82.78-7.232.645,11.9,83.225a1.345,1.345,0,0,0,1.381,1.119Z" transform="translate(-2128.571 -1113.567)" fill="#466988"></path><path d="M1886.974,1301.459h-.152a2.068,2.068,0,0,1-2.086-2.209l8.29-82.78,7.232.645-11.9,83.225a1.346,1.346,0,0,1-1.382,1.119Z" transform="translate(-1884.726 -1113.567)" fill="#3d6080"></path><path d="M2183.5,841.395l7.866-69.138c1.031-9.963-2.3-19.72-16.681-20.475l-25.294-1.54c-14.993-.618-21.76,11.858-23.657,21.463l-15.017,76,72.781-6.312Z" transform="translate(-2060.842 -750.22)" fill="#466988"></path><path d="M1898.211,1161.91h116.364v9.15a4.1,4.1,0,0,1-4.1,4.1H1898.211a4.1,4.1,0,0,1-4.1-4.1v-5.05A4.1,4.1,0,0,1,1898.211,1161.91Z" transform="translate(-1892.039 -1071.048)" fill="#3d6080"></path><path d="M2113.915,1161.91h69.471v10.066a3.188,3.188,0,0,1-3.185,3.185h-66.286a3.187,3.187,0,0,1-3.185-3.185v-6.882A3.188,3.188,0,0,1,2113.915,1161.91Z" transform="translate(-2060.85 -1071.048)" fill="#466988"></path></g></g></g></svg>