<svg xmlns="http://www.w3.org/2000/svg" width="130.735" height="155.714" viewBox="0 0 130.735 155.714"><g transform="translate(-766.99 -870.5)"><path d="M3662,1005.631a1.5,1.5,0,0,1-.61-2.871c.058-.026,5.9-2.63,14.5-7,7.931-4.032,19.9-10.435,31.863-18.044,13.406-8.525,24.074-16.792,31.709-24.571,9.357-9.533,14.1-18.279,14.1-25.993a36.874,36.874,0,0,0-5.415-19.875,118.973,118.973,0,0,1-13.252,17.616,51.635,51.635,0,0,1-9.049,7.85,23.911,23.911,0,0,1-9.637,3.937,27.93,27.93,0,0,1-8.362-.01,22.465,22.465,0,0,1-7.026-2.331,21.437,21.437,0,0,1-9.292-9.8,23.781,23.781,0,0,1-2.12-7.276,25.056,25.056,0,0,1,.237-7.764,26.289,26.289,0,0,1,8.094-14.471,24.612,24.612,0,0,1,7.544-4.727,31.728,31.728,0,0,1,9.036-2.141,38.4,38.4,0,0,1,9.744.376,40.953,40.953,0,0,1,9.7,2.867,38.285,38.285,0,0,1,14.153,10.516l.231-.386a261.2,261.2,0,0,0,15.25-30.107,1.5,1.5,0,1,1,2.773,1.145,264.648,264.648,0,0,1-15.448,30.5q-.427.715-.854,1.416a36.664,36.664,0,0,1,4.882,10.119,42.755,42.755,0,0,1,1.8,12.543,29.389,29.389,0,0,1-4.19,14.267,67.294,67.294,0,0,1-10.781,13.838c-7.8,7.944-18.652,16.357-32.257,25.007-12.069,7.674-24.127,14.125-32.117,18.186-8.659,4.4-14.553,7.027-14.612,7.053A1.5,1.5,0,0,1,3662,1005.631ZM3717.7,891c-7.005,0-13.5,2.123-17.912,6.223a22.368,22.368,0,0,0-5.546,26.021c3.786,7.936,11.84,11.847,21.547,10.46,8.9-1.272,19.408-11.311,30.493-29.1a34.737,34.737,0,0,0-13.707-10.457A37.478,37.478,0,0,0,3717.7,891Z" transform="translate(-2868.572)" fill="#047ae2"></path><path d="M14.937,0,29.873,24.128H0Z" transform="translate(779.615 1026.214) rotate(-115)" fill="#047ae2"></path></g></svg>